%TF.GenerationSoftware,KiCad,Pcbnew,8.0.1*%
%TF.CreationDate,2024-08-04T15:08:54+01:00*%
%TF.ProjectId,driver_module,64726976-6572-45f6-9d6f-64756c652e6b,1*%
%TF.SameCoordinates,Original*%
%TF.FileFunction,Soldermask,Top*%
%TF.FilePolarity,Negative*%
%FSLAX46Y46*%
G04 Gerber Fmt 4.6, Leading zero omitted, Abs format (unit mm)*
G04 Created by KiCad (PCBNEW 8.0.1) date 2024-08-04 15:08:54*
%MOMM*%
%LPD*%
G01*
G04 APERTURE LIST*
G04 Aperture macros list*
%AMRoundRect*
0 Rectangle with rounded corners*
0 $1 Rounding radius*
0 $2 $3 $4 $5 $6 $7 $8 $9 X,Y pos of 4 corners*
0 Add a 4 corners polygon primitive as box body*
4,1,4,$2,$3,$4,$5,$6,$7,$8,$9,$2,$3,0*
0 Add four circle primitives for the rounded corners*
1,1,$1+$1,$2,$3*
1,1,$1+$1,$4,$5*
1,1,$1+$1,$6,$7*
1,1,$1+$1,$8,$9*
0 Add four rect primitives between the rounded corners*
20,1,$1+$1,$2,$3,$4,$5,0*
20,1,$1+$1,$4,$5,$6,$7,0*
20,1,$1+$1,$6,$7,$8,$9,0*
20,1,$1+$1,$8,$9,$2,$3,0*%
G04 Aperture macros list end*
%ADD10C,3.900000*%
%ADD11R,2.000000X2.000000*%
%ADD12C,2.000000*%
%ADD13RoundRect,0.250000X0.262500X0.450000X-0.262500X0.450000X-0.262500X-0.450000X0.262500X-0.450000X0*%
%ADD14RoundRect,0.200000X-0.275000X0.200000X-0.275000X-0.200000X0.275000X-0.200000X0.275000X0.200000X0*%
%ADD15RoundRect,0.250000X0.250000X0.475000X-0.250000X0.475000X-0.250000X-0.475000X0.250000X-0.475000X0*%
%ADD16RoundRect,0.250000X1.000000X0.650000X-1.000000X0.650000X-1.000000X-0.650000X1.000000X-0.650000X0*%
%ADD17RoundRect,0.250000X0.325000X0.650000X-0.325000X0.650000X-0.325000X-0.650000X0.325000X-0.650000X0*%
%ADD18R,0.610000X1.270000*%
%ADD19R,3.910000X3.810000*%
%ADD20R,0.610000X1.020000*%
%ADD21C,5.500000*%
%ADD22C,5.200000*%
%ADD23R,1.270000X0.610000*%
%ADD24R,3.810000X3.910000*%
%ADD25R,1.020000X0.610000*%
%ADD26RoundRect,0.250000X0.362500X1.425000X-0.362500X1.425000X-0.362500X-1.425000X0.362500X-1.425000X0*%
%ADD27RoundRect,0.250000X-0.475000X0.250000X-0.475000X-0.250000X0.475000X-0.250000X0.475000X0.250000X0*%
%ADD28R,3.800000X2.000000*%
%ADD29RoundRect,0.250000X-1.000000X-0.650000X1.000000X-0.650000X1.000000X0.650000X-1.000000X0.650000X0*%
%ADD30R,1.700000X1.700000*%
%ADD31O,1.700000X1.700000*%
%ADD32C,0.700000*%
G04 APERTURE END LIST*
D10*
%TO.C,H1*%
X175300000Y-103800000D03*
%TD*%
D11*
%TO.C,C6*%
X174500000Y-87200000D03*
D12*
X179500000Y-87200000D03*
%TD*%
D13*
%TO.C,R86*%
X152032450Y-115241269D03*
X150207450Y-115241269D03*
%TD*%
D14*
%TO.C,TH1*%
X138009999Y-92300000D03*
X138009999Y-93950000D03*
%TD*%
D15*
%TO.C,C106*%
X148818732Y-103519951D03*
X146918732Y-103519951D03*
%TD*%
D16*
%TO.C,D9*%
X127696268Y-90540050D03*
X123696268Y-90540050D03*
%TD*%
D17*
%TO.C,C77*%
X153109950Y-105816268D03*
X150159950Y-105816268D03*
%TD*%
D10*
%TO.C,H6*%
X117500000Y-108000000D03*
%TD*%
%TO.C,H7*%
X175300000Y-96200000D03*
%TD*%
D13*
%TO.C,R91*%
X152243768Y-103400051D03*
X150418768Y-103400051D03*
%TD*%
D18*
%TO.C,AL2*%
X146989950Y-107966767D03*
X145719950Y-107966767D03*
X144449950Y-107966767D03*
X143179950Y-107966767D03*
D19*
X145084950Y-111326767D03*
D20*
X146989950Y-113431767D03*
X145719950Y-113431767D03*
X144449950Y-113431767D03*
X143179950Y-113431767D03*
%TD*%
D21*
%TO.C,J21*%
X159900000Y-100000000D03*
X167100000Y-100000000D03*
%TD*%
D15*
%TO.C,C101*%
X148591269Y-115250050D03*
X146691269Y-115250050D03*
%TD*%
D10*
%TO.C,H5*%
X117500000Y-92000000D03*
%TD*%
D13*
%TO.C,R88*%
X152221232Y-91679950D03*
X150396232Y-91679950D03*
%TD*%
D22*
%TO.C,J19*%
X124650000Y-97250000D03*
X124650000Y-102750000D03*
X129410000Y-100000000D03*
%TD*%
D18*
%TO.C,BL2*%
X147189948Y-96126268D03*
X145919948Y-96126268D03*
X144649948Y-96126268D03*
X143379948Y-96126268D03*
D19*
X145284948Y-99486268D03*
D20*
X147189948Y-101591268D03*
X145919948Y-101591268D03*
X144649948Y-101591268D03*
X143379948Y-101591268D03*
%TD*%
D15*
%TO.C,C102*%
X141608731Y-116249950D03*
X139708731Y-116249950D03*
%TD*%
D23*
%TO.C,BH2*%
X149014950Y-97691268D03*
X149014950Y-98961268D03*
X149014950Y-100231268D03*
X149014950Y-101501268D03*
D24*
X152374950Y-99596268D03*
D25*
X154479950Y-97691268D03*
X154479950Y-98961268D03*
X154479950Y-100231268D03*
X154479950Y-101501268D03*
%TD*%
D23*
%TO.C,CH2*%
X148764951Y-86011269D03*
X148764951Y-87281269D03*
X148764951Y-88551269D03*
X148764951Y-89821269D03*
D24*
X152124951Y-87916269D03*
D25*
X154229951Y-86011269D03*
X154229951Y-87281269D03*
X154229951Y-88551269D03*
X154229951Y-89821269D03*
%TD*%
D18*
%TO.C,CL2*%
X147039950Y-84446268D03*
X145769950Y-84446268D03*
X144499950Y-84446268D03*
X143229950Y-84446268D03*
D19*
X145134950Y-87806268D03*
D20*
X147039950Y-89911268D03*
X145769950Y-89911268D03*
X144499950Y-89911268D03*
X143229950Y-89911268D03*
%TD*%
D13*
%TO.C,R87*%
X145071231Y-116219950D03*
X143246231Y-116219950D03*
%TD*%
D17*
%TO.C,C79*%
X153209951Y-93866267D03*
X150259951Y-93866267D03*
%TD*%
D13*
%TO.C,R90*%
X145243768Y-103525050D03*
X143418768Y-103525050D03*
%TD*%
%TO.C,R89*%
X145371232Y-91729950D03*
X143546232Y-91729950D03*
%TD*%
D23*
%TO.C,AH2*%
X148739950Y-109541268D03*
X148739950Y-110811268D03*
X148739950Y-112081268D03*
X148739950Y-113351268D03*
D24*
X152099950Y-111446268D03*
D25*
X154204950Y-109541268D03*
X154204950Y-110811268D03*
X154204950Y-112081268D03*
X154204950Y-113351268D03*
%TD*%
D26*
%TO.C,R114*%
X141452451Y-85481268D03*
X135527451Y-85481268D03*
%TD*%
D27*
%TO.C,C105*%
X141544949Y-103581268D03*
X141544949Y-105481268D03*
%TD*%
D28*
%TO.C,TP71*%
X116500000Y-115400000D03*
%TD*%
D26*
%TO.C,R113*%
X141452451Y-109021268D03*
X135527451Y-109021268D03*
%TD*%
%TO.C,R105*%
X141452451Y-112986269D03*
X135527451Y-112986269D03*
%TD*%
D15*
%TO.C,C104*%
X141808732Y-92379950D03*
X139908732Y-92379950D03*
%TD*%
D29*
%TO.C,D8*%
X134753732Y-104559950D03*
X138753732Y-104559950D03*
%TD*%
D26*
%TO.C,R5*%
X141117500Y-96815000D03*
X135192500Y-96815000D03*
%TD*%
%TO.C,R109*%
X141452451Y-89411268D03*
X135527451Y-89411268D03*
%TD*%
D15*
%TO.C,C103*%
X148841268Y-91710050D03*
X146941268Y-91710050D03*
%TD*%
D11*
%TO.C,C3*%
X174500000Y-112800000D03*
D12*
X179500000Y-112800000D03*
%TD*%
D26*
%TO.C,R4*%
X141117500Y-100755000D03*
X135192500Y-100755000D03*
%TD*%
D17*
%TO.C,C78*%
X153259950Y-83916268D03*
X150309950Y-83916268D03*
%TD*%
D16*
%TO.C,D18*%
X127040050Y-109738731D03*
X123040050Y-109738731D03*
%TD*%
D30*
%TO.C,J6*%
X180750000Y-93650000D03*
D31*
X180750000Y-96190000D03*
X180750000Y-98730000D03*
X180750000Y-101270000D03*
X180750000Y-103810000D03*
X180750000Y-106350000D03*
%TD*%
D30*
%TO.C,J4*%
X120650000Y-112960000D03*
D31*
X120650000Y-115500000D03*
X123190000Y-112960000D03*
X123190000Y-115500000D03*
X125730000Y-112960000D03*
X125730000Y-115500000D03*
X128270000Y-112960000D03*
X128270000Y-115500000D03*
X130810000Y-112960000D03*
X130810000Y-115500000D03*
%TD*%
D30*
%TO.C,J5*%
X120650000Y-84500000D03*
D31*
X120650000Y-87040000D03*
X123190000Y-84500000D03*
X123190000Y-87040000D03*
X125730000Y-84500000D03*
X125730000Y-87040000D03*
X128270000Y-84500000D03*
X128270000Y-87040000D03*
X130810000Y-84500000D03*
X130810000Y-87040000D03*
%TD*%
D32*
%TO.C,U3*%
X116875002Y-98275001D03*
X116875002Y-99375001D03*
X116875002Y-100475001D03*
X117975000Y-98275001D03*
X117975000Y-99375001D03*
X117975000Y-100475001D03*
%TD*%
M02*
