%TF.GenerationSoftware,KiCad,Pcbnew,8.0.1*%
%TF.CreationDate,2024-08-04T15:08:53+01:00*%
%TF.ProjectId,driver_module,64726976-6572-45f6-9d6f-64756c652e6b,1*%
%TF.SameCoordinates,Original*%
%TF.FileFunction,Copper,L3,Inr*%
%TF.FilePolarity,Positive*%
%FSLAX46Y46*%
G04 Gerber Fmt 4.6, Leading zero omitted, Abs format (unit mm)*
G04 Created by KiCad (PCBNEW 8.0.1) date 2024-08-04 15:08:53*
%MOMM*%
%LPD*%
G01*
G04 APERTURE LIST*
%TA.AperFunction,ComponentPad*%
%ADD10R,2.000000X2.000000*%
%TD*%
%TA.AperFunction,ComponentPad*%
%ADD11C,2.000000*%
%TD*%
%TA.AperFunction,ComponentPad*%
%ADD12C,5.500000*%
%TD*%
%TA.AperFunction,ComponentPad*%
%ADD13C,5.200000*%
%TD*%
%TA.AperFunction,ComponentPad*%
%ADD14R,1.700000X1.700000*%
%TD*%
%TA.AperFunction,ComponentPad*%
%ADD15O,1.700000X1.700000*%
%TD*%
%TA.AperFunction,ComponentPad*%
%ADD16C,0.700000*%
%TD*%
%TA.AperFunction,ViaPad*%
%ADD17C,0.700000*%
%TD*%
%TA.AperFunction,ViaPad*%
%ADD18C,0.800000*%
%TD*%
%TA.AperFunction,ViaPad*%
%ADD19C,1.000000*%
%TD*%
%ADD20C,0.300000*%
%ADD21C,0.350000*%
G04 APERTURE END LIST*
D10*
%TO.N,VMOT*%
%TO.C,C6*%
X174500000Y-87200000D03*
D11*
%TO.N,GND*%
X179500000Y-87200000D03*
%TD*%
D12*
%TO.N,GND*%
%TO.C,J21*%
X159900000Y-100000000D03*
%TO.N,VMOT*%
X167100000Y-100000000D03*
%TD*%
D13*
%TO.N,/C_N*%
%TO.C,J19*%
X124650000Y-97250000D03*
%TO.N,/A_N*%
X124650000Y-102750000D03*
%TO.N,/B_N*%
X129410000Y-100000000D03*
%TD*%
D10*
%TO.N,VMOT*%
%TO.C,C3*%
X174500000Y-112800000D03*
D11*
%TO.N,GND*%
X179500000Y-112800000D03*
%TD*%
D14*
%TO.N,GND*%
%TO.C,J6*%
X180750000Y-93650000D03*
D15*
X180750000Y-96190000D03*
%TO.N,VMOT*%
X180750000Y-98730000D03*
X180750000Y-101270000D03*
%TO.N,GND*%
X180750000Y-103810000D03*
X180750000Y-106350000D03*
%TD*%
D14*
%TO.N,GND*%
%TO.C,J4*%
X120650000Y-112960000D03*
D15*
%TO.N,VMOT*%
X120650000Y-115500000D03*
%TO.N,/A_P*%
X123190000Y-112960000D03*
%TO.N,VMOT*%
X123190000Y-115500000D03*
%TO.N,/B_P*%
X125730000Y-112960000D03*
%TO.N,A_PWM_H*%
X125730000Y-115500000D03*
%TO.N,B_PWM_L\u005C*%
X128270000Y-112960000D03*
%TO.N,A_PWM_L\u005C*%
X128270000Y-115500000D03*
%TO.N,A_SENSE*%
X130810000Y-112960000D03*
%TO.N,B_PWM_H*%
X130810000Y-115500000D03*
%TD*%
D14*
%TO.N,GND*%
%TO.C,J5*%
X120650000Y-84500000D03*
D15*
%TO.N,/TH1_SENSE*%
X120650000Y-87040000D03*
%TO.N,GND*%
X123190000Y-84500000D03*
%TO.N,B_SENSE*%
X123190000Y-87040000D03*
%TO.N,+12V*%
X125730000Y-84500000D03*
%TO.N,C_PWM_L\u005C*%
X125730000Y-87040000D03*
%TO.N,+3V3*%
X128270000Y-84500000D03*
%TO.N,C_PWM_H*%
X128270000Y-87040000D03*
%TO.N,C_SENSE*%
X130810000Y-84500000D03*
%TO.N,/C_P*%
X130810000Y-87040000D03*
%TD*%
D16*
%TO.N,GND*%
%TO.C,U3*%
X116875002Y-98275001D03*
X116875002Y-99375001D03*
X116875002Y-100475001D03*
X117975000Y-98275001D03*
X117975000Y-99375001D03*
X117975000Y-100475001D03*
%TD*%
D17*
%TO.N,GND*%
X146000000Y-106000000D03*
X141300000Y-106600000D03*
D18*
X122288110Y-91215124D03*
D17*
X140700000Y-106600000D03*
X143200000Y-94500000D03*
X146499999Y-83850000D03*
X149600000Y-95700000D03*
D18*
X140000000Y-114250000D03*
D17*
X146840050Y-107233733D03*
X148899999Y-83850000D03*
X147700000Y-83850000D03*
D18*
X140034952Y-115350000D03*
D17*
X145299999Y-83250000D03*
D18*
X136041567Y-103026795D03*
D17*
X144440050Y-106633733D03*
D18*
X144050000Y-114825000D03*
D17*
X149240050Y-107233733D03*
X143100000Y-106600000D03*
X145040050Y-106633733D03*
X143900000Y-94500000D03*
X148700000Y-95100000D03*
X145100000Y-94500000D03*
X149300000Y-94500000D03*
X146900000Y-95100000D03*
D18*
X139500000Y-101336397D03*
D17*
X145000001Y-82650000D03*
D18*
X145576402Y-114596591D03*
X144842908Y-114919950D03*
D17*
X145100000Y-108000000D03*
X144500000Y-94500000D03*
X146300000Y-94500000D03*
X146900000Y-94500000D03*
X149840050Y-107333733D03*
X144400000Y-82650000D03*
X145299999Y-83850000D03*
X149900000Y-95100000D03*
D18*
X115000000Y-116000000D03*
D17*
X144440050Y-107233733D03*
X149100000Y-108000000D03*
X144699999Y-83250000D03*
D18*
X117200000Y-114200000D03*
D17*
X149000000Y-96300000D03*
X141900000Y-106600000D03*
X148700000Y-94500000D03*
D18*
X139535554Y-112654671D03*
D17*
X149854003Y-108000000D03*
X150500000Y-108000000D03*
X143840050Y-106633733D03*
X149200001Y-82650000D03*
X148400000Y-95700000D03*
X146400000Y-108000000D03*
X140100000Y-106600000D03*
X147099999Y-83250000D03*
X149000000Y-95700000D03*
X145600001Y-82650000D03*
D18*
X125465821Y-89913990D03*
D17*
X147440050Y-107233733D03*
X149240050Y-106633733D03*
X149000000Y-106000000D03*
X145700000Y-95100000D03*
D18*
X133000000Y-84700000D03*
D17*
X147962062Y-82650000D03*
X144699999Y-83850000D03*
X145040050Y-107233733D03*
D18*
X138100000Y-85550000D03*
D17*
X147099999Y-83850000D03*
X149499999Y-83850000D03*
X150600000Y-82650000D03*
X146600000Y-106000000D03*
X143800000Y-82650000D03*
X145100000Y-95100000D03*
X144500000Y-95100000D03*
D18*
X137549998Y-107900000D03*
D17*
X147200000Y-106000000D03*
X148299999Y-83250000D03*
X142500000Y-106600000D03*
D18*
X139254000Y-89463993D03*
D17*
X148640050Y-107233733D03*
D18*
X117722373Y-102755047D03*
D17*
X148640050Y-106633733D03*
X145259950Y-95966267D03*
X147699998Y-83249999D03*
X149300000Y-95100000D03*
X146200000Y-82650000D03*
X145640050Y-106633733D03*
X146840050Y-106633733D03*
X148299999Y-83850000D03*
X145700000Y-94500000D03*
X145899999Y-83850000D03*
X139500000Y-106600000D03*
X146559950Y-95966268D03*
D18*
X138700000Y-106600000D03*
D17*
X145400000Y-106000000D03*
X145899999Y-83250000D03*
X143100000Y-82650000D03*
D18*
X133500000Y-115196000D03*
X134544095Y-115196000D03*
X139090049Y-90400000D03*
D17*
X145640050Y-107233733D03*
X147500000Y-94500000D03*
X149499999Y-83250000D03*
D18*
X139500000Y-107600000D03*
D17*
X150500000Y-95100000D03*
D18*
X139500000Y-102200000D03*
D17*
X147500000Y-95100000D03*
D18*
X136017500Y-92480255D03*
X150524667Y-117015249D03*
X140040050Y-104400000D03*
D17*
X147440050Y-106633733D03*
X142500000Y-82650000D03*
X146240050Y-106633733D03*
D18*
X139854712Y-90893926D03*
D17*
X148606230Y-82650000D03*
X139380000Y-96250102D03*
X147362688Y-82650000D03*
X148040050Y-106633733D03*
X146300000Y-95100000D03*
X148899999Y-83250000D03*
X148040050Y-107233733D03*
X150440050Y-107333733D03*
X148400000Y-96300000D03*
D18*
X122150000Y-89749998D03*
D17*
X148100000Y-95100000D03*
X147800000Y-106000000D03*
D18*
X139300000Y-113600000D03*
D17*
X146240050Y-107233733D03*
D18*
X123400000Y-108800000D03*
X140040050Y-102900000D03*
X136805000Y-100900000D03*
D17*
X146800001Y-82650000D03*
X144800000Y-106000000D03*
X146499999Y-83250000D03*
X148100000Y-94500000D03*
X149900000Y-82650000D03*
D18*
X134700002Y-92496000D03*
D17*
X148400000Y-106000000D03*
D18*
%TO.N,+3V3*%
X124430000Y-88100012D03*
X137034999Y-95400000D03*
X137500000Y-106818535D03*
X136821434Y-104744229D03*
X133200000Y-83700000D03*
%TO.N,/A_P*%
X137900000Y-115900000D03*
X143300000Y-109800000D03*
%TO.N,VMOT*%
X120150000Y-100900000D03*
D19*
X152350000Y-114550000D03*
D18*
X120250000Y-98000000D03*
%TO.N,/2AGH*%
X149600000Y-113800000D03*
%TO.N,/2AGL*%
X142689500Y-107696598D03*
%TO.N,/2BGH*%
X149400000Y-102000000D03*
%TO.N,/2BGL*%
X142900000Y-96000000D03*
%TO.N,/2CGL*%
X142664951Y-84600000D03*
%TO.N,/B_P*%
X143800000Y-98000000D03*
X136734258Y-103748034D03*
%TO.N,/2CGH*%
X148700000Y-90317490D03*
%TO.N,/C_P*%
X137200000Y-89900000D03*
X143600012Y-86300000D03*
%TO.N,/B_N*%
X136700000Y-99000000D03*
%TO.N,/C_N*%
X137000000Y-88200000D03*
%TO.N,/A_N*%
X136850000Y-111500000D03*
%TO.N,/TH1_SENSE*%
X138600000Y-94550000D03*
X126085936Y-88499742D03*
%TO.N,+12V*%
X115857500Y-101242500D03*
%TD*%
%TA.AperFunction,Conductor*%
%TO.N,GND*%
G36*
X179302777Y-82300655D02*
G01*
X179596701Y-82317162D01*
X179607724Y-82318404D01*
X179895224Y-82367252D01*
X179906018Y-82369715D01*
X180186251Y-82450449D01*
X180196722Y-82454113D01*
X180466134Y-82565708D01*
X180476136Y-82570525D01*
X180731354Y-82711578D01*
X180740755Y-82717485D01*
X180978575Y-82886228D01*
X180987254Y-82893149D01*
X181017388Y-82920078D01*
X181204697Y-83087467D01*
X181212532Y-83095302D01*
X181306053Y-83199952D01*
X181406850Y-83312745D01*
X181413771Y-83321424D01*
X181582514Y-83559244D01*
X181588421Y-83568645D01*
X181729474Y-83823863D01*
X181734291Y-83833865D01*
X181845884Y-84103273D01*
X181849551Y-84113752D01*
X181930280Y-84393966D01*
X181932750Y-84404790D01*
X181981594Y-84692270D01*
X181982837Y-84703302D01*
X181999344Y-84997222D01*
X181999500Y-85002773D01*
X181999500Y-98237302D01*
X181980593Y-98295493D01*
X181931093Y-98331457D01*
X181869907Y-98331457D01*
X181820407Y-98295493D01*
X181811879Y-98281430D01*
X181755831Y-98168870D01*
X181732366Y-98121745D01*
X181603872Y-97951593D01*
X181532655Y-97886670D01*
X181446307Y-97807952D01*
X181446300Y-97807946D01*
X181265024Y-97695705D01*
X181265019Y-97695702D01*
X181158041Y-97654259D01*
X181066198Y-97618679D01*
X181066197Y-97618678D01*
X181066195Y-97618678D01*
X180856610Y-97579500D01*
X180643390Y-97579500D01*
X180433804Y-97618678D01*
X180234980Y-97695702D01*
X180234975Y-97695705D01*
X180053699Y-97807946D01*
X180053692Y-97807952D01*
X179896135Y-97951586D01*
X179896131Y-97951589D01*
X179896128Y-97951593D01*
X179896125Y-97951597D01*
X179767635Y-98121743D01*
X179767630Y-98121752D01*
X179672596Y-98312608D01*
X179614244Y-98517688D01*
X179594571Y-98730000D01*
X179614244Y-98942310D01*
X179672595Y-99147389D01*
X179767634Y-99338255D01*
X179896128Y-99508407D01*
X179896135Y-99508413D01*
X180053692Y-99652047D01*
X180053699Y-99652053D01*
X180131942Y-99700499D01*
X180234981Y-99764298D01*
X180433802Y-99841321D01*
X180643390Y-99880500D01*
X180856610Y-99880500D01*
X181066198Y-99841321D01*
X181265019Y-99764298D01*
X181446302Y-99652052D01*
X181603872Y-99508407D01*
X181732366Y-99338255D01*
X181811879Y-99178568D01*
X181854741Y-99134907D01*
X181915082Y-99124777D01*
X181969853Y-99152049D01*
X181998134Y-99206307D01*
X181999500Y-99222697D01*
X181999500Y-100777302D01*
X181980593Y-100835493D01*
X181931093Y-100871457D01*
X181869907Y-100871457D01*
X181820407Y-100835493D01*
X181811879Y-100821430D01*
X181741385Y-100679858D01*
X181732366Y-100661745D01*
X181603872Y-100491593D01*
X181481896Y-100380396D01*
X181446307Y-100347952D01*
X181446300Y-100347946D01*
X181265024Y-100235705D01*
X181265019Y-100235702D01*
X181066195Y-100158678D01*
X180856610Y-100119500D01*
X180643390Y-100119500D01*
X180433804Y-100158678D01*
X180234980Y-100235702D01*
X180234975Y-100235705D01*
X180053699Y-100347946D01*
X180053692Y-100347952D01*
X179896135Y-100491586D01*
X179896131Y-100491589D01*
X179896128Y-100491593D01*
X179896125Y-100491597D01*
X179767635Y-100661743D01*
X179767630Y-100661752D01*
X179672596Y-100852608D01*
X179614244Y-101057688D01*
X179594571Y-101270000D01*
X179614244Y-101482311D01*
X179636289Y-101559790D01*
X179672595Y-101687389D01*
X179767634Y-101878255D01*
X179896128Y-102048407D01*
X179966734Y-102112773D01*
X180053692Y-102192047D01*
X180053699Y-102192053D01*
X180157389Y-102256255D01*
X180234981Y-102304298D01*
X180433802Y-102381321D01*
X180643390Y-102420500D01*
X180856610Y-102420500D01*
X181066198Y-102381321D01*
X181265019Y-102304298D01*
X181446302Y-102192052D01*
X181603872Y-102048407D01*
X181732366Y-101878255D01*
X181811879Y-101718568D01*
X181854741Y-101674907D01*
X181915082Y-101664777D01*
X181969853Y-101692049D01*
X181998134Y-101746307D01*
X181999500Y-101762697D01*
X181999500Y-114997226D01*
X181999344Y-115002777D01*
X181982837Y-115296697D01*
X181981594Y-115307729D01*
X181932750Y-115595209D01*
X181930280Y-115606033D01*
X181849551Y-115886247D01*
X181845884Y-115896726D01*
X181734291Y-116166134D01*
X181729474Y-116176136D01*
X181588421Y-116431354D01*
X181582514Y-116440755D01*
X181413771Y-116678575D01*
X181406850Y-116687254D01*
X181212540Y-116904689D01*
X181204689Y-116912540D01*
X180987254Y-117106850D01*
X180978575Y-117113771D01*
X180740755Y-117282514D01*
X180731354Y-117288421D01*
X180476136Y-117429474D01*
X180466134Y-117434291D01*
X180196726Y-117545884D01*
X180186247Y-117549551D01*
X179906033Y-117630280D01*
X179895209Y-117632750D01*
X179607729Y-117681594D01*
X179596697Y-117682837D01*
X179302778Y-117699344D01*
X179297227Y-117699500D01*
X116502773Y-117699500D01*
X116497222Y-117699344D01*
X116203302Y-117682837D01*
X116192270Y-117681594D01*
X115904790Y-117632750D01*
X115893966Y-117630280D01*
X115613752Y-117549551D01*
X115603273Y-117545884D01*
X115333865Y-117434291D01*
X115323863Y-117429474D01*
X115068645Y-117288421D01*
X115059244Y-117282514D01*
X114821424Y-117113771D01*
X114812745Y-117106850D01*
X114711695Y-117016547D01*
X114595302Y-116912532D01*
X114587467Y-116904697D01*
X114469745Y-116772966D01*
X114393149Y-116687254D01*
X114386228Y-116678575D01*
X114217485Y-116440755D01*
X114211578Y-116431354D01*
X114176524Y-116367929D01*
X114070525Y-116176136D01*
X114065708Y-116166134D01*
X113955471Y-115900000D01*
X113954113Y-115896722D01*
X113950448Y-115886247D01*
X113869715Y-115606018D01*
X113867252Y-115595224D01*
X113851073Y-115500000D01*
X119494571Y-115500000D01*
X119514244Y-115712311D01*
X119537449Y-115793867D01*
X119572595Y-115917389D01*
X119667634Y-116108255D01*
X119796128Y-116278407D01*
X119796135Y-116278413D01*
X119953692Y-116422047D01*
X119953699Y-116422053D01*
X119983904Y-116440755D01*
X120134981Y-116534298D01*
X120333802Y-116611321D01*
X120543390Y-116650500D01*
X120756610Y-116650500D01*
X120966198Y-116611321D01*
X121165019Y-116534298D01*
X121346302Y-116422052D01*
X121503872Y-116278407D01*
X121632366Y-116108255D01*
X121727405Y-115917389D01*
X121785756Y-115712310D01*
X121805429Y-115500000D01*
X122034571Y-115500000D01*
X122054244Y-115712311D01*
X122077449Y-115793867D01*
X122112595Y-115917389D01*
X122207634Y-116108255D01*
X122336128Y-116278407D01*
X122336135Y-116278413D01*
X122493692Y-116422047D01*
X122493699Y-116422053D01*
X122523904Y-116440755D01*
X122674981Y-116534298D01*
X122873802Y-116611321D01*
X123083390Y-116650500D01*
X123296610Y-116650500D01*
X123506198Y-116611321D01*
X123705019Y-116534298D01*
X123886302Y-116422052D01*
X124043872Y-116278407D01*
X124172366Y-116108255D01*
X124267405Y-115917389D01*
X124325756Y-115712310D01*
X124345429Y-115500000D01*
X124574571Y-115500000D01*
X124594244Y-115712311D01*
X124617449Y-115793867D01*
X124652595Y-115917389D01*
X124747634Y-116108255D01*
X124876128Y-116278407D01*
X124876135Y-116278413D01*
X125033692Y-116422047D01*
X125033699Y-116422053D01*
X125063904Y-116440755D01*
X125214981Y-116534298D01*
X125413802Y-116611321D01*
X125623390Y-116650500D01*
X125836610Y-116650500D01*
X126046198Y-116611321D01*
X126245019Y-116534298D01*
X126426302Y-116422052D01*
X126583872Y-116278407D01*
X126712366Y-116108255D01*
X126807405Y-115917389D01*
X126865756Y-115712310D01*
X126885429Y-115500000D01*
X127114571Y-115500000D01*
X127134244Y-115712311D01*
X127157449Y-115793867D01*
X127192595Y-115917389D01*
X127287634Y-116108255D01*
X127416128Y-116278407D01*
X127416135Y-116278413D01*
X127573692Y-116422047D01*
X127573699Y-116422053D01*
X127603904Y-116440755D01*
X127754981Y-116534298D01*
X127953802Y-116611321D01*
X128163390Y-116650500D01*
X128376610Y-116650500D01*
X128586198Y-116611321D01*
X128785019Y-116534298D01*
X128966302Y-116422052D01*
X129123872Y-116278407D01*
X129252366Y-116108255D01*
X129347405Y-115917389D01*
X129405756Y-115712310D01*
X129425429Y-115500000D01*
X129654571Y-115500000D01*
X129674244Y-115712311D01*
X129697449Y-115793867D01*
X129732595Y-115917389D01*
X129827634Y-116108255D01*
X129956128Y-116278407D01*
X129956135Y-116278413D01*
X130113692Y-116422047D01*
X130113699Y-116422053D01*
X130143904Y-116440755D01*
X130294981Y-116534298D01*
X130493802Y-116611321D01*
X130703390Y-116650500D01*
X130916610Y-116650500D01*
X131126198Y-116611321D01*
X131325019Y-116534298D01*
X131506302Y-116422052D01*
X131663872Y-116278407D01*
X131792366Y-116108255D01*
X131887405Y-115917389D01*
X131892353Y-115900000D01*
X137194355Y-115900000D01*
X137214860Y-116068872D01*
X137275182Y-116227930D01*
X137371817Y-116367929D01*
X137499148Y-116480734D01*
X137649775Y-116559790D01*
X137814944Y-116600500D01*
X137814947Y-116600500D01*
X137985053Y-116600500D01*
X137985056Y-116600500D01*
X138150225Y-116559790D01*
X138300852Y-116480734D01*
X138428183Y-116367929D01*
X138524818Y-116227930D01*
X138585140Y-116068872D01*
X138605645Y-115900000D01*
X138605247Y-115896726D01*
X138600230Y-115855404D01*
X138585140Y-115731128D01*
X138524818Y-115572070D01*
X138428183Y-115432071D01*
X138300852Y-115319266D01*
X138150225Y-115240210D01*
X138150224Y-115240209D01*
X138150223Y-115240209D01*
X137985058Y-115199500D01*
X137985056Y-115199500D01*
X137814944Y-115199500D01*
X137814941Y-115199500D01*
X137649776Y-115240209D01*
X137499146Y-115319267D01*
X137371818Y-115432069D01*
X137371816Y-115432072D01*
X137275182Y-115572070D01*
X137221997Y-115712311D01*
X137214860Y-115731129D01*
X137194753Y-115896726D01*
X137194355Y-115900000D01*
X131892353Y-115900000D01*
X131945756Y-115712310D01*
X131965429Y-115500000D01*
X131945756Y-115287690D01*
X131887405Y-115082611D01*
X131792366Y-114891745D01*
X131663872Y-114721593D01*
X131609623Y-114672139D01*
X131506307Y-114577952D01*
X131506300Y-114577946D01*
X131461166Y-114550000D01*
X151544435Y-114550000D01*
X151564632Y-114729257D01*
X151564633Y-114729261D01*
X151624211Y-114899522D01*
X151624211Y-114899523D01*
X151689090Y-115002777D01*
X151720184Y-115052262D01*
X151847738Y-115179816D01*
X151847740Y-115179817D01*
X151847741Y-115179818D01*
X151943852Y-115240209D01*
X152000478Y-115275789D01*
X152060230Y-115296697D01*
X152170738Y-115335366D01*
X152170742Y-115335367D01*
X152170745Y-115335368D01*
X152350000Y-115355565D01*
X152529255Y-115335368D01*
X152699522Y-115275789D01*
X152852262Y-115179816D01*
X152979816Y-115052262D01*
X153075789Y-114899522D01*
X153135368Y-114729255D01*
X153155565Y-114550000D01*
X153135368Y-114370745D01*
X153075789Y-114200478D01*
X153030203Y-114127929D01*
X152979818Y-114047741D01*
X152979817Y-114047740D01*
X152979816Y-114047738D01*
X152852262Y-113920184D01*
X152852259Y-113920182D01*
X152852258Y-113920181D01*
X152732386Y-113844860D01*
X173199500Y-113844860D01*
X173199501Y-113844863D01*
X173202414Y-113869990D01*
X173224576Y-113920181D01*
X173247794Y-113972765D01*
X173327235Y-114052206D01*
X173430009Y-114097585D01*
X173455135Y-114100500D01*
X175544864Y-114100499D01*
X175569991Y-114097585D01*
X175672765Y-114052206D01*
X175752206Y-113972765D01*
X175797585Y-113869991D01*
X175800500Y-113844865D01*
X175800499Y-111755136D01*
X175797585Y-111730009D01*
X175752206Y-111627235D01*
X175672765Y-111547794D01*
X175569991Y-111502415D01*
X175569990Y-111502414D01*
X175569988Y-111502414D01*
X175544868Y-111499500D01*
X173455139Y-111499500D01*
X173455136Y-111499501D01*
X173430009Y-111502414D01*
X173327235Y-111547794D01*
X173247794Y-111627235D01*
X173202414Y-111730011D01*
X173199500Y-111755130D01*
X173199500Y-113844860D01*
X152732386Y-113844860D01*
X152699523Y-113824211D01*
X152529261Y-113764633D01*
X152529257Y-113764632D01*
X152350000Y-113744435D01*
X152170742Y-113764632D01*
X152170738Y-113764633D01*
X152000477Y-113824211D01*
X152000476Y-113824211D01*
X151847741Y-113920181D01*
X151720181Y-114047741D01*
X151624211Y-114200476D01*
X151624211Y-114200477D01*
X151564633Y-114370738D01*
X151564632Y-114370742D01*
X151544435Y-114550000D01*
X131461166Y-114550000D01*
X131325024Y-114465705D01*
X131325019Y-114465702D01*
X131126195Y-114388678D01*
X130916610Y-114349500D01*
X130703390Y-114349500D01*
X130493804Y-114388678D01*
X130294980Y-114465702D01*
X130294975Y-114465705D01*
X130113699Y-114577946D01*
X130113692Y-114577952D01*
X129956135Y-114721586D01*
X129956131Y-114721589D01*
X129956128Y-114721593D01*
X129956125Y-114721597D01*
X129827635Y-114891743D01*
X129827630Y-114891752D01*
X129732596Y-115082608D01*
X129674244Y-115287688D01*
X129654571Y-115500000D01*
X129425429Y-115500000D01*
X129405756Y-115287690D01*
X129347405Y-115082611D01*
X129252366Y-114891745D01*
X129123872Y-114721593D01*
X129069623Y-114672139D01*
X128966307Y-114577952D01*
X128966300Y-114577946D01*
X128785024Y-114465705D01*
X128785019Y-114465702D01*
X128586195Y-114388678D01*
X128376610Y-114349500D01*
X128163390Y-114349500D01*
X127953804Y-114388678D01*
X127754980Y-114465702D01*
X127754975Y-114465705D01*
X127573699Y-114577946D01*
X127573692Y-114577952D01*
X127416135Y-114721586D01*
X127416131Y-114721589D01*
X127416128Y-114721593D01*
X127416125Y-114721597D01*
X127287635Y-114891743D01*
X127287630Y-114891752D01*
X127192596Y-115082608D01*
X127134244Y-115287688D01*
X127114571Y-115500000D01*
X126885429Y-115500000D01*
X126865756Y-115287690D01*
X126807405Y-115082611D01*
X126712366Y-114891745D01*
X126583872Y-114721593D01*
X126529623Y-114672139D01*
X126426307Y-114577952D01*
X126426300Y-114577946D01*
X126245024Y-114465705D01*
X126245019Y-114465702D01*
X126046195Y-114388678D01*
X125836610Y-114349500D01*
X125623390Y-114349500D01*
X125413804Y-114388678D01*
X125214980Y-114465702D01*
X125214975Y-114465705D01*
X125033699Y-114577946D01*
X125033692Y-114577952D01*
X124876135Y-114721586D01*
X124876131Y-114721589D01*
X124876128Y-114721593D01*
X124876125Y-114721597D01*
X124747635Y-114891743D01*
X124747630Y-114891752D01*
X124652596Y-115082608D01*
X124594244Y-115287688D01*
X124574571Y-115500000D01*
X124345429Y-115500000D01*
X124325756Y-115287690D01*
X124267405Y-115082611D01*
X124172366Y-114891745D01*
X124043872Y-114721593D01*
X123989623Y-114672139D01*
X123886307Y-114577952D01*
X123886300Y-114577946D01*
X123705024Y-114465705D01*
X123705019Y-114465702D01*
X123506195Y-114388678D01*
X123296610Y-114349500D01*
X123083390Y-114349500D01*
X122873804Y-114388678D01*
X122674980Y-114465702D01*
X122674975Y-114465705D01*
X122493699Y-114577946D01*
X122493692Y-114577952D01*
X122336135Y-114721586D01*
X122336131Y-114721589D01*
X122336128Y-114721593D01*
X122336125Y-114721597D01*
X122207635Y-114891743D01*
X122207630Y-114891752D01*
X122112596Y-115082608D01*
X122054244Y-115287688D01*
X122034571Y-115500000D01*
X121805429Y-115500000D01*
X121785756Y-115287690D01*
X121727405Y-115082611D01*
X121632366Y-114891745D01*
X121503872Y-114721593D01*
X121449623Y-114672139D01*
X121346307Y-114577952D01*
X121346300Y-114577946D01*
X121165024Y-114465705D01*
X121165019Y-114465702D01*
X120966195Y-114388678D01*
X120756610Y-114349500D01*
X120543390Y-114349500D01*
X120333804Y-114388678D01*
X120134980Y-114465702D01*
X120134975Y-114465705D01*
X119953699Y-114577946D01*
X119953692Y-114577952D01*
X119796135Y-114721586D01*
X119796131Y-114721589D01*
X119796128Y-114721593D01*
X119796125Y-114721597D01*
X119667635Y-114891743D01*
X119667630Y-114891752D01*
X119572596Y-115082608D01*
X119514244Y-115287688D01*
X119494571Y-115500000D01*
X113851073Y-115500000D01*
X113818404Y-115307724D01*
X113817162Y-115296697D01*
X113800656Y-115002777D01*
X113800500Y-114997226D01*
X113800500Y-112960000D01*
X122034571Y-112960000D01*
X122051269Y-113140210D01*
X122054244Y-113172310D01*
X122112595Y-113377389D01*
X122207634Y-113568255D01*
X122336128Y-113738407D01*
X122403690Y-113799998D01*
X122493692Y-113882047D01*
X122493699Y-113882053D01*
X122555278Y-113920181D01*
X122674981Y-113994298D01*
X122873802Y-114071321D01*
X123083390Y-114110500D01*
X123296610Y-114110500D01*
X123506198Y-114071321D01*
X123705019Y-113994298D01*
X123886302Y-113882052D01*
X124043872Y-113738407D01*
X124172366Y-113568255D01*
X124267405Y-113377389D01*
X124325756Y-113172310D01*
X124345429Y-112960000D01*
X124574571Y-112960000D01*
X124591269Y-113140210D01*
X124594244Y-113172310D01*
X124652595Y-113377389D01*
X124747634Y-113568255D01*
X124876128Y-113738407D01*
X124943690Y-113799998D01*
X125033692Y-113882047D01*
X125033699Y-113882053D01*
X125095278Y-113920181D01*
X125214981Y-113994298D01*
X125413802Y-114071321D01*
X125623390Y-114110500D01*
X125836610Y-114110500D01*
X126046198Y-114071321D01*
X126245019Y-113994298D01*
X126426302Y-113882052D01*
X126583872Y-113738407D01*
X126712366Y-113568255D01*
X126807405Y-113377389D01*
X126865756Y-113172310D01*
X126885429Y-112960000D01*
X127114571Y-112960000D01*
X127131269Y-113140210D01*
X127134244Y-113172310D01*
X127192595Y-113377389D01*
X127287634Y-113568255D01*
X127416128Y-113738407D01*
X127483690Y-113799998D01*
X127573692Y-113882047D01*
X127573699Y-113882053D01*
X127635278Y-113920181D01*
X127754981Y-113994298D01*
X127953802Y-114071321D01*
X128163390Y-114110500D01*
X128376610Y-114110500D01*
X128586198Y-114071321D01*
X128785019Y-113994298D01*
X128966302Y-113882052D01*
X129123872Y-113738407D01*
X129252366Y-113568255D01*
X129347405Y-113377389D01*
X129405756Y-113172310D01*
X129425429Y-112960000D01*
X129654571Y-112960000D01*
X129671269Y-113140210D01*
X129674244Y-113172310D01*
X129732595Y-113377389D01*
X129827634Y-113568255D01*
X129956128Y-113738407D01*
X130023690Y-113799998D01*
X130113692Y-113882047D01*
X130113699Y-113882053D01*
X130175278Y-113920181D01*
X130294981Y-113994298D01*
X130493802Y-114071321D01*
X130703390Y-114110500D01*
X130916610Y-114110500D01*
X131126198Y-114071321D01*
X131325019Y-113994298D01*
X131506302Y-113882052D01*
X131596308Y-113800000D01*
X148894355Y-113800000D01*
X148914860Y-113968872D01*
X148975182Y-114127930D01*
X149071817Y-114267929D01*
X149199148Y-114380734D01*
X149349775Y-114459790D01*
X149514944Y-114500500D01*
X149514947Y-114500500D01*
X149685053Y-114500500D01*
X149685056Y-114500500D01*
X149850225Y-114459790D01*
X150000852Y-114380734D01*
X150128183Y-114267929D01*
X150224818Y-114127930D01*
X150285140Y-113968872D01*
X150305645Y-113800000D01*
X150285140Y-113631128D01*
X150224818Y-113472070D01*
X150128183Y-113332071D01*
X150000852Y-113219266D01*
X149850225Y-113140210D01*
X149850224Y-113140209D01*
X149850223Y-113140209D01*
X149685058Y-113099500D01*
X149685056Y-113099500D01*
X149514944Y-113099500D01*
X149514941Y-113099500D01*
X149349776Y-113140209D01*
X149199146Y-113219267D01*
X149071818Y-113332069D01*
X149071816Y-113332072D01*
X148975182Y-113472070D01*
X148938705Y-113568255D01*
X148914860Y-113631129D01*
X148898650Y-113764632D01*
X148894355Y-113800000D01*
X131596308Y-113800000D01*
X131663872Y-113738407D01*
X131792366Y-113568255D01*
X131887405Y-113377389D01*
X131945756Y-113172310D01*
X131965429Y-112960000D01*
X131945756Y-112747690D01*
X131887405Y-112542611D01*
X131792366Y-112351745D01*
X131663872Y-112181593D01*
X131553236Y-112080734D01*
X131506307Y-112037952D01*
X131506300Y-112037946D01*
X131325024Y-111925705D01*
X131325019Y-111925702D01*
X131126195Y-111848678D01*
X130916610Y-111809500D01*
X130703390Y-111809500D01*
X130493804Y-111848678D01*
X130294980Y-111925702D01*
X130294975Y-111925705D01*
X130113699Y-112037946D01*
X130113692Y-112037952D01*
X129956135Y-112181586D01*
X129956131Y-112181589D01*
X129956128Y-112181593D01*
X129956125Y-112181597D01*
X129827635Y-112351743D01*
X129827630Y-112351752D01*
X129732596Y-112542608D01*
X129674244Y-112747688D01*
X129654571Y-112960000D01*
X129425429Y-112960000D01*
X129405756Y-112747690D01*
X129347405Y-112542611D01*
X129252366Y-112351745D01*
X129123872Y-112181593D01*
X129013236Y-112080734D01*
X128966307Y-112037952D01*
X128966300Y-112037946D01*
X128785024Y-111925705D01*
X128785019Y-111925702D01*
X128586195Y-111848678D01*
X128376610Y-111809500D01*
X128163390Y-111809500D01*
X127953804Y-111848678D01*
X127754980Y-111925702D01*
X127754975Y-111925705D01*
X127573699Y-112037946D01*
X127573692Y-112037952D01*
X127416135Y-112181586D01*
X127416131Y-112181589D01*
X127416128Y-112181593D01*
X127416125Y-112181597D01*
X127287635Y-112351743D01*
X127287630Y-112351752D01*
X127192596Y-112542608D01*
X127134244Y-112747688D01*
X127114571Y-112960000D01*
X126885429Y-112960000D01*
X126865756Y-112747690D01*
X126807405Y-112542611D01*
X126712366Y-112351745D01*
X126583872Y-112181593D01*
X126473236Y-112080734D01*
X126426307Y-112037952D01*
X126426300Y-112037946D01*
X126245024Y-111925705D01*
X126245019Y-111925702D01*
X126046195Y-111848678D01*
X125836610Y-111809500D01*
X125623390Y-111809500D01*
X125413804Y-111848678D01*
X125214980Y-111925702D01*
X125214975Y-111925705D01*
X125033699Y-112037946D01*
X125033692Y-112037952D01*
X124876135Y-112181586D01*
X124876131Y-112181589D01*
X124876128Y-112181593D01*
X124876125Y-112181597D01*
X124747635Y-112351743D01*
X124747630Y-112351752D01*
X124652596Y-112542608D01*
X124594244Y-112747688D01*
X124574571Y-112960000D01*
X124345429Y-112960000D01*
X124325756Y-112747690D01*
X124267405Y-112542611D01*
X124172366Y-112351745D01*
X124043872Y-112181593D01*
X123933236Y-112080734D01*
X123886307Y-112037952D01*
X123886300Y-112037946D01*
X123705024Y-111925705D01*
X123705019Y-111925702D01*
X123506195Y-111848678D01*
X123296610Y-111809500D01*
X123083390Y-111809500D01*
X122873804Y-111848678D01*
X122674980Y-111925702D01*
X122674975Y-111925705D01*
X122493699Y-112037946D01*
X122493692Y-112037952D01*
X122336135Y-112181586D01*
X122336131Y-112181589D01*
X122336128Y-112181593D01*
X122336125Y-112181597D01*
X122207635Y-112351743D01*
X122207630Y-112351752D01*
X122112596Y-112542608D01*
X122054244Y-112747688D01*
X122034571Y-112960000D01*
X113800500Y-112960000D01*
X113800500Y-111500000D01*
X136144355Y-111500000D01*
X136164860Y-111668872D01*
X136225182Y-111827930D01*
X136321817Y-111967929D01*
X136449148Y-112080734D01*
X136599775Y-112159790D01*
X136764944Y-112200500D01*
X136764947Y-112200500D01*
X136935053Y-112200500D01*
X136935056Y-112200500D01*
X137100225Y-112159790D01*
X137250852Y-112080734D01*
X137378183Y-111967929D01*
X137474818Y-111827930D01*
X137535140Y-111668872D01*
X137555645Y-111500000D01*
X137555584Y-111499501D01*
X137551994Y-111469938D01*
X137535140Y-111331128D01*
X137474818Y-111172070D01*
X137378183Y-111032071D01*
X137250852Y-110919266D01*
X137100225Y-110840210D01*
X137100224Y-110840209D01*
X137100223Y-110840209D01*
X136935058Y-110799500D01*
X136935056Y-110799500D01*
X136764944Y-110799500D01*
X136764941Y-110799500D01*
X136599776Y-110840209D01*
X136449146Y-110919267D01*
X136321818Y-111032069D01*
X136321817Y-111032071D01*
X136225182Y-111172070D01*
X136169751Y-111318233D01*
X136164860Y-111331129D01*
X136144416Y-111499501D01*
X136144355Y-111500000D01*
X113800500Y-111500000D01*
X113800500Y-108164607D01*
X114149500Y-108164607D01*
X114181766Y-108492209D01*
X114245990Y-108815087D01*
X114245993Y-108815100D01*
X114341548Y-109130102D01*
X114467527Y-109434242D01*
X114467540Y-109434269D01*
X114622711Y-109724576D01*
X114673109Y-109800001D01*
X114805607Y-109998298D01*
X115014449Y-110252772D01*
X115247228Y-110485551D01*
X115501702Y-110694393D01*
X115638561Y-110785839D01*
X115775423Y-110877288D01*
X116065004Y-111032071D01*
X116065749Y-111032469D01*
X116369889Y-111158448D01*
X116369891Y-111158448D01*
X116369897Y-111158451D01*
X116684899Y-111254006D01*
X116684902Y-111254006D01*
X116684913Y-111254010D01*
X117007787Y-111318233D01*
X117044188Y-111321818D01*
X117335392Y-111350500D01*
X117335400Y-111350500D01*
X117664608Y-111350500D01*
X117883008Y-111328988D01*
X117992213Y-111318233D01*
X118315087Y-111254010D01*
X118585206Y-111172070D01*
X118630102Y-111158451D01*
X118630104Y-111158449D01*
X118630111Y-111158448D01*
X118934251Y-111032469D01*
X119146040Y-110919266D01*
X119224576Y-110877288D01*
X119280067Y-110840210D01*
X119498298Y-110694393D01*
X119752772Y-110485551D01*
X119985551Y-110252772D01*
X120194393Y-109998298D01*
X120326891Y-109800000D01*
X142594355Y-109800000D01*
X142614860Y-109968872D01*
X142675182Y-110127930D01*
X142771817Y-110267929D01*
X142899148Y-110380734D01*
X143049775Y-110459790D01*
X143214944Y-110500500D01*
X143214947Y-110500500D01*
X143385053Y-110500500D01*
X143385056Y-110500500D01*
X143550225Y-110459790D01*
X143700852Y-110380734D01*
X143828183Y-110267929D01*
X143924818Y-110127930D01*
X143985140Y-109968872D01*
X144005645Y-109800000D01*
X143985140Y-109631128D01*
X143924818Y-109472070D01*
X143828183Y-109332071D01*
X143700852Y-109219266D01*
X143550225Y-109140210D01*
X143550224Y-109140209D01*
X143550223Y-109140209D01*
X143385058Y-109099500D01*
X143385056Y-109099500D01*
X143214944Y-109099500D01*
X143214941Y-109099500D01*
X143049776Y-109140209D01*
X142899146Y-109219267D01*
X142771818Y-109332069D01*
X142771817Y-109332071D01*
X142675182Y-109472070D01*
X142614860Y-109631128D01*
X142594355Y-109800000D01*
X120326891Y-109800000D01*
X120377286Y-109724579D01*
X120427237Y-109631128D01*
X120532459Y-109434269D01*
X120532469Y-109434251D01*
X120658448Y-109130111D01*
X120754010Y-108815087D01*
X120818233Y-108492213D01*
X120839397Y-108277330D01*
X120850500Y-108164607D01*
X120850500Y-107835392D01*
X120836830Y-107696598D01*
X141983855Y-107696598D01*
X142004360Y-107865470D01*
X142064682Y-108024528D01*
X142161317Y-108164527D01*
X142288648Y-108277332D01*
X142439275Y-108356388D01*
X142604444Y-108397098D01*
X142604447Y-108397098D01*
X142774553Y-108397098D01*
X142774556Y-108397098D01*
X142939725Y-108356388D01*
X143090352Y-108277332D01*
X143217683Y-108164527D01*
X143314318Y-108024528D01*
X143374640Y-107865470D01*
X143395145Y-107696598D01*
X143374640Y-107527726D01*
X143314318Y-107368668D01*
X143217683Y-107228669D01*
X143090352Y-107115864D01*
X142939725Y-107036808D01*
X142939724Y-107036807D01*
X142939723Y-107036807D01*
X142774558Y-106996098D01*
X142774556Y-106996098D01*
X142604444Y-106996098D01*
X142604441Y-106996098D01*
X142439276Y-107036807D01*
X142288646Y-107115865D01*
X142161318Y-107228667D01*
X142161317Y-107228669D01*
X142064682Y-107368668D01*
X142004360Y-107527726D01*
X141983855Y-107696598D01*
X120836830Y-107696598D01*
X120819341Y-107519035D01*
X120818233Y-107507787D01*
X120754010Y-107184913D01*
X120733783Y-107118233D01*
X120658451Y-106869897D01*
X120637177Y-106818535D01*
X136794355Y-106818535D01*
X136814860Y-106987407D01*
X136875182Y-107146465D01*
X136971817Y-107286464D01*
X137099148Y-107399269D01*
X137249775Y-107478325D01*
X137414944Y-107519035D01*
X137414947Y-107519035D01*
X137585053Y-107519035D01*
X137585056Y-107519035D01*
X137750225Y-107478325D01*
X137900852Y-107399269D01*
X138028183Y-107286464D01*
X138124818Y-107146465D01*
X138185140Y-106987407D01*
X138205645Y-106818535D01*
X138185140Y-106649663D01*
X138124818Y-106490605D01*
X138028183Y-106350606D01*
X137900852Y-106237801D01*
X137750225Y-106158745D01*
X137750224Y-106158744D01*
X137750223Y-106158744D01*
X137585058Y-106118035D01*
X137585056Y-106118035D01*
X137414944Y-106118035D01*
X137414941Y-106118035D01*
X137249776Y-106158744D01*
X137099146Y-106237802D01*
X136971818Y-106350604D01*
X136971817Y-106350606D01*
X136875182Y-106490605D01*
X136814860Y-106649663D01*
X136794355Y-106818535D01*
X120637177Y-106818535D01*
X120637176Y-106818533D01*
X120532469Y-106565749D01*
X120494329Y-106494393D01*
X120377288Y-106275423D01*
X120272124Y-106118035D01*
X120194393Y-106001702D01*
X119985551Y-105747228D01*
X119752772Y-105514449D01*
X119498298Y-105305607D01*
X119391493Y-105234242D01*
X119224576Y-105122711D01*
X118934269Y-104967540D01*
X118934257Y-104967534D01*
X118934251Y-104967531D01*
X118934246Y-104967528D01*
X118934242Y-104967527D01*
X118630102Y-104841548D01*
X118315100Y-104745993D01*
X118315087Y-104745990D01*
X118306224Y-104744227D01*
X117992213Y-104681767D01*
X117992211Y-104681766D01*
X117664608Y-104649500D01*
X117664600Y-104649500D01*
X117335400Y-104649500D01*
X117335392Y-104649500D01*
X117007790Y-104681766D01*
X116684912Y-104745990D01*
X116684899Y-104745993D01*
X116369897Y-104841548D01*
X116065757Y-104967527D01*
X116065730Y-104967540D01*
X115775423Y-105122711D01*
X115501700Y-105305608D01*
X115247233Y-105514444D01*
X115014444Y-105747233D01*
X114805608Y-106001700D01*
X114622711Y-106275423D01*
X114467540Y-106565730D01*
X114467527Y-106565757D01*
X114341548Y-106869897D01*
X114245993Y-107184899D01*
X114245990Y-107184912D01*
X114181766Y-107507790D01*
X114149500Y-107835392D01*
X114149500Y-108164607D01*
X113800500Y-108164607D01*
X113800500Y-102750000D01*
X121744584Y-102750000D01*
X121764229Y-103087300D01*
X121822899Y-103420032D01*
X121822899Y-103420033D01*
X121919800Y-103743705D01*
X121919802Y-103743712D01*
X121921667Y-103748035D01*
X122053625Y-104053948D01*
X122220083Y-104342261D01*
X122222559Y-104346550D01*
X122222561Y-104346553D01*
X122424324Y-104617568D01*
X122588930Y-104792039D01*
X122635639Y-104841548D01*
X122656189Y-104863329D01*
X122828731Y-105008109D01*
X122915006Y-105080502D01*
X123197292Y-105266164D01*
X123499224Y-105417800D01*
X123816717Y-105533358D01*
X123816720Y-105533358D01*
X123816721Y-105533359D01*
X124145469Y-105611274D01*
X124145474Y-105611274D01*
X124145480Y-105611276D01*
X124481065Y-105650500D01*
X124481068Y-105650500D01*
X124818932Y-105650500D01*
X124818935Y-105650500D01*
X125154520Y-105611276D01*
X125154526Y-105611274D01*
X125154530Y-105611274D01*
X125373695Y-105559330D01*
X125483283Y-105533358D01*
X125800776Y-105417800D01*
X126102708Y-105266164D01*
X126384994Y-105080502D01*
X126643817Y-104863323D01*
X126875678Y-104617565D01*
X127077440Y-104346552D01*
X127246375Y-104053948D01*
X127378333Y-103748034D01*
X136028613Y-103748034D01*
X136049118Y-103916906D01*
X136109440Y-104075964D01*
X136202581Y-104210901D01*
X136206076Y-104215964D01*
X136220364Y-104228622D01*
X136251383Y-104281361D01*
X136245479Y-104342261D01*
X136236192Y-104358963D01*
X136196615Y-104416299D01*
X136152880Y-104531622D01*
X136136294Y-104575357D01*
X136115789Y-104744229D01*
X136136294Y-104913101D01*
X136196616Y-105072159D01*
X136293251Y-105212158D01*
X136420582Y-105324963D01*
X136571209Y-105404019D01*
X136736378Y-105444729D01*
X136736381Y-105444729D01*
X136906487Y-105444729D01*
X136906490Y-105444729D01*
X137071659Y-105404019D01*
X137222286Y-105324963D01*
X137349617Y-105212158D01*
X137446252Y-105072159D01*
X137506574Y-104913101D01*
X137527079Y-104744229D01*
X137506574Y-104575357D01*
X137446252Y-104416299D01*
X137349617Y-104276300D01*
X137335327Y-104263640D01*
X137304308Y-104210901D01*
X137310212Y-104150001D01*
X137319497Y-104133302D01*
X137359076Y-104075964D01*
X137401308Y-103964607D01*
X171949500Y-103964607D01*
X171981766Y-104292209D01*
X172045990Y-104615087D01*
X172045993Y-104615100D01*
X172141548Y-104930102D01*
X172267527Y-105234242D01*
X172267540Y-105234269D01*
X172422711Y-105524576D01*
X172559883Y-105729868D01*
X172605607Y-105798298D01*
X172814449Y-106052772D01*
X173047228Y-106285551D01*
X173301702Y-106494393D01*
X173408494Y-106565749D01*
X173575423Y-106677288D01*
X173839676Y-106818533D01*
X173865749Y-106832469D01*
X174169889Y-106958448D01*
X174169891Y-106958448D01*
X174169897Y-106958451D01*
X174484899Y-107054006D01*
X174484902Y-107054006D01*
X174484913Y-107054010D01*
X174807787Y-107118233D01*
X174844188Y-107121818D01*
X175135392Y-107150500D01*
X175135400Y-107150500D01*
X175464608Y-107150500D01*
X175683008Y-107128988D01*
X175792213Y-107118233D01*
X176115087Y-107054010D01*
X176171797Y-107036807D01*
X176430102Y-106958451D01*
X176430104Y-106958449D01*
X176430111Y-106958448D01*
X176734251Y-106832469D01*
X176876120Y-106756638D01*
X177024576Y-106677288D01*
X177065918Y-106649664D01*
X177298298Y-106494393D01*
X177552772Y-106285551D01*
X177785551Y-106052772D01*
X177994393Y-105798298D01*
X178177286Y-105524579D01*
X178182704Y-105514444D01*
X178256638Y-105376120D01*
X178332469Y-105234251D01*
X178458448Y-104930111D01*
X178485314Y-104841548D01*
X178554006Y-104615100D01*
X178554005Y-104615100D01*
X178554010Y-104615087D01*
X178618233Y-104292213D01*
X178641700Y-104053948D01*
X178650500Y-103964607D01*
X178650500Y-103635392D01*
X178618233Y-103307790D01*
X178618233Y-103307787D01*
X178554010Y-102984913D01*
X178552126Y-102978702D01*
X178458451Y-102669897D01*
X178457583Y-102667800D01*
X178332469Y-102365749D01*
X178313628Y-102330499D01*
X178177288Y-102075423D01*
X178061604Y-101902290D01*
X177994393Y-101801702D01*
X177785551Y-101547228D01*
X177552772Y-101314449D01*
X177298298Y-101105607D01*
X177153868Y-101009102D01*
X177024576Y-100922711D01*
X176734269Y-100767540D01*
X176734257Y-100767534D01*
X176734251Y-100767531D01*
X176734246Y-100767528D01*
X176734242Y-100767527D01*
X176430102Y-100641548D01*
X176115100Y-100545993D01*
X176115087Y-100545990D01*
X176095028Y-100542000D01*
X175792213Y-100481767D01*
X175792211Y-100481766D01*
X175464608Y-100449500D01*
X175464600Y-100449500D01*
X175135400Y-100449500D01*
X175135392Y-100449500D01*
X174807790Y-100481766D01*
X174484912Y-100545990D01*
X174484899Y-100545993D01*
X174169897Y-100641548D01*
X173865757Y-100767527D01*
X173865730Y-100767540D01*
X173575423Y-100922711D01*
X173301700Y-101105608D01*
X173047233Y-101314444D01*
X172814444Y-101547233D01*
X172605608Y-101801700D01*
X172422711Y-102075423D01*
X172267540Y-102365730D01*
X172267527Y-102365757D01*
X172141548Y-102669897D01*
X172045993Y-102984899D01*
X172045990Y-102984912D01*
X171981766Y-103307790D01*
X171949500Y-103635392D01*
X171949500Y-103964607D01*
X137401308Y-103964607D01*
X137419398Y-103916906D01*
X137439903Y-103748034D01*
X137439377Y-103743705D01*
X137436252Y-103717972D01*
X137419398Y-103579162D01*
X137359076Y-103420104D01*
X137262441Y-103280105D01*
X137135110Y-103167300D01*
X136984483Y-103088244D01*
X136984482Y-103088243D01*
X136984481Y-103088243D01*
X136819316Y-103047534D01*
X136819314Y-103047534D01*
X136649202Y-103047534D01*
X136649199Y-103047534D01*
X136484034Y-103088243D01*
X136333404Y-103167301D01*
X136206076Y-103280103D01*
X136206074Y-103280106D01*
X136109440Y-103420104D01*
X136049118Y-103579163D01*
X136029139Y-103743705D01*
X136028613Y-103748034D01*
X127378333Y-103748034D01*
X127380198Y-103743711D01*
X127477100Y-103420035D01*
X127535771Y-103087298D01*
X127555416Y-102750000D01*
X127536708Y-102428790D01*
X127552199Y-102369603D01*
X127599524Y-102330822D01*
X127660606Y-102327264D01*
X127689941Y-102340325D01*
X127728609Y-102365757D01*
X127957292Y-102516164D01*
X128259224Y-102667800D01*
X128576717Y-102783358D01*
X128576720Y-102783358D01*
X128576721Y-102783359D01*
X128905469Y-102861274D01*
X128905474Y-102861274D01*
X128905480Y-102861276D01*
X129241065Y-102900500D01*
X129241068Y-102900500D01*
X129578932Y-102900500D01*
X129578935Y-102900500D01*
X129914520Y-102861276D01*
X129914526Y-102861274D01*
X129914530Y-102861274D01*
X130133695Y-102809330D01*
X130243283Y-102783358D01*
X130560776Y-102667800D01*
X130862708Y-102516164D01*
X131144994Y-102330502D01*
X131403817Y-102113323D01*
X131510732Y-102000000D01*
X148694355Y-102000000D01*
X148714860Y-102168872D01*
X148775182Y-102327930D01*
X148871817Y-102467929D01*
X148999148Y-102580734D01*
X149149775Y-102659790D01*
X149314944Y-102700500D01*
X149314947Y-102700500D01*
X149485053Y-102700500D01*
X149485056Y-102700500D01*
X149650225Y-102659790D01*
X149800852Y-102580734D01*
X149928183Y-102467929D01*
X150024818Y-102327930D01*
X150085140Y-102168872D01*
X150105645Y-102000000D01*
X150085140Y-101831128D01*
X150024818Y-101672070D01*
X149928183Y-101532071D01*
X149800852Y-101419266D01*
X149650225Y-101340210D01*
X149650224Y-101340209D01*
X149650223Y-101340209D01*
X149485058Y-101299500D01*
X149485056Y-101299500D01*
X149314944Y-101299500D01*
X149314941Y-101299500D01*
X149149776Y-101340209D01*
X148999146Y-101419267D01*
X148871818Y-101532069D01*
X148871816Y-101532072D01*
X148807316Y-101625516D01*
X148775182Y-101672070D01*
X148714860Y-101831128D01*
X148694355Y-102000000D01*
X131510732Y-102000000D01*
X131635678Y-101867565D01*
X131837440Y-101596552D01*
X132006375Y-101303948D01*
X132140198Y-100993711D01*
X132237100Y-100670035D01*
X132295771Y-100337298D01*
X132315416Y-100000004D01*
X164044693Y-100000004D01*
X164063902Y-100342076D01*
X164063905Y-100342096D01*
X164121293Y-100679858D01*
X164121297Y-100679876D01*
X164216146Y-101009102D01*
X164347265Y-101325652D01*
X164482550Y-101570430D01*
X164512998Y-101625521D01*
X164711265Y-101904953D01*
X164839459Y-102048402D01*
X164939565Y-102160421D01*
X164939578Y-102160434D01*
X164974959Y-102192052D01*
X165195047Y-102388735D01*
X165474479Y-102587002D01*
X165474483Y-102587004D01*
X165774348Y-102752734D01*
X165774347Y-102752734D01*
X165774352Y-102752736D01*
X166090896Y-102883853D01*
X166420130Y-102978704D01*
X166420138Y-102978705D01*
X166420141Y-102978706D01*
X166456673Y-102984913D01*
X166757914Y-103036096D01*
X166757917Y-103036096D01*
X166757923Y-103036097D01*
X167099995Y-103055307D01*
X167100000Y-103055307D01*
X167100005Y-103055307D01*
X167442076Y-103036097D01*
X167442080Y-103036096D01*
X167442086Y-103036096D01*
X167779870Y-102978704D01*
X168109104Y-102883853D01*
X168425648Y-102752736D01*
X168430599Y-102750000D01*
X168520164Y-102700499D01*
X168725521Y-102587002D01*
X169004953Y-102388735D01*
X169260428Y-102160428D01*
X169488735Y-101904953D01*
X169687002Y-101625521D01*
X169844688Y-101340210D01*
X169852734Y-101325652D01*
X169852736Y-101325648D01*
X169983853Y-101009104D01*
X170078704Y-100679870D01*
X170136096Y-100342086D01*
X170137378Y-100319267D01*
X170155307Y-100000004D01*
X170155307Y-99999995D01*
X170136097Y-99657923D01*
X170136094Y-99657903D01*
X170122982Y-99580734D01*
X170081782Y-99338247D01*
X170078706Y-99320141D01*
X170078702Y-99320123D01*
X170035127Y-99168872D01*
X169983853Y-98990896D01*
X169852736Y-98674352D01*
X169852734Y-98674347D01*
X169703013Y-98403449D01*
X169687002Y-98374479D01*
X169488735Y-98095047D01*
X169302524Y-97886677D01*
X169260434Y-97839578D01*
X169260421Y-97839565D01*
X169178415Y-97766280D01*
X169004953Y-97611265D01*
X168725521Y-97412998D01*
X168725516Y-97412995D01*
X168425651Y-97247265D01*
X168425652Y-97247265D01*
X168109102Y-97116146D01*
X167779876Y-97021297D01*
X167779858Y-97021293D01*
X167442096Y-96963905D01*
X167442076Y-96963902D01*
X167100005Y-96944693D01*
X167099995Y-96944693D01*
X166757923Y-96963902D01*
X166757903Y-96963905D01*
X166420141Y-97021293D01*
X166420123Y-97021297D01*
X166090897Y-97116146D01*
X165774347Y-97247265D01*
X165474483Y-97412995D01*
X165374642Y-97483836D01*
X165195047Y-97611265D01*
X165129882Y-97669500D01*
X164939578Y-97839565D01*
X164939565Y-97839578D01*
X164778302Y-98020031D01*
X164711265Y-98095047D01*
X164711263Y-98095050D01*
X164512995Y-98374483D01*
X164347265Y-98674347D01*
X164216146Y-98990897D01*
X164121297Y-99320123D01*
X164121293Y-99320141D01*
X164063905Y-99657903D01*
X164063902Y-99657923D01*
X164044693Y-99999995D01*
X164044693Y-100000004D01*
X132315416Y-100000004D01*
X132315416Y-100000000D01*
X132295771Y-99662702D01*
X132237100Y-99329965D01*
X132140198Y-99006289D01*
X132137485Y-99000000D01*
X135994355Y-99000000D01*
X136014860Y-99168872D01*
X136075182Y-99327930D01*
X136171817Y-99467929D01*
X136299148Y-99580734D01*
X136449775Y-99659790D01*
X136614944Y-99700500D01*
X136614947Y-99700500D01*
X136785053Y-99700500D01*
X136785056Y-99700500D01*
X136950225Y-99659790D01*
X137100852Y-99580734D01*
X137228183Y-99467929D01*
X137324818Y-99327930D01*
X137385140Y-99168872D01*
X137405645Y-99000000D01*
X137385140Y-98831128D01*
X137324818Y-98672070D01*
X137228183Y-98532071D01*
X137100852Y-98419266D01*
X136950225Y-98340210D01*
X136950224Y-98340209D01*
X136950223Y-98340209D01*
X136785058Y-98299500D01*
X136785056Y-98299500D01*
X136614944Y-98299500D01*
X136614941Y-98299500D01*
X136449776Y-98340209D01*
X136299146Y-98419267D01*
X136171818Y-98532069D01*
X136171816Y-98532072D01*
X136138227Y-98580734D01*
X136075182Y-98672070D01*
X136014860Y-98831128D01*
X135994355Y-99000000D01*
X132137485Y-99000000D01*
X132006375Y-98696052D01*
X131837440Y-98403448D01*
X131635678Y-98132435D01*
X131635677Y-98132434D01*
X131635675Y-98132431D01*
X131510732Y-98000000D01*
X143094355Y-98000000D01*
X143114860Y-98168872D01*
X143175182Y-98327930D01*
X143271817Y-98467929D01*
X143399148Y-98580734D01*
X143549775Y-98659790D01*
X143714944Y-98700500D01*
X143714947Y-98700500D01*
X143885053Y-98700500D01*
X143885056Y-98700500D01*
X144050225Y-98659790D01*
X144200852Y-98580734D01*
X144328183Y-98467929D01*
X144424818Y-98327930D01*
X144485140Y-98168872D01*
X144505645Y-98000000D01*
X144485140Y-97831128D01*
X144424818Y-97672070D01*
X144328183Y-97532071D01*
X144200852Y-97419266D01*
X144050225Y-97340210D01*
X144050224Y-97340209D01*
X144050223Y-97340209D01*
X143885058Y-97299500D01*
X143885056Y-97299500D01*
X143714944Y-97299500D01*
X143714941Y-97299500D01*
X143549776Y-97340209D01*
X143399146Y-97419267D01*
X143271818Y-97532069D01*
X143271816Y-97532072D01*
X143239079Y-97579500D01*
X143175182Y-97672070D01*
X143123650Y-97807952D01*
X143114860Y-97831129D01*
X143100234Y-97951586D01*
X143094355Y-98000000D01*
X131510732Y-98000000D01*
X131465062Y-97951593D01*
X131403817Y-97886677D01*
X131403815Y-97886675D01*
X131403810Y-97886670D01*
X131176226Y-97695705D01*
X131144994Y-97669498D01*
X131091431Y-97634269D01*
X130862713Y-97483839D01*
X130862711Y-97483838D01*
X130862708Y-97483836D01*
X130560776Y-97332200D01*
X130243283Y-97216642D01*
X130243284Y-97216642D01*
X130243278Y-97216640D01*
X129914530Y-97138725D01*
X129805463Y-97125977D01*
X129578935Y-97099500D01*
X129241065Y-97099500D01*
X129056144Y-97121113D01*
X128905469Y-97138725D01*
X128576721Y-97216640D01*
X128386480Y-97285882D01*
X128259224Y-97332200D01*
X128259223Y-97332200D01*
X128259221Y-97332201D01*
X127957286Y-97483839D01*
X127689941Y-97659674D01*
X127630934Y-97675854D01*
X127573686Y-97654259D01*
X127540064Y-97603140D01*
X127536708Y-97571205D01*
X127538988Y-97532071D01*
X127550162Y-97340209D01*
X127555416Y-97250009D01*
X127555416Y-97250007D01*
X127555416Y-97250000D01*
X127535771Y-96912702D01*
X127477100Y-96579965D01*
X127380198Y-96256289D01*
X127246375Y-95946052D01*
X127077440Y-95653448D01*
X126888755Y-95400000D01*
X136329354Y-95400000D01*
X136349859Y-95568872D01*
X136410181Y-95727930D01*
X136506816Y-95867929D01*
X136634147Y-95980734D01*
X136784774Y-96059790D01*
X136949943Y-96100500D01*
X136949946Y-96100500D01*
X137120052Y-96100500D01*
X137120055Y-96100500D01*
X137285224Y-96059790D01*
X137399143Y-96000000D01*
X142194355Y-96000000D01*
X142214860Y-96168872D01*
X142275182Y-96327930D01*
X142371817Y-96467929D01*
X142499148Y-96580734D01*
X142649775Y-96659790D01*
X142814944Y-96700500D01*
X142814947Y-96700500D01*
X142985053Y-96700500D01*
X142985056Y-96700500D01*
X143150225Y-96659790D01*
X143300852Y-96580734D01*
X143428183Y-96467929D01*
X143499502Y-96364607D01*
X171949500Y-96364607D01*
X171981766Y-96692209D01*
X172045990Y-97015087D01*
X172045993Y-97015100D01*
X172141548Y-97330102D01*
X172267527Y-97634242D01*
X172267540Y-97634269D01*
X172422711Y-97924576D01*
X172473109Y-98000001D01*
X172605607Y-98198298D01*
X172814449Y-98452772D01*
X173047228Y-98685551D01*
X173301702Y-98894393D01*
X173438561Y-98985839D01*
X173575423Y-99077288D01*
X173865730Y-99232459D01*
X173865749Y-99232469D01*
X174169889Y-99358448D01*
X174169891Y-99358448D01*
X174169897Y-99358451D01*
X174484899Y-99454006D01*
X174484902Y-99454006D01*
X174484913Y-99454010D01*
X174807787Y-99518233D01*
X174844188Y-99521818D01*
X175135392Y-99550500D01*
X175135400Y-99550500D01*
X175464608Y-99550500D01*
X175683008Y-99528988D01*
X175792213Y-99518233D01*
X176115087Y-99454010D01*
X176414021Y-99363329D01*
X176430102Y-99358451D01*
X176430104Y-99358449D01*
X176430111Y-99358448D01*
X176734251Y-99232469D01*
X176893425Y-99147389D01*
X177024576Y-99077288D01*
X177024579Y-99077286D01*
X177298298Y-98894393D01*
X177552772Y-98685551D01*
X177785551Y-98452772D01*
X177994393Y-98198298D01*
X178177286Y-97924579D01*
X178179717Y-97920032D01*
X178318880Y-97659674D01*
X178332469Y-97634251D01*
X178458448Y-97330111D01*
X178482748Y-97250007D01*
X178552126Y-97021297D01*
X178554010Y-97015087D01*
X178618233Y-96692213D01*
X178640323Y-96467929D01*
X178650500Y-96364607D01*
X178650500Y-96035392D01*
X178618233Y-95707790D01*
X178618233Y-95707787D01*
X178554010Y-95384913D01*
X178554006Y-95384899D01*
X178458451Y-95069897D01*
X178436925Y-95017927D01*
X178332469Y-94765749D01*
X178307412Y-94718870D01*
X178177288Y-94475423D01*
X178085839Y-94338561D01*
X177994393Y-94201702D01*
X177785551Y-93947228D01*
X177552772Y-93714449D01*
X177298298Y-93505607D01*
X177191493Y-93434242D01*
X177024576Y-93322711D01*
X176734269Y-93167540D01*
X176734257Y-93167534D01*
X176734251Y-93167531D01*
X176734246Y-93167528D01*
X176734242Y-93167527D01*
X176430102Y-93041548D01*
X176115100Y-92945993D01*
X176115087Y-92945990D01*
X175792213Y-92881767D01*
X175792211Y-92881766D01*
X175464608Y-92849500D01*
X175464600Y-92849500D01*
X175135400Y-92849500D01*
X175135392Y-92849500D01*
X174807790Y-92881766D01*
X174484912Y-92945990D01*
X174484899Y-92945993D01*
X174169897Y-93041548D01*
X173865757Y-93167527D01*
X173865730Y-93167540D01*
X173575423Y-93322711D01*
X173301700Y-93505608D01*
X173047233Y-93714444D01*
X172814444Y-93947233D01*
X172605608Y-94201700D01*
X172422711Y-94475423D01*
X172267540Y-94765730D01*
X172267527Y-94765757D01*
X172141548Y-95069897D01*
X172045993Y-95384899D01*
X172045990Y-95384912D01*
X171981766Y-95707790D01*
X171949500Y-96035392D01*
X171949500Y-96364607D01*
X143499502Y-96364607D01*
X143524818Y-96327930D01*
X143585140Y-96168872D01*
X143605645Y-96000000D01*
X143603305Y-95980732D01*
X143599094Y-95946052D01*
X143585140Y-95831128D01*
X143524818Y-95672070D01*
X143428183Y-95532071D01*
X143300852Y-95419266D01*
X143150225Y-95340210D01*
X143150224Y-95340209D01*
X143150223Y-95340209D01*
X142985058Y-95299500D01*
X142985056Y-95299500D01*
X142814944Y-95299500D01*
X142814941Y-95299500D01*
X142649776Y-95340209D01*
X142499146Y-95419267D01*
X142371818Y-95532069D01*
X142371817Y-95532071D01*
X142275182Y-95672070D01*
X142261637Y-95707787D01*
X142214860Y-95831129D01*
X142196695Y-95980732D01*
X142194355Y-96000000D01*
X137399143Y-96000000D01*
X137435851Y-95980734D01*
X137563182Y-95867929D01*
X137659817Y-95727930D01*
X137720139Y-95568872D01*
X137740644Y-95400000D01*
X137738810Y-95384899D01*
X137736993Y-95369938D01*
X137720139Y-95231128D01*
X137659817Y-95072070D01*
X137563182Y-94932071D01*
X137435851Y-94819266D01*
X137285224Y-94740210D01*
X137285223Y-94740209D01*
X137285222Y-94740209D01*
X137120057Y-94699500D01*
X137120055Y-94699500D01*
X136949943Y-94699500D01*
X136949940Y-94699500D01*
X136784775Y-94740209D01*
X136634145Y-94819267D01*
X136506817Y-94932069D01*
X136506816Y-94932071D01*
X136410181Y-95072070D01*
X136357952Y-95209790D01*
X136349859Y-95231129D01*
X136331188Y-95384899D01*
X136329354Y-95400000D01*
X126888755Y-95400000D01*
X126875678Y-95382435D01*
X126875677Y-95382434D01*
X126875675Y-95382431D01*
X126712796Y-95209790D01*
X126643817Y-95136677D01*
X126643815Y-95136675D01*
X126643810Y-95136670D01*
X126384996Y-94919500D01*
X126384991Y-94919496D01*
X126102713Y-94733839D01*
X126102711Y-94733838D01*
X126102708Y-94733836D01*
X125800776Y-94582200D01*
X125712307Y-94550000D01*
X137894355Y-94550000D01*
X137914860Y-94718872D01*
X137975182Y-94877930D01*
X138071817Y-95017929D01*
X138199148Y-95130734D01*
X138349775Y-95209790D01*
X138514944Y-95250500D01*
X138514947Y-95250500D01*
X138685053Y-95250500D01*
X138685056Y-95250500D01*
X138850225Y-95209790D01*
X139000852Y-95130734D01*
X139128183Y-95017929D01*
X139224818Y-94877930D01*
X139285140Y-94718872D01*
X139305645Y-94550000D01*
X139285140Y-94381128D01*
X139224818Y-94222070D01*
X139128183Y-94082071D01*
X139000852Y-93969266D01*
X138850225Y-93890210D01*
X138850224Y-93890209D01*
X138850223Y-93890209D01*
X138685058Y-93849500D01*
X138685056Y-93849500D01*
X138514944Y-93849500D01*
X138514941Y-93849500D01*
X138349776Y-93890209D01*
X138199146Y-93969267D01*
X138071818Y-94082069D01*
X138071817Y-94082071D01*
X137975182Y-94222070D01*
X137914860Y-94381128D01*
X137894355Y-94550000D01*
X125712307Y-94550000D01*
X125483283Y-94466642D01*
X125483284Y-94466642D01*
X125483278Y-94466640D01*
X125154530Y-94388725D01*
X125045463Y-94375977D01*
X124818935Y-94349500D01*
X124481065Y-94349500D01*
X124296144Y-94371113D01*
X124145469Y-94388725D01*
X123816721Y-94466640D01*
X123626480Y-94535882D01*
X123499224Y-94582200D01*
X123499223Y-94582200D01*
X123499221Y-94582201D01*
X123197286Y-94733839D01*
X122915008Y-94919496D01*
X122915003Y-94919500D01*
X122656189Y-95136670D01*
X122424324Y-95382431D01*
X122222561Y-95653446D01*
X122222559Y-95653449D01*
X122053625Y-95946052D01*
X122053622Y-95946058D01*
X121919802Y-96256287D01*
X121919800Y-96256294D01*
X121822899Y-96579966D01*
X121822899Y-96579967D01*
X121764229Y-96912699D01*
X121744584Y-97250000D01*
X121764229Y-97587300D01*
X121822899Y-97920032D01*
X121822899Y-97920033D01*
X121919800Y-98243705D01*
X121919802Y-98243712D01*
X122037984Y-98517688D01*
X122053625Y-98553948D01*
X122222560Y-98846552D01*
X122293849Y-98942310D01*
X122424324Y-99117568D01*
X122523509Y-99222697D01*
X122651586Y-99358451D01*
X122656189Y-99363329D01*
X122780847Y-99467929D01*
X122915006Y-99580502D01*
X122938173Y-99595739D01*
X123197286Y-99766161D01*
X123197290Y-99766163D01*
X123197292Y-99766164D01*
X123486740Y-99911530D01*
X123530256Y-99954543D01*
X123540179Y-100014918D01*
X123512719Y-100069595D01*
X123486741Y-100088469D01*
X123424954Y-100119500D01*
X123197286Y-100233838D01*
X122915008Y-100419496D01*
X122915003Y-100419500D01*
X122656189Y-100636670D01*
X122424324Y-100882431D01*
X122222561Y-101153446D01*
X122222559Y-101153449D01*
X122053625Y-101446052D01*
X122053622Y-101446058D01*
X121919802Y-101756287D01*
X121919800Y-101756294D01*
X121822899Y-102079966D01*
X121822899Y-102079967D01*
X121764229Y-102412699D01*
X121744584Y-102750000D01*
X113800500Y-102750000D01*
X113800500Y-101242500D01*
X115151855Y-101242500D01*
X115172360Y-101411372D01*
X115232682Y-101570430D01*
X115329317Y-101710429D01*
X115456648Y-101823234D01*
X115607275Y-101902290D01*
X115772444Y-101943000D01*
X115772447Y-101943000D01*
X115942553Y-101943000D01*
X115942556Y-101943000D01*
X116107725Y-101902290D01*
X116258352Y-101823234D01*
X116385683Y-101710429D01*
X116482318Y-101570430D01*
X116542640Y-101411372D01*
X116563145Y-101242500D01*
X116542640Y-101073628D01*
X116482318Y-100914570D01*
X116472261Y-100900000D01*
X119444355Y-100900000D01*
X119464860Y-101068872D01*
X119525182Y-101227930D01*
X119621817Y-101367929D01*
X119749148Y-101480734D01*
X119899775Y-101559790D01*
X120064944Y-101600500D01*
X120064947Y-101600500D01*
X120235053Y-101600500D01*
X120235056Y-101600500D01*
X120400225Y-101559790D01*
X120550852Y-101480734D01*
X120678183Y-101367929D01*
X120774818Y-101227930D01*
X120835140Y-101068872D01*
X120855645Y-100900000D01*
X120835140Y-100731128D01*
X120774818Y-100572070D01*
X120678183Y-100432071D01*
X120550852Y-100319266D01*
X120400225Y-100240210D01*
X120400224Y-100240209D01*
X120400223Y-100240209D01*
X120235058Y-100199500D01*
X120235056Y-100199500D01*
X120064944Y-100199500D01*
X120064941Y-100199500D01*
X119899776Y-100240209D01*
X119749146Y-100319267D01*
X119621818Y-100432069D01*
X119621816Y-100432072D01*
X119580729Y-100491597D01*
X119525182Y-100572070D01*
X119464860Y-100731128D01*
X119444355Y-100900000D01*
X116472261Y-100900000D01*
X116385683Y-100774571D01*
X116377736Y-100767531D01*
X116267686Y-100670035D01*
X116258352Y-100661766D01*
X116107725Y-100582710D01*
X116107724Y-100582709D01*
X116107723Y-100582709D01*
X115942558Y-100542000D01*
X115942556Y-100542000D01*
X115772444Y-100542000D01*
X115772441Y-100542000D01*
X115607276Y-100582709D01*
X115456646Y-100661767D01*
X115329318Y-100774569D01*
X115329316Y-100774572D01*
X115262441Y-100871457D01*
X115232682Y-100914570D01*
X115172360Y-101073628D01*
X115151855Y-101242500D01*
X113800500Y-101242500D01*
X113800500Y-98000000D01*
X119544355Y-98000000D01*
X119564860Y-98168872D01*
X119625182Y-98327930D01*
X119721817Y-98467929D01*
X119849148Y-98580734D01*
X119999775Y-98659790D01*
X120164944Y-98700500D01*
X120164947Y-98700500D01*
X120335053Y-98700500D01*
X120335056Y-98700500D01*
X120500225Y-98659790D01*
X120650852Y-98580734D01*
X120778183Y-98467929D01*
X120874818Y-98327930D01*
X120935140Y-98168872D01*
X120955645Y-98000000D01*
X120935140Y-97831128D01*
X120874818Y-97672070D01*
X120778183Y-97532071D01*
X120650852Y-97419266D01*
X120500225Y-97340210D01*
X120500224Y-97340209D01*
X120500223Y-97340209D01*
X120335058Y-97299500D01*
X120335056Y-97299500D01*
X120164944Y-97299500D01*
X120164941Y-97299500D01*
X119999776Y-97340209D01*
X119849146Y-97419267D01*
X119721818Y-97532069D01*
X119721816Y-97532072D01*
X119689079Y-97579500D01*
X119625182Y-97672070D01*
X119573650Y-97807952D01*
X119564860Y-97831129D01*
X119550234Y-97951586D01*
X119544355Y-98000000D01*
X113800500Y-98000000D01*
X113800500Y-92164607D01*
X114149500Y-92164607D01*
X114181766Y-92492209D01*
X114245990Y-92815087D01*
X114245993Y-92815100D01*
X114341548Y-93130102D01*
X114467527Y-93434242D01*
X114467540Y-93434269D01*
X114622711Y-93724576D01*
X114706183Y-93849500D01*
X114805607Y-93998298D01*
X115014449Y-94252772D01*
X115247228Y-94485551D01*
X115501702Y-94694393D01*
X115608494Y-94765749D01*
X115775423Y-94877288D01*
X116038546Y-95017929D01*
X116065749Y-95032469D01*
X116369889Y-95158448D01*
X116369891Y-95158448D01*
X116369897Y-95158451D01*
X116684899Y-95254006D01*
X116684902Y-95254006D01*
X116684913Y-95254010D01*
X117007787Y-95318233D01*
X117044188Y-95321818D01*
X117335392Y-95350500D01*
X117335400Y-95350500D01*
X117664608Y-95350500D01*
X117883008Y-95328988D01*
X117992213Y-95318233D01*
X118315087Y-95254010D01*
X118390515Y-95231129D01*
X118630102Y-95158451D01*
X118630104Y-95158449D01*
X118630111Y-95158448D01*
X118934251Y-95032469D01*
X119145606Y-94919498D01*
X119224576Y-94877288D01*
X119224579Y-94877286D01*
X119498298Y-94694393D01*
X119752772Y-94485551D01*
X119985551Y-94252772D01*
X120194393Y-93998298D01*
X120377286Y-93724579D01*
X120382704Y-93714444D01*
X120494328Y-93505608D01*
X120532469Y-93434251D01*
X120658448Y-93130111D01*
X120685314Y-93041548D01*
X120754006Y-92815100D01*
X120754005Y-92815100D01*
X120754010Y-92815087D01*
X120818233Y-92492213D01*
X120829966Y-92373081D01*
X120850500Y-92164607D01*
X120850500Y-91835392D01*
X120818233Y-91507790D01*
X120818233Y-91507787D01*
X120754010Y-91184913D01*
X120754006Y-91184899D01*
X120658451Y-90869897D01*
X120623460Y-90785420D01*
X120532469Y-90565749D01*
X120487027Y-90480732D01*
X120377288Y-90275423D01*
X120285839Y-90138561D01*
X120194393Y-90001702D01*
X120110928Y-89900000D01*
X136494355Y-89900000D01*
X136514860Y-90068872D01*
X136575182Y-90227930D01*
X136671817Y-90367929D01*
X136799148Y-90480734D01*
X136949775Y-90559790D01*
X137114944Y-90600500D01*
X137114947Y-90600500D01*
X137285053Y-90600500D01*
X137285056Y-90600500D01*
X137450225Y-90559790D01*
X137600852Y-90480734D01*
X137728183Y-90367929D01*
X137762999Y-90317490D01*
X147994355Y-90317490D01*
X148014860Y-90486362D01*
X148075182Y-90645420D01*
X148171817Y-90785419D01*
X148299148Y-90898224D01*
X148449775Y-90977280D01*
X148614944Y-91017990D01*
X148614947Y-91017990D01*
X148785053Y-91017990D01*
X148785056Y-91017990D01*
X148950225Y-90977280D01*
X149100852Y-90898224D01*
X149228183Y-90785419D01*
X149324818Y-90645420D01*
X149385140Y-90486362D01*
X149405645Y-90317490D01*
X149385140Y-90148618D01*
X149324818Y-89989560D01*
X149228183Y-89849561D01*
X149100852Y-89736756D01*
X148950225Y-89657700D01*
X148950224Y-89657699D01*
X148950223Y-89657699D01*
X148785058Y-89616990D01*
X148785056Y-89616990D01*
X148614944Y-89616990D01*
X148614941Y-89616990D01*
X148449776Y-89657699D01*
X148299146Y-89736757D01*
X148171818Y-89849559D01*
X148171816Y-89849562D01*
X148075182Y-89989560D01*
X148014860Y-90148618D01*
X147994355Y-90317490D01*
X137762999Y-90317490D01*
X137824818Y-90227930D01*
X137885140Y-90068872D01*
X137905645Y-89900000D01*
X137885140Y-89731128D01*
X137824818Y-89572070D01*
X137728183Y-89432071D01*
X137600852Y-89319266D01*
X137450225Y-89240210D01*
X137450224Y-89240209D01*
X137450223Y-89240209D01*
X137285058Y-89199500D01*
X137285056Y-89199500D01*
X137114944Y-89199500D01*
X137114941Y-89199500D01*
X136949776Y-89240209D01*
X136799146Y-89319267D01*
X136671818Y-89432069D01*
X136671817Y-89432071D01*
X136575182Y-89572070D01*
X136514860Y-89731128D01*
X136494355Y-89900000D01*
X120110928Y-89900000D01*
X119985551Y-89747228D01*
X119752772Y-89514449D01*
X119498298Y-89305607D01*
X119429868Y-89259883D01*
X119224576Y-89122711D01*
X118934269Y-88967540D01*
X118934257Y-88967534D01*
X118934251Y-88967531D01*
X118934246Y-88967528D01*
X118934242Y-88967527D01*
X118630102Y-88841548D01*
X118315100Y-88745993D01*
X118315087Y-88745990D01*
X117992213Y-88681767D01*
X117992211Y-88681766D01*
X117664608Y-88649500D01*
X117664600Y-88649500D01*
X117335400Y-88649500D01*
X117335392Y-88649500D01*
X117007790Y-88681766D01*
X116684912Y-88745990D01*
X116684899Y-88745993D01*
X116369897Y-88841548D01*
X116065757Y-88967527D01*
X116065730Y-88967540D01*
X115775423Y-89122711D01*
X115501700Y-89305608D01*
X115247233Y-89514444D01*
X115014444Y-89747233D01*
X114805608Y-90001700D01*
X114622711Y-90275423D01*
X114467540Y-90565730D01*
X114467527Y-90565757D01*
X114341548Y-90869897D01*
X114245993Y-91184899D01*
X114245990Y-91184912D01*
X114181766Y-91507790D01*
X114149500Y-91835392D01*
X114149500Y-92164607D01*
X113800500Y-92164607D01*
X113800500Y-87040000D01*
X119494571Y-87040000D01*
X119514244Y-87252311D01*
X119514246Y-87252317D01*
X119572595Y-87457389D01*
X119667634Y-87648255D01*
X119796128Y-87818407D01*
X119796135Y-87818413D01*
X119953692Y-87962047D01*
X119953699Y-87962053D01*
X119992530Y-87986096D01*
X120134981Y-88074298D01*
X120333802Y-88151321D01*
X120543390Y-88190500D01*
X120756610Y-88190500D01*
X120966198Y-88151321D01*
X121165019Y-88074298D01*
X121346302Y-87962052D01*
X121503872Y-87818407D01*
X121632366Y-87648255D01*
X121727405Y-87457389D01*
X121785756Y-87252310D01*
X121805429Y-87040000D01*
X122034571Y-87040000D01*
X122054244Y-87252311D01*
X122054246Y-87252317D01*
X122112595Y-87457389D01*
X122207634Y-87648255D01*
X122336128Y-87818407D01*
X122336135Y-87818413D01*
X122493692Y-87962047D01*
X122493699Y-87962053D01*
X122532530Y-87986096D01*
X122674981Y-88074298D01*
X122873802Y-88151321D01*
X123083390Y-88190500D01*
X123296610Y-88190500D01*
X123506198Y-88151321D01*
X123601807Y-88114281D01*
X123662897Y-88110891D01*
X123714314Y-88144056D01*
X123735847Y-88194662D01*
X123741944Y-88244869D01*
X123744860Y-88268884D01*
X123805182Y-88427942D01*
X123901817Y-88567941D01*
X124029148Y-88680746D01*
X124179775Y-88759802D01*
X124344944Y-88800512D01*
X124344947Y-88800512D01*
X124515053Y-88800512D01*
X124515056Y-88800512D01*
X124680225Y-88759802D01*
X124830852Y-88680746D01*
X124958183Y-88567941D01*
X125054818Y-88427942D01*
X125115140Y-88268884D01*
X125126848Y-88172460D01*
X125152630Y-88116976D01*
X125206104Y-88087240D01*
X125260883Y-88092080D01*
X125370173Y-88134419D01*
X125417603Y-88173070D01*
X125433257Y-88232219D01*
X125426976Y-88261838D01*
X125400796Y-88330870D01*
X125380291Y-88499740D01*
X125380291Y-88499743D01*
X125383714Y-88527930D01*
X125400796Y-88668614D01*
X125461118Y-88827672D01*
X125557753Y-88967671D01*
X125685084Y-89080476D01*
X125835711Y-89159532D01*
X126000880Y-89200242D01*
X126000883Y-89200242D01*
X126170989Y-89200242D01*
X126170992Y-89200242D01*
X126336161Y-89159532D01*
X126486788Y-89080476D01*
X126614119Y-88967671D01*
X126710754Y-88827672D01*
X126771076Y-88668614D01*
X126791581Y-88499742D01*
X126771076Y-88330870D01*
X126721444Y-88200000D01*
X136294355Y-88200000D01*
X136314860Y-88368872D01*
X136375182Y-88527930D01*
X136471817Y-88667929D01*
X136599148Y-88780734D01*
X136749775Y-88859790D01*
X136914944Y-88900500D01*
X136914947Y-88900500D01*
X137085053Y-88900500D01*
X137085056Y-88900500D01*
X137250225Y-88859790D01*
X137400852Y-88780734D01*
X137528183Y-88667929D01*
X137624818Y-88527930D01*
X137685140Y-88368872D01*
X137700198Y-88244860D01*
X173199500Y-88244860D01*
X173199501Y-88244863D01*
X173202414Y-88269990D01*
X173227756Y-88327385D01*
X173247794Y-88372765D01*
X173327235Y-88452206D01*
X173430009Y-88497585D01*
X173455135Y-88500500D01*
X175544864Y-88500499D01*
X175569991Y-88497585D01*
X175672765Y-88452206D01*
X175752206Y-88372765D01*
X175797585Y-88269991D01*
X175800500Y-88244865D01*
X175800499Y-86155136D01*
X175797585Y-86130009D01*
X175752206Y-86027235D01*
X175672765Y-85947794D01*
X175569991Y-85902415D01*
X175569990Y-85902414D01*
X175569988Y-85902414D01*
X175544868Y-85899500D01*
X173455139Y-85899500D01*
X173455136Y-85899501D01*
X173430009Y-85902414D01*
X173327235Y-85947794D01*
X173247794Y-86027235D01*
X173202414Y-86130011D01*
X173199500Y-86155130D01*
X173199500Y-88244860D01*
X137700198Y-88244860D01*
X137705645Y-88200000D01*
X137704491Y-88190500D01*
X137695564Y-88116976D01*
X137685140Y-88031128D01*
X137624818Y-87872070D01*
X137528183Y-87732071D01*
X137400852Y-87619266D01*
X137250225Y-87540210D01*
X137250224Y-87540209D01*
X137250223Y-87540209D01*
X137085058Y-87499500D01*
X137085056Y-87499500D01*
X136914944Y-87499500D01*
X136914941Y-87499500D01*
X136749776Y-87540209D01*
X136599146Y-87619267D01*
X136471818Y-87732069D01*
X136471816Y-87732072D01*
X136412223Y-87818407D01*
X136375182Y-87872070D01*
X136341057Y-87962053D01*
X136314860Y-88031129D01*
X136295509Y-88190500D01*
X136294355Y-88200000D01*
X126721444Y-88200000D01*
X126710754Y-88171812D01*
X126614119Y-88031813D01*
X126562512Y-87986094D01*
X126531495Y-87933356D01*
X126537400Y-87872457D01*
X126561469Y-87838830D01*
X126583865Y-87818413D01*
X126583872Y-87818407D01*
X126712366Y-87648255D01*
X126807405Y-87457389D01*
X126865756Y-87252310D01*
X126885429Y-87040000D01*
X127114571Y-87040000D01*
X127134244Y-87252311D01*
X127134246Y-87252317D01*
X127192595Y-87457389D01*
X127287634Y-87648255D01*
X127416128Y-87818407D01*
X127416135Y-87818413D01*
X127573692Y-87962047D01*
X127573699Y-87962053D01*
X127612530Y-87986096D01*
X127754981Y-88074298D01*
X127953802Y-88151321D01*
X128163390Y-88190500D01*
X128376610Y-88190500D01*
X128586198Y-88151321D01*
X128785019Y-88074298D01*
X128966302Y-87962052D01*
X129123872Y-87818407D01*
X129252366Y-87648255D01*
X129347405Y-87457389D01*
X129405756Y-87252310D01*
X129425429Y-87040000D01*
X129654571Y-87040000D01*
X129674244Y-87252311D01*
X129674246Y-87252317D01*
X129732595Y-87457389D01*
X129827634Y-87648255D01*
X129956128Y-87818407D01*
X129956135Y-87818413D01*
X130113692Y-87962047D01*
X130113699Y-87962053D01*
X130152530Y-87986096D01*
X130294981Y-88074298D01*
X130493802Y-88151321D01*
X130703390Y-88190500D01*
X130916610Y-88190500D01*
X131126198Y-88151321D01*
X131325019Y-88074298D01*
X131506302Y-87962052D01*
X131663872Y-87818407D01*
X131792366Y-87648255D01*
X131887405Y-87457389D01*
X131945756Y-87252310D01*
X131965429Y-87040000D01*
X131945756Y-86827690D01*
X131887405Y-86622611D01*
X131792366Y-86431745D01*
X131692876Y-86300000D01*
X142894367Y-86300000D01*
X142914872Y-86468872D01*
X142975194Y-86627930D01*
X143071829Y-86767929D01*
X143199160Y-86880734D01*
X143349787Y-86959790D01*
X143514956Y-87000500D01*
X143514959Y-87000500D01*
X143685065Y-87000500D01*
X143685068Y-87000500D01*
X143850237Y-86959790D01*
X144000864Y-86880734D01*
X144128195Y-86767929D01*
X144224830Y-86627930D01*
X144285152Y-86468872D01*
X144305657Y-86300000D01*
X144285152Y-86131128D01*
X144224830Y-85972070D01*
X144128195Y-85832071D01*
X144000864Y-85719266D01*
X143850237Y-85640210D01*
X143850236Y-85640209D01*
X143850235Y-85640209D01*
X143685070Y-85599500D01*
X143685068Y-85599500D01*
X143514956Y-85599500D01*
X143514953Y-85599500D01*
X143349788Y-85640209D01*
X143199158Y-85719267D01*
X143071830Y-85832069D01*
X143071828Y-85832072D01*
X143005145Y-85928679D01*
X142975194Y-85972070D01*
X142915297Y-86130009D01*
X142914872Y-86131129D01*
X142899031Y-86261593D01*
X142894367Y-86300000D01*
X131692876Y-86300000D01*
X131663872Y-86261593D01*
X131609623Y-86212139D01*
X131506307Y-86117952D01*
X131506300Y-86117946D01*
X131325024Y-86005705D01*
X131325019Y-86005702D01*
X131126195Y-85928678D01*
X130916610Y-85889500D01*
X130703390Y-85889500D01*
X130493804Y-85928678D01*
X130294980Y-86005702D01*
X130294975Y-86005705D01*
X130113699Y-86117946D01*
X130113692Y-86117952D01*
X129956135Y-86261586D01*
X129956131Y-86261589D01*
X129956128Y-86261593D01*
X129956125Y-86261597D01*
X129827635Y-86431743D01*
X129827630Y-86431752D01*
X129732596Y-86622608D01*
X129674244Y-86827688D01*
X129654571Y-87040000D01*
X129425429Y-87040000D01*
X129405756Y-86827690D01*
X129347405Y-86622611D01*
X129252366Y-86431745D01*
X129123872Y-86261593D01*
X129069623Y-86212139D01*
X128966307Y-86117952D01*
X128966300Y-86117946D01*
X128785024Y-86005705D01*
X128785019Y-86005702D01*
X128586195Y-85928678D01*
X128376610Y-85889500D01*
X128163390Y-85889500D01*
X127953804Y-85928678D01*
X127754980Y-86005702D01*
X127754975Y-86005705D01*
X127573699Y-86117946D01*
X127573692Y-86117952D01*
X127416135Y-86261586D01*
X127416131Y-86261589D01*
X127416128Y-86261593D01*
X127416125Y-86261597D01*
X127287635Y-86431743D01*
X127287630Y-86431752D01*
X127192596Y-86622608D01*
X127134244Y-86827688D01*
X127114571Y-87040000D01*
X126885429Y-87040000D01*
X126865756Y-86827690D01*
X126807405Y-86622611D01*
X126712366Y-86431745D01*
X126583872Y-86261593D01*
X126529623Y-86212139D01*
X126426307Y-86117952D01*
X126426300Y-86117946D01*
X126245024Y-86005705D01*
X126245019Y-86005702D01*
X126046195Y-85928678D01*
X125836610Y-85889500D01*
X125623390Y-85889500D01*
X125413804Y-85928678D01*
X125214980Y-86005702D01*
X125214975Y-86005705D01*
X125033699Y-86117946D01*
X125033692Y-86117952D01*
X124876135Y-86261586D01*
X124876131Y-86261589D01*
X124876128Y-86261593D01*
X124876125Y-86261597D01*
X124747635Y-86431743D01*
X124747630Y-86431752D01*
X124652596Y-86622608D01*
X124594244Y-86827688D01*
X124574571Y-87040000D01*
X124594244Y-87252312D01*
X124594245Y-87252317D01*
X124600250Y-87273418D01*
X124597990Y-87334561D01*
X124560223Y-87382699D01*
X124505030Y-87399512D01*
X124414970Y-87399512D01*
X124356779Y-87380605D01*
X124320815Y-87331105D01*
X124319750Y-87273418D01*
X124325754Y-87252317D01*
X124325755Y-87252312D01*
X124325756Y-87252310D01*
X124345429Y-87040000D01*
X124325756Y-86827690D01*
X124267405Y-86622611D01*
X124172366Y-86431745D01*
X124043872Y-86261593D01*
X123989623Y-86212139D01*
X123886307Y-86117952D01*
X123886300Y-86117946D01*
X123705024Y-86005705D01*
X123705019Y-86005702D01*
X123506195Y-85928678D01*
X123296610Y-85889500D01*
X123083390Y-85889500D01*
X122873804Y-85928678D01*
X122674980Y-86005702D01*
X122674975Y-86005705D01*
X122493699Y-86117946D01*
X122493692Y-86117952D01*
X122336135Y-86261586D01*
X122336131Y-86261589D01*
X122336128Y-86261593D01*
X122336125Y-86261597D01*
X122207635Y-86431743D01*
X122207630Y-86431752D01*
X122112596Y-86622608D01*
X122054244Y-86827688D01*
X122034571Y-87040000D01*
X121805429Y-87040000D01*
X121785756Y-86827690D01*
X121727405Y-86622611D01*
X121632366Y-86431745D01*
X121503872Y-86261593D01*
X121449623Y-86212139D01*
X121346307Y-86117952D01*
X121346300Y-86117946D01*
X121165024Y-86005705D01*
X121165019Y-86005702D01*
X120966195Y-85928678D01*
X120756610Y-85889500D01*
X120543390Y-85889500D01*
X120333804Y-85928678D01*
X120134980Y-86005702D01*
X120134975Y-86005705D01*
X119953699Y-86117946D01*
X119953692Y-86117952D01*
X119796135Y-86261586D01*
X119796131Y-86261589D01*
X119796128Y-86261593D01*
X119796125Y-86261597D01*
X119667635Y-86431743D01*
X119667630Y-86431752D01*
X119572596Y-86622608D01*
X119514244Y-86827688D01*
X119494571Y-87040000D01*
X113800500Y-87040000D01*
X113800500Y-85002773D01*
X113800656Y-84997222D01*
X113817162Y-84703302D01*
X113818405Y-84692270D01*
X113851073Y-84500000D01*
X124574571Y-84500000D01*
X124594244Y-84712311D01*
X124617449Y-84793867D01*
X124652595Y-84917389D01*
X124747634Y-85108255D01*
X124876128Y-85278407D01*
X124876135Y-85278413D01*
X125033692Y-85422047D01*
X125033699Y-85422053D01*
X125137389Y-85486255D01*
X125214981Y-85534298D01*
X125413802Y-85611321D01*
X125623390Y-85650500D01*
X125836610Y-85650500D01*
X126046198Y-85611321D01*
X126245019Y-85534298D01*
X126426302Y-85422052D01*
X126583872Y-85278407D01*
X126712366Y-85108255D01*
X126807405Y-84917389D01*
X126865756Y-84712310D01*
X126885429Y-84500000D01*
X127114571Y-84500000D01*
X127134244Y-84712311D01*
X127157449Y-84793867D01*
X127192595Y-84917389D01*
X127287634Y-85108255D01*
X127416128Y-85278407D01*
X127416135Y-85278413D01*
X127573692Y-85422047D01*
X127573699Y-85422053D01*
X127677389Y-85486255D01*
X127754981Y-85534298D01*
X127953802Y-85611321D01*
X128163390Y-85650500D01*
X128376610Y-85650500D01*
X128586198Y-85611321D01*
X128785019Y-85534298D01*
X128966302Y-85422052D01*
X129123872Y-85278407D01*
X129252366Y-85108255D01*
X129347405Y-84917389D01*
X129405756Y-84712310D01*
X129425429Y-84500000D01*
X129654571Y-84500000D01*
X129674244Y-84712311D01*
X129697449Y-84793867D01*
X129732595Y-84917389D01*
X129827634Y-85108255D01*
X129956128Y-85278407D01*
X129956135Y-85278413D01*
X130113692Y-85422047D01*
X130113699Y-85422053D01*
X130217389Y-85486255D01*
X130294981Y-85534298D01*
X130493802Y-85611321D01*
X130703390Y-85650500D01*
X130916610Y-85650500D01*
X131126198Y-85611321D01*
X131325019Y-85534298D01*
X131506302Y-85422052D01*
X131663872Y-85278407D01*
X131792366Y-85108255D01*
X131887405Y-84917389D01*
X131945756Y-84712310D01*
X131956163Y-84600000D01*
X141959306Y-84600000D01*
X141979811Y-84768872D01*
X142040133Y-84927930D01*
X142136768Y-85067929D01*
X142264099Y-85180734D01*
X142414726Y-85259790D01*
X142579895Y-85300500D01*
X142579898Y-85300500D01*
X142750004Y-85300500D01*
X142750007Y-85300500D01*
X142915176Y-85259790D01*
X143065803Y-85180734D01*
X143193134Y-85067929D01*
X143289769Y-84927930D01*
X143350091Y-84768872D01*
X143370596Y-84600000D01*
X143350091Y-84431128D01*
X143289769Y-84272070D01*
X143193134Y-84132071D01*
X143166428Y-84108412D01*
X143075583Y-84027930D01*
X143065803Y-84019266D01*
X142915176Y-83940210D01*
X142915175Y-83940209D01*
X142915174Y-83940209D01*
X142750009Y-83899500D01*
X142750007Y-83899500D01*
X142579895Y-83899500D01*
X142579892Y-83899500D01*
X142414727Y-83940209D01*
X142264097Y-84019267D01*
X142136769Y-84132069D01*
X142136767Y-84132072D01*
X142112018Y-84167927D01*
X142040133Y-84272070D01*
X141979811Y-84431128D01*
X141959306Y-84600000D01*
X131956163Y-84600000D01*
X131965429Y-84500000D01*
X131945756Y-84287690D01*
X131887405Y-84082611D01*
X131792366Y-83891745D01*
X131663872Y-83721593D01*
X131640185Y-83700000D01*
X132494355Y-83700000D01*
X132514860Y-83868872D01*
X132575182Y-84027930D01*
X132671817Y-84167929D01*
X132799148Y-84280734D01*
X132949775Y-84359790D01*
X133114944Y-84400500D01*
X133114947Y-84400500D01*
X133285053Y-84400500D01*
X133285056Y-84400500D01*
X133450225Y-84359790D01*
X133600852Y-84280734D01*
X133728183Y-84167929D01*
X133824818Y-84027930D01*
X133885140Y-83868872D01*
X133905645Y-83700000D01*
X133885140Y-83531128D01*
X133824818Y-83372070D01*
X133728183Y-83232071D01*
X133600852Y-83119266D01*
X133450225Y-83040210D01*
X133450224Y-83040209D01*
X133450223Y-83040209D01*
X133285058Y-82999500D01*
X133285056Y-82999500D01*
X133114944Y-82999500D01*
X133114941Y-82999500D01*
X132949776Y-83040209D01*
X132799146Y-83119267D01*
X132671818Y-83232069D01*
X132671817Y-83232071D01*
X132575182Y-83372070D01*
X132514860Y-83531128D01*
X132494355Y-83700000D01*
X131640185Y-83700000D01*
X131609623Y-83672139D01*
X131506307Y-83577952D01*
X131506300Y-83577946D01*
X131325024Y-83465705D01*
X131325019Y-83465702D01*
X131126195Y-83388678D01*
X130916610Y-83349500D01*
X130703390Y-83349500D01*
X130493804Y-83388678D01*
X130294980Y-83465702D01*
X130294975Y-83465705D01*
X130113699Y-83577946D01*
X130113692Y-83577952D01*
X129956135Y-83721586D01*
X129956131Y-83721589D01*
X129956128Y-83721593D01*
X129956125Y-83721597D01*
X129827635Y-83891743D01*
X129827630Y-83891752D01*
X129732596Y-84082608D01*
X129732595Y-84082611D01*
X129720655Y-84124574D01*
X129674244Y-84287688D01*
X129654571Y-84500000D01*
X129425429Y-84500000D01*
X129405756Y-84287690D01*
X129347405Y-84082611D01*
X129252366Y-83891745D01*
X129123872Y-83721593D01*
X129069623Y-83672139D01*
X128966307Y-83577952D01*
X128966300Y-83577946D01*
X128785024Y-83465705D01*
X128785019Y-83465702D01*
X128586195Y-83388678D01*
X128376610Y-83349500D01*
X128163390Y-83349500D01*
X127953804Y-83388678D01*
X127754980Y-83465702D01*
X127754975Y-83465705D01*
X127573699Y-83577946D01*
X127573692Y-83577952D01*
X127416135Y-83721586D01*
X127416131Y-83721589D01*
X127416128Y-83721593D01*
X127416125Y-83721597D01*
X127287635Y-83891743D01*
X127287630Y-83891752D01*
X127192596Y-84082608D01*
X127192595Y-84082611D01*
X127180655Y-84124574D01*
X127134244Y-84287688D01*
X127114571Y-84500000D01*
X126885429Y-84500000D01*
X126865756Y-84287690D01*
X126807405Y-84082611D01*
X126712366Y-83891745D01*
X126583872Y-83721593D01*
X126529623Y-83672139D01*
X126426307Y-83577952D01*
X126426300Y-83577946D01*
X126245024Y-83465705D01*
X126245019Y-83465702D01*
X126046195Y-83388678D01*
X125836610Y-83349500D01*
X125623390Y-83349500D01*
X125413804Y-83388678D01*
X125214980Y-83465702D01*
X125214975Y-83465705D01*
X125033699Y-83577946D01*
X125033692Y-83577952D01*
X124876135Y-83721586D01*
X124876131Y-83721589D01*
X124876128Y-83721593D01*
X124876125Y-83721597D01*
X124747635Y-83891743D01*
X124747630Y-83891752D01*
X124652596Y-84082608D01*
X124652595Y-84082611D01*
X124640655Y-84124574D01*
X124594244Y-84287688D01*
X124574571Y-84500000D01*
X113851073Y-84500000D01*
X113867253Y-84404771D01*
X113869714Y-84393985D01*
X113950451Y-84113742D01*
X113954111Y-84103283D01*
X114065711Y-83833858D01*
X114070525Y-83823863D01*
X114075101Y-83815584D01*
X114211583Y-83568636D01*
X114217479Y-83559253D01*
X114386230Y-83321421D01*
X114393149Y-83312745D01*
X114587475Y-83095293D01*
X114595293Y-83087475D01*
X114812748Y-82893146D01*
X114821424Y-82886228D01*
X115059253Y-82717479D01*
X115068636Y-82711583D01*
X115323869Y-82570522D01*
X115333858Y-82565711D01*
X115603283Y-82454111D01*
X115613742Y-82450451D01*
X115893985Y-82369714D01*
X115904771Y-82367253D01*
X116192277Y-82318404D01*
X116203296Y-82317162D01*
X116497222Y-82300655D01*
X116502773Y-82300500D01*
X116547595Y-82300500D01*
X179252405Y-82300500D01*
X179297227Y-82300500D01*
X179302777Y-82300655D01*
G37*
%TD.AperFunction*%
%TD*%
D20*
X146000000Y-106000000D03*
X141300000Y-106600000D03*
D21*
X122288110Y-91215124D03*
D20*
X140700000Y-106600000D03*
X143200000Y-94500000D03*
X146499999Y-83850000D03*
X149600000Y-95700000D03*
D21*
X140000000Y-114250000D03*
D20*
X146840050Y-107233733D03*
X148899999Y-83850000D03*
X147700000Y-83850000D03*
D21*
X140034952Y-115350000D03*
D20*
X145299999Y-83250000D03*
D21*
X136041567Y-103026795D03*
D20*
X144440050Y-106633733D03*
D21*
X144050000Y-114825000D03*
D20*
X149240050Y-107233733D03*
X143100000Y-106600000D03*
X145040050Y-106633733D03*
X143900000Y-94500000D03*
X148700000Y-95100000D03*
X145100000Y-94500000D03*
X149300000Y-94500000D03*
X146900000Y-95100000D03*
D21*
X139500000Y-101336397D03*
D20*
X145000001Y-82650000D03*
D21*
X145576402Y-114596591D03*
X144842908Y-114919950D03*
D20*
X145100000Y-108000000D03*
X144500000Y-94500000D03*
X146300000Y-94500000D03*
X146900000Y-94500000D03*
X149840050Y-107333733D03*
X144400000Y-82650000D03*
X145299999Y-83850000D03*
X149900000Y-95100000D03*
D21*
X115000000Y-116000000D03*
D20*
X144440050Y-107233733D03*
X149100000Y-108000000D03*
X144699999Y-83250000D03*
D21*
X117200000Y-114200000D03*
D20*
X149000000Y-96300000D03*
X141900000Y-106600000D03*
X148700000Y-94500000D03*
D21*
X139535554Y-112654671D03*
D20*
X149854003Y-108000000D03*
X150500000Y-108000000D03*
X143840050Y-106633733D03*
X149200001Y-82650000D03*
X148400000Y-95700000D03*
X146400000Y-108000000D03*
X140100000Y-106600000D03*
X147099999Y-83250000D03*
X149000000Y-95700000D03*
X145600001Y-82650000D03*
D21*
X125465821Y-89913990D03*
D20*
X147440050Y-107233733D03*
X149240050Y-106633733D03*
X149000000Y-106000000D03*
X145700000Y-95100000D03*
D21*
X133000000Y-84700000D03*
D20*
X147962062Y-82650000D03*
X144699999Y-83850000D03*
X145040050Y-107233733D03*
D21*
X138100000Y-85550000D03*
D20*
X147099999Y-83850000D03*
X149499999Y-83850000D03*
X150600000Y-82650000D03*
X146600000Y-106000000D03*
X143800000Y-82650000D03*
X145100000Y-95100000D03*
X144500000Y-95100000D03*
D21*
X137549998Y-107900000D03*
D20*
X147200000Y-106000000D03*
X148299999Y-83250000D03*
X142500000Y-106600000D03*
D21*
X139254000Y-89463993D03*
D20*
X148640050Y-107233733D03*
D21*
X117722373Y-102755047D03*
D20*
X148640050Y-106633733D03*
X145259950Y-95966267D03*
X147699998Y-83249999D03*
X149300000Y-95100000D03*
X146200000Y-82650000D03*
X145640050Y-106633733D03*
X146840050Y-106633733D03*
X148299999Y-83850000D03*
X145700000Y-94500000D03*
X145899999Y-83850000D03*
X139500000Y-106600000D03*
X146559950Y-95966268D03*
D21*
X138700000Y-106600000D03*
D20*
X145400000Y-106000000D03*
X145899999Y-83250000D03*
X143100000Y-82650000D03*
D21*
X133500000Y-115196000D03*
X134544095Y-115196000D03*
X139090049Y-90400000D03*
D20*
X145640050Y-107233733D03*
X147500000Y-94500000D03*
X149499999Y-83250000D03*
D21*
X139500000Y-107600000D03*
D20*
X150500000Y-95100000D03*
D21*
X139500000Y-102200000D03*
D20*
X147500000Y-95100000D03*
D21*
X136017500Y-92480255D03*
X150524667Y-117015249D03*
X140040050Y-104400000D03*
D20*
X147440050Y-106633733D03*
X142500000Y-82650000D03*
X146240050Y-106633733D03*
D21*
X139854712Y-90893926D03*
D20*
X148606230Y-82650000D03*
X139380000Y-96250102D03*
X147362688Y-82650000D03*
X148040050Y-106633733D03*
X146300000Y-95100000D03*
X148899999Y-83250000D03*
X148040050Y-107233733D03*
X150440050Y-107333733D03*
X148400000Y-96300000D03*
D21*
X122150000Y-89749998D03*
D20*
X148100000Y-95100000D03*
X147800000Y-106000000D03*
D21*
X139300000Y-113600000D03*
D20*
X146240050Y-107233733D03*
D21*
X123400000Y-108800000D03*
X140040050Y-102900000D03*
X136805000Y-100900000D03*
D20*
X146800001Y-82650000D03*
X144800000Y-106000000D03*
X146499999Y-83250000D03*
X148100000Y-94500000D03*
X149900000Y-82650000D03*
D21*
X134700002Y-92496000D03*
D20*
X148400000Y-106000000D03*
D21*
X124430000Y-88100012D03*
X137034999Y-95400000D03*
X137500000Y-106818535D03*
X136821434Y-104744229D03*
X133200000Y-83700000D03*
X137900000Y-115900000D03*
X143300000Y-109800000D03*
X120150000Y-100900000D03*
X152350000Y-114550000D03*
X120250000Y-98000000D03*
X149600000Y-113800000D03*
X142689500Y-107696598D03*
X149400000Y-102000000D03*
X142900000Y-96000000D03*
X142664951Y-84600000D03*
X143800000Y-98000000D03*
X136734258Y-103748034D03*
X148700000Y-90317490D03*
X137200000Y-89900000D03*
X143600012Y-86300000D03*
X136700000Y-99000000D03*
X137000000Y-88200000D03*
X136850000Y-111500000D03*
X138600000Y-94550000D03*
X126085936Y-88499742D03*
X115857500Y-101242500D03*
X175300000Y-103800000D03*
X174500000Y-87200000D03*
X179500000Y-87200000D03*
X117500000Y-108000000D03*
X175300000Y-96200000D03*
X159900000Y-100000000D03*
X167100000Y-100000000D03*
X117500000Y-92000000D03*
X124650000Y-97250000D03*
X124650000Y-102750000D03*
X129410000Y-100000000D03*
X174500000Y-112800000D03*
X179500000Y-112800000D03*
X180750000Y-93650000D03*
X180750000Y-96190000D03*
X180750000Y-98730000D03*
X180750000Y-101270000D03*
X180750000Y-103810000D03*
X180750000Y-106350000D03*
X120650000Y-112960000D03*
X120650000Y-115500000D03*
X123190000Y-112960000D03*
X123190000Y-115500000D03*
X125730000Y-112960000D03*
X125730000Y-115500000D03*
X128270000Y-112960000D03*
X128270000Y-115500000D03*
X130810000Y-112960000D03*
X130810000Y-115500000D03*
X120650000Y-84500000D03*
X120650000Y-87040000D03*
X123190000Y-84500000D03*
X123190000Y-87040000D03*
X125730000Y-84500000D03*
X125730000Y-87040000D03*
X128270000Y-84500000D03*
X128270000Y-87040000D03*
X130810000Y-84500000D03*
X130810000Y-87040000D03*
D20*
X116875002Y-98275001D03*
X116875002Y-99375001D03*
X116875002Y-100475001D03*
X117975000Y-98275001D03*
X117975000Y-99375001D03*
X117975000Y-100475001D03*
M02*
