M48
; DRILL file {KiCad 8.0.1} date 2024-08-04T15:08:54+0100
; FORMAT={-:-/ absolute / metric / decimal}
; #@! TF.CreationDate,2024-08-04T15:08:54+01:00
; #@! TF.GenerationSoftware,Kicad,Pcbnew,8.0.1
; #@! TF.FileFunction,Plated,1,4,PTH
FMAT,2
METRIC
; #@! TA.AperFunction,Plated,PTH,ViaDrill
T1C0.300
; #@! TA.AperFunction,Plated,PTH,ComponentDrill
T2C0.300
; #@! TA.AperFunction,Plated,PTH,ViaDrill
T3C0.400
; #@! TA.AperFunction,Plated,PTH,ViaDrill
T4C0.600
; #@! TA.AperFunction,Plated,PTH,ComponentDrill
T5C1.000
; #@! TA.AperFunction,Plated,PTH,ComponentDrill
T6C4.500
; #@! TA.AperFunction,Plated,PTH,ComponentDrill
T7C4.600
%
G90
G05
T1
X139.38Y-96.25
X139.5Y-106.6
X140.1Y-106.6
X140.7Y-106.6
X141.3Y-106.6
X141.9Y-106.6
X142.5Y-82.65
X142.5Y-106.6
X143.1Y-82.65
X143.1Y-106.6
X143.2Y-94.5
X143.8Y-82.65
X143.84Y-106.634
X143.9Y-94.5
X144.4Y-82.65
X144.44Y-106.634
X144.44Y-107.234
X144.5Y-94.5
X144.5Y-95.1
X144.7Y-83.25
X144.7Y-83.85
X144.8Y-106.0
X145.0Y-82.65
X145.04Y-106.634
X145.04Y-107.234
X145.1Y-94.5
X145.1Y-95.1
X145.1Y-108.0
X145.26Y-95.966
X145.3Y-83.25
X145.3Y-83.85
X145.4Y-106.0
X145.6Y-82.65
X145.64Y-106.634
X145.64Y-107.234
X145.7Y-94.5
X145.7Y-95.1
X145.9Y-83.25
X145.9Y-83.85
X146.0Y-106.0
X146.2Y-82.65
X146.24Y-106.634
X146.24Y-107.234
X146.3Y-94.5
X146.3Y-95.1
X146.4Y-108.0
X146.5Y-83.25
X146.5Y-83.85
X146.56Y-95.966
X146.6Y-106.0
X146.8Y-82.65
X146.84Y-106.634
X146.84Y-107.234
X146.9Y-94.5
X146.9Y-95.1
X147.1Y-83.25
X147.1Y-83.85
X147.2Y-106.0
X147.363Y-82.65
X147.44Y-106.634
X147.44Y-107.234
X147.5Y-94.5
X147.5Y-95.1
X147.7Y-83.25
X147.7Y-83.85
X147.8Y-106.0
X147.962Y-82.65
X148.04Y-106.634
X148.04Y-107.234
X148.1Y-94.5
X148.1Y-95.1
X148.3Y-83.25
X148.3Y-83.85
X148.4Y-95.7
X148.4Y-96.3
X148.4Y-106.0
X148.606Y-82.65
X148.64Y-106.634
X148.64Y-107.234
X148.7Y-94.5
X148.7Y-95.1
X148.9Y-83.25
X148.9Y-83.85
X149.0Y-95.7
X149.0Y-96.3
X149.0Y-106.0
X149.1Y-108.0
X149.2Y-82.65
X149.24Y-106.634
X149.24Y-107.234
X149.3Y-94.5
X149.3Y-95.1
X149.5Y-83.25
X149.5Y-83.85
X149.6Y-95.7
X149.84Y-107.334
X149.854Y-108.0
X149.9Y-82.65
X149.9Y-95.1
X150.44Y-107.334
X150.5Y-95.1
X150.5Y-108.0
X150.6Y-82.65
T2
X116.875Y-98.275
X116.875Y-99.375
X116.875Y-100.475
X117.975Y-98.275
X117.975Y-99.375
X117.975Y-100.475
T3
X115.0Y-116.0
X115.858Y-101.242
X117.2Y-114.2
X117.722Y-102.755
X120.15Y-100.9
X120.25Y-98.0
X122.15Y-89.75
X122.288Y-91.215
X123.4Y-108.8
X124.43Y-88.1
X125.466Y-89.914
X126.086Y-88.5
X133.0Y-84.7
X133.2Y-83.7
X133.5Y-115.196
X134.544Y-115.196
X134.7Y-92.496
X136.017Y-92.48
X136.042Y-103.027
X136.7Y-99.0
X136.734Y-103.748
X136.805Y-100.9
X136.821Y-104.744
X136.85Y-111.5
X137.0Y-88.2
X137.035Y-95.4
X137.2Y-89.9
X137.5Y-106.819
X137.55Y-107.9
X137.9Y-115.9
X138.1Y-85.55
X138.6Y-94.55
X138.7Y-106.6
X139.09Y-90.4
X139.254Y-89.464
X139.3Y-113.6
X139.5Y-101.336
X139.5Y-102.2
X139.5Y-107.6
X139.536Y-112.655
X139.855Y-90.894
X140.0Y-114.25
X140.035Y-115.35
X140.04Y-102.9
X140.04Y-104.4
X142.665Y-84.6
X142.689Y-107.697
X142.9Y-96.0
X143.3Y-109.8
X143.6Y-86.3
X143.8Y-98.0
X144.05Y-114.825
X144.843Y-114.92
X145.576Y-114.597
X148.7Y-90.317
X149.4Y-102.0
X149.6Y-113.8
X150.525Y-117.015
T4
X152.35Y-114.55
T5
X120.65Y-84.5
X120.65Y-87.04
X120.65Y-112.96
X120.65Y-115.5
X123.19Y-84.5
X123.19Y-87.04
X123.19Y-112.96
X123.19Y-115.5
X125.73Y-84.5
X125.73Y-87.04
X125.73Y-112.96
X125.73Y-115.5
X128.27Y-84.5
X128.27Y-87.04
X128.27Y-112.96
X128.27Y-115.5
X130.81Y-84.5
X130.81Y-87.04
X130.81Y-112.96
X130.81Y-115.5
X174.5Y-87.2
X174.5Y-112.8
X179.5Y-87.2
X179.5Y-112.8
X180.75Y-93.65
X180.75Y-96.19
X180.75Y-98.73
X180.75Y-101.27
X180.75Y-103.81
X180.75Y-106.35
T6
X124.65Y-97.25
X124.65Y-102.75
X129.41Y-100.0
T7
X159.9Y-100.0
X167.1Y-100.0
M30
