%TF.GenerationSoftware,KiCad,Pcbnew,8.0.1*%
%TF.CreationDate,2024-08-04T17:14:23+01:00*%
%TF.ProjectId,RP2040_base,52503230-3430-45f6-9261-73652e6b6963,REV1.1*%
%TF.SameCoordinates,Original*%
%TF.FileFunction,Legend,Top*%
%TF.FilePolarity,Positive*%
%FSLAX46Y46*%
G04 Gerber Fmt 4.6, Leading zero omitted, Abs format (unit mm)*
G04 Created by KiCad (PCBNEW 8.0.1) date 2024-08-04 17:14:23*
%MOMM*%
%LPD*%
G01*
G04 APERTURE LIST*
%ADD10C,0.120000*%
%ADD11C,0.200000*%
%ADD12C,0.150000*%
%ADD13C,0.300000*%
%ADD14C,0.254000*%
%ADD15C,0.000000*%
%ADD16C,0.127000*%
%ADD17C,0.300000*%
%ADD18C,0.350000*%
%ADD19O,0.600000X1.700000*%
%ADD20O,0.600000X1.200000*%
G04 APERTURE END LIST*
D10*
X83000000Y-70450000D02*
X82950000Y-71250000D01*
X92300000Y-128800000D02*
X92300000Y-129100000D01*
X82600000Y-70375000D02*
X83000000Y-70450000D01*
X91425000Y-130225000D02*
X90225000Y-130225000D01*
X130825000Y-70850000D02*
X130150000Y-72625000D01*
X92975000Y-131225000D02*
X91775000Y-131225000D01*
X92900000Y-128800000D02*
X91700000Y-128800000D01*
X89225000Y-71100000D02*
X89225000Y-71400000D01*
X91700000Y-128800000D02*
X91700000Y-129399999D01*
X88000000Y-88000000D02*
X88000000Y-124000000D01*
X91400000Y-129100000D02*
X90200000Y-129100000D01*
X91775000Y-131225000D02*
X91775000Y-131825000D01*
X91375000Y-131525000D02*
X90175000Y-131525000D01*
X88925000Y-70950000D02*
X89225000Y-71100000D01*
X92900000Y-128800000D02*
X92900000Y-129400000D01*
D11*
X88254761Y-62757827D02*
X88173809Y-62717351D01*
X88173809Y-62717351D02*
X88133332Y-62676874D01*
X88133332Y-62676874D02*
X88092856Y-62595922D01*
X88092856Y-62595922D02*
X88092856Y-62353065D01*
X88092856Y-62353065D02*
X88133332Y-62272112D01*
X88133332Y-62272112D02*
X88173809Y-62231636D01*
X88173809Y-62231636D02*
X88254761Y-62191160D01*
X88254761Y-62191160D02*
X88376190Y-62191160D01*
X88376190Y-62191160D02*
X88457142Y-62231636D01*
X88457142Y-62231636D02*
X88497618Y-62272112D01*
X88497618Y-62272112D02*
X88538094Y-62353065D01*
X88538094Y-62353065D02*
X88538094Y-62595922D01*
X88538094Y-62595922D02*
X88497618Y-62676874D01*
X88497618Y-62676874D02*
X88457142Y-62717351D01*
X88457142Y-62717351D02*
X88376190Y-62757827D01*
X88376190Y-62757827D02*
X88254761Y-62757827D01*
X88902380Y-62191160D02*
X88902380Y-62757827D01*
X88902380Y-62272112D02*
X88942857Y-62231636D01*
X88942857Y-62231636D02*
X89023809Y-62191160D01*
X89023809Y-62191160D02*
X89145238Y-62191160D01*
X89145238Y-62191160D02*
X89226190Y-62231636D01*
X89226190Y-62231636D02*
X89266666Y-62312589D01*
X89266666Y-62312589D02*
X89266666Y-62757827D01*
X125860714Y-123516504D02*
X126336904Y-123516504D01*
X125765476Y-123802219D02*
X126098809Y-122802219D01*
X126098809Y-122802219D02*
X126432142Y-123802219D01*
X126765476Y-123802219D02*
X126765476Y-122802219D01*
X126765476Y-122802219D02*
X127003571Y-122802219D01*
X127003571Y-122802219D02*
X127146428Y-122849838D01*
X127146428Y-122849838D02*
X127241666Y-122945076D01*
X127241666Y-122945076D02*
X127289285Y-123040314D01*
X127289285Y-123040314D02*
X127336904Y-123230790D01*
X127336904Y-123230790D02*
X127336904Y-123373647D01*
X127336904Y-123373647D02*
X127289285Y-123564123D01*
X127289285Y-123564123D02*
X127241666Y-123659361D01*
X127241666Y-123659361D02*
X127146428Y-123754600D01*
X127146428Y-123754600D02*
X127003571Y-123802219D01*
X127003571Y-123802219D02*
X126765476Y-123802219D01*
X128336904Y-123706980D02*
X128289285Y-123754600D01*
X128289285Y-123754600D02*
X128146428Y-123802219D01*
X128146428Y-123802219D02*
X128051190Y-123802219D01*
X128051190Y-123802219D02*
X127908333Y-123754600D01*
X127908333Y-123754600D02*
X127813095Y-123659361D01*
X127813095Y-123659361D02*
X127765476Y-123564123D01*
X127765476Y-123564123D02*
X127717857Y-123373647D01*
X127717857Y-123373647D02*
X127717857Y-123230790D01*
X127717857Y-123230790D02*
X127765476Y-123040314D01*
X127765476Y-123040314D02*
X127813095Y-122945076D01*
X127813095Y-122945076D02*
X127908333Y-122849838D01*
X127908333Y-122849838D02*
X128051190Y-122802219D01*
X128051190Y-122802219D02*
X128146428Y-122802219D01*
X128146428Y-122802219D02*
X128289285Y-122849838D01*
X128289285Y-122849838D02*
X128336904Y-122897457D01*
X129289285Y-123802219D02*
X128717857Y-123802219D01*
X129003571Y-123802219D02*
X129003571Y-122802219D01*
X129003571Y-122802219D02*
X128908333Y-122945076D01*
X128908333Y-122945076D02*
X128813095Y-123040314D01*
X128813095Y-123040314D02*
X128717857Y-123087933D01*
X79028571Y-69247247D02*
X79028571Y-68247247D01*
X79028571Y-68247247D02*
X79361904Y-68961532D01*
X79361904Y-68961532D02*
X79695237Y-68247247D01*
X79695237Y-68247247D02*
X79695237Y-69247247D01*
X80314285Y-69247247D02*
X80219047Y-69199628D01*
X80219047Y-69199628D02*
X80171428Y-69152008D01*
X80171428Y-69152008D02*
X80123809Y-69056770D01*
X80123809Y-69056770D02*
X80123809Y-68771056D01*
X80123809Y-68771056D02*
X80171428Y-68675818D01*
X80171428Y-68675818D02*
X80219047Y-68628199D01*
X80219047Y-68628199D02*
X80314285Y-68580580D01*
X80314285Y-68580580D02*
X80457142Y-68580580D01*
X80457142Y-68580580D02*
X80552380Y-68628199D01*
X80552380Y-68628199D02*
X80599999Y-68675818D01*
X80599999Y-68675818D02*
X80647618Y-68771056D01*
X80647618Y-68771056D02*
X80647618Y-69056770D01*
X80647618Y-69056770D02*
X80599999Y-69152008D01*
X80599999Y-69152008D02*
X80552380Y-69199628D01*
X80552380Y-69199628D02*
X80457142Y-69247247D01*
X80457142Y-69247247D02*
X80314285Y-69247247D01*
X80933333Y-68580580D02*
X81314285Y-68580580D01*
X81076190Y-68247247D02*
X81076190Y-69104389D01*
X81076190Y-69104389D02*
X81123809Y-69199628D01*
X81123809Y-69199628D02*
X81219047Y-69247247D01*
X81219047Y-69247247D02*
X81314285Y-69247247D01*
X78052381Y-70857191D02*
X78052381Y-69857191D01*
X78052381Y-69857191D02*
X78290476Y-69857191D01*
X78290476Y-69857191D02*
X78433333Y-69904810D01*
X78433333Y-69904810D02*
X78528571Y-70000048D01*
X78528571Y-70000048D02*
X78576190Y-70095286D01*
X78576190Y-70095286D02*
X78623809Y-70285762D01*
X78623809Y-70285762D02*
X78623809Y-70428619D01*
X78623809Y-70428619D02*
X78576190Y-70619095D01*
X78576190Y-70619095D02*
X78528571Y-70714333D01*
X78528571Y-70714333D02*
X78433333Y-70809572D01*
X78433333Y-70809572D02*
X78290476Y-70857191D01*
X78290476Y-70857191D02*
X78052381Y-70857191D01*
X79433333Y-70809572D02*
X79338095Y-70857191D01*
X79338095Y-70857191D02*
X79147619Y-70857191D01*
X79147619Y-70857191D02*
X79052381Y-70809572D01*
X79052381Y-70809572D02*
X79004762Y-70714333D01*
X79004762Y-70714333D02*
X79004762Y-70333381D01*
X79004762Y-70333381D02*
X79052381Y-70238143D01*
X79052381Y-70238143D02*
X79147619Y-70190524D01*
X79147619Y-70190524D02*
X79338095Y-70190524D01*
X79338095Y-70190524D02*
X79433333Y-70238143D01*
X79433333Y-70238143D02*
X79480952Y-70333381D01*
X79480952Y-70333381D02*
X79480952Y-70428619D01*
X79480952Y-70428619D02*
X79004762Y-70523857D01*
X79909524Y-70857191D02*
X79909524Y-69857191D01*
X79909524Y-70238143D02*
X80004762Y-70190524D01*
X80004762Y-70190524D02*
X80195238Y-70190524D01*
X80195238Y-70190524D02*
X80290476Y-70238143D01*
X80290476Y-70238143D02*
X80338095Y-70285762D01*
X80338095Y-70285762D02*
X80385714Y-70381000D01*
X80385714Y-70381000D02*
X80385714Y-70666714D01*
X80385714Y-70666714D02*
X80338095Y-70761952D01*
X80338095Y-70761952D02*
X80290476Y-70809572D01*
X80290476Y-70809572D02*
X80195238Y-70857191D01*
X80195238Y-70857191D02*
X80004762Y-70857191D01*
X80004762Y-70857191D02*
X79909524Y-70809572D01*
X81242857Y-70190524D02*
X81242857Y-70857191D01*
X80814286Y-70190524D02*
X80814286Y-70714333D01*
X80814286Y-70714333D02*
X80861905Y-70809572D01*
X80861905Y-70809572D02*
X80957143Y-70857191D01*
X80957143Y-70857191D02*
X81100000Y-70857191D01*
X81100000Y-70857191D02*
X81195238Y-70809572D01*
X81195238Y-70809572D02*
X81242857Y-70761952D01*
X82147619Y-70190524D02*
X82147619Y-71000048D01*
X82147619Y-71000048D02*
X82100000Y-71095286D01*
X82100000Y-71095286D02*
X82052381Y-71142905D01*
X82052381Y-71142905D02*
X81957143Y-71190524D01*
X81957143Y-71190524D02*
X81814286Y-71190524D01*
X81814286Y-71190524D02*
X81719048Y-71142905D01*
X82147619Y-70809572D02*
X82052381Y-70857191D01*
X82052381Y-70857191D02*
X81861905Y-70857191D01*
X81861905Y-70857191D02*
X81766667Y-70809572D01*
X81766667Y-70809572D02*
X81719048Y-70761952D01*
X81719048Y-70761952D02*
X81671429Y-70666714D01*
X81671429Y-70666714D02*
X81671429Y-70381000D01*
X81671429Y-70381000D02*
X81719048Y-70285762D01*
X81719048Y-70285762D02*
X81766667Y-70238143D01*
X81766667Y-70238143D02*
X81861905Y-70190524D01*
X81861905Y-70190524D02*
X82052381Y-70190524D01*
X82052381Y-70190524D02*
X82147619Y-70238143D01*
X163158333Y-67221590D02*
X163015476Y-67173971D01*
X163015476Y-67173971D02*
X162967857Y-67126352D01*
X162967857Y-67126352D02*
X162920238Y-67031114D01*
X162920238Y-67031114D02*
X162920238Y-66888257D01*
X162920238Y-66888257D02*
X162967857Y-66793019D01*
X162967857Y-66793019D02*
X163015476Y-66745400D01*
X163015476Y-66745400D02*
X163110714Y-66697780D01*
X163110714Y-66697780D02*
X163491666Y-66697780D01*
X163491666Y-66697780D02*
X163491666Y-67697780D01*
X163491666Y-67697780D02*
X163158333Y-67697780D01*
X163158333Y-67697780D02*
X163063095Y-67650161D01*
X163063095Y-67650161D02*
X163015476Y-67602542D01*
X163015476Y-67602542D02*
X162967857Y-67507304D01*
X162967857Y-67507304D02*
X162967857Y-67412066D01*
X162967857Y-67412066D02*
X163015476Y-67316828D01*
X163015476Y-67316828D02*
X163063095Y-67269209D01*
X163063095Y-67269209D02*
X163158333Y-67221590D01*
X163158333Y-67221590D02*
X163491666Y-67221590D01*
X162301190Y-67697780D02*
X162110714Y-67697780D01*
X162110714Y-67697780D02*
X162015476Y-67650161D01*
X162015476Y-67650161D02*
X161920238Y-67554923D01*
X161920238Y-67554923D02*
X161872619Y-67364447D01*
X161872619Y-67364447D02*
X161872619Y-67031114D01*
X161872619Y-67031114D02*
X161920238Y-66840638D01*
X161920238Y-66840638D02*
X162015476Y-66745400D01*
X162015476Y-66745400D02*
X162110714Y-66697780D01*
X162110714Y-66697780D02*
X162301190Y-66697780D01*
X162301190Y-66697780D02*
X162396428Y-66745400D01*
X162396428Y-66745400D02*
X162491666Y-66840638D01*
X162491666Y-66840638D02*
X162539285Y-67031114D01*
X162539285Y-67031114D02*
X162539285Y-67364447D01*
X162539285Y-67364447D02*
X162491666Y-67554923D01*
X162491666Y-67554923D02*
X162396428Y-67650161D01*
X162396428Y-67650161D02*
X162301190Y-67697780D01*
X161253571Y-67697780D02*
X161063095Y-67697780D01*
X161063095Y-67697780D02*
X160967857Y-67650161D01*
X160967857Y-67650161D02*
X160872619Y-67554923D01*
X160872619Y-67554923D02*
X160825000Y-67364447D01*
X160825000Y-67364447D02*
X160825000Y-67031114D01*
X160825000Y-67031114D02*
X160872619Y-66840638D01*
X160872619Y-66840638D02*
X160967857Y-66745400D01*
X160967857Y-66745400D02*
X161063095Y-66697780D01*
X161063095Y-66697780D02*
X161253571Y-66697780D01*
X161253571Y-66697780D02*
X161348809Y-66745400D01*
X161348809Y-66745400D02*
X161444047Y-66840638D01*
X161444047Y-66840638D02*
X161491666Y-67031114D01*
X161491666Y-67031114D02*
X161491666Y-67364447D01*
X161491666Y-67364447D02*
X161444047Y-67554923D01*
X161444047Y-67554923D02*
X161348809Y-67650161D01*
X161348809Y-67650161D02*
X161253571Y-67697780D01*
X160539285Y-67697780D02*
X159967857Y-67697780D01*
X160253571Y-66697780D02*
X160253571Y-67697780D01*
X159682142Y-67602542D02*
X159634523Y-67650161D01*
X159634523Y-67650161D02*
X159539285Y-67697780D01*
X159539285Y-67697780D02*
X159301190Y-67697780D01*
X159301190Y-67697780D02*
X159205952Y-67650161D01*
X159205952Y-67650161D02*
X159158333Y-67602542D01*
X159158333Y-67602542D02*
X159110714Y-67507304D01*
X159110714Y-67507304D02*
X159110714Y-67412066D01*
X159110714Y-67412066D02*
X159158333Y-67269209D01*
X159158333Y-67269209D02*
X159729761Y-66697780D01*
X159729761Y-66697780D02*
X159110714Y-66697780D01*
D12*
X89490371Y-128302255D02*
X89547514Y-128359398D01*
X89547514Y-128359398D02*
X89604657Y-128473684D01*
X89604657Y-128473684D02*
X89604657Y-128759398D01*
X89604657Y-128759398D02*
X89547514Y-128873684D01*
X89547514Y-128873684D02*
X89490371Y-128930826D01*
X89490371Y-128930826D02*
X89376085Y-128987969D01*
X89376085Y-128987969D02*
X89261800Y-128987969D01*
X89261800Y-128987969D02*
X89090371Y-128930826D01*
X89090371Y-128930826D02*
X88404657Y-128245112D01*
X88404657Y-128245112D02*
X88404657Y-128987969D01*
X89604657Y-131120112D02*
X89604657Y-131862969D01*
X89604657Y-131862969D02*
X89147514Y-131462969D01*
X89147514Y-131462969D02*
X89147514Y-131634398D01*
X89147514Y-131634398D02*
X89090371Y-131748684D01*
X89090371Y-131748684D02*
X89033228Y-131805826D01*
X89033228Y-131805826D02*
X88918942Y-131862969D01*
X88918942Y-131862969D02*
X88633228Y-131862969D01*
X88633228Y-131862969D02*
X88518942Y-131805826D01*
X88518942Y-131805826D02*
X88461800Y-131748684D01*
X88461800Y-131748684D02*
X88404657Y-131634398D01*
X88404657Y-131634398D02*
X88404657Y-131291541D01*
X88404657Y-131291541D02*
X88461800Y-131177255D01*
X88461800Y-131177255D02*
X88518942Y-131120112D01*
X91354657Y-125312969D02*
X91354657Y-125427255D01*
X91354657Y-125427255D02*
X91297514Y-125541541D01*
X91297514Y-125541541D02*
X91240371Y-125598684D01*
X91240371Y-125598684D02*
X91126085Y-125655826D01*
X91126085Y-125655826D02*
X90897514Y-125712969D01*
X90897514Y-125712969D02*
X90611800Y-125712969D01*
X90611800Y-125712969D02*
X90383228Y-125655826D01*
X90383228Y-125655826D02*
X90268942Y-125598684D01*
X90268942Y-125598684D02*
X90211800Y-125541541D01*
X90211800Y-125541541D02*
X90154657Y-125427255D01*
X90154657Y-125427255D02*
X90154657Y-125312969D01*
X90154657Y-125312969D02*
X90211800Y-125198684D01*
X90211800Y-125198684D02*
X90268942Y-125141541D01*
X90268942Y-125141541D02*
X90383228Y-125084398D01*
X90383228Y-125084398D02*
X90611800Y-125027255D01*
X90611800Y-125027255D02*
X90897514Y-125027255D01*
X90897514Y-125027255D02*
X91126085Y-125084398D01*
X91126085Y-125084398D02*
X91240371Y-125141541D01*
X91240371Y-125141541D02*
X91297514Y-125198684D01*
X91297514Y-125198684D02*
X91354657Y-125312969D01*
X91354656Y-126562969D02*
X91354656Y-126677255D01*
X91354656Y-126677255D02*
X91297513Y-126791541D01*
X91297513Y-126791541D02*
X91240370Y-126848684D01*
X91240370Y-126848684D02*
X91126084Y-126905826D01*
X91126084Y-126905826D02*
X90897513Y-126962969D01*
X90897513Y-126962969D02*
X90611799Y-126962969D01*
X90611799Y-126962969D02*
X90383227Y-126905826D01*
X90383227Y-126905826D02*
X90268941Y-126848684D01*
X90268941Y-126848684D02*
X90211799Y-126791541D01*
X90211799Y-126791541D02*
X90154656Y-126677255D01*
X90154656Y-126677255D02*
X90154656Y-126562969D01*
X90154656Y-126562969D02*
X90211799Y-126448684D01*
X90211799Y-126448684D02*
X90268941Y-126391541D01*
X90268941Y-126391541D02*
X90383227Y-126334398D01*
X90383227Y-126334398D02*
X90611799Y-126277255D01*
X90611799Y-126277255D02*
X90897513Y-126277255D01*
X90897513Y-126277255D02*
X91126084Y-126334398D01*
X91126084Y-126334398D02*
X91240370Y-126391541D01*
X91240370Y-126391541D02*
X91297513Y-126448684D01*
X91297513Y-126448684D02*
X91354656Y-126562969D01*
X91654657Y-125762969D02*
X91654657Y-125077255D01*
X91654657Y-125420112D02*
X92854657Y-125420112D01*
X92854657Y-125420112D02*
X92683228Y-125305826D01*
X92683228Y-125305826D02*
X92568942Y-125191541D01*
X92568942Y-125191541D02*
X92511800Y-125077255D01*
D13*
X93107385Y-99107142D02*
X93107385Y-99607142D01*
X92321671Y-99821428D02*
X92321671Y-99107142D01*
X92321671Y-99107142D02*
X93821671Y-99107142D01*
X93821671Y-99107142D02*
X93821671Y-99821428D01*
X92393100Y-100392857D02*
X92321671Y-100607143D01*
X92321671Y-100607143D02*
X92321671Y-100964285D01*
X92321671Y-100964285D02*
X92393100Y-101107143D01*
X92393100Y-101107143D02*
X92464528Y-101178571D01*
X92464528Y-101178571D02*
X92607385Y-101250000D01*
X92607385Y-101250000D02*
X92750242Y-101250000D01*
X92750242Y-101250000D02*
X92893100Y-101178571D01*
X92893100Y-101178571D02*
X92964528Y-101107143D01*
X92964528Y-101107143D02*
X93035957Y-100964285D01*
X93035957Y-100964285D02*
X93107385Y-100678571D01*
X93107385Y-100678571D02*
X93178814Y-100535714D01*
X93178814Y-100535714D02*
X93250242Y-100464285D01*
X93250242Y-100464285D02*
X93393100Y-100392857D01*
X93393100Y-100392857D02*
X93535957Y-100392857D01*
X93535957Y-100392857D02*
X93678814Y-100464285D01*
X93678814Y-100464285D02*
X93750242Y-100535714D01*
X93750242Y-100535714D02*
X93821671Y-100678571D01*
X93821671Y-100678571D02*
X93821671Y-101035714D01*
X93821671Y-101035714D02*
X93750242Y-101250000D01*
X93821671Y-101678571D02*
X93821671Y-102535714D01*
X92321671Y-102107142D02*
X93821671Y-102107142D01*
X93821671Y-103321428D02*
X93821671Y-103607142D01*
X93821671Y-103607142D02*
X93750242Y-103749999D01*
X93750242Y-103749999D02*
X93607385Y-103892856D01*
X93607385Y-103892856D02*
X93321671Y-103964285D01*
X93321671Y-103964285D02*
X92821671Y-103964285D01*
X92821671Y-103964285D02*
X92535957Y-103892856D01*
X92535957Y-103892856D02*
X92393100Y-103749999D01*
X92393100Y-103749999D02*
X92321671Y-103607142D01*
X92321671Y-103607142D02*
X92321671Y-103321428D01*
X92321671Y-103321428D02*
X92393100Y-103178571D01*
X92393100Y-103178571D02*
X92535957Y-103035713D01*
X92535957Y-103035713D02*
X92821671Y-102964285D01*
X92821671Y-102964285D02*
X93321671Y-102964285D01*
X93321671Y-102964285D02*
X93607385Y-103035713D01*
X93607385Y-103035713D02*
X93750242Y-103178571D01*
X93750242Y-103178571D02*
X93821671Y-103321428D01*
X92321671Y-104607142D02*
X93821671Y-104607142D01*
X93821671Y-104607142D02*
X93821671Y-105178571D01*
X93821671Y-105178571D02*
X93750242Y-105321428D01*
X93750242Y-105321428D02*
X93678814Y-105392857D01*
X93678814Y-105392857D02*
X93535957Y-105464285D01*
X93535957Y-105464285D02*
X93321671Y-105464285D01*
X93321671Y-105464285D02*
X93178814Y-105392857D01*
X93178814Y-105392857D02*
X93107385Y-105321428D01*
X93107385Y-105321428D02*
X93035957Y-105178571D01*
X93035957Y-105178571D02*
X93035957Y-104607142D01*
D11*
X148433898Y-107818019D02*
X148481517Y-107770400D01*
X148481517Y-107770400D02*
X148624374Y-107722780D01*
X148624374Y-107722780D02*
X148719612Y-107722780D01*
X148719612Y-107722780D02*
X148862469Y-107770400D01*
X148862469Y-107770400D02*
X148957707Y-107865638D01*
X148957707Y-107865638D02*
X149005326Y-107960876D01*
X149005326Y-107960876D02*
X149052945Y-108151352D01*
X149052945Y-108151352D02*
X149052945Y-108294209D01*
X149052945Y-108294209D02*
X149005326Y-108484685D01*
X149005326Y-108484685D02*
X148957707Y-108579923D01*
X148957707Y-108579923D02*
X148862469Y-108675161D01*
X148862469Y-108675161D02*
X148719612Y-108722780D01*
X148719612Y-108722780D02*
X148624374Y-108722780D01*
X148624374Y-108722780D02*
X148481517Y-108675161D01*
X148481517Y-108675161D02*
X148433898Y-108627542D01*
X148005326Y-107722780D02*
X148005326Y-108722780D01*
X148005326Y-108722780D02*
X147624374Y-108722780D01*
X147624374Y-108722780D02*
X147529136Y-108675161D01*
X147529136Y-108675161D02*
X147481517Y-108627542D01*
X147481517Y-108627542D02*
X147433898Y-108532304D01*
X147433898Y-108532304D02*
X147433898Y-108389447D01*
X147433898Y-108389447D02*
X147481517Y-108294209D01*
X147481517Y-108294209D02*
X147529136Y-108246590D01*
X147529136Y-108246590D02*
X147624374Y-108198971D01*
X147624374Y-108198971D02*
X148005326Y-108198971D01*
X147005326Y-108722780D02*
X147005326Y-107913257D01*
X147005326Y-107913257D02*
X146957707Y-107818019D01*
X146957707Y-107818019D02*
X146910088Y-107770400D01*
X146910088Y-107770400D02*
X146814850Y-107722780D01*
X146814850Y-107722780D02*
X146624374Y-107722780D01*
X146624374Y-107722780D02*
X146529136Y-107770400D01*
X146529136Y-107770400D02*
X146481517Y-107818019D01*
X146481517Y-107818019D02*
X146433898Y-107913257D01*
X146433898Y-107913257D02*
X146433898Y-108722780D01*
X146005326Y-108627542D02*
X145957707Y-108675161D01*
X145957707Y-108675161D02*
X145862469Y-108722780D01*
X145862469Y-108722780D02*
X145624374Y-108722780D01*
X145624374Y-108722780D02*
X145529136Y-108675161D01*
X145529136Y-108675161D02*
X145481517Y-108627542D01*
X145481517Y-108627542D02*
X145433898Y-108532304D01*
X145433898Y-108532304D02*
X145433898Y-108437066D01*
X145433898Y-108437066D02*
X145481517Y-108294209D01*
X145481517Y-108294209D02*
X146052945Y-107722780D01*
X146052945Y-107722780D02*
X145433898Y-107722780D01*
X144291041Y-108770400D02*
X145148183Y-107484685D01*
X144005326Y-108008495D02*
X143529136Y-108008495D01*
X144100564Y-107722780D02*
X143767231Y-108722780D01*
X143767231Y-108722780D02*
X143433898Y-107722780D01*
X143100564Y-108722780D02*
X143100564Y-107913257D01*
X143100564Y-107913257D02*
X143052945Y-107818019D01*
X143052945Y-107818019D02*
X143005326Y-107770400D01*
X143005326Y-107770400D02*
X142910088Y-107722780D01*
X142910088Y-107722780D02*
X142719612Y-107722780D01*
X142719612Y-107722780D02*
X142624374Y-107770400D01*
X142624374Y-107770400D02*
X142576755Y-107818019D01*
X142576755Y-107818019D02*
X142529136Y-107913257D01*
X142529136Y-107913257D02*
X142529136Y-108722780D01*
X142148183Y-108722780D02*
X141481517Y-107722780D01*
X141481517Y-108722780D02*
X142148183Y-107722780D01*
X154663095Y-114397780D02*
X154663095Y-115397780D01*
X154663095Y-115397780D02*
X154282143Y-115397780D01*
X154282143Y-115397780D02*
X154186905Y-115350161D01*
X154186905Y-115350161D02*
X154139286Y-115302542D01*
X154139286Y-115302542D02*
X154091667Y-115207304D01*
X154091667Y-115207304D02*
X154091667Y-115064447D01*
X154091667Y-115064447D02*
X154139286Y-114969209D01*
X154139286Y-114969209D02*
X154186905Y-114921590D01*
X154186905Y-114921590D02*
X154282143Y-114873971D01*
X154282143Y-114873971D02*
X154663095Y-114873971D01*
X153663095Y-114397780D02*
X153663095Y-115064447D01*
X153663095Y-114873971D02*
X153615476Y-114969209D01*
X153615476Y-114969209D02*
X153567857Y-115016828D01*
X153567857Y-115016828D02*
X153472619Y-115064447D01*
X153472619Y-115064447D02*
X153377381Y-115064447D01*
X152901190Y-114397780D02*
X152996428Y-114445400D01*
X152996428Y-114445400D02*
X153044047Y-114493019D01*
X153044047Y-114493019D02*
X153091666Y-114588257D01*
X153091666Y-114588257D02*
X153091666Y-114873971D01*
X153091666Y-114873971D02*
X153044047Y-114969209D01*
X153044047Y-114969209D02*
X152996428Y-115016828D01*
X152996428Y-115016828D02*
X152901190Y-115064447D01*
X152901190Y-115064447D02*
X152758333Y-115064447D01*
X152758333Y-115064447D02*
X152663095Y-115016828D01*
X152663095Y-115016828D02*
X152615476Y-114969209D01*
X152615476Y-114969209D02*
X152567857Y-114873971D01*
X152567857Y-114873971D02*
X152567857Y-114588257D01*
X152567857Y-114588257D02*
X152615476Y-114493019D01*
X152615476Y-114493019D02*
X152663095Y-114445400D01*
X152663095Y-114445400D02*
X152758333Y-114397780D01*
X152758333Y-114397780D02*
X152901190Y-114397780D01*
X152282142Y-115064447D02*
X151901190Y-115064447D01*
X152139285Y-114397780D02*
X152139285Y-115254923D01*
X152139285Y-115254923D02*
X152091666Y-115350161D01*
X152091666Y-115350161D02*
X151996428Y-115397780D01*
X151996428Y-115397780D02*
X151901190Y-115397780D01*
X151567856Y-114397780D02*
X151567856Y-115064447D01*
X151567856Y-115397780D02*
X151615475Y-115350161D01*
X151615475Y-115350161D02*
X151567856Y-115302542D01*
X151567856Y-115302542D02*
X151520237Y-115350161D01*
X151520237Y-115350161D02*
X151567856Y-115397780D01*
X151567856Y-115397780D02*
X151567856Y-115302542D01*
X150948809Y-114397780D02*
X151044047Y-114445400D01*
X151044047Y-114445400D02*
X151091666Y-114540638D01*
X151091666Y-114540638D02*
X151091666Y-115397780D01*
X150186904Y-114445400D02*
X150282142Y-114397780D01*
X150282142Y-114397780D02*
X150472618Y-114397780D01*
X150472618Y-114397780D02*
X150567856Y-114445400D01*
X150567856Y-114445400D02*
X150615475Y-114540638D01*
X150615475Y-114540638D02*
X150615475Y-114921590D01*
X150615475Y-114921590D02*
X150567856Y-115016828D01*
X150567856Y-115016828D02*
X150472618Y-115064447D01*
X150472618Y-115064447D02*
X150282142Y-115064447D01*
X150282142Y-115064447D02*
X150186904Y-115016828D01*
X150186904Y-115016828D02*
X150139285Y-114921590D01*
X150139285Y-114921590D02*
X150139285Y-114826352D01*
X150139285Y-114826352D02*
X150615475Y-114731114D01*
X91567857Y-71382827D02*
X91082142Y-71382827D01*
X91324999Y-71382827D02*
X91324999Y-70532827D01*
X91324999Y-70532827D02*
X91244047Y-70654255D01*
X91244047Y-70654255D02*
X91163095Y-70735208D01*
X91163095Y-70735208D02*
X91082142Y-70775684D01*
D13*
X90414528Y-110721428D02*
X90343100Y-110650000D01*
X90343100Y-110650000D02*
X90271671Y-110435714D01*
X90271671Y-110435714D02*
X90271671Y-110292857D01*
X90271671Y-110292857D02*
X90343100Y-110078571D01*
X90343100Y-110078571D02*
X90485957Y-109935714D01*
X90485957Y-109935714D02*
X90628814Y-109864285D01*
X90628814Y-109864285D02*
X90914528Y-109792857D01*
X90914528Y-109792857D02*
X91128814Y-109792857D01*
X91128814Y-109792857D02*
X91414528Y-109864285D01*
X91414528Y-109864285D02*
X91557385Y-109935714D01*
X91557385Y-109935714D02*
X91700242Y-110078571D01*
X91700242Y-110078571D02*
X91771671Y-110292857D01*
X91771671Y-110292857D02*
X91771671Y-110435714D01*
X91771671Y-110435714D02*
X91700242Y-110650000D01*
X91700242Y-110650000D02*
X91628814Y-110721428D01*
X90700242Y-111292857D02*
X90700242Y-112007143D01*
X90271671Y-111150000D02*
X91771671Y-111650000D01*
X91771671Y-111650000D02*
X90271671Y-112150000D01*
X90271671Y-112649999D02*
X91771671Y-112649999D01*
X91771671Y-112649999D02*
X90271671Y-113507142D01*
X90271671Y-113507142D02*
X91771671Y-113507142D01*
X91771671Y-115650000D02*
X91771671Y-115935714D01*
X91771671Y-115935714D02*
X91700242Y-116078571D01*
X91700242Y-116078571D02*
X91557385Y-116221428D01*
X91557385Y-116221428D02*
X91271671Y-116292857D01*
X91271671Y-116292857D02*
X90771671Y-116292857D01*
X90771671Y-116292857D02*
X90485957Y-116221428D01*
X90485957Y-116221428D02*
X90343100Y-116078571D01*
X90343100Y-116078571D02*
X90271671Y-115935714D01*
X90271671Y-115935714D02*
X90271671Y-115650000D01*
X90271671Y-115650000D02*
X90343100Y-115507143D01*
X90343100Y-115507143D02*
X90485957Y-115364285D01*
X90485957Y-115364285D02*
X90771671Y-115292857D01*
X90771671Y-115292857D02*
X91271671Y-115292857D01*
X91271671Y-115292857D02*
X91557385Y-115364285D01*
X91557385Y-115364285D02*
X91700242Y-115507143D01*
X91700242Y-115507143D02*
X91771671Y-115650000D01*
X91771671Y-116935714D02*
X90557385Y-116935714D01*
X90557385Y-116935714D02*
X90414528Y-117007143D01*
X90414528Y-117007143D02*
X90343100Y-117078572D01*
X90343100Y-117078572D02*
X90271671Y-117221429D01*
X90271671Y-117221429D02*
X90271671Y-117507143D01*
X90271671Y-117507143D02*
X90343100Y-117650000D01*
X90343100Y-117650000D02*
X90414528Y-117721429D01*
X90414528Y-117721429D02*
X90557385Y-117792857D01*
X90557385Y-117792857D02*
X91771671Y-117792857D01*
X91771671Y-118292858D02*
X91771671Y-119150001D01*
X90271671Y-118721429D02*
X91771671Y-118721429D01*
D11*
X86422857Y-65842827D02*
X86139523Y-65438065D01*
X85937142Y-65842827D02*
X85937142Y-64992827D01*
X85937142Y-64992827D02*
X86260952Y-64992827D01*
X86260952Y-64992827D02*
X86341904Y-65033303D01*
X86341904Y-65033303D02*
X86382381Y-65073779D01*
X86382381Y-65073779D02*
X86422857Y-65154731D01*
X86422857Y-65154731D02*
X86422857Y-65276160D01*
X86422857Y-65276160D02*
X86382381Y-65357112D01*
X86382381Y-65357112D02*
X86341904Y-65397589D01*
X86341904Y-65397589D02*
X86260952Y-65438065D01*
X86260952Y-65438065D02*
X85937142Y-65438065D01*
X86787142Y-65397589D02*
X87070476Y-65397589D01*
X87191904Y-65842827D02*
X86787142Y-65842827D01*
X86787142Y-65842827D02*
X86787142Y-64992827D01*
X86787142Y-64992827D02*
X87191904Y-64992827D01*
X87556190Y-65842827D02*
X87556190Y-64992827D01*
X87556190Y-64992827D02*
X87839524Y-65599970D01*
X87839524Y-65599970D02*
X88122857Y-64992827D01*
X88122857Y-64992827D02*
X88122857Y-65842827D01*
D13*
X90214528Y-94571428D02*
X90143100Y-94500000D01*
X90143100Y-94500000D02*
X90071671Y-94285714D01*
X90071671Y-94285714D02*
X90071671Y-94142857D01*
X90071671Y-94142857D02*
X90143100Y-93928571D01*
X90143100Y-93928571D02*
X90285957Y-93785714D01*
X90285957Y-93785714D02*
X90428814Y-93714285D01*
X90428814Y-93714285D02*
X90714528Y-93642857D01*
X90714528Y-93642857D02*
X90928814Y-93642857D01*
X90928814Y-93642857D02*
X91214528Y-93714285D01*
X91214528Y-93714285D02*
X91357385Y-93785714D01*
X91357385Y-93785714D02*
X91500242Y-93928571D01*
X91500242Y-93928571D02*
X91571671Y-94142857D01*
X91571671Y-94142857D02*
X91571671Y-94285714D01*
X91571671Y-94285714D02*
X91500242Y-94500000D01*
X91500242Y-94500000D02*
X91428814Y-94571428D01*
X90500242Y-95142857D02*
X90500242Y-95857143D01*
X90071671Y-95000000D02*
X91571671Y-95500000D01*
X91571671Y-95500000D02*
X90071671Y-96000000D01*
X90071671Y-96499999D02*
X91571671Y-96499999D01*
X91571671Y-96499999D02*
X90071671Y-97357142D01*
X90071671Y-97357142D02*
X91571671Y-97357142D01*
X90071671Y-99214285D02*
X91571671Y-99214285D01*
X90071671Y-99928571D02*
X91571671Y-99928571D01*
X91571671Y-99928571D02*
X90071671Y-100785714D01*
X90071671Y-100785714D02*
X91571671Y-100785714D01*
D12*
X88404657Y-126112969D02*
X88404657Y-125427255D01*
X88404657Y-125770112D02*
X89604657Y-125770112D01*
X89604657Y-125770112D02*
X89433228Y-125655826D01*
X89433228Y-125655826D02*
X89318942Y-125541541D01*
X89318942Y-125541541D02*
X89261800Y-125427255D01*
D13*
X92771671Y-61528571D02*
X94271671Y-61528571D01*
X94271671Y-61528571D02*
X93200242Y-62028571D01*
X93200242Y-62028571D02*
X94271671Y-62528571D01*
X94271671Y-62528571D02*
X92771671Y-62528571D01*
X94271671Y-63528572D02*
X94271671Y-63814286D01*
X94271671Y-63814286D02*
X94200242Y-63957143D01*
X94200242Y-63957143D02*
X94057385Y-64100000D01*
X94057385Y-64100000D02*
X93771671Y-64171429D01*
X93771671Y-64171429D02*
X93271671Y-64171429D01*
X93271671Y-64171429D02*
X92985957Y-64100000D01*
X92985957Y-64100000D02*
X92843100Y-63957143D01*
X92843100Y-63957143D02*
X92771671Y-63814286D01*
X92771671Y-63814286D02*
X92771671Y-63528572D01*
X92771671Y-63528572D02*
X92843100Y-63385715D01*
X92843100Y-63385715D02*
X92985957Y-63242857D01*
X92985957Y-63242857D02*
X93271671Y-63171429D01*
X93271671Y-63171429D02*
X93771671Y-63171429D01*
X93771671Y-63171429D02*
X94057385Y-63242857D01*
X94057385Y-63242857D02*
X94200242Y-63385715D01*
X94200242Y-63385715D02*
X94271671Y-63528572D01*
X94271671Y-64600001D02*
X94271671Y-65457144D01*
X92771671Y-65028572D02*
X94271671Y-65028572D01*
X92771671Y-66742858D02*
X92771671Y-65885715D01*
X92771671Y-66314286D02*
X94271671Y-66314286D01*
X94271671Y-66314286D02*
X94057385Y-66171429D01*
X94057385Y-66171429D02*
X93914528Y-66028572D01*
X93914528Y-66028572D02*
X93843100Y-65885715D01*
X93557385Y-68528571D02*
X93557385Y-69028571D01*
X92771671Y-69242857D02*
X92771671Y-68528571D01*
X92771671Y-68528571D02*
X94271671Y-68528571D01*
X94271671Y-68528571D02*
X94271671Y-69242857D01*
X92771671Y-69885714D02*
X94271671Y-69885714D01*
X94271671Y-69885714D02*
X92771671Y-70742857D01*
X92771671Y-70742857D02*
X94271671Y-70742857D01*
X92914528Y-72314286D02*
X92843100Y-72242858D01*
X92843100Y-72242858D02*
X92771671Y-72028572D01*
X92771671Y-72028572D02*
X92771671Y-71885715D01*
X92771671Y-71885715D02*
X92843100Y-71671429D01*
X92843100Y-71671429D02*
X92985957Y-71528572D01*
X92985957Y-71528572D02*
X93128814Y-71457143D01*
X93128814Y-71457143D02*
X93414528Y-71385715D01*
X93414528Y-71385715D02*
X93628814Y-71385715D01*
X93628814Y-71385715D02*
X93914528Y-71457143D01*
X93914528Y-71457143D02*
X94057385Y-71528572D01*
X94057385Y-71528572D02*
X94200242Y-71671429D01*
X94200242Y-71671429D02*
X94271671Y-71885715D01*
X94271671Y-71885715D02*
X94271671Y-72028572D01*
X94271671Y-72028572D02*
X94200242Y-72242858D01*
X94200242Y-72242858D02*
X94128814Y-72314286D01*
X92771671Y-73742858D02*
X92771671Y-72885715D01*
X92771671Y-73314286D02*
X94271671Y-73314286D01*
X94271671Y-73314286D02*
X94057385Y-73171429D01*
X94057385Y-73171429D02*
X93914528Y-73028572D01*
X93914528Y-73028572D02*
X93843100Y-72885715D01*
D11*
X84791667Y-64277219D02*
X84791667Y-63277219D01*
X84791667Y-63277219D02*
X85172619Y-63277219D01*
X85172619Y-63277219D02*
X85267857Y-63324838D01*
X85267857Y-63324838D02*
X85315476Y-63372457D01*
X85315476Y-63372457D02*
X85363095Y-63467695D01*
X85363095Y-63467695D02*
X85363095Y-63610552D01*
X85363095Y-63610552D02*
X85315476Y-63705790D01*
X85315476Y-63705790D02*
X85267857Y-63753409D01*
X85267857Y-63753409D02*
X85172619Y-63801028D01*
X85172619Y-63801028D02*
X84791667Y-63801028D01*
X85696429Y-63277219D02*
X85934524Y-64277219D01*
X85934524Y-64277219D02*
X86125000Y-63562933D01*
X86125000Y-63562933D02*
X86315476Y-64277219D01*
X86315476Y-64277219D02*
X86553572Y-63277219D01*
X87505952Y-64277219D02*
X87172619Y-63801028D01*
X86934524Y-64277219D02*
X86934524Y-63277219D01*
X86934524Y-63277219D02*
X87315476Y-63277219D01*
X87315476Y-63277219D02*
X87410714Y-63324838D01*
X87410714Y-63324838D02*
X87458333Y-63372457D01*
X87458333Y-63372457D02*
X87505952Y-63467695D01*
X87505952Y-63467695D02*
X87505952Y-63610552D01*
X87505952Y-63610552D02*
X87458333Y-63705790D01*
X87458333Y-63705790D02*
X87410714Y-63753409D01*
X87410714Y-63753409D02*
X87315476Y-63801028D01*
X87315476Y-63801028D02*
X86934524Y-63801028D01*
X149588094Y-72297780D02*
X149588094Y-71488257D01*
X149588094Y-71488257D02*
X149540475Y-71393019D01*
X149540475Y-71393019D02*
X149492856Y-71345400D01*
X149492856Y-71345400D02*
X149397618Y-71297780D01*
X149397618Y-71297780D02*
X149207142Y-71297780D01*
X149207142Y-71297780D02*
X149111904Y-71345400D01*
X149111904Y-71345400D02*
X149064285Y-71393019D01*
X149064285Y-71393019D02*
X149016666Y-71488257D01*
X149016666Y-71488257D02*
X149016666Y-72297780D01*
X148588094Y-71345400D02*
X148445237Y-71297780D01*
X148445237Y-71297780D02*
X148207142Y-71297780D01*
X148207142Y-71297780D02*
X148111904Y-71345400D01*
X148111904Y-71345400D02*
X148064285Y-71393019D01*
X148064285Y-71393019D02*
X148016666Y-71488257D01*
X148016666Y-71488257D02*
X148016666Y-71583495D01*
X148016666Y-71583495D02*
X148064285Y-71678733D01*
X148064285Y-71678733D02*
X148111904Y-71726352D01*
X148111904Y-71726352D02*
X148207142Y-71773971D01*
X148207142Y-71773971D02*
X148397618Y-71821590D01*
X148397618Y-71821590D02*
X148492856Y-71869209D01*
X148492856Y-71869209D02*
X148540475Y-71916828D01*
X148540475Y-71916828D02*
X148588094Y-72012066D01*
X148588094Y-72012066D02*
X148588094Y-72107304D01*
X148588094Y-72107304D02*
X148540475Y-72202542D01*
X148540475Y-72202542D02*
X148492856Y-72250161D01*
X148492856Y-72250161D02*
X148397618Y-72297780D01*
X148397618Y-72297780D02*
X148159523Y-72297780D01*
X148159523Y-72297780D02*
X148016666Y-72250161D01*
X147254761Y-71821590D02*
X147111904Y-71773971D01*
X147111904Y-71773971D02*
X147064285Y-71726352D01*
X147064285Y-71726352D02*
X147016666Y-71631114D01*
X147016666Y-71631114D02*
X147016666Y-71488257D01*
X147016666Y-71488257D02*
X147064285Y-71393019D01*
X147064285Y-71393019D02*
X147111904Y-71345400D01*
X147111904Y-71345400D02*
X147207142Y-71297780D01*
X147207142Y-71297780D02*
X147588094Y-71297780D01*
X147588094Y-71297780D02*
X147588094Y-72297780D01*
X147588094Y-72297780D02*
X147254761Y-72297780D01*
X147254761Y-72297780D02*
X147159523Y-72250161D01*
X147159523Y-72250161D02*
X147111904Y-72202542D01*
X147111904Y-72202542D02*
X147064285Y-72107304D01*
X147064285Y-72107304D02*
X147064285Y-72012066D01*
X147064285Y-72012066D02*
X147111904Y-71916828D01*
X147111904Y-71916828D02*
X147159523Y-71869209D01*
X147159523Y-71869209D02*
X147254761Y-71821590D01*
X147254761Y-71821590D02*
X147588094Y-71821590D01*
X146635713Y-72202542D02*
X146588094Y-72250161D01*
X146588094Y-72250161D02*
X146492856Y-72297780D01*
X146492856Y-72297780D02*
X146254761Y-72297780D01*
X146254761Y-72297780D02*
X146159523Y-72250161D01*
X146159523Y-72250161D02*
X146111904Y-72202542D01*
X146111904Y-72202542D02*
X146064285Y-72107304D01*
X146064285Y-72107304D02*
X146064285Y-72012066D01*
X146064285Y-72012066D02*
X146111904Y-71869209D01*
X146111904Y-71869209D02*
X146683332Y-71297780D01*
X146683332Y-71297780D02*
X146064285Y-71297780D01*
X130463094Y-70047780D02*
X130463094Y-69238257D01*
X130463094Y-69238257D02*
X130415475Y-69143019D01*
X130415475Y-69143019D02*
X130367856Y-69095400D01*
X130367856Y-69095400D02*
X130272618Y-69047780D01*
X130272618Y-69047780D02*
X130082142Y-69047780D01*
X130082142Y-69047780D02*
X129986904Y-69095400D01*
X129986904Y-69095400D02*
X129939285Y-69143019D01*
X129939285Y-69143019D02*
X129891666Y-69238257D01*
X129891666Y-69238257D02*
X129891666Y-70047780D01*
X129463094Y-69095400D02*
X129320237Y-69047780D01*
X129320237Y-69047780D02*
X129082142Y-69047780D01*
X129082142Y-69047780D02*
X128986904Y-69095400D01*
X128986904Y-69095400D02*
X128939285Y-69143019D01*
X128939285Y-69143019D02*
X128891666Y-69238257D01*
X128891666Y-69238257D02*
X128891666Y-69333495D01*
X128891666Y-69333495D02*
X128939285Y-69428733D01*
X128939285Y-69428733D02*
X128986904Y-69476352D01*
X128986904Y-69476352D02*
X129082142Y-69523971D01*
X129082142Y-69523971D02*
X129272618Y-69571590D01*
X129272618Y-69571590D02*
X129367856Y-69619209D01*
X129367856Y-69619209D02*
X129415475Y-69666828D01*
X129415475Y-69666828D02*
X129463094Y-69762066D01*
X129463094Y-69762066D02*
X129463094Y-69857304D01*
X129463094Y-69857304D02*
X129415475Y-69952542D01*
X129415475Y-69952542D02*
X129367856Y-70000161D01*
X129367856Y-70000161D02*
X129272618Y-70047780D01*
X129272618Y-70047780D02*
X129034523Y-70047780D01*
X129034523Y-70047780D02*
X128891666Y-70000161D01*
X128129761Y-69571590D02*
X127986904Y-69523971D01*
X127986904Y-69523971D02*
X127939285Y-69476352D01*
X127939285Y-69476352D02*
X127891666Y-69381114D01*
X127891666Y-69381114D02*
X127891666Y-69238257D01*
X127891666Y-69238257D02*
X127939285Y-69143019D01*
X127939285Y-69143019D02*
X127986904Y-69095400D01*
X127986904Y-69095400D02*
X128082142Y-69047780D01*
X128082142Y-69047780D02*
X128463094Y-69047780D01*
X128463094Y-69047780D02*
X128463094Y-70047780D01*
X128463094Y-70047780D02*
X128129761Y-70047780D01*
X128129761Y-70047780D02*
X128034523Y-70000161D01*
X128034523Y-70000161D02*
X127986904Y-69952542D01*
X127986904Y-69952542D02*
X127939285Y-69857304D01*
X127939285Y-69857304D02*
X127939285Y-69762066D01*
X127939285Y-69762066D02*
X127986904Y-69666828D01*
X127986904Y-69666828D02*
X128034523Y-69619209D01*
X128034523Y-69619209D02*
X128129761Y-69571590D01*
X128129761Y-69571590D02*
X128463094Y-69571590D01*
X126939285Y-69047780D02*
X127510713Y-69047780D01*
X127224999Y-69047780D02*
X127224999Y-70047780D01*
X127224999Y-70047780D02*
X127320237Y-69904923D01*
X127320237Y-69904923D02*
X127415475Y-69809685D01*
X127415475Y-69809685D02*
X127510713Y-69762066D01*
X150950714Y-123791504D02*
X151426904Y-123791504D01*
X150855476Y-124077219D02*
X151188809Y-123077219D01*
X151188809Y-123077219D02*
X151522142Y-124077219D01*
X151855476Y-123077219D02*
X151855476Y-123886742D01*
X151855476Y-123886742D02*
X151903095Y-123981980D01*
X151903095Y-123981980D02*
X151950714Y-124029600D01*
X151950714Y-124029600D02*
X152045952Y-124077219D01*
X152045952Y-124077219D02*
X152236428Y-124077219D01*
X152236428Y-124077219D02*
X152331666Y-124029600D01*
X152331666Y-124029600D02*
X152379285Y-123981980D01*
X152379285Y-123981980D02*
X152426904Y-123886742D01*
X152426904Y-123886742D02*
X152426904Y-123077219D01*
X152807857Y-123077219D02*
X153474523Y-124077219D01*
X153474523Y-123077219D02*
X152807857Y-124077219D01*
X153807857Y-123172457D02*
X153855476Y-123124838D01*
X153855476Y-123124838D02*
X153950714Y-123077219D01*
X153950714Y-123077219D02*
X154188809Y-123077219D01*
X154188809Y-123077219D02*
X154284047Y-123124838D01*
X154284047Y-123124838D02*
X154331666Y-123172457D01*
X154331666Y-123172457D02*
X154379285Y-123267695D01*
X154379285Y-123267695D02*
X154379285Y-123362933D01*
X154379285Y-123362933D02*
X154331666Y-123505790D01*
X154331666Y-123505790D02*
X153760238Y-124077219D01*
X153760238Y-124077219D02*
X154379285Y-124077219D01*
D12*
X91943942Y-130645112D02*
X91886800Y-130587969D01*
X91886800Y-130587969D02*
X91829657Y-130416541D01*
X91829657Y-130416541D02*
X91829657Y-130302255D01*
X91829657Y-130302255D02*
X91886800Y-130130826D01*
X91886800Y-130130826D02*
X92001085Y-130016541D01*
X92001085Y-130016541D02*
X92115371Y-129959398D01*
X92115371Y-129959398D02*
X92343942Y-129902255D01*
X92343942Y-129902255D02*
X92515371Y-129902255D01*
X92515371Y-129902255D02*
X92743942Y-129959398D01*
X92743942Y-129959398D02*
X92858228Y-130016541D01*
X92858228Y-130016541D02*
X92972514Y-130130826D01*
X92972514Y-130130826D02*
X93029657Y-130302255D01*
X93029657Y-130302255D02*
X93029657Y-130416541D01*
X93029657Y-130416541D02*
X92972514Y-130587969D01*
X92972514Y-130587969D02*
X92915371Y-130645112D01*
D11*
X134635714Y-123516504D02*
X135111904Y-123516504D01*
X134540476Y-123802219D02*
X134873809Y-122802219D01*
X134873809Y-122802219D02*
X135207142Y-123802219D01*
X135540476Y-123802219D02*
X135540476Y-122802219D01*
X135540476Y-122802219D02*
X135778571Y-122802219D01*
X135778571Y-122802219D02*
X135921428Y-122849838D01*
X135921428Y-122849838D02*
X136016666Y-122945076D01*
X136016666Y-122945076D02*
X136064285Y-123040314D01*
X136064285Y-123040314D02*
X136111904Y-123230790D01*
X136111904Y-123230790D02*
X136111904Y-123373647D01*
X136111904Y-123373647D02*
X136064285Y-123564123D01*
X136064285Y-123564123D02*
X136016666Y-123659361D01*
X136016666Y-123659361D02*
X135921428Y-123754600D01*
X135921428Y-123754600D02*
X135778571Y-123802219D01*
X135778571Y-123802219D02*
X135540476Y-123802219D01*
X137111904Y-123706980D02*
X137064285Y-123754600D01*
X137064285Y-123754600D02*
X136921428Y-123802219D01*
X136921428Y-123802219D02*
X136826190Y-123802219D01*
X136826190Y-123802219D02*
X136683333Y-123754600D01*
X136683333Y-123754600D02*
X136588095Y-123659361D01*
X136588095Y-123659361D02*
X136540476Y-123564123D01*
X136540476Y-123564123D02*
X136492857Y-123373647D01*
X136492857Y-123373647D02*
X136492857Y-123230790D01*
X136492857Y-123230790D02*
X136540476Y-123040314D01*
X136540476Y-123040314D02*
X136588095Y-122945076D01*
X136588095Y-122945076D02*
X136683333Y-122849838D01*
X136683333Y-122849838D02*
X136826190Y-122802219D01*
X136826190Y-122802219D02*
X136921428Y-122802219D01*
X136921428Y-122802219D02*
X137064285Y-122849838D01*
X137064285Y-122849838D02*
X137111904Y-122897457D01*
X137492857Y-122897457D02*
X137540476Y-122849838D01*
X137540476Y-122849838D02*
X137635714Y-122802219D01*
X137635714Y-122802219D02*
X137873809Y-122802219D01*
X137873809Y-122802219D02*
X137969047Y-122849838D01*
X137969047Y-122849838D02*
X138016666Y-122897457D01*
X138016666Y-122897457D02*
X138064285Y-122992695D01*
X138064285Y-122992695D02*
X138064285Y-123087933D01*
X138064285Y-123087933D02*
X138016666Y-123230790D01*
X138016666Y-123230790D02*
X137445238Y-123802219D01*
X137445238Y-123802219D02*
X138064285Y-123802219D01*
D13*
X92939528Y-76146428D02*
X92868100Y-76075000D01*
X92868100Y-76075000D02*
X92796671Y-75860714D01*
X92796671Y-75860714D02*
X92796671Y-75717857D01*
X92796671Y-75717857D02*
X92868100Y-75503571D01*
X92868100Y-75503571D02*
X93010957Y-75360714D01*
X93010957Y-75360714D02*
X93153814Y-75289285D01*
X93153814Y-75289285D02*
X93439528Y-75217857D01*
X93439528Y-75217857D02*
X93653814Y-75217857D01*
X93653814Y-75217857D02*
X93939528Y-75289285D01*
X93939528Y-75289285D02*
X94082385Y-75360714D01*
X94082385Y-75360714D02*
X94225242Y-75503571D01*
X94225242Y-75503571D02*
X94296671Y-75717857D01*
X94296671Y-75717857D02*
X94296671Y-75860714D01*
X94296671Y-75860714D02*
X94225242Y-76075000D01*
X94225242Y-76075000D02*
X94153814Y-76146428D01*
X93225242Y-76717857D02*
X93225242Y-77432143D01*
X92796671Y-76575000D02*
X94296671Y-77075000D01*
X94296671Y-77075000D02*
X92796671Y-77575000D01*
X92796671Y-78074999D02*
X94296671Y-78074999D01*
X94296671Y-78074999D02*
X92796671Y-78932142D01*
X92796671Y-78932142D02*
X94296671Y-78932142D01*
X92796671Y-80432143D02*
X92796671Y-79575000D01*
X92796671Y-80003571D02*
X94296671Y-80003571D01*
X94296671Y-80003571D02*
X94082385Y-79860714D01*
X94082385Y-79860714D02*
X93939528Y-79717857D01*
X93939528Y-79717857D02*
X93868100Y-79575000D01*
D11*
X131883898Y-73868019D02*
X131931517Y-73820400D01*
X131931517Y-73820400D02*
X132074374Y-73772780D01*
X132074374Y-73772780D02*
X132169612Y-73772780D01*
X132169612Y-73772780D02*
X132312469Y-73820400D01*
X132312469Y-73820400D02*
X132407707Y-73915638D01*
X132407707Y-73915638D02*
X132455326Y-74010876D01*
X132455326Y-74010876D02*
X132502945Y-74201352D01*
X132502945Y-74201352D02*
X132502945Y-74344209D01*
X132502945Y-74344209D02*
X132455326Y-74534685D01*
X132455326Y-74534685D02*
X132407707Y-74629923D01*
X132407707Y-74629923D02*
X132312469Y-74725161D01*
X132312469Y-74725161D02*
X132169612Y-74772780D01*
X132169612Y-74772780D02*
X132074374Y-74772780D01*
X132074374Y-74772780D02*
X131931517Y-74725161D01*
X131931517Y-74725161D02*
X131883898Y-74677542D01*
X131455326Y-73772780D02*
X131455326Y-74772780D01*
X131455326Y-74772780D02*
X131074374Y-74772780D01*
X131074374Y-74772780D02*
X130979136Y-74725161D01*
X130979136Y-74725161D02*
X130931517Y-74677542D01*
X130931517Y-74677542D02*
X130883898Y-74582304D01*
X130883898Y-74582304D02*
X130883898Y-74439447D01*
X130883898Y-74439447D02*
X130931517Y-74344209D01*
X130931517Y-74344209D02*
X130979136Y-74296590D01*
X130979136Y-74296590D02*
X131074374Y-74248971D01*
X131074374Y-74248971D02*
X131455326Y-74248971D01*
X130455326Y-74772780D02*
X130455326Y-73963257D01*
X130455326Y-73963257D02*
X130407707Y-73868019D01*
X130407707Y-73868019D02*
X130360088Y-73820400D01*
X130360088Y-73820400D02*
X130264850Y-73772780D01*
X130264850Y-73772780D02*
X130074374Y-73772780D01*
X130074374Y-73772780D02*
X129979136Y-73820400D01*
X129979136Y-73820400D02*
X129931517Y-73868019D01*
X129931517Y-73868019D02*
X129883898Y-73963257D01*
X129883898Y-73963257D02*
X129883898Y-74772780D01*
X128883898Y-73772780D02*
X129455326Y-73772780D01*
X129169612Y-73772780D02*
X129169612Y-74772780D01*
X129169612Y-74772780D02*
X129264850Y-74629923D01*
X129264850Y-74629923D02*
X129360088Y-74534685D01*
X129360088Y-74534685D02*
X129455326Y-74487066D01*
X127741041Y-74820400D02*
X128598183Y-73534685D01*
X127407707Y-73772780D02*
X127407707Y-74772780D01*
X127407707Y-74772780D02*
X127074374Y-74058495D01*
X127074374Y-74058495D02*
X126741041Y-74772780D01*
X126741041Y-74772780D02*
X126741041Y-73772780D01*
X126074374Y-74772780D02*
X125883898Y-74772780D01*
X125883898Y-74772780D02*
X125788660Y-74725161D01*
X125788660Y-74725161D02*
X125693422Y-74629923D01*
X125693422Y-74629923D02*
X125645803Y-74439447D01*
X125645803Y-74439447D02*
X125645803Y-74106114D01*
X125645803Y-74106114D02*
X125693422Y-73915638D01*
X125693422Y-73915638D02*
X125788660Y-73820400D01*
X125788660Y-73820400D02*
X125883898Y-73772780D01*
X125883898Y-73772780D02*
X126074374Y-73772780D01*
X126074374Y-73772780D02*
X126169612Y-73820400D01*
X126169612Y-73820400D02*
X126264850Y-73915638D01*
X126264850Y-73915638D02*
X126312469Y-74106114D01*
X126312469Y-74106114D02*
X126312469Y-74439447D01*
X126312469Y-74439447D02*
X126264850Y-74629923D01*
X126264850Y-74629923D02*
X126169612Y-74725161D01*
X126169612Y-74725161D02*
X126074374Y-74772780D01*
X125360088Y-74772780D02*
X124788660Y-74772780D01*
X125074374Y-73772780D02*
X125074374Y-74772780D01*
X85747142Y-69152008D02*
X85699523Y-69199628D01*
X85699523Y-69199628D02*
X85556666Y-69247247D01*
X85556666Y-69247247D02*
X85461428Y-69247247D01*
X85461428Y-69247247D02*
X85318571Y-69199628D01*
X85318571Y-69199628D02*
X85223333Y-69104389D01*
X85223333Y-69104389D02*
X85175714Y-69009151D01*
X85175714Y-69009151D02*
X85128095Y-68818675D01*
X85128095Y-68818675D02*
X85128095Y-68675818D01*
X85128095Y-68675818D02*
X85175714Y-68485342D01*
X85175714Y-68485342D02*
X85223333Y-68390104D01*
X85223333Y-68390104D02*
X85318571Y-68294866D01*
X85318571Y-68294866D02*
X85461428Y-68247247D01*
X85461428Y-68247247D02*
X85556666Y-68247247D01*
X85556666Y-68247247D02*
X85699523Y-68294866D01*
X85699523Y-68294866D02*
X85747142Y-68342485D01*
X86128095Y-68961532D02*
X86604285Y-68961532D01*
X86032857Y-69247247D02*
X86366190Y-68247247D01*
X86366190Y-68247247D02*
X86699523Y-69247247D01*
X87032857Y-69247247D02*
X87032857Y-68247247D01*
X87032857Y-68247247D02*
X87604285Y-69247247D01*
X87604285Y-69247247D02*
X87604285Y-68247247D01*
X84342381Y-70857191D02*
X84342381Y-69857191D01*
X84342381Y-69857191D02*
X84580476Y-69857191D01*
X84580476Y-69857191D02*
X84723333Y-69904810D01*
X84723333Y-69904810D02*
X84818571Y-70000048D01*
X84818571Y-70000048D02*
X84866190Y-70095286D01*
X84866190Y-70095286D02*
X84913809Y-70285762D01*
X84913809Y-70285762D02*
X84913809Y-70428619D01*
X84913809Y-70428619D02*
X84866190Y-70619095D01*
X84866190Y-70619095D02*
X84818571Y-70714333D01*
X84818571Y-70714333D02*
X84723333Y-70809572D01*
X84723333Y-70809572D02*
X84580476Y-70857191D01*
X84580476Y-70857191D02*
X84342381Y-70857191D01*
X85723333Y-70809572D02*
X85628095Y-70857191D01*
X85628095Y-70857191D02*
X85437619Y-70857191D01*
X85437619Y-70857191D02*
X85342381Y-70809572D01*
X85342381Y-70809572D02*
X85294762Y-70714333D01*
X85294762Y-70714333D02*
X85294762Y-70333381D01*
X85294762Y-70333381D02*
X85342381Y-70238143D01*
X85342381Y-70238143D02*
X85437619Y-70190524D01*
X85437619Y-70190524D02*
X85628095Y-70190524D01*
X85628095Y-70190524D02*
X85723333Y-70238143D01*
X85723333Y-70238143D02*
X85770952Y-70333381D01*
X85770952Y-70333381D02*
X85770952Y-70428619D01*
X85770952Y-70428619D02*
X85294762Y-70523857D01*
X86199524Y-70857191D02*
X86199524Y-69857191D01*
X86199524Y-70238143D02*
X86294762Y-70190524D01*
X86294762Y-70190524D02*
X86485238Y-70190524D01*
X86485238Y-70190524D02*
X86580476Y-70238143D01*
X86580476Y-70238143D02*
X86628095Y-70285762D01*
X86628095Y-70285762D02*
X86675714Y-70381000D01*
X86675714Y-70381000D02*
X86675714Y-70666714D01*
X86675714Y-70666714D02*
X86628095Y-70761952D01*
X86628095Y-70761952D02*
X86580476Y-70809572D01*
X86580476Y-70809572D02*
X86485238Y-70857191D01*
X86485238Y-70857191D02*
X86294762Y-70857191D01*
X86294762Y-70857191D02*
X86199524Y-70809572D01*
X87532857Y-70190524D02*
X87532857Y-70857191D01*
X87104286Y-70190524D02*
X87104286Y-70714333D01*
X87104286Y-70714333D02*
X87151905Y-70809572D01*
X87151905Y-70809572D02*
X87247143Y-70857191D01*
X87247143Y-70857191D02*
X87390000Y-70857191D01*
X87390000Y-70857191D02*
X87485238Y-70809572D01*
X87485238Y-70809572D02*
X87532857Y-70761952D01*
X88437619Y-70190524D02*
X88437619Y-71000048D01*
X88437619Y-71000048D02*
X88390000Y-71095286D01*
X88390000Y-71095286D02*
X88342381Y-71142905D01*
X88342381Y-71142905D02*
X88247143Y-71190524D01*
X88247143Y-71190524D02*
X88104286Y-71190524D01*
X88104286Y-71190524D02*
X88009048Y-71142905D01*
X88437619Y-70809572D02*
X88342381Y-70857191D01*
X88342381Y-70857191D02*
X88151905Y-70857191D01*
X88151905Y-70857191D02*
X88056667Y-70809572D01*
X88056667Y-70809572D02*
X88009048Y-70761952D01*
X88009048Y-70761952D02*
X87961429Y-70666714D01*
X87961429Y-70666714D02*
X87961429Y-70381000D01*
X87961429Y-70381000D02*
X88009048Y-70285762D01*
X88009048Y-70285762D02*
X88056667Y-70238143D01*
X88056667Y-70238143D02*
X88151905Y-70190524D01*
X88151905Y-70190524D02*
X88342381Y-70190524D01*
X88342381Y-70190524D02*
X88437619Y-70238143D01*
D12*
X91654658Y-127012970D02*
X91654658Y-126327256D01*
X91654658Y-126670113D02*
X92854658Y-126670113D01*
X92854658Y-126670113D02*
X92683229Y-126555827D01*
X92683229Y-126555827D02*
X92568943Y-126441542D01*
X92568943Y-126441542D02*
X92511801Y-126327256D01*
X91654657Y-128262969D02*
X91654657Y-127577255D01*
X91654657Y-127920112D02*
X92854657Y-127920112D01*
X92854657Y-127920112D02*
X92683228Y-127805826D01*
X92683228Y-127805826D02*
X92568942Y-127691541D01*
X92568942Y-127691541D02*
X92511800Y-127577255D01*
D13*
X92746671Y-107443572D02*
X94246671Y-107443572D01*
X94246671Y-107443572D02*
X93175242Y-107943572D01*
X93175242Y-107943572D02*
X94246671Y-108443572D01*
X94246671Y-108443572D02*
X92746671Y-108443572D01*
X94246671Y-109443573D02*
X94246671Y-109729287D01*
X94246671Y-109729287D02*
X94175242Y-109872144D01*
X94175242Y-109872144D02*
X94032385Y-110015001D01*
X94032385Y-110015001D02*
X93746671Y-110086430D01*
X93746671Y-110086430D02*
X93246671Y-110086430D01*
X93246671Y-110086430D02*
X92960957Y-110015001D01*
X92960957Y-110015001D02*
X92818100Y-109872144D01*
X92818100Y-109872144D02*
X92746671Y-109729287D01*
X92746671Y-109729287D02*
X92746671Y-109443573D01*
X92746671Y-109443573D02*
X92818100Y-109300716D01*
X92818100Y-109300716D02*
X92960957Y-109157858D01*
X92960957Y-109157858D02*
X93246671Y-109086430D01*
X93246671Y-109086430D02*
X93746671Y-109086430D01*
X93746671Y-109086430D02*
X94032385Y-109157858D01*
X94032385Y-109157858D02*
X94175242Y-109300716D01*
X94175242Y-109300716D02*
X94246671Y-109443573D01*
X94246671Y-110515002D02*
X94246671Y-111372145D01*
X92746671Y-110943573D02*
X94246671Y-110943573D01*
X94103814Y-111800716D02*
X94175242Y-111872144D01*
X94175242Y-111872144D02*
X94246671Y-112015002D01*
X94246671Y-112015002D02*
X94246671Y-112372144D01*
X94246671Y-112372144D02*
X94175242Y-112515002D01*
X94175242Y-112515002D02*
X94103814Y-112586430D01*
X94103814Y-112586430D02*
X93960957Y-112657859D01*
X93960957Y-112657859D02*
X93818100Y-112657859D01*
X93818100Y-112657859D02*
X93603814Y-112586430D01*
X93603814Y-112586430D02*
X92746671Y-111729287D01*
X92746671Y-111729287D02*
X92746671Y-112657859D01*
X93532385Y-114443572D02*
X93532385Y-114943572D01*
X92746671Y-115157858D02*
X92746671Y-114443572D01*
X92746671Y-114443572D02*
X94246671Y-114443572D01*
X94246671Y-114443572D02*
X94246671Y-115157858D01*
X92746671Y-115800715D02*
X94246671Y-115800715D01*
X94246671Y-115800715D02*
X92746671Y-116657858D01*
X92746671Y-116657858D02*
X94246671Y-116657858D01*
X92889528Y-118229287D02*
X92818100Y-118157859D01*
X92818100Y-118157859D02*
X92746671Y-117943573D01*
X92746671Y-117943573D02*
X92746671Y-117800716D01*
X92746671Y-117800716D02*
X92818100Y-117586430D01*
X92818100Y-117586430D02*
X92960957Y-117443573D01*
X92960957Y-117443573D02*
X93103814Y-117372144D01*
X93103814Y-117372144D02*
X93389528Y-117300716D01*
X93389528Y-117300716D02*
X93603814Y-117300716D01*
X93603814Y-117300716D02*
X93889528Y-117372144D01*
X93889528Y-117372144D02*
X94032385Y-117443573D01*
X94032385Y-117443573D02*
X94175242Y-117586430D01*
X94175242Y-117586430D02*
X94246671Y-117800716D01*
X94246671Y-117800716D02*
X94246671Y-117943573D01*
X94246671Y-117943573D02*
X94175242Y-118157859D01*
X94175242Y-118157859D02*
X94103814Y-118229287D01*
X94103814Y-118800716D02*
X94175242Y-118872144D01*
X94175242Y-118872144D02*
X94246671Y-119015002D01*
X94246671Y-119015002D02*
X94246671Y-119372144D01*
X94246671Y-119372144D02*
X94175242Y-119515002D01*
X94175242Y-119515002D02*
X94103814Y-119586430D01*
X94103814Y-119586430D02*
X93960957Y-119657859D01*
X93960957Y-119657859D02*
X93818100Y-119657859D01*
X93818100Y-119657859D02*
X93603814Y-119586430D01*
X93603814Y-119586430D02*
X92746671Y-118729287D01*
X92746671Y-118729287D02*
X92746671Y-119657859D01*
D11*
X141185714Y-122816504D02*
X141661904Y-122816504D01*
X141090476Y-123102219D02*
X141423809Y-122102219D01*
X141423809Y-122102219D02*
X141757142Y-123102219D01*
X142090476Y-122102219D02*
X142090476Y-122911742D01*
X142090476Y-122911742D02*
X142138095Y-123006980D01*
X142138095Y-123006980D02*
X142185714Y-123054600D01*
X142185714Y-123054600D02*
X142280952Y-123102219D01*
X142280952Y-123102219D02*
X142471428Y-123102219D01*
X142471428Y-123102219D02*
X142566666Y-123054600D01*
X142566666Y-123054600D02*
X142614285Y-123006980D01*
X142614285Y-123006980D02*
X142661904Y-122911742D01*
X142661904Y-122911742D02*
X142661904Y-122102219D01*
X143042857Y-122102219D02*
X143709523Y-123102219D01*
X143709523Y-122102219D02*
X143042857Y-123102219D01*
X144614285Y-123102219D02*
X144042857Y-123102219D01*
X144328571Y-123102219D02*
X144328571Y-122102219D01*
X144328571Y-122102219D02*
X144233333Y-122245076D01*
X144233333Y-122245076D02*
X144138095Y-122340314D01*
X144138095Y-122340314D02*
X144042857Y-122387933D01*
X125658333Y-68046590D02*
X125515476Y-67998971D01*
X125515476Y-67998971D02*
X125467857Y-67951352D01*
X125467857Y-67951352D02*
X125420238Y-67856114D01*
X125420238Y-67856114D02*
X125420238Y-67713257D01*
X125420238Y-67713257D02*
X125467857Y-67618019D01*
X125467857Y-67618019D02*
X125515476Y-67570400D01*
X125515476Y-67570400D02*
X125610714Y-67522780D01*
X125610714Y-67522780D02*
X125991666Y-67522780D01*
X125991666Y-67522780D02*
X125991666Y-68522780D01*
X125991666Y-68522780D02*
X125658333Y-68522780D01*
X125658333Y-68522780D02*
X125563095Y-68475161D01*
X125563095Y-68475161D02*
X125515476Y-68427542D01*
X125515476Y-68427542D02*
X125467857Y-68332304D01*
X125467857Y-68332304D02*
X125467857Y-68237066D01*
X125467857Y-68237066D02*
X125515476Y-68141828D01*
X125515476Y-68141828D02*
X125563095Y-68094209D01*
X125563095Y-68094209D02*
X125658333Y-68046590D01*
X125658333Y-68046590D02*
X125991666Y-68046590D01*
X124801190Y-68522780D02*
X124610714Y-68522780D01*
X124610714Y-68522780D02*
X124515476Y-68475161D01*
X124515476Y-68475161D02*
X124420238Y-68379923D01*
X124420238Y-68379923D02*
X124372619Y-68189447D01*
X124372619Y-68189447D02*
X124372619Y-67856114D01*
X124372619Y-67856114D02*
X124420238Y-67665638D01*
X124420238Y-67665638D02*
X124515476Y-67570400D01*
X124515476Y-67570400D02*
X124610714Y-67522780D01*
X124610714Y-67522780D02*
X124801190Y-67522780D01*
X124801190Y-67522780D02*
X124896428Y-67570400D01*
X124896428Y-67570400D02*
X124991666Y-67665638D01*
X124991666Y-67665638D02*
X125039285Y-67856114D01*
X125039285Y-67856114D02*
X125039285Y-68189447D01*
X125039285Y-68189447D02*
X124991666Y-68379923D01*
X124991666Y-68379923D02*
X124896428Y-68475161D01*
X124896428Y-68475161D02*
X124801190Y-68522780D01*
X123753571Y-68522780D02*
X123563095Y-68522780D01*
X123563095Y-68522780D02*
X123467857Y-68475161D01*
X123467857Y-68475161D02*
X123372619Y-68379923D01*
X123372619Y-68379923D02*
X123325000Y-68189447D01*
X123325000Y-68189447D02*
X123325000Y-67856114D01*
X123325000Y-67856114D02*
X123372619Y-67665638D01*
X123372619Y-67665638D02*
X123467857Y-67570400D01*
X123467857Y-67570400D02*
X123563095Y-67522780D01*
X123563095Y-67522780D02*
X123753571Y-67522780D01*
X123753571Y-67522780D02*
X123848809Y-67570400D01*
X123848809Y-67570400D02*
X123944047Y-67665638D01*
X123944047Y-67665638D02*
X123991666Y-67856114D01*
X123991666Y-67856114D02*
X123991666Y-68189447D01*
X123991666Y-68189447D02*
X123944047Y-68379923D01*
X123944047Y-68379923D02*
X123848809Y-68475161D01*
X123848809Y-68475161D02*
X123753571Y-68522780D01*
X123039285Y-68522780D02*
X122467857Y-68522780D01*
X122753571Y-67522780D02*
X122753571Y-68522780D01*
X121610714Y-67522780D02*
X122182142Y-67522780D01*
X121896428Y-67522780D02*
X121896428Y-68522780D01*
X121896428Y-68522780D02*
X121991666Y-68379923D01*
X121991666Y-68379923D02*
X122086904Y-68284685D01*
X122086904Y-68284685D02*
X122182142Y-68237066D01*
X164243714Y-124221504D02*
X164719904Y-124221504D01*
X164148476Y-124507219D02*
X164481809Y-123507219D01*
X164481809Y-123507219D02*
X164815142Y-124507219D01*
X165148476Y-123507219D02*
X165148476Y-124316742D01*
X165148476Y-124316742D02*
X165196095Y-124411980D01*
X165196095Y-124411980D02*
X165243714Y-124459600D01*
X165243714Y-124459600D02*
X165338952Y-124507219D01*
X165338952Y-124507219D02*
X165529428Y-124507219D01*
X165529428Y-124507219D02*
X165624666Y-124459600D01*
X165624666Y-124459600D02*
X165672285Y-124411980D01*
X165672285Y-124411980D02*
X165719904Y-124316742D01*
X165719904Y-124316742D02*
X165719904Y-123507219D01*
X166100857Y-123507219D02*
X166767523Y-124507219D01*
X166767523Y-123507219D02*
X166100857Y-124507219D01*
X167053238Y-123507219D02*
X167672285Y-123507219D01*
X167672285Y-123507219D02*
X167338952Y-123888171D01*
X167338952Y-123888171D02*
X167481809Y-123888171D01*
X167481809Y-123888171D02*
X167577047Y-123935790D01*
X167577047Y-123935790D02*
X167624666Y-123983409D01*
X167624666Y-123983409D02*
X167672285Y-124078647D01*
X167672285Y-124078647D02*
X167672285Y-124316742D01*
X167672285Y-124316742D02*
X167624666Y-124411980D01*
X167624666Y-124411980D02*
X167577047Y-124459600D01*
X167577047Y-124459600D02*
X167481809Y-124507219D01*
X167481809Y-124507219D02*
X167196095Y-124507219D01*
X167196095Y-124507219D02*
X167100857Y-124459600D01*
X167100857Y-124459600D02*
X167053238Y-124411980D01*
D12*
X91354657Y-127812969D02*
X91354657Y-127927255D01*
X91354657Y-127927255D02*
X91297514Y-128041541D01*
X91297514Y-128041541D02*
X91240371Y-128098684D01*
X91240371Y-128098684D02*
X91126085Y-128155826D01*
X91126085Y-128155826D02*
X90897514Y-128212969D01*
X90897514Y-128212969D02*
X90611800Y-128212969D01*
X90611800Y-128212969D02*
X90383228Y-128155826D01*
X90383228Y-128155826D02*
X90268942Y-128098684D01*
X90268942Y-128098684D02*
X90211800Y-128041541D01*
X90211800Y-128041541D02*
X90154657Y-127927255D01*
X90154657Y-127927255D02*
X90154657Y-127812969D01*
X90154657Y-127812969D02*
X90211800Y-127698684D01*
X90211800Y-127698684D02*
X90268942Y-127641541D01*
X90268942Y-127641541D02*
X90383228Y-127584398D01*
X90383228Y-127584398D02*
X90611800Y-127527255D01*
X90611800Y-127527255D02*
X90897514Y-127527255D01*
X90897514Y-127527255D02*
X91126085Y-127584398D01*
X91126085Y-127584398D02*
X91240371Y-127641541D01*
X91240371Y-127641541D02*
X91297514Y-127698684D01*
X91297514Y-127698684D02*
X91354657Y-127812969D01*
X148365476Y-123653819D02*
X148365476Y-124368104D01*
X148365476Y-124368104D02*
X148317857Y-124510961D01*
X148317857Y-124510961D02*
X148222619Y-124606200D01*
X148222619Y-124606200D02*
X148079762Y-124653819D01*
X148079762Y-124653819D02*
X147984524Y-124653819D01*
X149365476Y-124653819D02*
X148794048Y-124653819D01*
X149079762Y-124653819D02*
X149079762Y-123653819D01*
X149079762Y-123653819D02*
X148984524Y-123796676D01*
X148984524Y-123796676D02*
X148889286Y-123891914D01*
X148889286Y-123891914D02*
X148794048Y-123939533D01*
X150222619Y-123987152D02*
X150222619Y-124653819D01*
X149984524Y-123606200D02*
X149746429Y-124320485D01*
X149746429Y-124320485D02*
X150365476Y-124320485D01*
X131355476Y-123578819D02*
X131355476Y-124293104D01*
X131355476Y-124293104D02*
X131307857Y-124435961D01*
X131307857Y-124435961D02*
X131212619Y-124531200D01*
X131212619Y-124531200D02*
X131069762Y-124578819D01*
X131069762Y-124578819D02*
X130974524Y-124578819D01*
X132355476Y-124578819D02*
X131784048Y-124578819D01*
X132069762Y-124578819D02*
X132069762Y-123578819D01*
X132069762Y-123578819D02*
X131974524Y-123721676D01*
X131974524Y-123721676D02*
X131879286Y-123816914D01*
X131879286Y-123816914D02*
X131784048Y-123864533D01*
X132688810Y-123578819D02*
X133307857Y-123578819D01*
X133307857Y-123578819D02*
X132974524Y-123959771D01*
X132974524Y-123959771D02*
X133117381Y-123959771D01*
X133117381Y-123959771D02*
X133212619Y-124007390D01*
X133212619Y-124007390D02*
X133260238Y-124055009D01*
X133260238Y-124055009D02*
X133307857Y-124150247D01*
X133307857Y-124150247D02*
X133307857Y-124388342D01*
X133307857Y-124388342D02*
X133260238Y-124483580D01*
X133260238Y-124483580D02*
X133212619Y-124531200D01*
X133212619Y-124531200D02*
X133117381Y-124578819D01*
X133117381Y-124578819D02*
X132831667Y-124578819D01*
X132831667Y-124578819D02*
X132736429Y-124531200D01*
X132736429Y-124531200D02*
X132688810Y-124483580D01*
X159765476Y-123466819D02*
X159765476Y-124181104D01*
X159765476Y-124181104D02*
X159717857Y-124323961D01*
X159717857Y-124323961D02*
X159622619Y-124419200D01*
X159622619Y-124419200D02*
X159479762Y-124466819D01*
X159479762Y-124466819D02*
X159384524Y-124466819D01*
X160765476Y-124466819D02*
X160194048Y-124466819D01*
X160479762Y-124466819D02*
X160479762Y-123466819D01*
X160479762Y-123466819D02*
X160384524Y-123609676D01*
X160384524Y-123609676D02*
X160289286Y-123704914D01*
X160289286Y-123704914D02*
X160194048Y-123752533D01*
X161670238Y-123466819D02*
X161194048Y-123466819D01*
X161194048Y-123466819D02*
X161146429Y-123943009D01*
X161146429Y-123943009D02*
X161194048Y-123895390D01*
X161194048Y-123895390D02*
X161289286Y-123847771D01*
X161289286Y-123847771D02*
X161527381Y-123847771D01*
X161527381Y-123847771D02*
X161622619Y-123895390D01*
X161622619Y-123895390D02*
X161670238Y-123943009D01*
X161670238Y-123943009D02*
X161717857Y-124038247D01*
X161717857Y-124038247D02*
X161717857Y-124276342D01*
X161717857Y-124276342D02*
X161670238Y-124371580D01*
X161670238Y-124371580D02*
X161622619Y-124419200D01*
X161622619Y-124419200D02*
X161527381Y-124466819D01*
X161527381Y-124466819D02*
X161289286Y-124466819D01*
X161289286Y-124466819D02*
X161194048Y-124419200D01*
X161194048Y-124419200D02*
X161146429Y-124371580D01*
X78245180Y-123340476D02*
X77530895Y-123340476D01*
X77530895Y-123340476D02*
X77388038Y-123292857D01*
X77388038Y-123292857D02*
X77292800Y-123197619D01*
X77292800Y-123197619D02*
X77245180Y-123054762D01*
X77245180Y-123054762D02*
X77245180Y-122959524D01*
X77245180Y-124340476D02*
X77245180Y-123769048D01*
X77245180Y-124054762D02*
X78245180Y-124054762D01*
X78245180Y-124054762D02*
X78102323Y-123959524D01*
X78102323Y-123959524D02*
X78007085Y-123864286D01*
X78007085Y-123864286D02*
X77959466Y-123769048D01*
X78245180Y-124673810D02*
X78245180Y-125340476D01*
X78245180Y-125340476D02*
X77245180Y-124911905D01*
X78370180Y-104866666D02*
X77655895Y-104866666D01*
X77655895Y-104866666D02*
X77513038Y-104819047D01*
X77513038Y-104819047D02*
X77417800Y-104723809D01*
X77417800Y-104723809D02*
X77370180Y-104580952D01*
X77370180Y-104580952D02*
X77370180Y-104485714D01*
X78274942Y-105295238D02*
X78322561Y-105342857D01*
X78322561Y-105342857D02*
X78370180Y-105438095D01*
X78370180Y-105438095D02*
X78370180Y-105676190D01*
X78370180Y-105676190D02*
X78322561Y-105771428D01*
X78322561Y-105771428D02*
X78274942Y-105819047D01*
X78274942Y-105819047D02*
X78179704Y-105866666D01*
X78179704Y-105866666D02*
X78084466Y-105866666D01*
X78084466Y-105866666D02*
X77941609Y-105819047D01*
X77941609Y-105819047D02*
X77370180Y-105247619D01*
X77370180Y-105247619D02*
X77370180Y-105866666D01*
X140290476Y-123703819D02*
X140290476Y-124418104D01*
X140290476Y-124418104D02*
X140242857Y-124560961D01*
X140242857Y-124560961D02*
X140147619Y-124656200D01*
X140147619Y-124656200D02*
X140004762Y-124703819D01*
X140004762Y-124703819D02*
X139909524Y-124703819D01*
X141290476Y-124703819D02*
X140719048Y-124703819D01*
X141004762Y-124703819D02*
X141004762Y-123703819D01*
X141004762Y-123703819D02*
X140909524Y-123846676D01*
X140909524Y-123846676D02*
X140814286Y-123941914D01*
X140814286Y-123941914D02*
X140719048Y-123989533D01*
X141909524Y-123703819D02*
X142004762Y-123703819D01*
X142004762Y-123703819D02*
X142100000Y-123751438D01*
X142100000Y-123751438D02*
X142147619Y-123799057D01*
X142147619Y-123799057D02*
X142195238Y-123894295D01*
X142195238Y-123894295D02*
X142242857Y-124084771D01*
X142242857Y-124084771D02*
X142242857Y-124322866D01*
X142242857Y-124322866D02*
X142195238Y-124513342D01*
X142195238Y-124513342D02*
X142147619Y-124608580D01*
X142147619Y-124608580D02*
X142100000Y-124656200D01*
X142100000Y-124656200D02*
X142004762Y-124703819D01*
X142004762Y-124703819D02*
X141909524Y-124703819D01*
X141909524Y-124703819D02*
X141814286Y-124656200D01*
X141814286Y-124656200D02*
X141766667Y-124608580D01*
X141766667Y-124608580D02*
X141719048Y-124513342D01*
X141719048Y-124513342D02*
X141671429Y-124322866D01*
X141671429Y-124322866D02*
X141671429Y-124084771D01*
X141671429Y-124084771D02*
X141719048Y-123894295D01*
X141719048Y-123894295D02*
X141766667Y-123799057D01*
X141766667Y-123799057D02*
X141814286Y-123751438D01*
X141814286Y-123751438D02*
X141909524Y-123703819D01*
X123291666Y-123878819D02*
X123291666Y-124593104D01*
X123291666Y-124593104D02*
X123244047Y-124735961D01*
X123244047Y-124735961D02*
X123148809Y-124831200D01*
X123148809Y-124831200D02*
X123005952Y-124878819D01*
X123005952Y-124878819D02*
X122910714Y-124878819D01*
X123815476Y-124878819D02*
X124005952Y-124878819D01*
X124005952Y-124878819D02*
X124101190Y-124831200D01*
X124101190Y-124831200D02*
X124148809Y-124783580D01*
X124148809Y-124783580D02*
X124244047Y-124640723D01*
X124244047Y-124640723D02*
X124291666Y-124450247D01*
X124291666Y-124450247D02*
X124291666Y-124069295D01*
X124291666Y-124069295D02*
X124244047Y-123974057D01*
X124244047Y-123974057D02*
X124196428Y-123926438D01*
X124196428Y-123926438D02*
X124101190Y-123878819D01*
X124101190Y-123878819D02*
X123910714Y-123878819D01*
X123910714Y-123878819D02*
X123815476Y-123926438D01*
X123815476Y-123926438D02*
X123767857Y-123974057D01*
X123767857Y-123974057D02*
X123720238Y-124069295D01*
X123720238Y-124069295D02*
X123720238Y-124307390D01*
X123720238Y-124307390D02*
X123767857Y-124402628D01*
X123767857Y-124402628D02*
X123815476Y-124450247D01*
X123815476Y-124450247D02*
X123910714Y-124497866D01*
X123910714Y-124497866D02*
X124101190Y-124497866D01*
X124101190Y-124497866D02*
X124196428Y-124450247D01*
X124196428Y-124450247D02*
X124244047Y-124402628D01*
X124244047Y-124402628D02*
X124291666Y-124307390D01*
D10*
%TO.C,C34*%
X121470000Y-73755580D02*
X121470000Y-73474420D01*
X122490000Y-73755580D02*
X122490000Y-73474420D01*
%TO.C,C32*%
X120755580Y-75980000D02*
X120474420Y-75980000D01*
X120755580Y-77000000D02*
X120474420Y-77000000D01*
%TO.C,C38*%
X129365580Y-85365000D02*
X129084420Y-85365000D01*
X129365580Y-86385000D02*
X129084420Y-86385000D01*
%TO.C,C21*%
X112029420Y-76720000D02*
X112310580Y-76720000D01*
X112029420Y-77740000D02*
X112310580Y-77740000D01*
%TO.C,R42*%
X109770000Y-78906359D02*
X109770000Y-79213641D01*
X110530000Y-78906359D02*
X110530000Y-79213641D01*
%TO.C,U12*%
X110800000Y-80215000D02*
X111060000Y-80215000D01*
X110800000Y-82940000D02*
X110800000Y-80215000D01*
X110800000Y-82940000D02*
X110800000Y-85665000D01*
X110800000Y-85665000D02*
X111060000Y-85665000D01*
X111060000Y-85665000D02*
X111060000Y-87340000D01*
X116250000Y-80215000D02*
X115990000Y-80215000D01*
X116250000Y-82940000D02*
X116250000Y-80215000D01*
X116250000Y-82940000D02*
X116250000Y-85665000D01*
X116250000Y-85665000D02*
X115990000Y-85665000D01*
%TO.C,C28*%
X135790000Y-76645580D02*
X135790000Y-76364420D01*
X136810000Y-76645580D02*
X136810000Y-76364420D01*
%TO.C,R41*%
X127677742Y-66317500D02*
X128152258Y-66317500D01*
X127677742Y-67362500D02*
X128152258Y-67362500D01*
%TO.C,C33*%
X118605580Y-78130000D02*
X118324420Y-78130000D01*
X118605580Y-79150000D02*
X118324420Y-79150000D01*
%TO.C,C37*%
X128190000Y-72095580D02*
X128190000Y-71814420D01*
X129210000Y-72095580D02*
X129210000Y-71814420D01*
%TO.C,C39*%
X133844420Y-74490000D02*
X134125580Y-74490000D01*
X133844420Y-75510000D02*
X134125580Y-75510000D01*
%TO.C,R60*%
X132784258Y-68615500D02*
X132309742Y-68615500D01*
X132784258Y-69660500D02*
X132309742Y-69660500D01*
%TO.C,C31*%
X133844420Y-76930000D02*
X134125580Y-76930000D01*
X133844420Y-77950000D02*
X134125580Y-77950000D01*
%TO.C,C36*%
X120290580Y-83540000D02*
X120009420Y-83540000D01*
X120290580Y-84560000D02*
X120009420Y-84560000D01*
%TO.C,C41*%
X120000000Y-74055580D02*
X120000000Y-73774420D01*
X121020000Y-74055580D02*
X121020000Y-73774420D01*
%TO.C,U15*%
X122990000Y-75680000D02*
X123640000Y-75680000D01*
X122990000Y-76330000D02*
X122990000Y-75680000D01*
X122990000Y-82250000D02*
X122990000Y-82900000D01*
X130210000Y-75680000D02*
X129560000Y-75680000D01*
X130210000Y-76330000D02*
X130210000Y-75680000D01*
X130210000Y-82250000D02*
X130210000Y-82900000D01*
X130210000Y-82900000D02*
X129560000Y-82900000D01*
%TO.C,C27*%
X138884420Y-80640000D02*
X139165580Y-80640000D01*
X138884420Y-81660000D02*
X139165580Y-81660000D01*
%TO.C,R61*%
X132784258Y-70165500D02*
X132309742Y-70165500D01*
X132784258Y-71210500D02*
X132309742Y-71210500D01*
%TO.C,C30*%
X118605580Y-79630000D02*
X118324420Y-79630000D01*
X118605580Y-80650000D02*
X118324420Y-80650000D01*
%TO.C,C40*%
X122940000Y-73755580D02*
X122940000Y-73474420D01*
X123960000Y-73755580D02*
X123960000Y-73474420D01*
%TO.C,R52*%
X133777742Y-78517500D02*
X134252258Y-78517500D01*
X133777742Y-79562500D02*
X134252258Y-79562500D01*
%TO.C,C29*%
X152369422Y-106259000D02*
X152886578Y-106259000D01*
X152369422Y-107679000D02*
X152886578Y-107679000D01*
%TO.C,C91*%
X113036252Y-115770000D02*
X112513748Y-115770000D01*
X113036252Y-117240000D02*
X112513748Y-117240000D01*
%TO.C,R75*%
X119492742Y-87687500D02*
X119967258Y-87687500D01*
X119492742Y-88732500D02*
X119967258Y-88732500D01*
%TO.C,R99*%
X98382258Y-88572500D02*
X97907742Y-88572500D01*
X98382258Y-89617500D02*
X97907742Y-89617500D01*
%TO.C,C54*%
X141004000Y-106026580D02*
X141004000Y-105745420D01*
X142024000Y-106026580D02*
X142024000Y-105745420D01*
%TO.C,C88*%
X113580000Y-73613748D02*
X113580000Y-74136252D01*
X115050000Y-73613748D02*
X115050000Y-74136252D01*
%TO.C,U25*%
X105170001Y-114255001D02*
X107070001Y-114255001D01*
X106570001Y-111935001D02*
X105170001Y-111935001D01*
%TO.C,C115*%
X142847500Y-97792500D02*
X143635000Y-97792500D01*
X143241250Y-97398750D02*
X143241250Y-98186250D01*
X143875000Y-97294437D02*
X143875000Y-98580000D01*
X143875000Y-97294437D02*
X144939437Y-96230000D01*
X143875000Y-101985563D02*
X143875000Y-100700000D01*
X143875000Y-101985563D02*
X144939437Y-103050000D01*
X144939437Y-96230000D02*
X150695000Y-96230000D01*
X144939437Y-103050000D02*
X150695000Y-103050000D01*
X150695000Y-96230000D02*
X150695000Y-98580000D01*
X150695000Y-103050000D02*
X150695000Y-100700000D01*
%TO.C,J8*%
X94770000Y-98540000D02*
X94770000Y-106380000D01*
X94770000Y-106380000D02*
X100790000Y-106380000D01*
X100200000Y-106300000D02*
X100200000Y-98600000D01*
X100300000Y-106300000D02*
X100300000Y-98600000D01*
X100400000Y-106300000D02*
X100400000Y-98600000D01*
X100500000Y-106300000D02*
X100500000Y-98600000D01*
X100600000Y-106300000D02*
X100600000Y-98600000D01*
X100700000Y-106300000D02*
X100700000Y-98600000D01*
X100790000Y-98540000D02*
X94770000Y-98540000D01*
X100790000Y-106380000D02*
X100790000Y-98540000D01*
%TO.C,C8*%
X89844419Y-87955001D02*
X90125579Y-87955001D01*
X89844419Y-88975001D02*
X90125579Y-88975001D01*
D14*
%TO.C,SW1*%
X123125000Y-60292000D02*
X123125000Y-61066000D01*
X123125000Y-60292000D02*
X129475000Y-60292000D01*
X124791000Y-58020000D02*
X127820000Y-58020000D01*
X124791000Y-60292000D02*
X124791000Y-58020000D01*
X127450000Y-64850000D02*
X125080000Y-64850000D01*
X127820000Y-58020000D02*
X127820000Y-60292000D01*
X127820000Y-60292000D02*
X127808000Y-60292000D01*
X129475000Y-60292000D02*
X129475000Y-61066000D01*
D10*
%TO.C,C20*%
X140345580Y-102370000D02*
X140064420Y-102370000D01*
X140345580Y-103390000D02*
X140064420Y-103390000D01*
%TO.C,R103*%
X144122500Y-78517743D02*
X144122500Y-78992259D01*
X145167500Y-78517743D02*
X145167500Y-78992259D01*
%TO.C,C18*%
X136559420Y-98490000D02*
X136840580Y-98490000D01*
X136559420Y-99510000D02*
X136840580Y-99510000D01*
%TO.C,D37*%
X158086000Y-86120000D02*
X158086000Y-82220000D01*
X158086000Y-86120000D02*
X160086000Y-86120000D01*
X160086000Y-86120000D02*
X160086000Y-82220000D01*
%TO.C,U32*%
X137055000Y-90840000D02*
X137055000Y-92100000D01*
X137055000Y-97660000D02*
X137055000Y-96400000D01*
X140815000Y-90840000D02*
X137055000Y-90840000D01*
X143065000Y-97660000D02*
X137055000Y-97660000D01*
%TO.C,U34*%
X122935000Y-86775000D02*
X122935000Y-87135000D01*
X122935000Y-87135000D02*
X121745000Y-87135000D01*
X122935000Y-92265000D02*
X122935000Y-92615000D01*
X127135000Y-86775000D02*
X122935000Y-86775000D01*
X127135000Y-86775000D02*
X127135000Y-87135000D01*
X127135000Y-92255000D02*
X127135000Y-92615000D01*
X127135000Y-92615000D02*
X122935000Y-92615000D01*
%TO.C,C87*%
X111370000Y-74136252D02*
X111370000Y-73613748D01*
X112840000Y-74136252D02*
X112840000Y-73613748D01*
%TO.C,C86*%
X90445000Y-90938748D02*
X90445000Y-91461252D01*
X91915000Y-90938748D02*
X91915000Y-91461252D01*
%TO.C,C119*%
X110759420Y-125720001D02*
X111040580Y-125720001D01*
X110759420Y-126740001D02*
X111040580Y-126740001D01*
%TO.C,C62*%
X109881999Y-70359420D02*
X109881999Y-70640580D01*
X110901999Y-70359420D02*
X110901999Y-70640580D01*
%TO.C,U19*%
X141834000Y-109656000D02*
X142484000Y-109656000D01*
X141834000Y-110306000D02*
X141834000Y-109656000D01*
X141834000Y-116226000D02*
X141834000Y-116876000D01*
X149054000Y-109656000D02*
X148404000Y-109656000D01*
X149054000Y-110306000D02*
X149054000Y-109656000D01*
X149054000Y-116226000D02*
X149054000Y-116876000D01*
X149054000Y-116876000D02*
X148404000Y-116876000D01*
%TO.C,D39*%
X88800000Y-102005000D02*
X88800000Y-104690000D01*
X90720000Y-102005000D02*
X88800000Y-102005000D01*
X90720000Y-104690000D02*
X90720000Y-102005000D01*
%TO.C,R17*%
X105642258Y-132182500D02*
X105167742Y-132182500D01*
X105642258Y-133227500D02*
X105167742Y-133227500D01*
%TO.C,R53*%
X109212742Y-111277500D02*
X109687258Y-111277500D01*
X109212742Y-112322500D02*
X109687258Y-112322500D01*
%TO.C,C113*%
X160010001Y-88489418D02*
X160010001Y-88770580D01*
X161030001Y-88489418D02*
X161030001Y-88770580D01*
%TO.C,U28*%
X147175000Y-70959999D02*
X149075000Y-70959999D01*
X148775000Y-69159999D02*
X147175000Y-69159999D01*
D12*
%TO.C,H4*%
X83700000Y-64450000D02*
G75*
G02*
X76700000Y-64450000I-3500000J0D01*
G01*
X76700000Y-64450000D02*
G75*
G02*
X83700000Y-64450000I3500000J0D01*
G01*
D10*
%TO.C,U35*%
X117575000Y-120850000D02*
X113975000Y-120850000D01*
X117575000Y-120850000D02*
X119775000Y-120850000D01*
X117575000Y-126320000D02*
X115375000Y-126320000D01*
X117575000Y-126320000D02*
X119775000Y-126320000D01*
%TO.C,U11*%
X137236826Y-83554466D02*
X137236826Y-84814466D01*
X137236826Y-90374466D02*
X137236826Y-89114466D01*
X140996826Y-83554466D02*
X137236826Y-83554466D01*
X143246826Y-90374466D02*
X137236826Y-90374466D01*
%TO.C,C121*%
X142491115Y-82016825D02*
X142209955Y-82016825D01*
X142491115Y-83036825D02*
X142209955Y-83036825D01*
%TO.C,FB2*%
X98307779Y-90120000D02*
X97982221Y-90120000D01*
X98307779Y-91140000D02*
X97982221Y-91140000D01*
%TO.C,C114*%
X153989420Y-87530000D02*
X154270580Y-87530000D01*
X153989420Y-88550000D02*
X154270580Y-88550000D01*
%TO.C,Q4*%
X112196841Y-107555001D02*
X113606841Y-107555000D01*
X112196841Y-109874999D02*
X113606841Y-109875000D01*
X113606841Y-107555000D02*
X113606841Y-108215001D01*
X113606841Y-109214999D02*
X113606841Y-109875000D01*
X112066841Y-107245001D02*
X111826841Y-107575000D01*
X111586841Y-107245000D01*
X112066841Y-107245001D01*
G36*
X112066841Y-107245001D02*
G01*
X111826841Y-107575000D01*
X111586841Y-107245000D01*
X112066841Y-107245001D01*
G37*
%TO.C,R15*%
X145637257Y-80607500D02*
X145162741Y-80607500D01*
X145637257Y-81652500D02*
X145162741Y-81652500D01*
%TO.C,R55*%
X109212742Y-114617500D02*
X109687258Y-114617500D01*
X109212742Y-115662500D02*
X109687258Y-115662500D01*
%TO.C,R43*%
X139281258Y-68661500D02*
X138806742Y-68661500D01*
X139281258Y-69706500D02*
X138806742Y-69706500D01*
%TO.C,R49*%
X129042500Y-89867742D02*
X129042500Y-90342258D01*
X130087500Y-89867742D02*
X130087500Y-90342258D01*
%TO.C,C112*%
X158753748Y-98510000D02*
X159276252Y-98510000D01*
X158753748Y-99980000D02*
X159276252Y-99980000D01*
D14*
%TO.C,J14*%
X148210000Y-137312000D02*
X155830000Y-137312000D01*
X148240000Y-126012000D02*
X148210000Y-137312000D01*
X148240000Y-126012000D02*
X148279000Y-126012000D01*
X149210000Y-136358000D02*
X149210000Y-129212000D01*
X149810000Y-136358000D02*
X149210000Y-136358000D01*
X149810000Y-136358000D02*
X149810000Y-129212000D01*
X150741000Y-126012000D02*
X150819000Y-126012000D01*
X151750000Y-136358000D02*
X151750000Y-129212000D01*
X152350000Y-136358000D02*
X151750000Y-136358000D01*
X152350000Y-136358000D02*
X152350000Y-129212000D01*
X153281000Y-126012000D02*
X153359000Y-126012000D01*
X154290000Y-136358000D02*
X154290000Y-129212000D01*
X154890000Y-136358000D02*
X154290000Y-136358000D01*
X154890000Y-136358000D02*
X154890000Y-129212000D01*
X155791000Y-126012000D02*
X155830000Y-126012000D01*
X155830000Y-126012000D02*
X155830000Y-137312000D01*
X155830000Y-129212000D02*
X148210000Y-129212000D01*
D10*
%TO.C,R44*%
X129731499Y-67423259D02*
X129731499Y-66948743D01*
X130776499Y-67423259D02*
X130776499Y-66948743D01*
%TO.C,D38*%
X88800000Y-106060000D02*
X88800000Y-108745000D01*
X90720000Y-106060000D02*
X88800000Y-106060000D01*
X90720000Y-108745000D02*
X90720000Y-106060000D01*
%TO.C,R19*%
X114862500Y-118917741D02*
X114862500Y-119392257D01*
X115907500Y-118917741D02*
X115907500Y-119392257D01*
%TO.C,U31*%
X157690000Y-117740000D02*
X155890000Y-117740000D01*
X157690000Y-117740000D02*
X158490000Y-117740000D01*
X157690000Y-120860000D02*
X156890000Y-120860000D01*
X157690000Y-120860000D02*
X158490000Y-120860000D01*
%TO.C,R40*%
X156710258Y-66391501D02*
X156235742Y-66391501D01*
X156710258Y-67436501D02*
X156235742Y-67436501D01*
%TO.C,U3*%
X106035000Y-80500000D02*
X106035000Y-79700000D01*
X106035000Y-80500000D02*
X106035000Y-81300000D01*
X109155000Y-80500000D02*
X109155000Y-78700000D01*
X109155000Y-80500000D02*
X109155000Y-81300000D01*
%TO.C,C15*%
X123914420Y-122395000D02*
X124195580Y-122395000D01*
X123914420Y-123415000D02*
X124195580Y-123415000D01*
%TO.C,Q1*%
X145695000Y-121820000D02*
X145695000Y-121160000D01*
X145695000Y-123480000D02*
X145695000Y-122820000D01*
X147105000Y-121160000D02*
X145695000Y-121160000D01*
X147105000Y-123480000D02*
X145695000Y-123480000D01*
X147715000Y-123790000D02*
X147235000Y-123790000D01*
X147475000Y-123460000D01*
X147715000Y-123790000D01*
G36*
X147715000Y-123790000D02*
G01*
X147235000Y-123790000D01*
X147475000Y-123460000D01*
X147715000Y-123790000D01*
G37*
%TO.C,R62*%
X101464500Y-73337258D02*
X101464500Y-72862742D01*
X102509500Y-73337258D02*
X102509500Y-72862742D01*
%TO.C,R98*%
X155882501Y-89032258D02*
X155882501Y-88557742D01*
X156927501Y-89032258D02*
X156927501Y-88557742D01*
D12*
%TO.C,U2*%
X109500000Y-108000000D02*
G75*
G02*
X102500000Y-108000000I-3500000J0D01*
G01*
X102500000Y-108000000D02*
G75*
G02*
X109500000Y-108000000I3500000J0D01*
G01*
X109500000Y-124000000D02*
G75*
G02*
X102500000Y-124000000I-3500000J0D01*
G01*
X102500000Y-124000000D02*
G75*
G02*
X109500000Y-124000000I3500000J0D01*
G01*
X167300000Y-112200000D02*
G75*
G02*
X160300000Y-112200000I-3500000J0D01*
G01*
X160300000Y-112200000D02*
G75*
G02*
X167300000Y-112200000I3500000J0D01*
G01*
X167300000Y-119800000D02*
G75*
G02*
X160300000Y-119800000I-3500000J0D01*
G01*
X160300000Y-119800000D02*
G75*
G02*
X167300000Y-119800000I3500000J0D01*
G01*
D10*
%TO.C,C90*%
X113036252Y-118000000D02*
X112513748Y-118000000D01*
X113036252Y-119470000D02*
X112513748Y-119470000D01*
%TO.C,J4*%
X94770000Y-107220000D02*
X94770000Y-122680000D01*
X94770000Y-122680000D02*
X100790000Y-122680000D01*
X100200000Y-122660000D02*
X100200000Y-107300000D01*
X100300000Y-122660000D02*
X100300000Y-107300000D01*
X100400000Y-122660000D02*
X100400000Y-107300000D01*
X100500000Y-122660000D02*
X100500000Y-107300000D01*
X100600000Y-122660000D02*
X100600000Y-107300000D01*
X100700000Y-122660000D02*
X100700000Y-107300000D01*
X100790000Y-107220000D02*
X94770000Y-107220000D01*
X100790000Y-122680000D02*
X100790000Y-107220000D01*
%TO.C,Q7*%
X124975000Y-92905000D02*
X124325000Y-92905000D01*
X124975000Y-92905000D02*
X125625000Y-92905000D01*
X124975000Y-96025000D02*
X124325000Y-96025000D01*
X124975000Y-96025000D02*
X126650000Y-96025000D01*
%TO.C,R10*%
X88902500Y-123587258D02*
X88902500Y-123112742D01*
X89947500Y-123587258D02*
X89947500Y-123112742D01*
%TO.C,R2*%
X125662259Y-96452500D02*
X125187743Y-96452500D01*
X125662259Y-97497500D02*
X125187743Y-97497500D01*
%TO.C,C110*%
X144370001Y-94073748D02*
X144370001Y-94596252D01*
X145840001Y-94073748D02*
X145840001Y-94596252D01*
%TO.C,J11*%
X94770000Y-77547000D02*
X94770000Y-87927000D01*
X94770000Y-87927000D02*
X100790000Y-87927000D01*
X100200000Y-87927000D02*
X100200000Y-77547000D01*
X100300000Y-87927000D02*
X100300000Y-77547000D01*
X100400000Y-87927000D02*
X100400000Y-77547000D01*
X100500000Y-87927000D02*
X100500000Y-77547000D01*
X100600000Y-87927000D02*
X100600000Y-77547000D01*
X100700000Y-87927000D02*
X100700000Y-77547000D01*
X100790000Y-77547000D02*
X94770000Y-77547000D01*
X100790000Y-87927000D02*
X100790000Y-77547000D01*
%TO.C,C58*%
X117132580Y-115237000D02*
X116851420Y-115237000D01*
X117132580Y-116257000D02*
X116851420Y-116257000D01*
%TO.C,D45*%
X141645000Y-77010000D02*
X141645000Y-81020000D01*
X143645000Y-77010000D02*
X141645000Y-77010000D01*
X143645000Y-77010000D02*
X143645000Y-81020000D01*
%TO.C,J12*%
X84158000Y-71734000D02*
X84158000Y-87194000D01*
X84158000Y-87194000D02*
X90178000Y-87194000D01*
X89588000Y-87174000D02*
X89588000Y-71814000D01*
X89688000Y-87174000D02*
X89688000Y-71814000D01*
X89788000Y-87174000D02*
X89788000Y-71814000D01*
X89888000Y-87174000D02*
X89888000Y-71814000D01*
X89988000Y-87174000D02*
X89988000Y-71814000D01*
X90088000Y-87174000D02*
X90088000Y-71814000D01*
X90178000Y-71734000D02*
X84158000Y-71734000D01*
X90178000Y-87194000D02*
X90178000Y-71734000D01*
%TO.C,R96*%
X161487501Y-88857258D02*
X161487501Y-88382742D01*
X162532501Y-88857258D02*
X162532501Y-88382742D01*
%TO.C,U6*%
X104305000Y-103640000D02*
X106205000Y-103640000D01*
X105705000Y-101320000D02*
X104305000Y-101320000D01*
%TO.C,L3*%
X147224999Y-88835000D02*
X147224999Y-90385000D01*
X147224999Y-95955000D02*
X147224999Y-94405000D01*
X155044999Y-88835000D02*
X147224999Y-88835000D01*
X155044999Y-88835000D02*
X155044999Y-90385000D01*
X155044999Y-95955000D02*
X147224999Y-95955000D01*
X155044999Y-95955000D02*
X155044999Y-94405000D01*
%TO.C,R8*%
X140332258Y-73972500D02*
X139857742Y-73972500D01*
X140332258Y-75017500D02*
X139857742Y-75017500D01*
%TO.C,R22*%
X113487500Y-111907259D02*
X113487500Y-111432743D01*
X114532500Y-111907259D02*
X114532500Y-111432743D01*
%TO.C,C122*%
X144884420Y-91284999D02*
X145165580Y-91284999D01*
X144884420Y-92304999D02*
X145165580Y-92304999D01*
%TO.C,C50*%
X152283420Y-111516000D02*
X152564580Y-111516000D01*
X152283420Y-112536000D02*
X152564580Y-112536000D01*
%TO.C,U27*%
X135115000Y-70399999D02*
X136715000Y-70399999D01*
X136715000Y-68599999D02*
X134815000Y-68599999D01*
%TO.C,R67*%
X102077500Y-102652742D02*
X102077500Y-103127258D01*
X103122500Y-102652742D02*
X103122500Y-103127258D01*
%TO.C,R46*%
X142611500Y-66184259D02*
X142611500Y-65709743D01*
X143656500Y-66184259D02*
X143656500Y-65709743D01*
%TO.C,Q2*%
X151385000Y-119665000D02*
X152795000Y-119665000D01*
X151385000Y-121985000D02*
X152795000Y-121985000D01*
X152795000Y-119665000D02*
X152795000Y-120325000D01*
X152795000Y-121325000D02*
X152795000Y-121985000D01*
X151015000Y-119685000D02*
X150775000Y-119355000D01*
X151255000Y-119355000D01*
X151015000Y-119685000D01*
G36*
X151015000Y-119685000D02*
G01*
X150775000Y-119355000D01*
X151255000Y-119355000D01*
X151015000Y-119685000D01*
G37*
%TO.C,R97*%
X162907258Y-90397500D02*
X162432742Y-90397500D01*
X162907258Y-91442500D02*
X162432742Y-91442500D01*
%TO.C,C42*%
X154174000Y-111356580D02*
X154174000Y-111075420D01*
X155194000Y-111356580D02*
X155194000Y-111075420D01*
%TO.C,D35*%
X84020000Y-125320000D02*
X84020000Y-124245000D01*
X84470000Y-124170000D02*
X87570000Y-124170000D01*
X84470000Y-126970000D02*
X87470000Y-126970000D01*
%TO.C,C60*%
X116257000Y-70359420D02*
X116257000Y-70640580D01*
X117277000Y-70359420D02*
X117277000Y-70640580D01*
%TO.C,C35*%
X129450000Y-101539420D02*
X129450000Y-101820580D01*
X130470000Y-101539420D02*
X130470000Y-101820580D01*
%TO.C,Q8*%
X144545000Y-68555000D02*
X142870000Y-68555000D01*
X144545000Y-68555000D02*
X145195000Y-68555000D01*
X144545000Y-71675000D02*
X143895000Y-71675000D01*
X144545000Y-71675000D02*
X145195000Y-71675000D01*
%TO.C,Q11*%
X101724999Y-111609999D02*
X101724999Y-113639999D01*
X101724999Y-111609999D02*
X102385000Y-111609999D01*
X103384998Y-111609999D02*
X104044999Y-111609999D01*
X104044998Y-113019999D02*
X104044999Y-111609999D01*
%TO.C,C61*%
X113092000Y-70359420D02*
X113092000Y-70640580D01*
X114112000Y-70359420D02*
X114112000Y-70640580D01*
%TO.C,U17*%
X96400000Y-91915000D02*
X96400000Y-92485000D01*
X96400000Y-97985000D02*
X96400000Y-97415000D01*
X100260000Y-91915000D02*
X96400000Y-91915000D01*
X100260000Y-91915000D02*
X104120000Y-91915000D01*
X100260000Y-97985000D02*
X96400000Y-97985000D01*
X100260000Y-97985000D02*
X104120000Y-97985000D01*
X104120000Y-91915000D02*
X104120000Y-92485000D01*
X104120000Y-97415000D02*
X106485000Y-97415000D01*
X104120000Y-97985000D02*
X104120000Y-97415000D01*
D14*
%TO.C,J13*%
X130800000Y-137312000D02*
X138420000Y-137312000D01*
X130830000Y-126012000D02*
X130800000Y-137312000D01*
X130830000Y-126012000D02*
X130869000Y-126012000D01*
X131800000Y-136358000D02*
X131800000Y-129212000D01*
X132400000Y-136358000D02*
X131800000Y-136358000D01*
X132400000Y-136358000D02*
X132400000Y-129212000D01*
X133331000Y-126012000D02*
X133409000Y-126012000D01*
X134340000Y-136358000D02*
X134340000Y-129212000D01*
X134940000Y-136358000D02*
X134340000Y-136358000D01*
X134940000Y-136358000D02*
X134940000Y-129212000D01*
X135871000Y-126012000D02*
X135949000Y-126012000D01*
X136880000Y-136358000D02*
X136880000Y-129212000D01*
X137480000Y-136358000D02*
X136880000Y-136358000D01*
X137480000Y-136358000D02*
X137480000Y-129212000D01*
X138381000Y-126012000D02*
X138420000Y-126012000D01*
X138420000Y-126012000D02*
X138420000Y-137312000D01*
X138420000Y-129212000D02*
X130800000Y-129212000D01*
D10*
%TO.C,R65*%
X130574742Y-98897501D02*
X131049258Y-98897501D01*
X130574742Y-99942501D02*
X131049258Y-99942501D01*
%TO.C,R20*%
X112692742Y-106067500D02*
X113167258Y-106067500D01*
X112692742Y-107112500D02*
X113167258Y-107112500D01*
%TO.C,D44*%
X123650000Y-117285000D02*
X121975000Y-117285000D01*
X123650000Y-117285000D02*
X124300000Y-117285000D01*
X123650000Y-120405000D02*
X123000000Y-120405000D01*
X123650000Y-120405000D02*
X124300000Y-120405000D01*
%TO.C,R13*%
X111362742Y-124127500D02*
X111837258Y-124127500D01*
X111362742Y-125172500D02*
X111837258Y-125172500D01*
%TO.C,C1*%
X101395000Y-90094420D02*
X101395000Y-90375580D01*
X102415000Y-90094420D02*
X102415000Y-90375580D01*
%TO.C,U4*%
X157390000Y-121915000D02*
X158800000Y-121915000D01*
X157400000Y-124235000D02*
X158800000Y-124235000D01*
X157020000Y-121965000D02*
X156780000Y-121635000D01*
X157260000Y-121635000D01*
X157020000Y-121965000D01*
G36*
X157020000Y-121965000D02*
G01*
X156780000Y-121635000D01*
X157260000Y-121635000D01*
X157020000Y-121965000D01*
G37*
%TO.C,C13*%
X101730000Y-119986252D02*
X101730000Y-119463748D01*
X103200000Y-119986252D02*
X103200000Y-119463748D01*
%TO.C,R64*%
X122528359Y-96457500D02*
X122053843Y-96457500D01*
X122528359Y-97502500D02*
X122053843Y-97502500D01*
%TO.C,Y2*%
X155694000Y-110596000D02*
X155694000Y-114596000D01*
X158994000Y-110596000D02*
X155694000Y-110596000D01*
%TO.C,C67*%
X134195580Y-109235000D02*
X133914420Y-109235000D01*
X134195580Y-110255000D02*
X133914420Y-110255000D01*
%TO.C,D32*%
X127095000Y-93460000D02*
X127095000Y-95420000D01*
X127095000Y-95420000D02*
X128295000Y-95420000D01*
X128295000Y-93460000D02*
X128295000Y-95420000D01*
%TO.C,C52*%
X139504000Y-105816580D02*
X139504000Y-105535420D01*
X140524000Y-105816580D02*
X140524000Y-105535420D01*
%TO.C,U24*%
X147410000Y-85550003D02*
X147410000Y-84750003D01*
X147410000Y-85550003D02*
X147410000Y-86350003D01*
X150530000Y-85550003D02*
X150530000Y-83750003D01*
X150530000Y-85550003D02*
X150530000Y-86350003D01*
D14*
%TO.C,J15*%
X156650000Y-125862000D02*
X156789000Y-125862000D01*
X156650000Y-129262000D02*
X156650000Y-125862000D01*
X157478000Y-136862000D02*
X158360000Y-136862000D01*
X157482000Y-129262000D02*
X157482000Y-136862000D01*
X157917000Y-136862000D02*
X157917000Y-136968000D01*
X157917000Y-136968000D02*
X158311000Y-137362000D01*
X158311000Y-137362000D02*
X167689000Y-137362000D01*
X158370000Y-129262000D02*
X158370000Y-136862000D01*
X158370000Y-132260000D02*
X159993000Y-132260000D01*
X158370000Y-132732000D02*
X159993000Y-132732000D01*
X158370000Y-134474000D02*
X159993000Y-134474000D01*
X158370000Y-134945000D02*
X159993000Y-134945000D01*
X159051000Y-125862000D02*
X159329000Y-125862000D01*
X159990000Y-136862000D02*
X160871000Y-136862000D01*
X159993000Y-129262000D02*
X159993000Y-136862000D01*
X160465000Y-136862000D02*
X160465000Y-137362000D01*
X160882000Y-129262000D02*
X160882000Y-136862000D01*
X160882000Y-132260000D02*
X162552000Y-132260000D01*
X160882000Y-132732000D02*
X162552000Y-132732000D01*
X160882000Y-134474000D02*
X162552000Y-134474000D01*
X160882000Y-134945000D02*
X162552000Y-134945000D01*
X161591000Y-125862000D02*
X161869000Y-125862000D01*
X162549000Y-136862000D02*
X163430000Y-136862000D01*
X162552000Y-129262000D02*
X162552000Y-136862000D01*
X163041000Y-136862000D02*
X163041000Y-137362000D01*
X163441000Y-129262000D02*
X163441000Y-136862000D01*
X163441000Y-132278000D02*
X165111000Y-132278000D01*
X163441000Y-132750000D02*
X165111000Y-132750000D01*
X163441000Y-134492000D02*
X165111000Y-134492000D01*
X163441000Y-134963000D02*
X165111000Y-134963000D01*
X164131000Y-125862000D02*
X164409000Y-125862000D01*
X165108000Y-136862000D02*
X165989000Y-136862000D01*
X165111000Y-129262000D02*
X165111000Y-136862000D01*
X165545000Y-136862000D02*
X165545000Y-137362000D01*
X166000000Y-129262000D02*
X166000000Y-136862000D01*
X166000000Y-132278000D02*
X167613000Y-132278000D01*
X166000000Y-132786000D02*
X167613000Y-132786000D01*
X166000000Y-134492000D02*
X167613000Y-134492000D01*
X166000000Y-135000000D02*
X167613000Y-135000000D01*
X166671000Y-125862000D02*
X166949000Y-125862000D01*
X167618000Y-129262000D02*
X167618000Y-136862000D01*
X168071000Y-136862000D02*
X168071000Y-136968000D01*
X168071000Y-136968000D02*
X167677000Y-137362000D01*
X168507000Y-129262000D02*
X168507000Y-136862000D01*
X168510000Y-136862000D02*
X167629000Y-136862000D01*
X169211000Y-125862000D02*
X169350000Y-125862000D01*
X169350000Y-125862000D02*
X169350000Y-129262000D01*
X169350000Y-129262000D02*
X156650000Y-129262000D01*
D15*
%TO.C,G\u002A\u002A\u002A*%
G36*
X132906985Y-94647358D02*
G01*
X132920001Y-94657115D01*
X132963399Y-94712651D01*
X132969766Y-94778632D01*
X132939083Y-94850316D01*
X132920921Y-94874300D01*
X132862606Y-94923251D01*
X132801765Y-94932447D01*
X132735712Y-94902165D01*
X132725396Y-94894398D01*
X132681117Y-94838595D01*
X132674013Y-94773948D01*
X132703936Y-94706023D01*
X132731160Y-94674138D01*
X132791184Y-94628142D01*
X132847047Y-94619463D01*
X132906985Y-94647358D01*
G37*
G36*
X133874417Y-94664244D02*
G01*
X133892698Y-94669862D01*
X133957323Y-94710417D01*
X133987950Y-94769467D01*
X133983533Y-94842815D01*
X133952807Y-94911046D01*
X133891480Y-94982560D01*
X133813740Y-95031474D01*
X133728996Y-95055483D01*
X133646657Y-95052282D01*
X133576131Y-95019566D01*
X133561789Y-95006848D01*
X133521222Y-94942566D01*
X133516483Y-94872420D01*
X133545240Y-94802535D01*
X133605157Y-94739038D01*
X133681127Y-94693618D01*
X133784563Y-94661450D01*
X133874417Y-94664244D01*
G37*
G36*
X129595346Y-94924200D02*
G01*
X129639553Y-94954810D01*
X129651247Y-94968606D01*
X129687316Y-95042513D01*
X129683791Y-95122029D01*
X129647098Y-95197840D01*
X129579647Y-95271418D01*
X129503431Y-95309331D01*
X129423756Y-95310450D01*
X129345925Y-95273648D01*
X129334233Y-95264363D01*
X129292387Y-95220760D01*
X129275142Y-95172588D01*
X129272698Y-95128027D01*
X129289563Y-95039799D01*
X129338558Y-94973738D01*
X129417286Y-94931802D01*
X129523347Y-94915950D01*
X129532549Y-94915867D01*
X129595346Y-94924200D01*
G37*
G36*
X131935043Y-94223958D02*
G01*
X131952698Y-94229515D01*
X132011642Y-94264323D01*
X132043448Y-94319455D01*
X132052698Y-94399875D01*
X132042819Y-94496812D01*
X132014778Y-94568418D01*
X131984704Y-94600312D01*
X131953761Y-94608414D01*
X131897023Y-94613885D01*
X131847698Y-94615324D01*
X131752588Y-94605442D01*
X131690101Y-94574175D01*
X131658127Y-94519986D01*
X131652698Y-94473541D01*
X131668897Y-94382357D01*
X131712588Y-94305822D01*
X131776415Y-94249921D01*
X131853019Y-94220638D01*
X131935043Y-94223958D01*
G37*
G36*
X130702206Y-94691175D02*
G01*
X130750860Y-94718930D01*
X130806815Y-94764315D01*
X130854706Y-94814249D01*
X130859765Y-94820792D01*
X130900509Y-94875835D01*
X130859832Y-94930879D01*
X130788525Y-95001350D01*
X130700404Y-95049961D01*
X130605614Y-95074123D01*
X130514300Y-95071248D01*
X130436712Y-95038821D01*
X130370123Y-94973329D01*
X130339554Y-94902557D01*
X130342651Y-94832520D01*
X130377059Y-94769237D01*
X130440424Y-94718724D01*
X130530392Y-94686998D01*
X130576869Y-94680614D01*
X130649398Y-94678988D01*
X130702206Y-94691175D01*
G37*
G36*
X129568730Y-92184242D02*
G01*
X129618626Y-92247705D01*
X129658483Y-92301187D01*
X129681657Y-92335677D01*
X129684463Y-92341227D01*
X129671905Y-92360650D01*
X129628616Y-92389734D01*
X129561813Y-92425477D01*
X129478711Y-92464873D01*
X129386525Y-92504920D01*
X129292471Y-92542613D01*
X129203765Y-92574950D01*
X129127622Y-92598926D01*
X129071256Y-92611539D01*
X129041885Y-92609783D01*
X129041047Y-92609066D01*
X129046110Y-92587923D01*
X129071535Y-92542513D01*
X129112481Y-92479657D01*
X129164111Y-92406177D01*
X129221584Y-92328892D01*
X129280061Y-92254625D01*
X129334704Y-92190195D01*
X129350549Y-92172812D01*
X129462698Y-92052560D01*
X129568730Y-92184242D01*
G37*
G36*
X130966367Y-93395814D02*
G01*
X130989474Y-93410702D01*
X131040758Y-93439917D01*
X131112874Y-93479379D01*
X131198477Y-93525009D01*
X131207590Y-93529804D01*
X131432482Y-93647974D01*
X131227590Y-93783359D01*
X130877499Y-93991329D01*
X130503126Y-94169444D01*
X130108074Y-94316552D01*
X129695945Y-94431501D01*
X129270341Y-94513137D01*
X128834865Y-94560309D01*
X128790427Y-94563115D01*
X128638156Y-94572099D01*
X128625569Y-94438742D01*
X128618545Y-94343303D01*
X128613913Y-94240185D01*
X128612841Y-94180288D01*
X128612698Y-94055189D01*
X128811674Y-94055189D01*
X129086946Y-94041674D01*
X129376610Y-94002764D01*
X129672303Y-93940915D01*
X129965662Y-93858583D01*
X130248322Y-93758224D01*
X130511920Y-93642292D01*
X130748092Y-93513243D01*
X130824465Y-93464266D01*
X130886453Y-93425940D01*
X130936131Y-93401266D01*
X130964266Y-93394696D01*
X130966367Y-93395814D01*
G37*
G36*
X131796337Y-91156269D02*
G01*
X131818357Y-91160027D01*
X131865471Y-91165276D01*
X131882698Y-91166907D01*
X132086161Y-91195769D01*
X132307343Y-91245238D01*
X132532309Y-91311454D01*
X132747121Y-91390553D01*
X132847530Y-91434266D01*
X132986739Y-91505849D01*
X133138622Y-91596278D01*
X133293813Y-91698974D01*
X133442941Y-91807353D01*
X133576638Y-91914835D01*
X133685537Y-92014837D01*
X133709745Y-92039994D01*
X133756792Y-92090577D01*
X133662154Y-92104780D01*
X133529295Y-92112574D01*
X133372670Y-92101939D01*
X133203010Y-92074705D01*
X133031048Y-92032704D01*
X132867517Y-91977765D01*
X132831117Y-91963026D01*
X132636549Y-91867908D01*
X132434057Y-91744529D01*
X132234244Y-91600103D01*
X132047715Y-91441847D01*
X132002586Y-91399213D01*
X131953401Y-91349455D01*
X131902449Y-91294439D01*
X131855402Y-91240845D01*
X131817931Y-91195354D01*
X131795708Y-91164648D01*
X131794406Y-91155406D01*
X131796337Y-91156269D01*
G37*
G36*
X129811706Y-92468029D02*
G01*
X129850520Y-92504979D01*
X129907244Y-92560320D01*
X129976728Y-92629057D01*
X130009441Y-92661681D01*
X130216183Y-92868353D01*
X130046192Y-92951468D01*
X129675240Y-93110817D01*
X129286861Y-93234523D01*
X128923095Y-93315388D01*
X128838984Y-93329911D01*
X128771129Y-93340499D01*
X128728080Y-93345886D01*
X128717291Y-93345889D01*
X128720176Y-93324435D01*
X128735447Y-93273985D01*
X128760135Y-93202507D01*
X128791271Y-93117972D01*
X128825886Y-93028347D01*
X128861012Y-92941602D01*
X128893680Y-92865706D01*
X128906825Y-92837135D01*
X128945167Y-92761220D01*
X128972760Y-92719488D01*
X128992207Y-92708388D01*
X128998604Y-92712037D01*
X129034820Y-92729485D01*
X129069166Y-92734149D01*
X129118814Y-92726586D01*
X129195668Y-92706108D01*
X129290365Y-92676027D01*
X129393545Y-92639659D01*
X129495847Y-92600315D01*
X129587911Y-92561310D01*
X129660376Y-92525959D01*
X129665948Y-92522884D01*
X129727596Y-92488958D01*
X129773944Y-92464514D01*
X129795588Y-92454500D01*
X129795948Y-92454468D01*
X129811706Y-92468029D01*
G37*
G36*
X130352889Y-92967522D02*
G01*
X130391043Y-92997953D01*
X130412698Y-93016296D01*
X130460613Y-93054541D01*
X130530144Y-93106284D01*
X130609573Y-93162902D01*
X130647698Y-93189226D01*
X130717266Y-93237898D01*
X130772344Y-93278723D01*
X130805847Y-93306317D01*
X130812698Y-93314646D01*
X130795765Y-93331498D01*
X130749277Y-93362157D01*
X130679700Y-93403030D01*
X130593501Y-93450517D01*
X130497146Y-93501025D01*
X130397100Y-93550955D01*
X130332698Y-93581609D01*
X130053195Y-93695785D01*
X129750535Y-93790729D01*
X129436349Y-93863844D01*
X129122266Y-93912534D01*
X128819917Y-93934203D01*
X128749354Y-93935095D01*
X128610248Y-93935095D01*
X128622951Y-93840020D01*
X128632518Y-93774755D01*
X128646534Y-93686671D01*
X128662344Y-93592342D01*
X128666201Y-93570093D01*
X128681122Y-93487545D01*
X128692295Y-93438729D01*
X128702451Y-93417872D01*
X128714321Y-93419203D01*
X128729724Y-93435825D01*
X128762698Y-93476410D01*
X128982698Y-93434362D01*
X129369418Y-93344076D01*
X129736099Y-93225371D01*
X130077572Y-93079980D01*
X130153778Y-93042037D01*
X130228069Y-93004472D01*
X130288056Y-92975126D01*
X130325545Y-92957955D01*
X130333778Y-92955136D01*
X130352889Y-92967522D01*
G37*
G36*
X130030562Y-91604449D02*
G01*
X130032698Y-91618757D01*
X130047032Y-91640994D01*
X130087305Y-91685827D01*
X130149424Y-91749412D01*
X130229297Y-91827904D01*
X130322830Y-91917456D01*
X130425930Y-92014224D01*
X130534505Y-92114362D01*
X130644462Y-92214025D01*
X130751707Y-92309368D01*
X130852149Y-92396546D01*
X130932698Y-92464311D01*
X131181286Y-92657370D01*
X131440016Y-92835859D01*
X131702144Y-92995867D01*
X131960922Y-93133486D01*
X132209605Y-93244806D01*
X132395106Y-93311779D01*
X132636505Y-93378478D01*
X132905365Y-93434916D01*
X133182698Y-93477695D01*
X133273345Y-93486169D01*
X133392621Y-93492750D01*
X133532336Y-93497418D01*
X133684297Y-93500150D01*
X133840313Y-93500925D01*
X133992191Y-93499722D01*
X134131740Y-93496519D01*
X134250768Y-93491294D01*
X134341083Y-93484026D01*
X134365658Y-93480804D01*
X134488618Y-93461900D01*
X134511497Y-93573399D01*
X134524152Y-93648903D01*
X134536413Y-93745158D01*
X134545870Y-93842934D01*
X134546788Y-93855032D01*
X134552180Y-93936651D01*
X134553071Y-93984788D01*
X134548532Y-94005831D01*
X134537634Y-94006169D01*
X134526015Y-93997749D01*
X134505863Y-93986419D01*
X134474937Y-93980903D01*
X134425820Y-93981194D01*
X134351096Y-93987287D01*
X134257764Y-93997499D01*
X134097454Y-94011276D01*
X133911474Y-94019476D01*
X133711356Y-94022200D01*
X133508628Y-94019546D01*
X133314819Y-94011617D01*
X133141460Y-93998513D01*
X133042698Y-93986917D01*
X132582987Y-93902813D01*
X132137875Y-93782097D01*
X131708763Y-93625371D01*
X131297051Y-93433240D01*
X130904139Y-93206304D01*
X130531428Y-92945168D01*
X130422698Y-92859384D01*
X130313162Y-92766042D01*
X130189543Y-92653149D01*
X130059729Y-92528566D01*
X129931610Y-92400150D01*
X129813076Y-92275760D01*
X129712016Y-92163254D01*
X129655120Y-92094802D01*
X129552948Y-91965857D01*
X129597823Y-91917832D01*
X129635608Y-91882967D01*
X129696732Y-91832400D01*
X129771783Y-91773411D01*
X129851345Y-91713275D01*
X129926004Y-91659270D01*
X129977698Y-91624189D01*
X130015398Y-91602592D01*
X130030562Y-91604449D01*
G37*
G36*
X131682698Y-91224451D02*
G01*
X131722129Y-91282569D01*
X131786995Y-91358803D01*
X131870978Y-91446930D01*
X131967757Y-91540725D01*
X132071011Y-91633963D01*
X132174422Y-91720421D01*
X132230236Y-91763699D01*
X132381748Y-91866659D01*
X132554294Y-91966165D01*
X132734603Y-92055492D01*
X132909401Y-92127912D01*
X133022698Y-92165325D01*
X133134184Y-92191047D01*
X133264362Y-92211235D01*
X133402216Y-92225114D01*
X133536726Y-92231909D01*
X133656876Y-92230846D01*
X133751646Y-92221148D01*
X133768097Y-92217755D01*
X133853495Y-92197800D01*
X133939938Y-92310852D01*
X134013433Y-92409727D01*
X134071104Y-92492950D01*
X134110260Y-92556292D01*
X134128206Y-92595527D01*
X134127729Y-92605684D01*
X134104480Y-92613434D01*
X134050973Y-92625316D01*
X133976488Y-92639378D01*
X133929802Y-92647356D01*
X133785732Y-92663335D01*
X133616470Y-92669710D01*
X133435541Y-92666924D01*
X133256473Y-92655420D01*
X133092792Y-92635642D01*
X132992698Y-92616672D01*
X132698951Y-92531174D01*
X132412226Y-92410710D01*
X132129561Y-92253774D01*
X131847989Y-92058861D01*
X131762698Y-91992285D01*
X131699313Y-91938806D01*
X131614741Y-91863488D01*
X131516046Y-91772838D01*
X131410288Y-91673360D01*
X131304529Y-91571560D01*
X131280537Y-91548100D01*
X131165110Y-91436149D01*
X131074338Y-91351607D01*
X131005469Y-91292726D01*
X130955746Y-91257762D01*
X130922415Y-91244967D01*
X130902721Y-91252596D01*
X130893909Y-91278903D01*
X130892698Y-91302299D01*
X130906886Y-91330450D01*
X130946566Y-91380991D01*
X131007412Y-91449631D01*
X131085101Y-91532075D01*
X131175308Y-91624030D01*
X131273707Y-91721201D01*
X131375974Y-91819297D01*
X131477783Y-91914022D01*
X131574811Y-92001084D01*
X131662733Y-92076189D01*
X131712698Y-92116366D01*
X131999966Y-92322049D01*
X132284810Y-92489267D01*
X132570396Y-92619193D01*
X132859892Y-92713001D01*
X133156465Y-92771863D01*
X133463282Y-92796955D01*
X133552698Y-92798086D01*
X133689485Y-92794546D01*
X133827201Y-92785172D01*
X133956475Y-92771062D01*
X134067933Y-92753316D01*
X134152205Y-92733032D01*
X134174393Y-92725195D01*
X134193521Y-92727252D01*
X134216385Y-92751648D01*
X134246462Y-92803398D01*
X134287232Y-92887514D01*
X134287642Y-92888399D01*
X134350246Y-93029753D01*
X134397104Y-93148957D01*
X134427208Y-93242863D01*
X134439553Y-93308325D01*
X134433131Y-93342195D01*
X134432873Y-93342461D01*
X134408126Y-93349743D01*
X134349141Y-93355528D01*
X134254691Y-93359860D01*
X134123552Y-93362784D01*
X133954496Y-93364342D01*
X133816706Y-93364645D01*
X133640326Y-93364380D01*
X133497484Y-93363348D01*
X133381719Y-93361195D01*
X133286570Y-93357570D01*
X133205578Y-93352117D01*
X133132282Y-93344484D01*
X133060221Y-93334317D01*
X132982936Y-93321263D01*
X132965073Y-93318056D01*
X132646830Y-93248843D01*
X132349539Y-93158768D01*
X132065746Y-93044494D01*
X131788002Y-92902684D01*
X131508853Y-92730000D01*
X131265573Y-92556953D01*
X131157605Y-92475170D01*
X131061123Y-92399994D01*
X130970033Y-92326205D01*
X130878241Y-92248586D01*
X130779652Y-92161919D01*
X130668171Y-92060985D01*
X130537704Y-91940568D01*
X130447598Y-91856628D01*
X130112497Y-91543728D01*
X130286129Y-91456411D01*
X130580329Y-91330391D01*
X130894596Y-91237539D01*
X131225256Y-91178804D01*
X131432698Y-91160177D01*
X131642698Y-91148071D01*
X131682698Y-91224451D01*
G37*
G36*
X131822698Y-93812054D02*
G01*
X131828551Y-93929698D01*
X131834404Y-94047341D01*
X131734798Y-94111934D01*
X131636513Y-94191080D01*
X131574753Y-94279639D01*
X131546232Y-94383168D01*
X131543365Y-94435489D01*
X131560269Y-94552766D01*
X131607807Y-94647903D01*
X131681216Y-94717168D01*
X131775734Y-94756829D01*
X131886598Y-94763152D01*
X131947715Y-94752385D01*
X132040664Y-94709237D01*
X132113271Y-94634160D01*
X132161518Y-94531770D01*
X132170703Y-94496129D01*
X132189222Y-94373779D01*
X132184338Y-94279584D01*
X132154276Y-94208026D01*
X132097263Y-94153585D01*
X132052471Y-94128311D01*
X132000714Y-94101295D01*
X131972555Y-94074964D01*
X131958793Y-94035444D01*
X131950898Y-93975126D01*
X131944757Y-93914217D01*
X131941310Y-93872739D01*
X131941074Y-93861528D01*
X131959751Y-93865587D01*
X132009087Y-93879243D01*
X132081507Y-93900336D01*
X132166445Y-93925798D01*
X132277720Y-93957968D01*
X132396614Y-93989755D01*
X132505726Y-94016616D01*
X132561269Y-94028894D01*
X132732698Y-94064208D01*
X132732698Y-94220468D01*
X132725621Y-94346352D01*
X132701641Y-94445856D01*
X132656637Y-94530531D01*
X132596722Y-94601592D01*
X132551599Y-94653089D01*
X132530059Y-94697132D01*
X132524460Y-94751287D01*
X132524629Y-94767251D01*
X132543152Y-94855154D01*
X132589743Y-94934591D01*
X132656786Y-95000801D01*
X132736665Y-95049024D01*
X132821762Y-95074502D01*
X132904463Y-95072475D01*
X132968516Y-95044647D01*
X133028295Y-94980330D01*
X133070538Y-94888148D01*
X133091261Y-94777904D01*
X133092698Y-94739222D01*
X133082113Y-94637156D01*
X133047942Y-94563458D01*
X132986561Y-94511805D01*
X132953122Y-94495711D01*
X132922131Y-94480520D01*
X132900753Y-94460211D01*
X132886264Y-94427036D01*
X132875938Y-94373249D01*
X132867052Y-94291100D01*
X132862347Y-94237559D01*
X132849730Y-94089669D01*
X132956214Y-94104145D01*
X133117943Y-94123779D01*
X133281766Y-94139473D01*
X133434308Y-94150130D01*
X133562193Y-94154654D01*
X133572734Y-94154726D01*
X133722770Y-94155268D01*
X133733360Y-94508876D01*
X133619569Y-94567257D01*
X133517049Y-94638484D01*
X133449398Y-94729268D01*
X133416353Y-94840034D01*
X133412698Y-94898057D01*
X133423051Y-95001000D01*
X133456354Y-95076397D01*
X133515981Y-95131610D01*
X133521133Y-95134851D01*
X133628086Y-95179595D01*
X133737596Y-95188273D01*
X133843932Y-95163985D01*
X133941361Y-95109827D01*
X134024152Y-95028897D01*
X134086571Y-94924293D01*
X134120910Y-94810736D01*
X134121170Y-94716409D01*
X134084804Y-94637872D01*
X134011718Y-94575007D01*
X133901819Y-94527695D01*
X133897745Y-94526452D01*
X133871867Y-94514340D01*
X133854019Y-94491529D01*
X133841916Y-94450547D01*
X133833275Y-94383922D01*
X133826385Y-94293056D01*
X133817735Y-94160631D01*
X134000217Y-94147304D01*
X134148191Y-94135060D01*
X134278581Y-94121455D01*
X134386788Y-94107170D01*
X134468214Y-94092884D01*
X134518261Y-94079277D01*
X134532698Y-94068583D01*
X134541735Y-94058594D01*
X134551782Y-94066281D01*
X134558694Y-94094435D01*
X134560545Y-94154366D01*
X134557932Y-94238221D01*
X134551448Y-94338147D01*
X134541689Y-94446292D01*
X134529251Y-94554803D01*
X134514727Y-94655828D01*
X134501655Y-94727698D01*
X134415649Y-95055269D01*
X134296543Y-95362281D01*
X134143016Y-95651161D01*
X133953745Y-95924336D01*
X133727407Y-96184234D01*
X133684109Y-96228311D01*
X133422119Y-96464090D01*
X133144200Y-96663183D01*
X132850845Y-96825406D01*
X132542544Y-96950576D01*
X132219789Y-97038508D01*
X131883071Y-97089020D01*
X131532882Y-97101928D01*
X131362698Y-97094881D01*
X131027726Y-97053108D01*
X130702524Y-96973152D01*
X130389725Y-96856221D01*
X130091961Y-96703522D01*
X129811863Y-96516260D01*
X129552065Y-96295644D01*
X129492698Y-96237537D01*
X129315647Y-96047387D01*
X129166617Y-95859190D01*
X129036349Y-95660392D01*
X128943091Y-95492365D01*
X128885962Y-95373536D01*
X128828939Y-95239274D01*
X128775968Y-95100350D01*
X128730994Y-94967535D01*
X128697966Y-94851598D01*
X128683832Y-94784834D01*
X128670558Y-94703840D01*
X128966628Y-94678707D01*
X129075841Y-94668998D01*
X129174788Y-94659395D01*
X129254720Y-94650804D01*
X129306889Y-94644136D01*
X129317698Y-94642277D01*
X129352667Y-94637832D01*
X129368404Y-94650363D01*
X129372562Y-94689622D01*
X129372698Y-94712357D01*
X129367564Y-94769107D01*
X129345761Y-94809213D01*
X129301520Y-94848069D01*
X129227331Y-94920544D01*
X129186129Y-95004078D01*
X129172732Y-95109451D01*
X129172698Y-95116024D01*
X129188276Y-95226779D01*
X129230919Y-95318089D01*
X129294489Y-95387022D01*
X129372851Y-95430649D01*
X129459866Y-95446039D01*
X129549398Y-95430261D01*
X129635310Y-95380384D01*
X129666001Y-95351596D01*
X129724790Y-95281829D01*
X129757516Y-95217881D01*
X129771002Y-95142786D01*
X129772699Y-95086323D01*
X129761175Y-94970444D01*
X129724950Y-94884269D01*
X129661546Y-94824214D01*
X129568483Y-94786695D01*
X129564733Y-94785764D01*
X129512236Y-94769684D01*
X129487264Y-94747378D01*
X129477834Y-94706329D01*
X129476673Y-94693747D01*
X129470648Y-94621745D01*
X129706673Y-94566245D01*
X129804914Y-94541185D01*
X129923634Y-94507894D01*
X130052950Y-94469452D01*
X130182979Y-94428936D01*
X130303835Y-94389426D01*
X130405636Y-94354000D01*
X130477698Y-94326080D01*
X130500166Y-94322036D01*
X130510335Y-94341244D01*
X130512698Y-94391242D01*
X130510436Y-94430343D01*
X130500212Y-94463652D01*
X130476868Y-94497399D01*
X130435247Y-94537817D01*
X130370191Y-94591137D01*
X130306057Y-94640929D01*
X130238553Y-94715646D01*
X130204009Y-94805852D01*
X130202304Y-94904531D01*
X130233318Y-95004668D01*
X130296930Y-95099247D01*
X130314250Y-95117577D01*
X130407693Y-95185538D01*
X130518004Y-95218345D01*
X130647048Y-95216485D01*
X130676157Y-95211835D01*
X130779741Y-95186446D01*
X130858148Y-95149132D01*
X130925983Y-95092125D01*
X130949730Y-95066311D01*
X131000336Y-94981773D01*
X131015370Y-94889966D01*
X130996769Y-94797526D01*
X130946470Y-94711089D01*
X130866410Y-94637293D01*
X130815692Y-94607141D01*
X130748116Y-94569964D01*
X130703840Y-94534109D01*
X130672889Y-94487494D01*
X130645290Y-94418039D01*
X130635493Y-94388884D01*
X130598456Y-94276530D01*
X130780577Y-94187027D01*
X131123113Y-94001488D01*
X131412777Y-93811670D01*
X131562856Y-93703718D01*
X131822698Y-93812054D01*
G37*
D10*
%TO.C,R48*%
X121532500Y-94702258D02*
X121532500Y-94227742D01*
X122577500Y-94702258D02*
X122577500Y-94227742D01*
%TO.C,C48*%
X146640000Y-105933420D02*
X146640000Y-106214580D01*
X147660000Y-105933420D02*
X147660000Y-106214580D01*
%TO.C,C123*%
X88795000Y-120154420D02*
X88795000Y-120435580D01*
X89815000Y-120154420D02*
X89815000Y-120435580D01*
%TO.C,C14*%
X111940711Y-111822713D02*
X111940711Y-111541551D01*
X112960711Y-111822713D02*
X112960711Y-111541551D01*
%TO.C,R74*%
X107262742Y-75267500D02*
X107737258Y-75267500D01*
X107262742Y-76312500D02*
X107737258Y-76312500D01*
%TO.C,U26*%
X135340000Y-101835000D02*
X135340000Y-101035000D01*
X135340000Y-101835000D02*
X135340000Y-102635000D01*
X138460000Y-101835000D02*
X138460000Y-100035000D01*
X138460000Y-101835000D02*
X138460000Y-102635000D01*
%TO.C,R66*%
X131169500Y-110541258D02*
X131169500Y-110066742D01*
X132214500Y-110541258D02*
X132214500Y-110066742D01*
%TO.C,R100*%
X101482500Y-83952258D02*
X101482500Y-83477742D01*
X102527500Y-83952258D02*
X102527500Y-83477742D01*
%TO.C,U9*%
X138891000Y-100063300D02*
X138891000Y-99263300D01*
X138891000Y-100063300D02*
X138891000Y-101863300D01*
X142011000Y-100063300D02*
X142011000Y-99263300D01*
X142011000Y-100063300D02*
X142011000Y-100863300D01*
%TO.C,R70*%
X150772743Y-70355501D02*
X151247259Y-70355501D01*
X150772743Y-71400501D02*
X151247259Y-71400501D01*
%TO.C,Y1*%
X137200000Y-76249999D02*
X137200000Y-80249999D01*
X140500000Y-76249999D02*
X137200000Y-76249999D01*
%TO.C,C49*%
X140544580Y-118668000D02*
X140263420Y-118668000D01*
X140544580Y-119688000D02*
X140263420Y-119688000D01*
%TO.C,R137*%
X118682500Y-119337258D02*
X118682500Y-118862742D01*
X119727500Y-119337258D02*
X119727500Y-118862742D01*
%TO.C,U23*%
X104300000Y-100780000D02*
X106200000Y-100780000D01*
X105700000Y-98460000D02*
X104300000Y-98460000D01*
%TO.C,D43*%
X153560000Y-79325000D02*
X153560000Y-81325000D01*
X153560000Y-79325000D02*
X157570000Y-79325000D01*
X153560000Y-81325000D02*
X157570000Y-81325000D01*
%TO.C,J5*%
X77158000Y-71734000D02*
X77158000Y-87194000D01*
X77158000Y-87194000D02*
X83178000Y-87194000D01*
X82588000Y-87174000D02*
X82588000Y-71814000D01*
X82688000Y-87174000D02*
X82688000Y-71814000D01*
X82788000Y-87174000D02*
X82788000Y-71814000D01*
X82888000Y-87174000D02*
X82888000Y-71814000D01*
X82988000Y-87174000D02*
X82988000Y-71814000D01*
X83088000Y-87174000D02*
X83088000Y-71814000D01*
X83178000Y-71734000D02*
X77158000Y-71734000D01*
X83178000Y-87194000D02*
X83178000Y-71734000D01*
%TO.C,C124*%
X88775000Y-90895580D02*
X88775000Y-90614420D01*
X89795000Y-90895580D02*
X89795000Y-90614420D01*
%TO.C,R21*%
X109852267Y-107751400D02*
X109852267Y-107276884D01*
X110897267Y-107751400D02*
X110897267Y-107276884D01*
%TO.C,D3*%
X90925000Y-87590000D02*
X90925000Y-82080000D01*
X90925000Y-87590000D02*
X94225000Y-87590000D01*
X94225000Y-87590000D02*
X94225000Y-82080000D01*
%TO.C,D27*%
X152235000Y-96120001D02*
X152235000Y-101630001D01*
X155535000Y-96120001D02*
X152235000Y-96120001D01*
X155535000Y-96120001D02*
X155535000Y-101630001D01*
%TO.C,U10*%
X104740000Y-131730000D02*
X106140000Y-131730000D01*
X106140000Y-129410000D02*
X104240000Y-129410000D01*
%TO.C,J6*%
X144920000Y-59815000D02*
X154080000Y-59815000D01*
X144920000Y-61520000D02*
X144920000Y-59815000D01*
X144920000Y-63530000D02*
X144920000Y-65450000D01*
X154080000Y-59815000D02*
X154080000Y-61520000D01*
X154080000Y-65450000D02*
X154080000Y-63530000D01*
%TO.C,TP2*%
X93875000Y-121800000D02*
G75*
G02*
X90475000Y-121800000I-1700000J0D01*
G01*
X90475000Y-121800000D02*
G75*
G02*
X93875000Y-121800000I1700000J0D01*
G01*
%TO.C,C3*%
X143465000Y-75286252D02*
X143465000Y-73863748D01*
X146185000Y-75286252D02*
X146185000Y-73863748D01*
D16*
%TO.C,U22*%
X127270000Y-98997500D02*
X123370000Y-98997500D01*
X127270000Y-104047500D02*
X123370000Y-104047500D01*
D11*
X129460000Y-103827500D02*
G75*
G02*
X129260000Y-103827500I-100000J0D01*
G01*
X129260000Y-103827500D02*
G75*
G02*
X129460000Y-103827500I100000J0D01*
G01*
D10*
%TO.C,R9*%
X104087742Y-127797500D02*
X104562258Y-127797500D01*
X104087742Y-128842500D02*
X104562258Y-128842500D01*
%TO.C,F1*%
X164735000Y-68178752D02*
X164735000Y-63771248D01*
X170075000Y-68178752D02*
X170075000Y-63771248D01*
%TO.C,R14*%
X141842500Y-75732258D02*
X141842500Y-75257742D01*
X142887500Y-75732258D02*
X142887500Y-75257742D01*
%TO.C,R58*%
X111477500Y-70262742D02*
X111477500Y-70737258D01*
X112522500Y-70262742D02*
X112522500Y-70737258D01*
%TO.C,D34*%
X84020000Y-128390000D02*
X84020000Y-127315000D01*
X84470000Y-127240000D02*
X87570000Y-127240000D01*
X84470000Y-130040000D02*
X87470000Y-130040000D01*
%TO.C,C55*%
X99880000Y-90094420D02*
X99880000Y-90375580D01*
X100900000Y-90094420D02*
X100900000Y-90375580D01*
%TO.C,U18*%
X120705000Y-105151000D02*
X120705000Y-105396000D01*
X120705000Y-105396000D02*
X118890000Y-105396000D01*
X120705000Y-116921000D02*
X120705000Y-116676000D01*
X124565000Y-105151000D02*
X120705000Y-105151000D01*
X124565000Y-105151000D02*
X128425000Y-105151000D01*
X124565000Y-116921000D02*
X120705000Y-116921000D01*
X124565000Y-116921000D02*
X128425000Y-116921000D01*
X128425000Y-105151000D02*
X128425000Y-105396000D01*
X128425000Y-116921000D02*
X128425000Y-116676000D01*
%TO.C,U29*%
X103325000Y-75465000D02*
X101525000Y-75465000D01*
X103325000Y-75465000D02*
X104125000Y-75465000D01*
X103325000Y-78585000D02*
X102525000Y-78585000D01*
X103325000Y-78585000D02*
X104125000Y-78585000D01*
D12*
%TO.C,H3*%
X83700000Y-130100000D02*
G75*
G02*
X76700000Y-130100000I-3500000J0D01*
G01*
X76700000Y-130100000D02*
G75*
G02*
X83700000Y-130100000I3500000J0D01*
G01*
D10*
%TO.C,R138*%
X101732499Y-115827258D02*
X101732499Y-115352742D01*
X102777499Y-115827258D02*
X102777499Y-115352742D01*
D12*
%TO.C,TP22*%
X150235000Y-115590000D02*
X154435000Y-115590000D01*
X150235000Y-117990000D02*
X150235000Y-115590000D01*
X154435000Y-115590000D02*
X154435000Y-117990000D01*
X154435000Y-117990000D02*
X150235000Y-117990000D01*
D10*
%TO.C,R77*%
X103304258Y-61541500D02*
X102829742Y-61541500D01*
X103304258Y-62586500D02*
X102829742Y-62586500D01*
%TO.C,R16*%
X147147501Y-82167257D02*
X147147501Y-81692741D01*
X148192501Y-82167257D02*
X148192501Y-81692741D01*
%TO.C,L2*%
X152315000Y-81640000D02*
X152715000Y-81640000D01*
X152315000Y-87160000D02*
X152315000Y-81640000D01*
X152315000Y-87160000D02*
X152715000Y-87160000D01*
X157835000Y-81640000D02*
X157435000Y-81640000D01*
X157835000Y-87160000D02*
X157435000Y-87160000D01*
X157835000Y-87160000D02*
X157835000Y-81640000D01*
%TO.C,C2*%
X167986252Y-87365000D02*
X166563748Y-87365000D01*
X167986252Y-90085000D02*
X166563748Y-90085000D01*
%TO.C,L1*%
X146665000Y-72700000D02*
X146665000Y-79220000D01*
X146665000Y-72700000D02*
X146815000Y-72700000D01*
X146665000Y-79220000D02*
X146815000Y-79220000D01*
X153185000Y-72700000D02*
X153035000Y-72700000D01*
X153185000Y-72700000D02*
X153185000Y-79220000D01*
X153185000Y-79220000D02*
X153035000Y-79220000D01*
%TO.C,U33*%
X155865000Y-94050000D02*
X155865000Y-92100000D01*
X155865000Y-94050000D02*
X155865000Y-97500000D01*
X160985000Y-94050000D02*
X160985000Y-92100000D01*
X160985000Y-94050000D02*
X160985000Y-96000000D01*
%TO.C,C47*%
X148246000Y-105959420D02*
X148246000Y-106240580D01*
X149266000Y-105959420D02*
X149266000Y-106240580D01*
%TO.C,D29*%
X148325000Y-118720000D02*
X150285000Y-118720000D01*
X148325000Y-119920000D02*
X150285000Y-119920000D01*
X150285000Y-119920000D02*
X150285000Y-118720000D01*
%TO.C,R71*%
X150772742Y-68675500D02*
X151247258Y-68675500D01*
X150772742Y-69720500D02*
X151247258Y-69720500D01*
%TO.C,C95*%
X149903749Y-81699999D02*
X150426253Y-81699999D01*
X149903749Y-83169999D02*
X150426253Y-83169999D01*
%TO.C,C57*%
X116886420Y-109328000D02*
X117167580Y-109328000D01*
X116886420Y-110348000D02*
X117167580Y-110348000D01*
%TO.C,R95*%
X155977500Y-99067742D02*
X155977500Y-99542258D01*
X157022500Y-99067742D02*
X157022500Y-99542258D01*
%TO.C,D31*%
X130030000Y-96880000D02*
X127480000Y-96880000D01*
X130030000Y-98580000D02*
X127480000Y-98580000D01*
X130030000Y-98580000D02*
X130030000Y-96880000D01*
%TO.C,D1*%
X94605000Y-88465000D02*
X93955000Y-88465000D01*
X94605000Y-88465000D02*
X95255000Y-88465000D01*
X94605000Y-91585000D02*
X93955000Y-91585000D01*
X94605000Y-91585000D02*
X96280000Y-91585000D01*
%TO.C,C22*%
X131300000Y-101820580D02*
X131300000Y-101539420D01*
X132320000Y-101820580D02*
X132320000Y-101539420D01*
%TO.C,C51*%
X142514000Y-106055581D02*
X142514000Y-105774421D01*
X143534000Y-106055581D02*
X143534000Y-105774421D01*
%TO.C,D41*%
X84680000Y-61435000D02*
X84680000Y-62905000D01*
X84680000Y-62905000D02*
X86965000Y-62905000D01*
X86965000Y-61435000D02*
X84680000Y-61435000D01*
D14*
%TO.C,SW5*%
X156445000Y-60292000D02*
X156445000Y-61066000D01*
X156445000Y-60292000D02*
X162795000Y-60292000D01*
X158111000Y-58020000D02*
X161140000Y-58020000D01*
X158111000Y-60292000D02*
X158111000Y-58020000D01*
X160770000Y-64850000D02*
X158400000Y-64850000D01*
X161140000Y-58020000D02*
X161140000Y-60292000D01*
X161140000Y-60292000D02*
X161128000Y-60292000D01*
X162795000Y-60292000D02*
X162795000Y-61066000D01*
D10*
%TO.C,R51*%
X137709641Y-118702000D02*
X137402359Y-118702000D01*
X137709641Y-119462000D02*
X137402359Y-119462000D01*
%TO.C,D36*%
X134100000Y-118095000D02*
X132425000Y-118095000D01*
X134100000Y-118095000D02*
X134750000Y-118095000D01*
X134100000Y-121215000D02*
X133450000Y-121215000D01*
X134100000Y-121215000D02*
X134750000Y-121215000D01*
%TO.C,C53*%
X137234580Y-110826000D02*
X136953420Y-110826000D01*
X137234580Y-111846000D02*
X136953420Y-111846000D01*
%TO.C,C96*%
X149903748Y-79684999D02*
X150426252Y-79684999D01*
X149903748Y-81154999D02*
X150426252Y-81154999D01*
%TO.C,C111*%
X157738748Y-101150001D02*
X159161252Y-101150001D01*
X157738748Y-103870001D02*
X159161252Y-103870001D01*
D14*
%TO.C,J10*%
X139710000Y-137312000D02*
X147330000Y-137312000D01*
X139740000Y-126012000D02*
X139710000Y-137312000D01*
X139740000Y-126012000D02*
X139779000Y-126012000D01*
X140710000Y-136358000D02*
X140710000Y-129212000D01*
X141310000Y-136358000D02*
X140710000Y-136358000D01*
X141310000Y-136358000D02*
X141310000Y-129212000D01*
X142241000Y-126012000D02*
X142319000Y-126012000D01*
X143250000Y-136358000D02*
X143250000Y-129212000D01*
X143850000Y-136358000D02*
X143250000Y-136358000D01*
X143850000Y-136358000D02*
X143850000Y-129212000D01*
X144781000Y-126012000D02*
X144859000Y-126012000D01*
X145790000Y-136358000D02*
X145790000Y-129212000D01*
X146390000Y-136358000D02*
X145790000Y-136358000D01*
X146390000Y-136358000D02*
X146390000Y-129212000D01*
X147291000Y-126012000D02*
X147330000Y-126012000D01*
X147330000Y-126012000D02*
X147330000Y-137312000D01*
X147330000Y-129212000D02*
X139710000Y-129212000D01*
D10*
%TO.C,R57*%
X109212742Y-117927500D02*
X109687258Y-117927500D01*
X109212742Y-118972500D02*
X109687258Y-118972500D01*
%TO.C,U43*%
X104100000Y-62940000D02*
X103300000Y-62940000D01*
X104100000Y-62940000D02*
X104900000Y-62940000D01*
X104100000Y-66060000D02*
X103300000Y-66060000D01*
X104100000Y-66060000D02*
X105900000Y-66060000D01*
%TO.C,R68*%
X102002500Y-99457742D02*
X102002500Y-99932258D01*
X103047500Y-99457742D02*
X103047500Y-99932258D01*
%TO.C,C63*%
X109309420Y-116303000D02*
X109590580Y-116303000D01*
X109309420Y-117323000D02*
X109590580Y-117323000D01*
%TO.C,D33*%
X84020000Y-131410000D02*
X84020000Y-130335000D01*
X84470000Y-130260000D02*
X87570000Y-130260000D01*
X84470000Y-133060000D02*
X87470000Y-133060000D01*
%TO.C,SW3*%
X93549000Y-124620000D02*
X95235000Y-124620000D01*
X95235000Y-123804000D02*
X95235000Y-124620000D01*
X95235000Y-123804000D02*
X100755000Y-123804000D01*
X95235000Y-131710000D02*
X95235000Y-133145000D01*
X95235000Y-133145000D02*
X100755000Y-133145000D01*
X100755000Y-123804000D02*
X100755000Y-125239000D01*
X100755000Y-131710000D02*
X100755000Y-133145000D01*
%TO.C,R11*%
X111362742Y-120927500D02*
X111837258Y-120927500D01*
X111362742Y-121972500D02*
X111837258Y-121972500D01*
%TO.C,C43*%
X134204581Y-110828000D02*
X133923421Y-110828000D01*
X134204581Y-111848000D02*
X133923421Y-111848000D01*
%TO.C,R79*%
X106162742Y-119067501D02*
X106637258Y-119067501D01*
X106162742Y-120112501D02*
X106637258Y-120112501D01*
%TO.C,J3*%
X94770000Y-61270000D02*
X94770000Y-76730000D01*
X94770000Y-76730000D02*
X100790000Y-76730000D01*
X100200000Y-76710000D02*
X100200000Y-61350000D01*
X100300000Y-76710000D02*
X100300000Y-61350000D01*
X100400000Y-76710000D02*
X100400000Y-61350000D01*
X100500000Y-76710000D02*
X100500000Y-61350000D01*
X100600000Y-76710000D02*
X100600000Y-61350000D01*
X100700000Y-76710000D02*
X100700000Y-61350000D01*
X100790000Y-61270000D02*
X94770000Y-61270000D01*
X100790000Y-76730000D02*
X100790000Y-61270000D01*
%TO.C,C46*%
X138624000Y-108804580D02*
X138624000Y-108523420D01*
X139644000Y-108804580D02*
X139644000Y-108523420D01*
%TO.C,C4*%
X155035000Y-122939420D02*
X155035000Y-123220580D01*
X156055000Y-122939420D02*
X156055000Y-123220580D01*
%TO.C,C12*%
X90960000Y-73663748D02*
X90960000Y-74186252D01*
X92430000Y-73663748D02*
X92430000Y-74186252D01*
D14*
%TO.C,SW4*%
X88718001Y-63561000D02*
X88718001Y-63608000D01*
X88718001Y-63608000D02*
X88727001Y-63608000D01*
X88727001Y-63608000D02*
X88727001Y-68979000D01*
X88727001Y-68979000D02*
X91577001Y-68979000D01*
X89407001Y-64619000D02*
X90931001Y-65635000D01*
X89408001Y-64020000D02*
X90932001Y-64020000D01*
X89408001Y-68520000D02*
X89408001Y-64020000D01*
X90169001Y-65635000D02*
X89407001Y-65127000D01*
X90931001Y-64365000D02*
X89407001Y-64365000D01*
X90931001Y-65127000D02*
X89915001Y-64365000D01*
X90931001Y-65635000D02*
X89407001Y-65635000D01*
X90932001Y-64020000D02*
X90932001Y-68520000D01*
X90932001Y-68520000D02*
X89408001Y-68520000D01*
X91587001Y-63561000D02*
X88718001Y-63561000D01*
X91587001Y-68970000D02*
X91587001Y-63561000D01*
D10*
%TO.C,C92*%
X113036252Y-113560000D02*
X112513748Y-113560000D01*
X113036252Y-115030000D02*
X112513748Y-115030000D01*
%TO.C,Y3*%
X115179000Y-114774000D02*
X118479000Y-114774000D01*
X118479000Y-114774000D02*
X118479000Y-110774000D01*
%TO.C,R54*%
X117727500Y-70162742D02*
X117727500Y-70637258D01*
X118772500Y-70162742D02*
X118772500Y-70637258D01*
%TO.C,R18*%
X116497500Y-118917742D02*
X116497500Y-119392258D01*
X117542500Y-118917742D02*
X117542500Y-119392258D01*
%TO.C,C120*%
X161559697Y-100320564D02*
X161559698Y-92665001D01*
X161559698Y-92665001D02*
X164409698Y-92665001D01*
X162624135Y-101385002D02*
X161559697Y-100320564D01*
X162624135Y-101385002D02*
X164409698Y-101385001D01*
X162909698Y-102125001D02*
X163909698Y-102125001D01*
X163409698Y-102625001D02*
X163409698Y-101625001D01*
X169215261Y-101385002D02*
X167429698Y-101385001D01*
X169215261Y-101385002D02*
X170279699Y-100320564D01*
X170279698Y-92665001D02*
X167429698Y-92665001D01*
X170279699Y-100320564D02*
X170279698Y-92665001D01*
%TO.C,C98*%
X150975000Y-85544421D02*
X150975000Y-85825581D01*
X151995000Y-85544421D02*
X151995000Y-85825581D01*
%TO.C,R23*%
X123467742Y-120842500D02*
X123942258Y-120842500D01*
X123467742Y-121887500D02*
X123942258Y-121887500D01*
%TO.C,R56*%
X114667500Y-70262742D02*
X114667500Y-70737258D01*
X115712500Y-70262742D02*
X115712500Y-70737258D01*
%TO.C,C89*%
X115790000Y-73613748D02*
X115790000Y-74136252D01*
X117260000Y-73613748D02*
X117260000Y-74136252D01*
%TO.C,C23*%
X109309420Y-113027000D02*
X109590580Y-113027000D01*
X109309420Y-114047000D02*
X109590580Y-114047000D01*
%TO.C,C94*%
X145464999Y-85981253D02*
X145464999Y-85458749D01*
X146934999Y-85981253D02*
X146934999Y-85458749D01*
%TO.C,C45*%
X152293420Y-110016000D02*
X152574580Y-110016000D01*
X152293420Y-111036000D02*
X152574580Y-111036000D01*
%TO.C,C19*%
X157534580Y-115006000D02*
X157253420Y-115006000D01*
X157534580Y-116026000D02*
X157253420Y-116026000D01*
%TO.C,C44*%
X136215000Y-109104579D02*
X136215000Y-108823419D01*
X137235000Y-109104579D02*
X137235000Y-108823419D01*
D12*
%TO.C,U1*%
X109500000Y-70700000D02*
G75*
G02*
X102500000Y-70700000I-3500000J0D01*
G01*
X102500000Y-70700000D02*
G75*
G02*
X109500000Y-70700000I3500000J0D01*
G01*
X109500000Y-86700000D02*
G75*
G02*
X102500000Y-86700000I-3500000J0D01*
G01*
X102500000Y-86700000D02*
G75*
G02*
X109500000Y-86700000I3500000J0D01*
G01*
X167300000Y-74900000D02*
G75*
G02*
X160300000Y-74900000I-3500000J0D01*
G01*
X160300000Y-74900000D02*
G75*
G02*
X167300000Y-74900000I3500000J0D01*
G01*
X167300000Y-82500000D02*
G75*
G02*
X160300000Y-82500000I-3500000J0D01*
G01*
X160300000Y-82500000D02*
G75*
G02*
X167300000Y-82500000I3500000J0D01*
G01*
D10*
%TO.C,Q3*%
X116555000Y-105779999D02*
X115905000Y-105780000D01*
X116555000Y-105779999D02*
X117205000Y-105780000D01*
X116555000Y-108900001D02*
X115905000Y-108900000D01*
X116555000Y-108900001D02*
X117205000Y-108900000D01*
X115632500Y-105500001D02*
X115392500Y-105830000D01*
X115152500Y-105500000D01*
X115632500Y-105500001D01*
G36*
X115632500Y-105500001D02*
G01*
X115392500Y-105830000D01*
X115152500Y-105500000D01*
X115632500Y-105500001D01*
G37*
%TO.C,R12*%
X111362742Y-122527500D02*
X111837258Y-122527500D01*
X111362742Y-123572500D02*
X111837258Y-123572500D01*
%TO.C,C97*%
X145269420Y-82310000D02*
X145550580Y-82310000D01*
X145269420Y-83330000D02*
X145550580Y-83330000D01*
%TO.C,U16*%
X136035000Y-70755000D02*
X136035000Y-70970000D01*
X136035000Y-70970000D02*
X134345000Y-70970000D01*
X136035000Y-73575000D02*
X136035000Y-73360000D01*
X138345000Y-70755000D02*
X136035000Y-70755000D01*
X138345000Y-70755000D02*
X140655000Y-70755000D01*
X138345000Y-73575000D02*
X136035000Y-73575000D01*
X138345000Y-73575000D02*
X140655000Y-73575000D01*
X140655000Y-70755000D02*
X140655000Y-70970000D01*
X140655000Y-73575000D02*
X140655000Y-73360000D01*
%TO.C,C56*%
X131929420Y-104420000D02*
X132210580Y-104420000D01*
X131929420Y-105440000D02*
X132210580Y-105440000D01*
%TO.C,R72*%
X130777500Y-107412258D02*
X130777500Y-106937742D01*
X131822500Y-107412258D02*
X131822500Y-106937742D01*
%TO.C,C24*%
X143856825Y-88983214D02*
X143856825Y-89505718D01*
X145326825Y-88983214D02*
X145326825Y-89505718D01*
%TO.C,C64*%
X109309421Y-119438000D02*
X109590581Y-119438000D01*
X109309421Y-120458000D02*
X109590581Y-120458000D01*
%TO.C,R106*%
X143856501Y-85648260D02*
X143856501Y-85173744D01*
X144901501Y-85648260D02*
X144901501Y-85173744D01*
%TO.C,U13*%
X132577000Y-112308000D02*
X132577000Y-112568000D01*
X132577000Y-112568000D02*
X130902000Y-112568000D01*
X132577000Y-117758000D02*
X132577000Y-117498000D01*
X135302000Y-112308000D02*
X132577000Y-112308000D01*
X135302000Y-112308000D02*
X138027000Y-112308000D01*
X135302000Y-117758000D02*
X132577000Y-117758000D01*
X135302000Y-117758000D02*
X138027000Y-117758000D01*
X138027000Y-112308000D02*
X138027000Y-112568000D01*
X138027000Y-117758000D02*
X138027000Y-117498000D01*
%TO.C,R76*%
X130537258Y-87267500D02*
X130062742Y-87267500D01*
X130537258Y-88312500D02*
X130062742Y-88312500D01*
%TO.C,U30*%
X103694999Y-116655000D02*
X103695000Y-115855000D01*
X103694999Y-116655000D02*
X103695000Y-117455000D01*
X106815001Y-116655000D02*
X106815000Y-114855000D01*
X106815001Y-116655000D02*
X106815000Y-117455000D01*
%TO.C,R63*%
X101489500Y-67512742D02*
X101489500Y-67987258D01*
X102534500Y-67512742D02*
X102534500Y-67987258D01*
%TO.C,D40*%
X103205000Y-78915000D02*
X102555000Y-78915000D01*
X103205000Y-78915000D02*
X103855000Y-78915000D01*
X103205000Y-82035000D02*
X102555000Y-82035000D01*
X103205000Y-82035000D02*
X104880000Y-82035000D01*
%TO.C,D28*%
X116735000Y-89370000D02*
X116735000Y-87410000D01*
X117935000Y-87410000D02*
X116735000Y-87410000D01*
X117935000Y-89370000D02*
X117935000Y-87410000D01*
%TO.C,J1*%
X131870000Y-59815000D02*
X141030000Y-59815000D01*
X131870000Y-61520000D02*
X131870000Y-59815000D01*
X131870000Y-63530000D02*
X131870000Y-65450000D01*
X141030000Y-59815000D02*
X141030000Y-61520000D01*
X141030000Y-65450000D02*
X141030000Y-63530000D01*
%TO.C,R47*%
X152626742Y-113003500D02*
X153101258Y-113003500D01*
X152626742Y-114048500D02*
X153101258Y-114048500D01*
%TO.C,D4*%
X153575000Y-68460000D02*
X153575000Y-76970000D01*
X153575000Y-68460000D02*
X160075000Y-68460000D01*
X160075000Y-68460000D02*
X160075000Y-76970000D01*
%TO.C,D30*%
X148285000Y-120660000D02*
X148285000Y-122620000D01*
X148285000Y-122620000D02*
X149485000Y-122620000D01*
X149485000Y-120660000D02*
X149485000Y-122620000D01*
D14*
%TO.C,J9*%
X122510000Y-137312000D02*
X130130000Y-137312000D01*
X122540000Y-126012000D02*
X122510000Y-137312000D01*
X122540000Y-126012000D02*
X122579000Y-126012000D01*
X123510000Y-136358000D02*
X123510000Y-129212000D01*
X124110000Y-136358000D02*
X123510000Y-136358000D01*
X124110000Y-136358000D02*
X124110000Y-129212000D01*
X125041000Y-126012000D02*
X125119000Y-126012000D01*
X126050000Y-136358000D02*
X126050000Y-129212000D01*
X126650000Y-136358000D02*
X126050000Y-136358000D01*
X126650000Y-136358000D02*
X126650000Y-129212000D01*
X127581000Y-126012000D02*
X127659000Y-126012000D01*
X128590000Y-136358000D02*
X128590000Y-129212000D01*
X129190000Y-136358000D02*
X128590000Y-136358000D01*
X129190000Y-136358000D02*
X129190000Y-129212000D01*
X130091000Y-126012000D02*
X130130000Y-126012000D01*
X130130000Y-126012000D02*
X130130000Y-137312000D01*
X130130000Y-129212000D02*
X122510000Y-129212000D01*
%TD*%
D17*
X125325000Y-80565000D03*
X126600000Y-80565000D03*
X127875000Y-80565000D03*
X125325000Y-79290000D03*
X126600000Y-79290000D03*
X127875000Y-79290000D03*
X125325000Y-78015000D03*
X126600000Y-78015000D03*
X127875000Y-78015000D03*
D18*
X98140000Y-105000000D03*
X98140000Y-102460000D03*
X98140000Y-99920000D03*
D17*
X144169000Y-114541000D03*
X145444000Y-114541000D03*
X146719000Y-114541000D03*
X144169000Y-113266000D03*
X145444000Y-113266000D03*
X146719000Y-113266000D03*
X144169000Y-111991000D03*
X145444000Y-111991000D03*
X146719000Y-111991000D03*
D18*
X80200000Y-64450000D03*
X149510000Y-126012000D03*
X152050000Y-126012000D03*
X154590000Y-126012000D03*
X106000000Y-108000000D03*
X106000000Y-124000000D03*
X163800000Y-112200000D03*
X163800000Y-119800000D03*
X109150000Y-100500000D03*
X109150000Y-103040000D03*
X111690000Y-100500000D03*
X111690000Y-103040000D03*
X114230000Y-100500000D03*
X114230000Y-103040000D03*
X116770000Y-100500000D03*
X116770000Y-103040000D03*
X119310000Y-100500000D03*
X119310000Y-103040000D03*
X109150000Y-128960000D03*
X109150000Y-131500000D03*
X111690000Y-128960000D03*
X111690000Y-131500000D03*
X114230000Y-128960000D03*
X114230000Y-131500000D03*
X116770000Y-128960000D03*
X116770000Y-131500000D03*
X119310000Y-128960000D03*
X119310000Y-131500000D03*
X169250000Y-109650000D03*
X169250000Y-112190000D03*
X169250000Y-114730000D03*
X169250000Y-117270000D03*
X169250000Y-119810000D03*
X169250000Y-122350000D03*
X98140000Y-121300000D03*
X98140000Y-118760000D03*
X98140000Y-116220000D03*
X98140000Y-113680000D03*
X98140000Y-111140000D03*
X98140000Y-108600000D03*
X98140000Y-86547000D03*
X98140000Y-84007000D03*
X98140000Y-81467000D03*
X98140000Y-78927000D03*
X87528000Y-85814000D03*
X87528000Y-83274000D03*
X87528000Y-80734000D03*
X87528000Y-78194000D03*
X87528000Y-75654000D03*
X87528000Y-73114000D03*
X132100000Y-126012000D03*
X134640000Y-126012000D03*
X137180000Y-126012000D03*
X157920000Y-125862000D03*
X160460000Y-125862000D03*
X163000000Y-125862000D03*
X165540000Y-125862000D03*
X168080000Y-125862000D03*
X80528000Y-85814000D03*
X80528000Y-83274000D03*
X80528000Y-80734000D03*
X80528000Y-78194000D03*
X80528000Y-75654000D03*
X80528000Y-73114000D03*
X86500000Y-107450000D03*
X82500000Y-107450000D03*
X86500000Y-122450000D03*
X82500000Y-122450000D03*
X88600000Y-113450000D03*
X88600000Y-116450000D03*
X86500000Y-117675000D03*
X84400000Y-117025000D03*
X84400000Y-114950000D03*
X84400000Y-112875000D03*
X86500000Y-112225000D03*
X86500000Y-114950000D03*
X82500000Y-114950000D03*
X152390000Y-66205000D03*
X146610000Y-66205000D03*
D19*
X153820000Y-66705000D03*
D20*
X153820000Y-62525000D03*
D19*
X145180000Y-66705000D03*
D20*
X145180000Y-62525000D03*
D18*
X92175000Y-121800000D03*
X80200000Y-130100000D03*
X86475000Y-89000000D03*
X82475000Y-89000000D03*
X86475000Y-104000000D03*
X82475000Y-104000000D03*
X88575000Y-95000000D03*
X88575000Y-98000000D03*
X86475000Y-99225000D03*
X84375000Y-98575000D03*
X84375000Y-96500000D03*
X84375000Y-94425000D03*
X86475000Y-93775000D03*
X86475000Y-96500000D03*
X82475000Y-96500000D03*
D17*
X157425000Y-94700000D03*
X158425000Y-94700000D03*
X159425000Y-94700000D03*
X157425000Y-93400000D03*
X158425000Y-93400000D03*
X159425000Y-93400000D03*
D18*
X141010000Y-126012000D03*
X143550000Y-126012000D03*
X146090000Y-126012000D03*
X98140000Y-75350000D03*
X98140000Y-72810000D03*
X98140000Y-70270000D03*
X98140000Y-67730000D03*
X98140000Y-65190000D03*
X98140000Y-62650000D03*
X106000000Y-70700000D03*
X106000000Y-86700000D03*
X163800000Y-74900000D03*
X163800000Y-82500000D03*
X109150000Y-63200000D03*
X109150000Y-65740000D03*
X111690000Y-63200000D03*
X111690000Y-65740000D03*
X114230000Y-63200000D03*
X114230000Y-65740000D03*
X116770000Y-63200000D03*
X116770000Y-65740000D03*
X119310000Y-63200000D03*
X119310000Y-65740000D03*
X109150000Y-91660000D03*
X109150000Y-94200000D03*
X111690000Y-91660000D03*
X111690000Y-94200000D03*
X114230000Y-91660000D03*
X114230000Y-94200000D03*
X116770000Y-91660000D03*
X116770000Y-94200000D03*
X119310000Y-91660000D03*
X119310000Y-94200000D03*
X169250000Y-72350000D03*
X169250000Y-74890000D03*
X169250000Y-77430000D03*
X169250000Y-79970000D03*
X169250000Y-82510000D03*
X169250000Y-85050000D03*
X139340000Y-66205000D03*
X133560000Y-66205000D03*
D19*
X140770000Y-66705000D03*
D20*
X140770000Y-62525000D03*
D19*
X132130000Y-66705000D03*
D20*
X132130000Y-62525000D03*
D18*
X123810000Y-126012000D03*
X126350000Y-126012000D03*
X128890000Y-126012000D03*
M02*
