M48
METRIC,TZ
T1C0.650
T2C2.200
T3C2.800
T4C3.900
%
G90
G05
T1
X133560Y-66205
X139340Y-66205
X146610Y-66205
X152390Y-66205
T2
X86475Y-89000
X86475Y-104000
X86500Y-107450
X86500Y-122450
T3
X82475Y-89000
X82475Y-104000
X82500Y-107450
X82500Y-122450
T4
X80200Y-64450
X80200Y-130100
X106000Y-70700
X106000Y-86700
X106000Y-108000
X106000Y-124000
X163800Y-74900
X163800Y-82500
X163800Y-112200
X163800Y-119800
M30
