M48
METRIC,TZ
T1C0.250
T2C0.300
T3C0.300
T4C0.400
T5C0.600
T6C0.600
T7C1.000
T8C1.100
T9C1.190
T10C1.200
T11C1.300
T12C1.600
%
G90
G05
T1
X111300Y-61550
X120463Y-64087
X121648Y-124281
X121659Y-120983
X121978Y-125082
X121988Y-122611
X122100Y-123513
X123791Y-66566
X123900Y-95800
X123905Y-64575
X124675Y-66690
X125750Y-63700
X126179Y-64565
X126868Y-66029
X128757Y-65822
X132500Y-84479
X135794Y-70640
X136092Y-65632
X138900Y-112303
X139883Y-110877
X144800Y-85000
X145723Y-68700
X147320Y-68550
X147600Y-87300
X148030Y-71000
X148159Y-65856
X149517Y-65729
X152331Y-109110
X153377Y-108881
X153482Y-70618
X154118Y-69982
X154281Y-108902
X157600Y-106500
X163400Y-105950
X163400Y-106850
T2
X78000Y-89000
X78000Y-92000
X78000Y-95000
X78900Y-113600
X80000Y-119000
X80000Y-125000
X80800Y-91250
X81000Y-114000
X81000Y-115800
X81900Y-97800
X82000Y-101800
X82400Y-126500
X83500Y-125000
X83600Y-110000
X84150Y-92604
X84650Y-90100
X85000Y-101000
X85200Y-110000
X87850Y-119550
X88150Y-88400
X88150Y-93700
X88629Y-110529
X88650Y-120750
X88950Y-70900
X89371Y-111271
X89600Y-93950
X90000Y-130154
X90550Y-93600
X90600Y-87400
X90800Y-84000
X90900Y-98900
X91000Y-81000
X91028Y-112872
X91349Y-97304
X92000Y-126000
X92100Y-73000
X92200Y-69100
X92300Y-131000
X92371Y-97571
X92400Y-63400
X92400Y-64900
X92600Y-74600
X93000Y-111000
X93050Y-108050
X93650Y-66650
X93750Y-71300
X94200Y-84300
X94400Y-115500
X94500Y-78000
X94692Y-110950
X94692Y-112558
X94950Y-102500
X94950Y-104650
X95000Y-100000
X95100Y-97900
X95300Y-131650
X95319Y-127546
X95400Y-87600
X95637Y-107237
X95695Y-70900
X95700Y-79500
X96045Y-67650
X96071Y-75071
X97600Y-96806
X97700Y-92150
X98000Y-123900
X98719Y-127546
X98900Y-96104
X99545Y-94466
X99550Y-91700
X99783Y-85822
X99939Y-80916
X99966Y-93578
X100150Y-107100
X100250Y-108800
X100250Y-114550
X100376Y-86500
X100380Y-116857
X100400Y-79543
X100650Y-110950
X100750Y-132950
X100839Y-121800
X100900Y-96000
X101139Y-85248
X101215Y-76756
X101350Y-82300
X101604Y-66080
X101866Y-87491
X102121Y-70025
X102447Y-81779
X102489Y-95355
X102700Y-126500
X102918Y-77896
X103000Y-129100
X103313Y-132446
X103349Y-130667
X103446Y-67204
X103592Y-131534
X104100Y-119230
X104445Y-93584
X104900Y-98600
X105100Y-62950
X105155Y-99649
X105243Y-100849
X105509Y-114534
X105542Y-64495
X105675Y-77816
X105705Y-76310
X105824Y-98854
X106000Y-65696
X106196Y-101300
X106250Y-79200
X106284Y-81000
X106372Y-76992
X107454Y-115300
X107963Y-117788
X107992Y-119458
X108199Y-77655
X108303Y-80701
X108753Y-113630
X108775Y-98550
X108950Y-78500
X109276Y-110191
X109423Y-72656
X109554Y-77510
X109636Y-119379
X109661Y-69400
X109747Y-67946
X109803Y-122858
X109958Y-85104
X110018Y-123833
X110314Y-87352
X110650Y-93050
X110739Y-86558
X110891Y-85150
X111154Y-88426
X111369Y-74396
X111398Y-80687
X112255Y-85381
X112325Y-81154
X112406Y-70749
X112409Y-83352
X112582Y-123625
X112750Y-67350
X113045Y-90223
X113109Y-80687
X113137Y-98554
X113150Y-127900
X113195Y-114301
X113207Y-84107
X113245Y-122352
X113396Y-124368
X113501Y-85313
X113550Y-109800
X113584Y-125776
X113600Y-74425
X113694Y-77190
X113750Y-81650
X113852Y-117455
X113940Y-123271
X114123Y-118895
X114478Y-70499
X114752Y-81537
X114850Y-67167
X114856Y-82534
X115400Y-93300
X115619Y-83041
X115695Y-74424
X116000Y-84900
X116025Y-116475
X116292Y-70305
X116683Y-79904
X117066Y-121670
X117189Y-86666
X117194Y-67083
X117443Y-125978
X117647Y-109531
X118004Y-116772
X118050Y-90250
X118053Y-84347
X118341Y-79366
X118365Y-126348
X118492Y-71612
X118542Y-86692
X118669Y-83619
X118950Y-70400
X120062Y-80209
X120078Y-74119
X120250Y-70250
X120341Y-83565
X120603Y-117474
X120700Y-90200
X120737Y-86638
X121171Y-68386
X121450Y-86004
X121460Y-94660
X121506Y-116229
X121575Y-109775
X122091Y-77240
X122142Y-85300
X122425Y-115575
X122550Y-109825
X122857Y-113299
X122913Y-70663
X123066Y-93295
X123138Y-114154
X123167Y-84404
X123275Y-109025
X123304Y-112371
X123354Y-74982
X123583Y-110887
X123621Y-89736
X123624Y-87881
X123800Y-118000
X124412Y-71352
X124491Y-98454
X124812Y-91084
X124874Y-119400
X125010Y-88348
X125032Y-106382
X125070Y-116186
X125184Y-130454
X125231Y-71842
X125258Y-85436
X125300Y-132662
X125575Y-124225
X125631Y-90300
X125700Y-73000
X125832Y-98405
X125983Y-87916
X126020Y-121998
X126314Y-102701
X126393Y-88823
X126454Y-111484
X126504Y-113214
X126757Y-109672
X126786Y-110638
X126786Y-112331
X126831Y-63261
X127100Y-108525
X127253Y-69692
X127854Y-71964
X128252Y-118598
X128351Y-69721
X128608Y-111004
X128660Y-112587
X128900Y-86300
X128945Y-94191
X129673Y-100479
X129745Y-74982
X129900Y-73000
X129974Y-84499
X130102Y-71385
X130246Y-104949
X130611Y-76069
X130630Y-75153
X130757Y-89436
X130790Y-112178
X130993Y-86559
X131100Y-121450
X131204Y-72204
X131696Y-80379
X131700Y-112700
X131850Y-118500
X131908Y-73209
X132075Y-90675
X132226Y-88796
X132492Y-73963
X132588Y-120797
X132795Y-100123
X132881Y-96819
X132960Y-115108
X133140Y-106093
X133146Y-113196
X133189Y-85807
X133326Y-109565
X133464Y-94531
X133624Y-107557
X133796Y-89865
X133853Y-80646
X133866Y-74057
X133985Y-76638
X133990Y-106676
X134250Y-95779
X134316Y-102917
X134346Y-116954
X134347Y-87842
X134450Y-121450
X134577Y-102035
X134598Y-120552
X135000Y-110650
X135020Y-65520
X135386Y-89610
X135400Y-76000
X135404Y-80783
X135404Y-83104
X135900Y-124900
X135901Y-120452
X135943Y-114255
X136126Y-104275
X136192Y-102000
X136250Y-111950
X136371Y-79477
X136470Y-99532
X136481Y-83201
X136610Y-80885
X136750Y-107650
X136794Y-89489
X136806Y-91673
X137012Y-83987
X137026Y-113347
X137130Y-102054
X137190Y-90406
X137618Y-92213
X137730Y-89308
X137780Y-65660
X137871Y-99696
X137950Y-119952
X137958Y-84108
X138008Y-112396
X138250Y-70750
X138342Y-119042
X138906Y-84000
X139100Y-107350
X139154Y-99227
X139198Y-75704
X139200Y-119392
X139813Y-95596
X140078Y-107078
X140451Y-99967
X140489Y-84200
X140774Y-102433
X140803Y-105641
X140896Y-79000
X141354Y-99954
X141371Y-118755
X141800Y-108979
X141804Y-108064
X141950Y-69500
X142000Y-64250
X142054Y-116593
X142643Y-107737
X142752Y-70048
X143500Y-79000
X144325Y-119620
X144451Y-108195
X144661Y-107054
X145000Y-71250
X145241Y-119706
X145500Y-106500
X145700Y-83900
X145800Y-79900
X145872Y-118999
X146141Y-107230
X146759Y-80066
X146942Y-107869
X147056Y-84806
X147665Y-80304
X147750Y-88600
X148060Y-89550
X148450Y-80547
X148683Y-107876
X148701Y-116191
X148707Y-117145
X148750Y-64500
X148819Y-88250
X149057Y-109891
X149100Y-85426
X149114Y-117988
X149178Y-102050
X149250Y-101250
X149564Y-116540
X149600Y-121100
X149900Y-80300
X150025Y-120225
X150096Y-107849
X150097Y-121850
X150178Y-102050
X150250Y-101250
X150327Y-106980
X150753Y-115240
X151019Y-119194
X151046Y-102000
X151050Y-101264
X151856Y-119594
X151988Y-81962
X152400Y-81000
X153634Y-121638
X153642Y-119194
X154069Y-119986
X154265Y-120988
X154400Y-106750
X154454Y-103250
X154838Y-107575
X155037Y-124008
X155250Y-103250
X155274Y-122855
X155299Y-117782
X155596Y-120156
X155635Y-119251
X155650Y-115250
X156150Y-100950
X156200Y-110200
X157150Y-99650
X157450Y-100850
X157786Y-120862
X157900Y-107850
X158050Y-100050
X158700Y-89800
X158800Y-110000
X158881Y-116431
X159500Y-113800
X159500Y-115500
X159716Y-121497
X160250Y-62250
X161000Y-108300
X161225Y-107254
X161300Y-97500
X161400Y-105000
X162050Y-115800
X162250Y-97250
X162250Y-102250
X162250Y-103250
X163250Y-102250
X163250Y-103250
X163495Y-99850
X163550Y-98900
X163700Y-92700
X163800Y-91800
X163800Y-93600
X163950Y-89550
X164050Y-88450
X164250Y-87450
X164250Y-99800
X164350Y-98300
X164500Y-90500
X164631Y-107278
X165500Y-108400
X166540Y-96150
X166550Y-97050
T3
X125325Y-78015
X125325Y-79290
X125325Y-80565
X126600Y-78015
X126600Y-79290
X126600Y-80565
X127875Y-78015
X127875Y-79290
X127875Y-80565
X144169Y-111991
X144169Y-113266
X144169Y-114541
X145444Y-111991
X145444Y-113266
X145444Y-114541
X146719Y-111991
X146719Y-113266
X146719Y-114541
X157425Y-93400
X157425Y-94700
X158425Y-93400
X158425Y-94700
X159425Y-93400
X159425Y-94700
T4
X78700Y-97700
X79800Y-115400
X81500Y-95000
X83100Y-101100
X88550Y-128650
X91425Y-115925
X91600Y-114200
X93700Y-117600
X100600Y-70900
X101550Y-121100
X103218Y-102682
X103353Y-62603
X103355Y-115404
X103402Y-99748
X104345Y-96306
X107630Y-113191
X109451Y-115942
X109488Y-81888
X110000Y-121300
X110716Y-126863
X112100Y-69100
X112138Y-78071
X114441Y-68916
X119333Y-75533
X120575Y-118667
X121580Y-118938
X122730Y-73358
X124863Y-107623
X129810Y-86694
X132704Y-108145
X133863Y-99479
X136750Y-73000
X140294Y-124467
X143050Y-129250
X146200Y-123250
X149547Y-106436
X151450Y-128850
X153600Y-130200
X160150Y-117850
T5
X92185Y-91800
X92300Y-94550
X93600Y-88800
X100382Y-88901
X111714Y-112870
X115032Y-108444
X115167Y-89297
X117125Y-108075
X122900Y-98609
X131207Y-117599
X134630Y-85530
X137405Y-94268
X138696Y-95532
X139981Y-93972
X140351Y-91718
X140400Y-89000
X143238Y-102167
X143750Y-82000
X144104Y-72263
X144209Y-105150
X144546Y-101700
X145275Y-90042
X145459Y-72950
X146000Y-94750
X146225Y-96563
X147250Y-76450
X147535Y-72783
X148750Y-76450
X149172Y-72637
X150046Y-76450
X151275Y-92450
X153100Y-74000
X155000Y-74750
X156750Y-74750
X158250Y-74750
X160450Y-123500
X165800Y-64550
X167450Y-65500
X168850Y-64300
T7
X84375Y-94425
X84375Y-96500
X84375Y-98575
X84400Y-112875
X84400Y-114950
X84400Y-117025
X86475Y-93775
X86475Y-96500
X86475Y-99225
X86500Y-112225
X86500Y-114950
X86500Y-117675
X88575Y-95000
X88575Y-98000
X88600Y-113450
X88600Y-116450
X109150Y-63200
X109150Y-65740
X109150Y-91660
X109150Y-94200
X109150Y-100500
X109150Y-103040
X109150Y-128960
X109150Y-131500
X111690Y-63200
X111690Y-65740
X111690Y-91660
X111690Y-94200
X111690Y-100500
X111690Y-103040
X111690Y-128960
X111690Y-131500
X114230Y-63200
X114230Y-65740
X114230Y-91660
X114230Y-94200
X114230Y-100500
X114230Y-103040
X114230Y-128960
X114230Y-131500
X116770Y-63200
X116770Y-65740
X116770Y-91660
X116770Y-94200
X116770Y-100500
X116770Y-103040
X116770Y-128960
X116770Y-131500
X119310Y-63200
X119310Y-65740
X119310Y-91660
X119310Y-94200
X119310Y-100500
X119310Y-103040
X119310Y-128960
X119310Y-131500
X169250Y-72350
X169250Y-74890
X169250Y-77430
X169250Y-79970
X169250Y-82510
X169250Y-85050
X169250Y-109650
X169250Y-112190
X169250Y-114730
X169250Y-117270
X169250Y-119810
X169250Y-122350
T8
X82475Y-96500
X82500Y-114950
T9
X80528Y-73114
X80528Y-75654
X80528Y-78194
X80528Y-80734
X80528Y-83274
X80528Y-85814
X87528Y-73114
X87528Y-75654
X87528Y-78194
X87528Y-80734
X87528Y-83274
X87528Y-85814
X98140Y-62650
X98140Y-65190
X98140Y-67730
X98140Y-70270
X98140Y-72810
X98140Y-75350
X98140Y-78927
X98140Y-81467
X98140Y-84007
X98140Y-86547
X98140Y-99920
X98140Y-102460
X98140Y-105000
X98140Y-108600
X98140Y-111140
X98140Y-113680
X98140Y-116220
X98140Y-118760
X98140Y-121300
T10
X123810Y-126012
X126350Y-126012
X128890Y-126012
X132100Y-126012
X134640Y-126012
X137180Y-126012
X141010Y-126012
X143550Y-126012
X146090Y-126012
X149510Y-126012
X152050Y-126012
X154590Y-126012
T11
X157920Y-125862
X160460Y-125862
X163000Y-125862
X165540Y-125862
X168080Y-125862
T12
X92175Y-121800
T6
G00X132130Y-62825
M15
G01X132130Y-62225
M16
G05
G00X132130Y-67255
M15
G01X132130Y-66155
M16
G05
G00X140770Y-62825
M15
G01X140770Y-62225
M16
G05
G00X140770Y-67255
M15
G01X140770Y-66155
M16
G05
G00X145180Y-62825
M15
G01X145180Y-62225
M16
G05
G00X145180Y-67255
M15
G01X145180Y-66155
M16
G05
G00X153820Y-62825
M15
G01X153820Y-62225
M16
G05
G00X153820Y-67255
M15
G01X153820Y-66155
M16
G05
M30
