%TF.GenerationSoftware,KiCad,Pcbnew,8.0.1*%
%TF.CreationDate,2024-08-04T17:14:24+01:00*%
%TF.ProjectId,RP2040_base,52503230-3430-45f6-9261-73652e6b6963,REV1.1*%
%TF.SameCoordinates,Original*%
%TF.FileFunction,Soldermask,Top*%
%TF.FilePolarity,Negative*%
%FSLAX46Y46*%
G04 Gerber Fmt 4.6, Leading zero omitted, Abs format (unit mm)*
G04 Created by KiCad (PCBNEW 8.0.1) date 2024-08-04 17:14:24*
%MOMM*%
%LPD*%
G01*
G04 APERTURE LIST*
G04 Aperture macros list*
%AMRoundRect*
0 Rectangle with rounded corners*
0 $1 Rounding radius*
0 $2 $3 $4 $5 $6 $7 $8 $9 X,Y pos of 4 corners*
0 Add a 4 corners polygon primitive as box body*
4,1,4,$2,$3,$4,$5,$6,$7,$8,$9,$2,$3,0*
0 Add four circle primitives for the rounded corners*
1,1,$1+$1,$2,$3*
1,1,$1+$1,$4,$5*
1,1,$1+$1,$6,$7*
1,1,$1+$1,$8,$9*
0 Add four rect primitives between the rounded corners*
20,1,$1+$1,$2,$3,$4,$5,0*
20,1,$1+$1,$4,$5,$6,$7,0*
20,1,$1+$1,$6,$7,$8,$9,0*
20,1,$1+$1,$8,$9,$2,$3,0*%
G04 Aperture macros list end*
%ADD10RoundRect,0.225000X0.250000X-0.225000X0.250000X0.225000X-0.250000X0.225000X-0.250000X-0.225000X0*%
%ADD11RoundRect,0.225000X0.225000X0.250000X-0.225000X0.250000X-0.225000X-0.250000X0.225000X-0.250000X0*%
%ADD12RoundRect,0.225000X-0.225000X-0.250000X0.225000X-0.250000X0.225000X0.250000X-0.225000X0.250000X0*%
%ADD13RoundRect,0.135000X-0.185000X0.135000X-0.185000X-0.135000X0.185000X-0.135000X0.185000X0.135000X0*%
%ADD14RoundRect,0.150000X0.150000X-0.650000X0.150000X0.650000X-0.150000X0.650000X-0.150000X-0.650000X0*%
%ADD15RoundRect,0.200000X-0.200000X-0.275000X0.200000X-0.275000X0.200000X0.275000X-0.200000X0.275000X0*%
%ADD16RoundRect,0.200000X0.200000X0.275000X-0.200000X0.275000X-0.200000X-0.275000X0.200000X-0.275000X0*%
%ADD17RoundRect,0.050000X0.050000X-0.387500X0.050000X0.387500X-0.050000X0.387500X-0.050000X-0.387500X0*%
%ADD18RoundRect,0.050000X0.387500X-0.050000X0.387500X0.050000X-0.387500X0.050000X-0.387500X-0.050000X0*%
%ADD19RoundRect,0.144000X1.456000X-1.456000X1.456000X1.456000X-1.456000X1.456000X-1.456000X-1.456000X0*%
%ADD20RoundRect,0.243750X-0.243750X-0.456250X0.243750X-0.456250X0.243750X0.456250X-0.243750X0.456250X0*%
%ADD21RoundRect,0.250000X0.250000X0.475000X-0.250000X0.475000X-0.250000X-0.475000X0.250000X-0.475000X0*%
%ADD22RoundRect,0.250000X-0.475000X0.250000X-0.475000X-0.250000X0.475000X-0.250000X0.475000X0.250000X0*%
%ADD23R,0.650000X0.400000*%
%ADD24RoundRect,0.250000X-1.500000X-0.550000X1.500000X-0.550000X1.500000X0.550000X-1.500000X0.550000X0*%
%ADD25RoundRect,0.250000X0.845000X-0.620000X0.845000X0.620000X-0.845000X0.620000X-0.845000X-0.620000X0*%
%ADD26O,2.190000X1.740000*%
%ADD27R,1.460000X4.190000*%
%ADD28R,1.200000X3.760000*%
%ADD29RoundRect,0.200000X-0.275000X0.200000X-0.275000X-0.200000X0.275000X-0.200000X0.275000X0.200000X0*%
%ADD30R,1.200000X0.900000*%
%ADD31R,2.000000X1.500000*%
%ADD32R,2.000000X3.800000*%
%ADD33R,1.450000X0.800000*%
%ADD34RoundRect,0.250000X0.475000X-0.250000X0.475000X0.250000X-0.475000X0.250000X-0.475000X-0.250000X0*%
%ADD35RoundRect,0.225000X-0.250000X0.225000X-0.250000X-0.225000X0.250000X-0.225000X0.250000X0.225000X0*%
%ADD36RoundRect,0.243750X-0.456250X0.243750X-0.456250X-0.243750X0.456250X-0.243750X0.456250X0.243750X0*%
%ADD37R,0.500000X0.375000*%
%ADD38R,0.650000X0.300000*%
%ADD39C,3.900000*%
%ADD40RoundRect,0.100000X-0.637500X-0.100000X0.637500X-0.100000X0.637500X0.100000X-0.637500X0.100000X0*%
%ADD41RoundRect,0.218750X0.218750X0.256250X-0.218750X0.256250X-0.218750X-0.256250X0.218750X-0.256250X0*%
%ADD42RoundRect,0.112500X-0.237500X0.112500X-0.237500X-0.112500X0.237500X-0.112500X0.237500X0.112500X0*%
%ADD43RoundRect,0.250000X-0.250000X-0.475000X0.250000X-0.475000X0.250000X0.475000X-0.250000X0.475000X0*%
%ADD44C,2.000000*%
%ADD45RoundRect,0.200000X0.275000X-0.200000X0.275000X0.200000X-0.275000X0.200000X-0.275000X-0.200000X0*%
%ADD46RoundRect,0.150000X-0.512500X-0.150000X0.512500X-0.150000X0.512500X0.150000X-0.512500X0.150000X0*%
%ADD47RoundRect,0.150000X-0.150000X0.512500X-0.150000X-0.512500X0.150000X-0.512500X0.150000X0.512500X0*%
%ADD48RoundRect,0.112500X0.237500X-0.112500X0.237500X0.112500X-0.237500X0.112500X-0.237500X-0.112500X0*%
%ADD49R,1.700000X1.700000*%
%ADD50O,1.700000X1.700000*%
%ADD51RoundRect,0.150000X0.587500X0.150000X-0.587500X0.150000X-0.587500X-0.150000X0.587500X-0.150000X0*%
%ADD52RoundRect,0.225000X-0.375000X0.225000X-0.375000X-0.225000X0.375000X-0.225000X0.375000X0.225000X0*%
%ADD53R,2.350000X3.500000*%
%ADD54R,0.900000X0.750000*%
%ADD55RoundRect,0.150000X-0.587500X-0.150000X0.587500X-0.150000X0.587500X0.150000X-0.587500X0.150000X0*%
%ADD56R,0.450000X0.700000*%
%ADD57RoundRect,0.150000X0.750000X0.150000X-0.750000X0.150000X-0.750000X-0.150000X0.750000X-0.150000X0*%
%ADD58RoundRect,0.100000X-0.225000X-0.100000X0.225000X-0.100000X0.225000X0.100000X-0.225000X0.100000X0*%
%ADD59R,1.200000X1.400000*%
%ADD60RoundRect,0.150000X-0.200000X0.150000X-0.200000X-0.150000X0.200000X-0.150000X0.200000X0.150000X0*%
%ADD61C,1.800000*%
%ADD62RoundRect,0.150000X0.150000X-0.512500X0.150000X0.512500X-0.150000X0.512500X-0.150000X-0.512500X0*%
%ADD63RoundRect,0.225000X-0.225000X-0.375000X0.225000X-0.375000X0.225000X0.375000X-0.225000X0.375000X0*%
%ADD64RoundRect,0.250000X0.650000X-1.000000X0.650000X1.000000X-0.650000X1.000000X-0.650000X-1.000000X0*%
%ADD65RoundRect,0.250000X-0.650000X1.000000X-0.650000X-1.000000X0.650000X-1.000000X0.650000X1.000000X0*%
%ADD66C,2.200000*%
%ADD67C,2.800000*%
%ADD68C,1.400000*%
%ADD69C,1.500000*%
%ADD70C,0.650000*%
%ADD71R,0.300000X1.150000*%
%ADD72O,1.000000X2.100000*%
%ADD73O,1.000000X1.600000*%
%ADD74C,3.000000*%
%ADD75RoundRect,0.250000X1.100000X-0.325000X1.100000X0.325000X-1.100000X0.325000X-1.100000X-0.325000X0*%
%ADD76RoundRect,0.042000X0.943000X0.258000X-0.943000X0.258000X-0.943000X-0.258000X0.943000X-0.258000X0*%
%ADD77RoundRect,0.250000X2.475000X-0.712500X2.475000X0.712500X-2.475000X0.712500X-2.475000X-0.712500X0*%
%ADD78RoundRect,0.150000X-0.875000X-0.150000X0.875000X-0.150000X0.875000X0.150000X-0.875000X0.150000X0*%
%ADD79R,3.800000X2.000000*%
%ADD80R,4.200000X1.400000*%
%ADD81RoundRect,0.250000X0.325000X1.100000X-0.325000X1.100000X-0.325000X-1.100000X0.325000X-1.100000X0*%
%ADD82R,5.700000X1.700000*%
%ADD83RoundRect,0.150000X0.150000X-0.825000X0.150000X0.825000X-0.150000X0.825000X-0.150000X-0.825000X0*%
%ADD84R,3.000000X2.290000*%
%ADD85RoundRect,0.150000X-0.150000X-0.200000X0.150000X-0.200000X0.150000X0.200000X-0.150000X0.200000X0*%
%ADD86R,0.600000X0.450000*%
%ADD87RoundRect,0.218750X-0.218750X-0.256250X0.218750X-0.256250X0.218750X0.256250X-0.218750X0.256250X0*%
%ADD88RoundRect,0.135000X0.135000X0.185000X-0.135000X0.185000X-0.135000X-0.185000X0.135000X-0.185000X0*%
%ADD89RoundRect,0.250000X-0.325000X-1.100000X0.325000X-1.100000X0.325000X1.100000X-0.325000X1.100000X0*%
%ADD90RoundRect,0.150000X0.512500X0.150000X-0.512500X0.150000X-0.512500X-0.150000X0.512500X-0.150000X0*%
%ADD91R,1.270000X0.760000*%
%ADD92R,0.760000X1.270000*%
%ADD93RoundRect,0.250000X1.000000X-1.950000X1.000000X1.950000X-1.000000X1.950000X-1.000000X-1.950000X0*%
%ADD94RoundRect,0.150000X-0.662500X-0.150000X0.662500X-0.150000X0.662500X0.150000X-0.662500X0.150000X0*%
%ADD95RoundRect,0.150000X-0.650000X-0.150000X0.650000X-0.150000X0.650000X0.150000X-0.650000X0.150000X0*%
%ADD96RoundRect,0.150000X0.200000X-0.150000X0.200000X0.150000X-0.200000X0.150000X-0.200000X-0.150000X0*%
%ADD97RoundRect,0.250000X-1.400000X-1.000000X1.400000X-1.000000X1.400000X1.000000X-1.400000X1.000000X0*%
G04 APERTURE END LIST*
D10*
%TO.C,C34*%
X121980000Y-74390000D03*
X121980000Y-72840000D03*
%TD*%
D11*
%TO.C,C32*%
X121390000Y-76490000D03*
X119840000Y-76490000D03*
%TD*%
%TO.C,C38*%
X130000000Y-85875000D03*
X128450000Y-85875000D03*
%TD*%
D12*
%TO.C,C21*%
X111395000Y-77230000D03*
X112945000Y-77230000D03*
%TD*%
D13*
%TO.C,R42*%
X110150000Y-78550000D03*
X110150000Y-79570000D03*
%TD*%
D14*
%TO.C,U12*%
X111620000Y-86540000D03*
X112890000Y-86540000D03*
X114160000Y-86540000D03*
X115430000Y-86540000D03*
X115430000Y-79340000D03*
X114160000Y-79340000D03*
X112890000Y-79340000D03*
X111620000Y-79340000D03*
%TD*%
D10*
%TO.C,C28*%
X136300000Y-77280000D03*
X136300000Y-75730000D03*
%TD*%
D15*
%TO.C,R41*%
X127090000Y-66840000D03*
X128740000Y-66840000D03*
%TD*%
D11*
%TO.C,C33*%
X119240000Y-78640000D03*
X117690000Y-78640000D03*
%TD*%
D10*
%TO.C,C37*%
X128700000Y-72730000D03*
X128700000Y-71180000D03*
%TD*%
D12*
%TO.C,C39*%
X133210000Y-75000000D03*
X134760000Y-75000000D03*
%TD*%
D16*
%TO.C,R60*%
X133372000Y-69138000D03*
X131722000Y-69138000D03*
%TD*%
D12*
%TO.C,C31*%
X133210000Y-77440000D03*
X134760000Y-77440000D03*
%TD*%
D11*
%TO.C,C36*%
X120925000Y-84050000D03*
X119375000Y-84050000D03*
%TD*%
D10*
%TO.C,C41*%
X120510000Y-74690000D03*
X120510000Y-73140000D03*
%TD*%
D17*
%TO.C,U15*%
X124000000Y-82727500D03*
X124400000Y-82727500D03*
X124800000Y-82727500D03*
X125200000Y-82727500D03*
X125600000Y-82727500D03*
X126000000Y-82727500D03*
X126400000Y-82727500D03*
X126800000Y-82727500D03*
X127200000Y-82727500D03*
X127600000Y-82727500D03*
X128000000Y-82727500D03*
X128400000Y-82727500D03*
X128800000Y-82727500D03*
X129200000Y-82727500D03*
D18*
X130037500Y-81890000D03*
X130037500Y-81490000D03*
X130037500Y-81090000D03*
X130037500Y-80690000D03*
X130037500Y-80290000D03*
X130037500Y-79890000D03*
X130037500Y-79490000D03*
X130037500Y-79090000D03*
X130037500Y-78690000D03*
X130037500Y-78290000D03*
X130037500Y-77890000D03*
X130037500Y-77490000D03*
X130037500Y-77090000D03*
X130037500Y-76690000D03*
D17*
X129200000Y-75852500D03*
X128800000Y-75852500D03*
X128400000Y-75852500D03*
X128000000Y-75852500D03*
X127600000Y-75852500D03*
X127200000Y-75852500D03*
X126800000Y-75852500D03*
X126400000Y-75852500D03*
X126000000Y-75852500D03*
X125600000Y-75852500D03*
X125200000Y-75852500D03*
X124800000Y-75852500D03*
X124400000Y-75852500D03*
X124000000Y-75852500D03*
D18*
X123162500Y-76690000D03*
X123162500Y-77090000D03*
X123162500Y-77490000D03*
X123162500Y-77890000D03*
X123162500Y-78290000D03*
X123162500Y-78690000D03*
X123162500Y-79090000D03*
X123162500Y-79490000D03*
X123162500Y-79890000D03*
X123162500Y-80290000D03*
X123162500Y-80690000D03*
X123162500Y-81090000D03*
X123162500Y-81490000D03*
X123162500Y-81890000D03*
D19*
X126600000Y-79290000D03*
%TD*%
D12*
%TO.C,C27*%
X138250000Y-81150000D03*
X139800000Y-81150000D03*
%TD*%
D16*
%TO.C,R61*%
X133372000Y-70688000D03*
X131722000Y-70688000D03*
%TD*%
D11*
%TO.C,C30*%
X119240000Y-80140000D03*
X117690000Y-80140000D03*
%TD*%
D10*
%TO.C,C40*%
X123450000Y-74390000D03*
X123450000Y-72840000D03*
%TD*%
D15*
%TO.C,R52*%
X133190000Y-79040000D03*
X134840000Y-79040000D03*
%TD*%
D20*
%TO.C,C29*%
X151690500Y-106969000D03*
X153565500Y-106969000D03*
%TD*%
D21*
%TO.C,C91*%
X113725000Y-116505000D03*
X111825000Y-116505000D03*
%TD*%
D15*
%TO.C,R75*%
X118905000Y-88210000D03*
X120555000Y-88210000D03*
%TD*%
D16*
%TO.C,R99*%
X98970000Y-89095000D03*
X97320000Y-89095000D03*
%TD*%
D10*
%TO.C,C54*%
X141514000Y-106661000D03*
X141514000Y-105111000D03*
%TD*%
D22*
%TO.C,C88*%
X114315000Y-72925000D03*
X114315000Y-74825000D03*
%TD*%
D23*
%TO.C,U25*%
X106820001Y-113745001D03*
X106820000Y-113095001D03*
X106820001Y-112445001D03*
X104920001Y-112445001D03*
X104920001Y-113745001D03*
%TD*%
D24*
%TO.C,C115*%
X144585000Y-99640000D03*
X149985000Y-99640000D03*
%TD*%
D25*
%TO.C,J8*%
X98140000Y-105000000D03*
D26*
X98140000Y-102460000D03*
X98140000Y-99920000D03*
%TD*%
D12*
%TO.C,C8*%
X89209999Y-88465001D03*
X90759999Y-88465001D03*
%TD*%
D27*
%TO.C,SW1*%
X122650000Y-63393000D03*
D28*
X124300000Y-63707000D03*
D27*
X129950000Y-63393000D03*
D28*
X128300000Y-63707000D03*
%TD*%
D11*
%TO.C,C20*%
X140980000Y-102880000D03*
X139430000Y-102880000D03*
%TD*%
D29*
%TO.C,R103*%
X144645000Y-77930001D03*
X144645000Y-79580001D03*
%TD*%
D12*
%TO.C,C18*%
X135925000Y-99000000D03*
X137475000Y-99000000D03*
%TD*%
D30*
%TO.C,D37*%
X159086000Y-85520000D03*
X159086000Y-82220000D03*
%TD*%
D31*
%TO.C,U32*%
X142115000Y-96550000D03*
X142115000Y-94250000D03*
D32*
X135815000Y-94250000D03*
D31*
X142115000Y-91950000D03*
%TD*%
D33*
%TO.C,U34*%
X122310000Y-87790000D03*
X122310000Y-89060000D03*
X122310000Y-90330000D03*
X122310000Y-91600000D03*
X127760000Y-91600000D03*
X127760000Y-90330000D03*
X127760000Y-89060000D03*
X127760000Y-87790000D03*
%TD*%
D34*
%TO.C,C87*%
X112105000Y-74825000D03*
X112105000Y-72925000D03*
%TD*%
D22*
%TO.C,C86*%
X91180000Y-90250000D03*
X91180000Y-92150000D03*
%TD*%
D12*
%TO.C,C119*%
X110125000Y-126230001D03*
X111675000Y-126230001D03*
%TD*%
D35*
%TO.C,C62*%
X110391999Y-69725000D03*
X110391999Y-71275000D03*
%TD*%
D17*
%TO.C,U19*%
X142844000Y-116703500D03*
X143244000Y-116703500D03*
X143644000Y-116703500D03*
X144044000Y-116703500D03*
X144444000Y-116703500D03*
X144844000Y-116703500D03*
X145244000Y-116703500D03*
X145644000Y-116703500D03*
X146044000Y-116703500D03*
X146444000Y-116703500D03*
X146844000Y-116703500D03*
X147244000Y-116703500D03*
X147644000Y-116703500D03*
X148044000Y-116703500D03*
D18*
X148881500Y-115866000D03*
X148881500Y-115466000D03*
X148881500Y-115066000D03*
X148881500Y-114666000D03*
X148881500Y-114266000D03*
X148881500Y-113866000D03*
X148881500Y-113466000D03*
X148881500Y-113066000D03*
X148881500Y-112666000D03*
X148881500Y-112266000D03*
X148881500Y-111866000D03*
X148881500Y-111466000D03*
X148881500Y-111066000D03*
X148881500Y-110666000D03*
D17*
X148044000Y-109828500D03*
X147644000Y-109828500D03*
X147244000Y-109828500D03*
X146844000Y-109828500D03*
X146444000Y-109828500D03*
X146044000Y-109828500D03*
X145644000Y-109828500D03*
X145244000Y-109828500D03*
X144844000Y-109828500D03*
X144444000Y-109828500D03*
X144044000Y-109828500D03*
X143644000Y-109828500D03*
X143244000Y-109828500D03*
X142844000Y-109828500D03*
D18*
X142006500Y-110666000D03*
X142006500Y-111066000D03*
X142006500Y-111466000D03*
X142006500Y-111866000D03*
X142006500Y-112266000D03*
X142006500Y-112666000D03*
X142006500Y-113066000D03*
X142006500Y-113466000D03*
X142006500Y-113866000D03*
X142006500Y-114266000D03*
X142006500Y-114666000D03*
X142006500Y-115066000D03*
X142006500Y-115466000D03*
X142006500Y-115866000D03*
D19*
X145444000Y-113266000D03*
%TD*%
D36*
%TO.C,D39*%
X89760000Y-102752500D03*
X89760000Y-104627500D03*
%TD*%
D16*
%TO.C,R17*%
X106230000Y-132705000D03*
X104580000Y-132705000D03*
%TD*%
D15*
%TO.C,R53*%
X108625000Y-111800000D03*
X110275000Y-111800000D03*
%TD*%
D35*
%TO.C,C113*%
X160520001Y-87854999D03*
X160520001Y-89404999D03*
%TD*%
D37*
%TO.C,U28*%
X148825000Y-70597499D03*
D38*
X148900000Y-70059999D03*
D37*
X148825000Y-69522499D03*
X147125000Y-69522499D03*
D38*
X147050000Y-70059999D03*
D37*
X147125000Y-70597499D03*
%TD*%
D39*
%TO.C,H4*%
X80200000Y-64450000D03*
%TD*%
D40*
%TO.C,U35*%
X114712500Y-121310000D03*
X114712500Y-121960000D03*
X114712500Y-122610000D03*
X114712500Y-123260000D03*
X114712500Y-123910000D03*
X114712500Y-124560000D03*
X114712500Y-125210000D03*
X114712500Y-125860000D03*
X120437500Y-125860000D03*
X120437500Y-125210000D03*
X120437500Y-124560000D03*
X120437500Y-123910000D03*
X120437500Y-123260000D03*
X120437500Y-122610000D03*
X120437500Y-121960000D03*
X120437500Y-121310000D03*
%TD*%
D31*
%TO.C,U11*%
X142296826Y-89264466D03*
X142296826Y-86964466D03*
D32*
X135996826Y-86964466D03*
D31*
X142296826Y-84664466D03*
%TD*%
D11*
%TO.C,C121*%
X143125535Y-82526825D03*
X141575535Y-82526825D03*
%TD*%
D41*
%TO.C,FB2*%
X98932500Y-90630000D03*
X97357500Y-90630000D03*
%TD*%
D12*
%TO.C,C114*%
X153355000Y-88040000D03*
X154905000Y-88040000D03*
%TD*%
D42*
%TO.C,Q4*%
X111876841Y-108065000D03*
X111876841Y-109365000D03*
X113876841Y-108715000D03*
%TD*%
D16*
%TO.C,R15*%
X146224999Y-81130000D03*
X144574999Y-81130000D03*
%TD*%
D15*
%TO.C,R55*%
X108625000Y-115140000D03*
X110275000Y-115140000D03*
%TD*%
D16*
%TO.C,R43*%
X139869000Y-69184000D03*
X138219000Y-69184000D03*
%TD*%
D29*
%TO.C,R49*%
X129565000Y-89280000D03*
X129565000Y-90930000D03*
%TD*%
D43*
%TO.C,C112*%
X158065000Y-99245000D03*
X159965000Y-99245000D03*
%TD*%
D44*
%TO.C,J14*%
X149510000Y-126012000D03*
X152050000Y-126012000D03*
X154590000Y-126012000D03*
%TD*%
D45*
%TO.C,R44*%
X130253999Y-68011001D03*
X130253999Y-66361001D03*
%TD*%
D36*
%TO.C,D38*%
X89760000Y-106807500D03*
X89760000Y-108682500D03*
%TD*%
D29*
%TO.C,R19*%
X115385000Y-118329999D03*
X115385000Y-119979999D03*
%TD*%
D46*
%TO.C,U31*%
X156552500Y-118350000D03*
X156552500Y-119300000D03*
X156552500Y-120250000D03*
X158827500Y-120250000D03*
X158827500Y-119300000D03*
X158827500Y-118350000D03*
%TD*%
D16*
%TO.C,R40*%
X157298000Y-66914001D03*
X155648000Y-66914001D03*
%TD*%
D47*
%TO.C,U3*%
X108545000Y-79362500D03*
X107595000Y-79362500D03*
X106645000Y-79362500D03*
X106645000Y-81637500D03*
X107595000Y-81637500D03*
X108545000Y-81637500D03*
%TD*%
D12*
%TO.C,C15*%
X123280000Y-122905000D03*
X124830000Y-122905000D03*
%TD*%
D48*
%TO.C,Q1*%
X147425000Y-122970000D03*
X147425000Y-121670000D03*
X145425000Y-122320000D03*
%TD*%
D45*
%TO.C,R62*%
X101987000Y-73925000D03*
X101987000Y-72275000D03*
%TD*%
%TO.C,R98*%
X156405001Y-89620000D03*
X156405001Y-87970000D03*
%TD*%
D39*
%TO.C,U2*%
X106000000Y-108000000D03*
X106000000Y-124000000D03*
X163800000Y-112200000D03*
X163800000Y-119800000D03*
D49*
X109150000Y-100500000D03*
D50*
X109150000Y-103040000D03*
X111690000Y-100500000D03*
X111690000Y-103040000D03*
X114230000Y-100500000D03*
X114230000Y-103040000D03*
X116770000Y-100500000D03*
X116770000Y-103040000D03*
X119310000Y-100500000D03*
X119310000Y-103040000D03*
D49*
X109150000Y-128960000D03*
D50*
X109150000Y-131500000D03*
X111690000Y-128960000D03*
X111690000Y-131500000D03*
X114230000Y-128960000D03*
X114230000Y-131500000D03*
X116770000Y-128960000D03*
X116770000Y-131500000D03*
X119310000Y-128960000D03*
X119310000Y-131500000D03*
D49*
X169250000Y-109650000D03*
D50*
X169250000Y-112190000D03*
X169250000Y-114730000D03*
X169250000Y-117270000D03*
X169250000Y-119810000D03*
X169250000Y-122350000D03*
%TD*%
D21*
%TO.C,C90*%
X113725000Y-118735000D03*
X111825000Y-118735000D03*
%TD*%
D25*
%TO.C,J4*%
X98140000Y-121300000D03*
D26*
X98140000Y-118760000D03*
X98140000Y-116220000D03*
X98140000Y-113680000D03*
X98140000Y-111140000D03*
X98140000Y-108600000D03*
%TD*%
D51*
%TO.C,Q7*%
X125912500Y-95415000D03*
X125912500Y-93515000D03*
X124037500Y-94465000D03*
%TD*%
D45*
%TO.C,R10*%
X89425000Y-124175000D03*
X89425000Y-122525000D03*
%TD*%
D16*
%TO.C,R2*%
X126250001Y-96975000D03*
X124600001Y-96975000D03*
%TD*%
D22*
%TO.C,C110*%
X145105001Y-93385000D03*
X145105001Y-95285000D03*
%TD*%
D25*
%TO.C,J11*%
X98140000Y-86547000D03*
D26*
X98140000Y-84007000D03*
X98140000Y-81467000D03*
X98140000Y-78927000D03*
%TD*%
D11*
%TO.C,C58*%
X117767000Y-115747000D03*
X116217000Y-115747000D03*
%TD*%
D52*
%TO.C,D45*%
X142645000Y-77720000D03*
X142645000Y-81020000D03*
%TD*%
D25*
%TO.C,J12*%
X87528000Y-85814000D03*
D26*
X87528000Y-83274000D03*
X87528000Y-80734000D03*
X87528000Y-78194000D03*
X87528000Y-75654000D03*
X87528000Y-73114000D03*
%TD*%
D45*
%TO.C,R96*%
X162010001Y-89445000D03*
X162010001Y-87795000D03*
%TD*%
D23*
%TO.C,U6*%
X105955000Y-103130000D03*
X105955000Y-102480000D03*
X105955000Y-101830000D03*
X104055000Y-101830000D03*
X104055000Y-103130000D03*
%TD*%
D53*
%TO.C,L3*%
X154159999Y-92395000D03*
X148109999Y-92395000D03*
%TD*%
D16*
%TO.C,R8*%
X140920000Y-74495000D03*
X139270000Y-74495000D03*
%TD*%
D45*
%TO.C,R22*%
X114010000Y-112495001D03*
X114010000Y-110845001D03*
%TD*%
D12*
%TO.C,C122*%
X144250000Y-91794999D03*
X145800000Y-91794999D03*
%TD*%
%TO.C,C50*%
X151649000Y-112026000D03*
X153199000Y-112026000D03*
%TD*%
D37*
%TO.C,U27*%
X135065000Y-68962499D03*
D38*
X134990000Y-69499999D03*
D37*
X135065000Y-70037499D03*
X136765000Y-70037499D03*
D38*
X136840000Y-69499999D03*
D37*
X136765000Y-68962499D03*
%TD*%
D29*
%TO.C,R67*%
X102600000Y-102065000D03*
X102600000Y-103715000D03*
%TD*%
D45*
%TO.C,R46*%
X143134000Y-66772001D03*
X143134000Y-65122001D03*
%TD*%
D42*
%TO.C,Q2*%
X151065000Y-120175000D03*
X151065000Y-121475000D03*
X153065000Y-120825000D03*
%TD*%
D16*
%TO.C,R97*%
X163495000Y-90920000D03*
X161845000Y-90920000D03*
%TD*%
D10*
%TO.C,C42*%
X154684000Y-111991000D03*
X154684000Y-110441000D03*
%TD*%
D54*
%TO.C,D35*%
X84620000Y-124820000D03*
X84620000Y-126320000D03*
X87320000Y-126320000D03*
X87320000Y-124820000D03*
%TD*%
D35*
%TO.C,C60*%
X116767000Y-69725000D03*
X116767000Y-71275000D03*
%TD*%
%TO.C,C35*%
X129960000Y-100905000D03*
X129960000Y-102455000D03*
%TD*%
D55*
%TO.C,Q8*%
X143607500Y-69165000D03*
X143607500Y-71065000D03*
X145482500Y-70115000D03*
%TD*%
D56*
%TO.C,Q11*%
X102234999Y-113339999D03*
X103534999Y-113339999D03*
X102884999Y-111339999D03*
%TD*%
D35*
%TO.C,C61*%
X113602000Y-69725000D03*
X113602000Y-71275000D03*
%TD*%
D57*
%TO.C,U17*%
X105585000Y-96855000D03*
X105585000Y-95585000D03*
X105585000Y-94315000D03*
X105585000Y-93045000D03*
X94935000Y-93045000D03*
X94935000Y-94315000D03*
X94935000Y-95585000D03*
X94935000Y-96855000D03*
%TD*%
D44*
%TO.C,J13*%
X132100000Y-126012000D03*
X134640000Y-126012000D03*
X137180000Y-126012000D03*
%TD*%
D15*
%TO.C,R65*%
X129987000Y-99420001D03*
X131637000Y-99420001D03*
%TD*%
%TO.C,R20*%
X112105000Y-106590000D03*
X113755000Y-106590000D03*
%TD*%
D55*
%TO.C,D44*%
X122712500Y-117895000D03*
X122712500Y-119795000D03*
X124587500Y-118845000D03*
%TD*%
D15*
%TO.C,R13*%
X110775000Y-124650000D03*
X112425000Y-124650000D03*
%TD*%
D35*
%TO.C,C1*%
X101905000Y-89460000D03*
X101905000Y-91010000D03*
%TD*%
D58*
%TO.C,U4*%
X157150000Y-122425000D03*
X157150000Y-123075000D03*
X157150000Y-123725000D03*
X159050000Y-123725000D03*
X159050000Y-123075000D03*
X159050000Y-122425000D03*
%TD*%
D34*
%TO.C,C13*%
X102465000Y-120675000D03*
X102465000Y-118775000D03*
%TD*%
D16*
%TO.C,R64*%
X123116101Y-96980000D03*
X121466101Y-96980000D03*
%TD*%
D59*
%TO.C,Y2*%
X156494000Y-111496000D03*
X156494000Y-113696000D03*
X158194000Y-113696000D03*
X158194000Y-111496000D03*
%TD*%
D11*
%TO.C,C67*%
X134830000Y-109745000D03*
X133280000Y-109745000D03*
%TD*%
D60*
%TO.C,D32*%
X127695000Y-94860000D03*
X127695000Y-93460000D03*
%TD*%
D10*
%TO.C,C52*%
X140014000Y-106451000D03*
X140014000Y-104901000D03*
%TD*%
D47*
%TO.C,U24*%
X149920000Y-84412503D03*
X148970000Y-84412503D03*
X148020000Y-84412503D03*
X148020000Y-86687503D03*
X148970000Y-86687503D03*
X149920000Y-86687503D03*
%TD*%
D61*
%TO.C,J15*%
X157920000Y-125862000D03*
X160460000Y-125862000D03*
X163000000Y-125862000D03*
X165540000Y-125862000D03*
X168080000Y-125862000D03*
%TD*%
D45*
%TO.C,R48*%
X122055000Y-95290000D03*
X122055000Y-93640000D03*
%TD*%
D35*
%TO.C,C48*%
X147150000Y-105299000D03*
X147150000Y-106849000D03*
%TD*%
%TO.C,C123*%
X89305000Y-119520000D03*
X89305000Y-121070000D03*
%TD*%
D10*
%TO.C,C14*%
X112450711Y-112457132D03*
X112450711Y-110907132D03*
%TD*%
D15*
%TO.C,R74*%
X106675000Y-75790000D03*
X108325000Y-75790000D03*
%TD*%
D47*
%TO.C,U26*%
X137850000Y-100697500D03*
X136900000Y-100697500D03*
X135950000Y-100697500D03*
X135950000Y-102972500D03*
X136900000Y-102972500D03*
X137850000Y-102972500D03*
%TD*%
D45*
%TO.C,R66*%
X131692000Y-111129000D03*
X131692000Y-109479000D03*
%TD*%
%TO.C,R100*%
X102005000Y-84540000D03*
X102005000Y-82890000D03*
%TD*%
D62*
%TO.C,U9*%
X139501000Y-101200800D03*
X140451000Y-101200800D03*
X141401000Y-101200800D03*
X141401000Y-98925800D03*
X140451000Y-98925800D03*
X139501000Y-98925800D03*
%TD*%
D15*
%TO.C,R70*%
X150185001Y-70878001D03*
X151835001Y-70878001D03*
%TD*%
D59*
%TO.C,Y1*%
X138000000Y-77149999D03*
X138000000Y-79349999D03*
X139700000Y-79349999D03*
X139700000Y-77149999D03*
%TD*%
D11*
%TO.C,C49*%
X141179000Y-119178000D03*
X139629000Y-119178000D03*
%TD*%
D45*
%TO.C,R137*%
X119205000Y-119925000D03*
X119205000Y-118275000D03*
%TD*%
D23*
%TO.C,U23*%
X105950000Y-100270000D03*
X105950000Y-99620000D03*
X105950000Y-98970000D03*
X104050000Y-98970000D03*
X104050000Y-100270000D03*
%TD*%
D63*
%TO.C,D43*%
X154270000Y-80325000D03*
X157570000Y-80325000D03*
%TD*%
D25*
%TO.C,J5*%
X80528000Y-85814000D03*
D26*
X80528000Y-83274000D03*
X80528000Y-80734000D03*
X80528000Y-78194000D03*
X80528000Y-75654000D03*
X80528000Y-73114000D03*
%TD*%
D10*
%TO.C,C124*%
X89285000Y-91530000D03*
X89285000Y-89980000D03*
%TD*%
D45*
%TO.C,R21*%
X110374767Y-108339142D03*
X110374767Y-106689142D03*
%TD*%
D64*
%TO.C,D3*%
X92575000Y-86080000D03*
X92575000Y-82080000D03*
%TD*%
D65*
%TO.C,D27*%
X153885000Y-97630001D03*
X153885000Y-101630001D03*
%TD*%
D23*
%TO.C,U10*%
X104490000Y-129920000D03*
X104490000Y-130570000D03*
X104490000Y-131220000D03*
X106390000Y-131220000D03*
X106390000Y-130570000D03*
X106390000Y-129920000D03*
%TD*%
D66*
%TO.C,J17*%
X86500000Y-107450000D03*
D67*
X82500000Y-107450000D03*
D66*
X86500000Y-122450000D03*
D67*
X82500000Y-122450000D03*
D68*
X88600000Y-113450000D03*
X88600000Y-116450000D03*
X86500000Y-117675000D03*
X84400000Y-117025000D03*
X84400000Y-114950000D03*
X84400000Y-112875000D03*
X86500000Y-112225000D03*
X86500000Y-114950000D03*
D69*
X82500000Y-114950000D03*
%TD*%
D70*
%TO.C,J6*%
X152390000Y-66205000D03*
X146610000Y-66205000D03*
D71*
X152850000Y-67270000D03*
X152050000Y-67270000D03*
X150750000Y-67270000D03*
X149750000Y-67270000D03*
X149250000Y-67270000D03*
X148250000Y-67270000D03*
X146950000Y-67270000D03*
X146150000Y-67270000D03*
X146450000Y-67270000D03*
X147250000Y-67270000D03*
X147750000Y-67270000D03*
X148750000Y-67270000D03*
X150250000Y-67270000D03*
X151250000Y-67270000D03*
X151750000Y-67270000D03*
X152550000Y-67270000D03*
D72*
X153820000Y-66705000D03*
D73*
X153820000Y-62525000D03*
D72*
X145180000Y-66705000D03*
D73*
X145180000Y-62525000D03*
%TD*%
D74*
%TO.C,TP2*%
X92175000Y-121800000D03*
%TD*%
D75*
%TO.C,C3*%
X144825000Y-76050000D03*
X144825000Y-73100000D03*
%TD*%
D76*
%TO.C,U22*%
X127790000Y-103427500D03*
X127790000Y-102157500D03*
X127790000Y-100887500D03*
X127790000Y-99617500D03*
X122850000Y-99617500D03*
X122850000Y-100887500D03*
X122850000Y-102157500D03*
X122850000Y-103427500D03*
%TD*%
D15*
%TO.C,R9*%
X103500000Y-128320000D03*
X105150000Y-128320000D03*
%TD*%
D77*
%TO.C,F1*%
X167405000Y-69362500D03*
X167405000Y-62587500D03*
%TD*%
D45*
%TO.C,R14*%
X142365000Y-76320000D03*
X142365000Y-74670000D03*
%TD*%
D29*
%TO.C,R58*%
X112000000Y-69675000D03*
X112000000Y-71325000D03*
%TD*%
D54*
%TO.C,D34*%
X84620000Y-127890000D03*
X84620000Y-129390000D03*
X87320000Y-129390000D03*
X87320000Y-127890000D03*
%TD*%
D35*
%TO.C,C55*%
X100390000Y-89460000D03*
X100390000Y-91010000D03*
%TD*%
D78*
%TO.C,U18*%
X119915000Y-105956000D03*
X119915000Y-107226000D03*
X119915000Y-108496000D03*
X119915000Y-109766000D03*
X119915000Y-111036000D03*
X119915000Y-112306000D03*
X119915000Y-113576000D03*
X119915000Y-114846000D03*
X119915000Y-116116000D03*
X129215000Y-116116000D03*
X129215000Y-114846000D03*
X129215000Y-113576000D03*
X129215000Y-112306000D03*
X129215000Y-111036000D03*
X129215000Y-109766000D03*
X129215000Y-108496000D03*
X129215000Y-107226000D03*
X129215000Y-105956000D03*
%TD*%
D46*
%TO.C,U29*%
X102187500Y-76075000D03*
X102187500Y-77025000D03*
X102187500Y-77975000D03*
X104462500Y-77975000D03*
X104462500Y-77025000D03*
X104462500Y-76075000D03*
%TD*%
D39*
%TO.C,H3*%
X80200000Y-130100000D03*
%TD*%
D45*
%TO.C,R138*%
X102254999Y-116415000D03*
X102254999Y-114765000D03*
%TD*%
D79*
%TO.C,TP22*%
X152335000Y-116790000D03*
%TD*%
D16*
%TO.C,R77*%
X103892000Y-62064000D03*
X102242000Y-62064000D03*
%TD*%
D45*
%TO.C,R16*%
X147670001Y-82754999D03*
X147670001Y-81104999D03*
%TD*%
D80*
%TO.C,L2*%
X155075000Y-86250000D03*
X155075000Y-82550000D03*
%TD*%
D81*
%TO.C,C2*%
X168750000Y-88725000D03*
X165800000Y-88725000D03*
%TD*%
D82*
%TO.C,L1*%
X149925000Y-73710000D03*
X149925000Y-78210000D03*
%TD*%
D66*
%TO.C,J2*%
X86475000Y-89000000D03*
D67*
X82475000Y-89000000D03*
D66*
X86475000Y-104000000D03*
D67*
X82475000Y-104000000D03*
D68*
X88575000Y-95000000D03*
X88575000Y-98000000D03*
X86475000Y-99225000D03*
X84375000Y-98575000D03*
X84375000Y-96500000D03*
X84375000Y-94425000D03*
X86475000Y-93775000D03*
X86475000Y-96500000D03*
D69*
X82475000Y-96500000D03*
%TD*%
D83*
%TO.C,U33*%
X156520000Y-96525000D03*
X157790000Y-96525000D03*
X159060000Y-96525000D03*
X160330000Y-96525000D03*
X160330000Y-91575000D03*
X159060000Y-91575000D03*
X157790000Y-91575000D03*
X156520000Y-91575000D03*
D84*
X158425000Y-94050000D03*
%TD*%
D35*
%TO.C,C47*%
X148756000Y-105325000D03*
X148756000Y-106875000D03*
%TD*%
D85*
%TO.C,D29*%
X149725000Y-119320000D03*
X148325000Y-119320000D03*
%TD*%
D15*
%TO.C,R71*%
X150185000Y-69198000D03*
X151835000Y-69198000D03*
%TD*%
D43*
%TO.C,C95*%
X149215001Y-82434999D03*
X151115001Y-82434999D03*
%TD*%
D12*
%TO.C,C57*%
X116252000Y-109838000D03*
X117802000Y-109838000D03*
%TD*%
D29*
%TO.C,R95*%
X156500000Y-98480000D03*
X156500000Y-100130000D03*
%TD*%
D86*
%TO.C,D31*%
X129580000Y-97730000D03*
X127480000Y-97730000D03*
%TD*%
D51*
%TO.C,D1*%
X95542500Y-90975000D03*
X95542500Y-89075000D03*
X93667500Y-90025000D03*
%TD*%
D10*
%TO.C,C22*%
X131810000Y-102455000D03*
X131810000Y-100905000D03*
%TD*%
%TO.C,C51*%
X143024000Y-106690001D03*
X143024000Y-105140001D03*
%TD*%
D87*
%TO.C,D41*%
X85377500Y-62170000D03*
X86952500Y-62170000D03*
%TD*%
D27*
%TO.C,SW5*%
X155970000Y-63393000D03*
D28*
X157620000Y-63707000D03*
D27*
X163270000Y-63393000D03*
D28*
X161620000Y-63707000D03*
%TD*%
D88*
%TO.C,R51*%
X138066000Y-119082000D03*
X137046000Y-119082000D03*
%TD*%
D55*
%TO.C,D36*%
X133162500Y-118705000D03*
X133162500Y-120605000D03*
X135037500Y-119655000D03*
%TD*%
D11*
%TO.C,C53*%
X137869000Y-111336000D03*
X136319000Y-111336000D03*
%TD*%
D43*
%TO.C,C96*%
X149215000Y-80419999D03*
X151115000Y-80419999D03*
%TD*%
D89*
%TO.C,C111*%
X156975000Y-102510001D03*
X159925000Y-102510001D03*
%TD*%
D44*
%TO.C,J10*%
X141010000Y-126012000D03*
X143550000Y-126012000D03*
X146090000Y-126012000D03*
%TD*%
D15*
%TO.C,R57*%
X108625000Y-118450000D03*
X110275000Y-118450000D03*
%TD*%
D90*
%TO.C,U43*%
X105237500Y-65450000D03*
X105237500Y-64500000D03*
X105237500Y-63550000D03*
X102962500Y-63550000D03*
X102962500Y-64500000D03*
X102962500Y-65450000D03*
%TD*%
D29*
%TO.C,R68*%
X102525000Y-98870000D03*
X102525000Y-100520000D03*
%TD*%
D12*
%TO.C,C63*%
X108675000Y-116813000D03*
X110225000Y-116813000D03*
%TD*%
D54*
%TO.C,D33*%
X84620000Y-130910000D03*
X84620000Y-132410000D03*
X87320000Y-132410000D03*
X87320000Y-130910000D03*
%TD*%
D91*
%TO.C,SW3*%
X94185000Y-125300000D03*
X94185000Y-126570000D03*
X94185000Y-127840000D03*
X94185000Y-129110000D03*
X94185000Y-130380000D03*
X94185000Y-131650000D03*
X101805000Y-131650000D03*
X101805000Y-130380000D03*
X101805000Y-129110000D03*
X101805000Y-127840000D03*
X101805000Y-126570000D03*
X101805000Y-125300000D03*
%TD*%
D15*
%TO.C,R11*%
X110775000Y-121450000D03*
X112425000Y-121450000D03*
%TD*%
D11*
%TO.C,C43*%
X134839001Y-111338000D03*
X133289001Y-111338000D03*
%TD*%
D15*
%TO.C,R79*%
X105575000Y-119590001D03*
X107225000Y-119590001D03*
%TD*%
D25*
%TO.C,J3*%
X98140000Y-75350000D03*
D26*
X98140000Y-72810000D03*
X98140000Y-70270000D03*
X98140000Y-67730000D03*
X98140000Y-65190000D03*
X98140000Y-62650000D03*
%TD*%
D10*
%TO.C,C46*%
X139134000Y-109439000D03*
X139134000Y-107889000D03*
%TD*%
D35*
%TO.C,C4*%
X155545000Y-122305000D03*
X155545000Y-123855000D03*
%TD*%
D22*
%TO.C,C12*%
X91695000Y-72975000D03*
X91695000Y-74875000D03*
%TD*%
D92*
%TO.C,SW4*%
X90170001Y-70080000D03*
X90170001Y-62460000D03*
%TD*%
D21*
%TO.C,C92*%
X113725000Y-114295000D03*
X111825000Y-114295000D03*
%TD*%
D59*
%TO.C,Y3*%
X117679000Y-113874000D03*
X117679000Y-111674000D03*
X115979000Y-111674000D03*
X115979000Y-113874000D03*
%TD*%
D29*
%TO.C,R54*%
X118250000Y-69575000D03*
X118250000Y-71225000D03*
%TD*%
%TO.C,R18*%
X117020000Y-118330000D03*
X117020000Y-119980000D03*
%TD*%
D93*
%TO.C,C120*%
X165919698Y-100725001D03*
X165919698Y-93325001D03*
%TD*%
D35*
%TO.C,C98*%
X151485000Y-84910001D03*
X151485000Y-86460001D03*
%TD*%
D15*
%TO.C,R23*%
X122880000Y-121365000D03*
X124530000Y-121365000D03*
%TD*%
D29*
%TO.C,R56*%
X115190000Y-69675000D03*
X115190000Y-71325000D03*
%TD*%
D22*
%TO.C,C89*%
X116525000Y-72925000D03*
X116525000Y-74825000D03*
%TD*%
D12*
%TO.C,C23*%
X108675000Y-113537000D03*
X110225000Y-113537000D03*
%TD*%
D34*
%TO.C,C94*%
X146199999Y-86670001D03*
X146199999Y-84770001D03*
%TD*%
D12*
%TO.C,C45*%
X151659000Y-110526000D03*
X153209000Y-110526000D03*
%TD*%
D11*
%TO.C,C19*%
X158169000Y-115516000D03*
X156619000Y-115516000D03*
%TD*%
D10*
%TO.C,C44*%
X136725000Y-109738999D03*
X136725000Y-108188999D03*
%TD*%
D39*
%TO.C,U1*%
X106000000Y-70700000D03*
X106000000Y-86700000D03*
X163800000Y-74900000D03*
X163800000Y-82500000D03*
D49*
X109150000Y-63200000D03*
D50*
X109150000Y-65740000D03*
X111690000Y-63200000D03*
X111690000Y-65740000D03*
X114230000Y-63200000D03*
X114230000Y-65740000D03*
X116770000Y-63200000D03*
X116770000Y-65740000D03*
X119310000Y-63200000D03*
X119310000Y-65740000D03*
D49*
X109150000Y-91660000D03*
D50*
X109150000Y-94200000D03*
X111690000Y-91660000D03*
X111690000Y-94200000D03*
X114230000Y-91660000D03*
X114230000Y-94200000D03*
X116770000Y-91660000D03*
X116770000Y-94200000D03*
X119310000Y-91660000D03*
X119310000Y-94200000D03*
D49*
X169250000Y-72350000D03*
D50*
X169250000Y-74890000D03*
X169250000Y-77430000D03*
X169250000Y-79970000D03*
X169250000Y-82510000D03*
X169250000Y-85050000D03*
%TD*%
D55*
%TO.C,Q3*%
X115617500Y-106390000D03*
X115617500Y-108290000D03*
X117492501Y-107340000D03*
%TD*%
D15*
%TO.C,R12*%
X110775000Y-123050000D03*
X112425000Y-123050000D03*
%TD*%
D12*
%TO.C,C97*%
X144635000Y-82820000D03*
X146185000Y-82820000D03*
%TD*%
D94*
%TO.C,U16*%
X135157500Y-71530000D03*
X135157500Y-72800000D03*
X141532500Y-72800000D03*
X141532500Y-71530000D03*
%TD*%
D12*
%TO.C,C56*%
X131295000Y-104930000D03*
X132845000Y-104930000D03*
%TD*%
D45*
%TO.C,R72*%
X131300000Y-108000000D03*
X131300000Y-106350000D03*
%TD*%
D22*
%TO.C,C24*%
X144591825Y-88294466D03*
X144591825Y-90194466D03*
%TD*%
D12*
%TO.C,C64*%
X108675001Y-119948000D03*
X110225001Y-119948000D03*
%TD*%
D45*
%TO.C,R106*%
X144379001Y-86236002D03*
X144379001Y-84586002D03*
%TD*%
D95*
%TO.C,U13*%
X131702000Y-113128000D03*
X131702000Y-114398000D03*
X131702000Y-115668000D03*
X131702000Y-116938000D03*
X138902000Y-116938000D03*
X138902000Y-115668000D03*
X138902000Y-114398000D03*
X138902000Y-113128000D03*
%TD*%
D16*
%TO.C,R76*%
X131125000Y-87790000D03*
X129475000Y-87790000D03*
%TD*%
D47*
%TO.C,U30*%
X106204999Y-115517500D03*
X105255000Y-115517500D03*
X104305001Y-115517500D03*
X104305001Y-117792500D03*
X105255000Y-117792500D03*
X106204999Y-117792500D03*
%TD*%
D29*
%TO.C,R63*%
X102012000Y-66925000D03*
X102012000Y-68575000D03*
%TD*%
D51*
%TO.C,D40*%
X104142500Y-81425000D03*
X104142500Y-79525000D03*
X102267500Y-80475000D03*
%TD*%
D96*
%TO.C,D28*%
X117335000Y-87970000D03*
X117335000Y-89370000D03*
%TD*%
D70*
%TO.C,J1*%
X139340000Y-66205000D03*
X133560000Y-66205000D03*
D71*
X139800000Y-67270000D03*
X139000000Y-67270000D03*
X137700000Y-67270000D03*
X136700000Y-67270000D03*
X136200000Y-67270000D03*
X135200000Y-67270000D03*
X133900000Y-67270000D03*
X133100000Y-67270000D03*
X133400000Y-67270000D03*
X134200000Y-67270000D03*
X134700000Y-67270000D03*
X135700000Y-67270000D03*
X137200000Y-67270000D03*
X138200000Y-67270000D03*
X138700000Y-67270000D03*
X139500000Y-67270000D03*
D72*
X140770000Y-66705000D03*
D73*
X140770000Y-62525000D03*
D72*
X132130000Y-66705000D03*
D73*
X132130000Y-62525000D03*
%TD*%
D15*
%TO.C,R47*%
X152039000Y-113526000D03*
X153689000Y-113526000D03*
%TD*%
D97*
%TO.C,D4*%
X156825000Y-69970000D03*
X156825000Y-76770000D03*
%TD*%
D60*
%TO.C,D30*%
X148885000Y-122060000D03*
X148885000Y-120660000D03*
%TD*%
D44*
%TO.C,J9*%
X123810000Y-126012000D03*
X126350000Y-126012000D03*
X128890000Y-126012000D03*
%TD*%
M02*
