M48
; DRILL file {KiCad 8.0.1} date 2024-08-04T17:14:24+0100
; FORMAT={-:-/ absolute / metric / decimal}
; #@! TF.CreationDate,2024-08-04T17:14:24+01:00
; #@! TF.GenerationSoftware,Kicad,Pcbnew,8.0.1
; #@! TF.FileFunction,Plated,1,4,PTH
FMAT,2
METRIC
; #@! TA.AperFunction,Plated,PTH,ViaDrill
T1C0.250
; #@! TA.AperFunction,Plated,PTH,ViaDrill
T2C0.300
; #@! TA.AperFunction,Plated,PTH,ComponentDrill
T3C0.300
; #@! TA.AperFunction,Plated,PTH,ViaDrill
T4C0.400
; #@! TA.AperFunction,Plated,PTH,ViaDrill
T5C0.600
; #@! TA.AperFunction,Plated,PTH,ComponentDrill
T6C0.600
; #@! TA.AperFunction,Plated,PTH,ComponentDrill
T7C1.000
; #@! TA.AperFunction,Plated,PTH,ComponentDrill
T8C1.100
; #@! TA.AperFunction,Plated,PTH,ComponentDrill
T9C1.190
; #@! TA.AperFunction,Plated,PTH,ComponentDrill
T10C1.200
; #@! TA.AperFunction,Plated,PTH,ComponentDrill
T11C1.300
; #@! TA.AperFunction,Plated,PTH,ComponentDrill
T12C1.600
%
G90
G05
T1
X111.3Y-61.55
X120.463Y-64.087
X121.648Y-124.281
X121.659Y-120.983
X121.978Y-125.082
X121.988Y-122.611
X122.1Y-123.513
X123.791Y-66.566
X123.9Y-95.8
X123.905Y-64.575
X124.675Y-66.69
X125.75Y-63.7
X126.179Y-64.565
X126.868Y-66.029
X128.757Y-65.822
X132.5Y-84.479
X135.794Y-70.64
X136.092Y-65.632
X138.9Y-112.303
X139.883Y-110.877
X144.8Y-85.0
X145.723Y-68.7
X147.32Y-68.55
X147.6Y-87.3
X148.03Y-71.0
X148.159Y-65.856
X149.517Y-65.729
X152.331Y-109.11
X153.377Y-108.881
X153.482Y-70.618
X154.118Y-69.982
X154.281Y-108.902
X157.6Y-106.5
X163.4Y-105.95
X163.4Y-106.85
T2
X78.0Y-89.0
X78.0Y-92.0
X78.0Y-95.0
X78.9Y-113.6
X80.0Y-119.0
X80.0Y-125.0
X80.8Y-91.25
X81.0Y-114.0
X81.0Y-115.8
X81.9Y-97.8
X82.0Y-101.8
X82.4Y-126.5
X83.5Y-125.0
X83.6Y-110.0
X84.15Y-92.604
X84.65Y-90.1
X85.0Y-101.0
X85.2Y-110.0
X87.85Y-119.55
X88.15Y-88.4
X88.15Y-93.7
X88.629Y-110.529
X88.65Y-120.75
X88.95Y-70.9
X89.371Y-111.271
X89.6Y-93.95
X90.0Y-130.154
X90.55Y-93.6
X90.6Y-87.4
X90.8Y-84.0
X90.9Y-98.9
X91.0Y-81.0
X91.028Y-112.872
X91.349Y-97.304
X92.0Y-126.0
X92.1Y-73.0
X92.2Y-69.1
X92.3Y-131.0
X92.371Y-97.571
X92.4Y-63.4
X92.4Y-64.9
X92.6Y-74.6
X93.0Y-111.0
X93.05Y-108.05
X93.65Y-66.65
X93.75Y-71.3
X94.2Y-84.3
X94.4Y-115.5
X94.5Y-78.0
X94.692Y-110.95
X94.692Y-112.558
X94.95Y-102.5
X94.95Y-104.65
X95.0Y-100.0
X95.1Y-97.9
X95.3Y-131.65
X95.319Y-127.546
X95.4Y-87.6
X95.637Y-107.237
X95.695Y-70.9
X95.7Y-79.5
X96.045Y-67.65
X96.071Y-75.071
X97.6Y-96.806
X97.7Y-92.15
X98.0Y-123.9
X98.719Y-127.546
X98.9Y-96.104
X99.545Y-94.466
X99.55Y-91.7
X99.783Y-85.822
X99.939Y-80.916
X99.966Y-93.578
X100.15Y-107.1
X100.25Y-108.8
X100.25Y-114.55
X100.376Y-86.5
X100.38Y-116.857
X100.4Y-79.543
X100.65Y-110.95
X100.75Y-132.95
X100.839Y-121.8
X100.9Y-96.0
X101.139Y-85.248
X101.215Y-76.756
X101.35Y-82.3
X101.604Y-66.08
X101.866Y-87.491
X102.121Y-70.025
X102.447Y-81.779
X102.489Y-95.355
X102.7Y-126.5
X102.918Y-77.896
X103.0Y-129.1
X103.313Y-132.446
X103.349Y-130.667
X103.446Y-67.204
X103.592Y-131.534
X104.1Y-119.23
X104.445Y-93.584
X104.9Y-98.6
X105.1Y-62.95
X105.155Y-99.649
X105.243Y-100.849
X105.509Y-114.534
X105.542Y-64.495
X105.675Y-77.816
X105.705Y-76.31
X105.824Y-98.854
X106.0Y-65.696
X106.196Y-101.3
X106.25Y-79.2
X106.284Y-81.0
X106.372Y-76.992
X107.454Y-115.3
X107.962Y-117.787
X107.992Y-119.458
X108.199Y-77.655
X108.303Y-80.701
X108.753Y-113.63
X108.775Y-98.55
X108.95Y-78.5
X109.276Y-110.191
X109.423Y-72.656
X109.554Y-77.51
X109.636Y-119.379
X109.661Y-69.4
X109.747Y-67.946
X109.803Y-122.858
X109.958Y-85.104
X110.018Y-123.833
X110.314Y-87.352
X110.65Y-93.05
X110.739Y-86.558
X110.891Y-85.15
X111.154Y-88.426
X111.369Y-74.396
X111.398Y-80.687
X112.255Y-85.381
X112.325Y-81.154
X112.406Y-70.749
X112.409Y-83.352
X112.582Y-123.625
X112.75Y-67.35
X113.045Y-90.223
X113.109Y-80.687
X113.137Y-98.554
X113.15Y-127.9
X113.195Y-114.301
X113.207Y-84.107
X113.245Y-122.352
X113.396Y-124.368
X113.501Y-85.313
X113.55Y-109.8
X113.584Y-125.776
X113.6Y-74.425
X113.694Y-77.19
X113.75Y-81.65
X113.852Y-117.455
X113.94Y-123.271
X114.123Y-118.895
X114.478Y-70.499
X114.752Y-81.537
X114.85Y-67.167
X114.856Y-82.534
X115.4Y-93.3
X115.619Y-83.041
X115.695Y-74.424
X116.0Y-84.9
X116.025Y-116.475
X116.292Y-70.305
X116.683Y-79.904
X117.066Y-121.67
X117.189Y-86.666
X117.194Y-67.083
X117.443Y-125.978
X117.647Y-109.531
X118.004Y-116.772
X118.05Y-90.25
X118.053Y-84.347
X118.341Y-79.366
X118.365Y-126.348
X118.492Y-71.612
X118.542Y-86.692
X118.669Y-83.619
X118.95Y-70.4
X120.062Y-80.209
X120.078Y-74.119
X120.25Y-70.25
X120.341Y-83.565
X120.603Y-117.474
X120.7Y-90.2
X120.737Y-86.638
X121.171Y-68.386
X121.45Y-86.004
X121.46Y-94.66
X121.506Y-116.229
X121.575Y-109.775
X122.091Y-77.24
X122.142Y-85.3
X122.425Y-115.575
X122.55Y-109.825
X122.857Y-113.299
X122.913Y-70.663
X123.066Y-93.295
X123.137Y-114.154
X123.167Y-84.404
X123.275Y-109.025
X123.304Y-112.371
X123.354Y-74.982
X123.583Y-110.887
X123.621Y-89.736
X123.624Y-87.881
X123.8Y-118.0
X124.412Y-71.352
X124.491Y-98.454
X124.812Y-91.084
X124.874Y-119.4
X125.01Y-88.348
X125.032Y-106.382
X125.07Y-116.186
X125.184Y-130.454
X125.231Y-71.842
X125.258Y-85.436
X125.3Y-132.662
X125.575Y-124.225
X125.631Y-90.3
X125.7Y-73.0
X125.832Y-98.405
X125.983Y-87.916
X126.02Y-121.998
X126.314Y-102.701
X126.393Y-88.823
X126.454Y-111.484
X126.504Y-113.214
X126.757Y-109.672
X126.786Y-110.638
X126.786Y-112.331
X126.831Y-63.261
X127.1Y-108.525
X127.253Y-69.692
X127.854Y-71.964
X128.252Y-118.598
X128.351Y-69.721
X128.608Y-111.004
X128.66Y-112.587
X128.9Y-86.3
X128.945Y-94.191
X129.673Y-100.479
X129.745Y-74.982
X129.9Y-73.0
X129.974Y-84.499
X130.102Y-71.385
X130.246Y-104.949
X130.611Y-76.069
X130.63Y-75.153
X130.757Y-89.436
X130.79Y-112.178
X130.993Y-86.559
X131.1Y-121.45
X131.204Y-72.204
X131.696Y-80.379
X131.7Y-112.7
X131.85Y-118.5
X131.908Y-73.209
X132.075Y-90.675
X132.226Y-88.796
X132.492Y-73.963
X132.588Y-120.797
X132.795Y-100.123
X132.881Y-96.819
X132.96Y-115.108
X133.14Y-106.093
X133.146Y-113.196
X133.189Y-85.807
X133.326Y-109.565
X133.464Y-94.531
X133.624Y-107.557
X133.796Y-89.865
X133.853Y-80.646
X133.866Y-74.057
X133.985Y-76.638
X133.99Y-106.676
X134.25Y-95.779
X134.316Y-102.917
X134.346Y-116.954
X134.347Y-87.842
X134.45Y-121.45
X134.577Y-102.035
X134.598Y-120.552
X135.0Y-110.65
X135.02Y-65.52
X135.386Y-89.61
X135.4Y-76.0
X135.404Y-80.783
X135.404Y-83.104
X135.9Y-124.9
X135.901Y-120.452
X135.943Y-114.255
X136.126Y-104.275
X136.192Y-102.0
X136.25Y-111.95
X136.371Y-79.477
X136.47Y-99.532
X136.481Y-83.201
X136.61Y-80.885
X136.75Y-107.65
X136.794Y-89.489
X136.806Y-91.673
X137.012Y-83.987
X137.026Y-113.347
X137.13Y-102.054
X137.19Y-90.406
X137.618Y-92.213
X137.73Y-89.308
X137.78Y-65.66
X137.871Y-99.696
X137.95Y-119.952
X137.958Y-84.108
X138.008Y-112.396
X138.25Y-70.75
X138.342Y-119.042
X138.906Y-84.0
X139.1Y-107.35
X139.154Y-99.227
X139.198Y-75.704
X139.2Y-119.392
X139.813Y-95.596
X140.078Y-107.078
X140.451Y-99.967
X140.489Y-84.2
X140.774Y-102.433
X140.803Y-105.641
X140.896Y-79.0
X141.354Y-99.954
X141.371Y-118.755
X141.8Y-108.979
X141.804Y-108.064
X141.95Y-69.5
X142.0Y-64.25
X142.054Y-116.593
X142.643Y-107.737
X142.752Y-70.048
X143.5Y-79.0
X144.325Y-119.62
X144.451Y-108.195
X144.661Y-107.054
X145.0Y-71.25
X145.241Y-119.706
X145.5Y-106.5
X145.7Y-83.9
X145.8Y-79.9
X145.872Y-118.999
X146.141Y-107.23
X146.759Y-80.066
X146.942Y-107.869
X147.056Y-84.806
X147.665Y-80.304
X147.75Y-88.6
X148.06Y-89.55
X148.45Y-80.547
X148.683Y-107.876
X148.701Y-116.191
X148.707Y-117.145
X148.75Y-64.5
X148.819Y-88.25
X149.057Y-109.891
X149.1Y-85.425
X149.114Y-117.988
X149.178Y-102.05
X149.25Y-101.25
X149.564Y-116.54
X149.6Y-121.1
X149.9Y-80.3
X150.025Y-120.225
X150.096Y-107.849
X150.097Y-121.85
X150.178Y-102.05
X150.25Y-101.25
X150.327Y-106.98
X150.753Y-115.24
X151.019Y-119.194
X151.046Y-102.0
X151.05Y-101.264
X151.856Y-119.594
X151.988Y-81.962
X152.4Y-81.0
X153.634Y-121.638
X153.642Y-119.194
X154.069Y-119.986
X154.265Y-120.988
X154.4Y-106.75
X154.454Y-103.25
X154.838Y-107.575
X155.037Y-124.008
X155.25Y-103.25
X155.274Y-122.855
X155.299Y-117.782
X155.596Y-120.156
X155.635Y-119.251
X155.65Y-115.25
X156.15Y-100.95
X156.2Y-110.2
X157.15Y-99.65
X157.45Y-100.85
X157.786Y-120.862
X157.9Y-107.85
X158.05Y-100.05
X158.7Y-89.8
X158.8Y-110.0
X158.881Y-116.431
X159.5Y-113.8
X159.5Y-115.5
X159.716Y-121.497
X160.25Y-62.25
X161.0Y-108.3
X161.225Y-107.254
X161.3Y-97.5
X161.4Y-105.0
X162.05Y-115.8
X162.25Y-97.25
X162.25Y-102.25
X162.25Y-103.25
X163.25Y-102.25
X163.25Y-103.25
X163.495Y-99.85
X163.55Y-98.9
X163.7Y-92.7
X163.8Y-91.8
X163.8Y-93.6
X163.95Y-89.55
X164.05Y-88.45
X164.25Y-87.45
X164.25Y-99.8
X164.35Y-98.3
X164.5Y-90.5
X164.631Y-107.278
X165.5Y-108.4
X166.54Y-96.15
X166.55Y-97.05
T3
X125.325Y-78.015
X125.325Y-79.29
X125.325Y-80.565
X126.6Y-78.015
X126.6Y-79.29
X126.6Y-80.565
X127.875Y-78.015
X127.875Y-79.29
X127.875Y-80.565
X144.169Y-111.991
X144.169Y-113.266
X144.169Y-114.541
X145.444Y-111.991
X145.444Y-113.266
X145.444Y-114.541
X146.719Y-111.991
X146.719Y-113.266
X146.719Y-114.541
X157.425Y-93.4
X157.425Y-94.7
X158.425Y-93.4
X158.425Y-94.7
X159.425Y-93.4
X159.425Y-94.7
T4
X78.7Y-97.7
X79.8Y-115.4
X81.5Y-95.0
X83.1Y-101.1
X88.55Y-128.65
X91.425Y-115.925
X91.6Y-114.2
X93.7Y-117.6
X100.6Y-70.9
X101.55Y-121.1
X103.218Y-102.682
X103.353Y-62.603
X103.355Y-115.404
X103.402Y-99.748
X104.345Y-96.306
X107.63Y-113.191
X109.451Y-115.942
X109.488Y-81.888
X110.0Y-121.3
X110.716Y-126.863
X112.1Y-69.1
X112.138Y-78.071
X114.441Y-68.916
X119.333Y-75.533
X120.575Y-118.667
X121.58Y-118.938
X122.73Y-73.358
X124.863Y-107.623
X129.81Y-86.694
X132.704Y-108.145
X133.863Y-99.479
X136.75Y-73.0
X140.294Y-124.467
X143.05Y-129.25
X146.2Y-123.25
X149.547Y-106.436
X151.45Y-128.85
X153.6Y-130.2
X160.15Y-117.85
T5
X92.185Y-91.8
X92.3Y-94.55
X93.6Y-88.8
X100.382Y-88.901
X111.714Y-112.87
X115.032Y-108.444
X115.167Y-89.297
X117.125Y-108.075
X122.9Y-98.609
X131.207Y-117.599
X134.63Y-85.53
X137.405Y-94.268
X138.696Y-95.532
X139.981Y-93.972
X140.351Y-91.718
X140.4Y-89.0
X143.238Y-102.167
X143.75Y-82.0
X144.104Y-72.263
X144.209Y-105.15
X144.546Y-101.7
X145.275Y-90.042
X145.459Y-72.95
X146.0Y-94.75
X146.225Y-96.562
X147.25Y-76.45
X147.535Y-72.783
X148.75Y-76.45
X149.172Y-72.637
X150.046Y-76.45
X151.275Y-92.45
X153.1Y-74.0
X155.0Y-74.75
X156.75Y-74.75
X158.25Y-74.75
X160.45Y-123.5
X165.8Y-64.55
X167.45Y-65.5
X168.85Y-64.3
T7
X84.375Y-94.425
X84.375Y-96.5
X84.375Y-98.575
X84.4Y-112.875
X84.4Y-114.95
X84.4Y-117.025
X86.475Y-93.775
X86.475Y-96.5
X86.475Y-99.225
X86.5Y-112.225
X86.5Y-114.95
X86.5Y-117.675
X88.575Y-95.0
X88.575Y-98.0
X88.6Y-113.45
X88.6Y-116.45
X109.15Y-63.2
X109.15Y-65.74
X109.15Y-91.66
X109.15Y-94.2
X109.15Y-100.5
X109.15Y-103.04
X109.15Y-128.96
X109.15Y-131.5
X111.69Y-63.2
X111.69Y-65.74
X111.69Y-91.66
X111.69Y-94.2
X111.69Y-100.5
X111.69Y-103.04
X111.69Y-128.96
X111.69Y-131.5
X114.23Y-63.2
X114.23Y-65.74
X114.23Y-91.66
X114.23Y-94.2
X114.23Y-100.5
X114.23Y-103.04
X114.23Y-128.96
X114.23Y-131.5
X116.77Y-63.2
X116.77Y-65.74
X116.77Y-91.66
X116.77Y-94.2
X116.77Y-100.5
X116.77Y-103.04
X116.77Y-128.96
X116.77Y-131.5
X119.31Y-63.2
X119.31Y-65.74
X119.31Y-91.66
X119.31Y-94.2
X119.31Y-100.5
X119.31Y-103.04
X119.31Y-128.96
X119.31Y-131.5
X169.25Y-72.35
X169.25Y-74.89
X169.25Y-77.43
X169.25Y-79.97
X169.25Y-82.51
X169.25Y-85.05
X169.25Y-109.65
X169.25Y-112.19
X169.25Y-114.73
X169.25Y-117.27
X169.25Y-119.81
X169.25Y-122.35
T8
X82.475Y-96.5
X82.5Y-114.95
T9
X80.528Y-73.114
X80.528Y-75.654
X80.528Y-78.194
X80.528Y-80.734
X80.528Y-83.274
X80.528Y-85.814
X87.528Y-73.114
X87.528Y-75.654
X87.528Y-78.194
X87.528Y-80.734
X87.528Y-83.274
X87.528Y-85.814
X98.14Y-62.65
X98.14Y-65.19
X98.14Y-67.73
X98.14Y-70.27
X98.14Y-72.81
X98.14Y-75.35
X98.14Y-78.927
X98.14Y-81.467
X98.14Y-84.007
X98.14Y-86.547
X98.14Y-99.92
X98.14Y-102.46
X98.14Y-105.0
X98.14Y-108.6
X98.14Y-111.14
X98.14Y-113.68
X98.14Y-116.22
X98.14Y-118.76
X98.14Y-121.3
T10
X123.81Y-126.012
X126.35Y-126.012
X128.89Y-126.012
X132.1Y-126.012
X134.64Y-126.012
X137.18Y-126.012
X141.01Y-126.012
X143.55Y-126.012
X146.09Y-126.012
X149.51Y-126.012
X152.05Y-126.012
X154.59Y-126.012
T11
X157.92Y-125.862
X160.46Y-125.862
X163.0Y-125.862
X165.54Y-125.862
X168.08Y-125.862
T12
X92.175Y-121.8
T6
G00X132.13Y-62.825
M15
G01X132.13Y-62.225
M16
G05
G00X132.13Y-67.255
M15
G01X132.13Y-66.155
M16
G05
G00X140.77Y-62.825
M15
G01X140.77Y-62.225
M16
G05
G00X140.77Y-67.255
M15
G01X140.77Y-66.155
M16
G05
G00X145.18Y-62.825
M15
G01X145.18Y-62.225
M16
G05
G00X145.18Y-67.255
M15
G01X145.18Y-66.155
M16
G05
G00X153.82Y-62.825
M15
G01X153.82Y-62.225
M16
G05
G00X153.82Y-67.255
M15
G01X153.82Y-66.155
M16
G05
M30
