%TF.GenerationSoftware,KiCad,Pcbnew,8.0.1*%
%TF.CreationDate,2024-08-04T17:14:23+01:00*%
%TF.ProjectId,RP2040_base,52503230-3430-45f6-9261-73652e6b6963,REV1.1*%
%TF.SameCoordinates,Original*%
%TF.FileFunction,Soldermask,Bot*%
%TF.FilePolarity,Negative*%
%FSLAX46Y46*%
G04 Gerber Fmt 4.6, Leading zero omitted, Abs format (unit mm)*
G04 Created by KiCad (PCBNEW 8.0.1) date 2024-08-04 17:14:23*
%MOMM*%
%LPD*%
G01*
G04 APERTURE LIST*
G04 Aperture macros list*
%AMRoundRect*
0 Rectangle with rounded corners*
0 $1 Rounding radius*
0 $2 $3 $4 $5 $6 $7 $8 $9 X,Y pos of 4 corners*
0 Add a 4 corners polygon primitive as box body*
4,1,4,$2,$3,$4,$5,$6,$7,$8,$9,$2,$3,0*
0 Add four circle primitives for the rounded corners*
1,1,$1+$1,$2,$3*
1,1,$1+$1,$4,$5*
1,1,$1+$1,$6,$7*
1,1,$1+$1,$8,$9*
0 Add four rect primitives between the rounded corners*
20,1,$1+$1,$2,$3,$4,$5,0*
20,1,$1+$1,$4,$5,$6,$7,0*
20,1,$1+$1,$6,$7,$8,$9,0*
20,1,$1+$1,$8,$9,$2,$3,0*%
%AMFreePoly0*
4,1,19,0.500000,-0.750000,0.000000,-0.750000,0.000000,-0.744911,-0.071157,-0.744911,-0.207708,-0.704816,-0.327430,-0.627875,-0.420627,-0.520320,-0.479746,-0.390866,-0.500000,-0.250000,-0.500000,0.250000,-0.479746,0.390866,-0.420627,0.520320,-0.327430,0.627875,-0.207708,0.704816,-0.071157,0.744911,0.000000,0.744911,0.000000,0.750000,0.500000,0.750000,0.500000,-0.750000,0.500000,-0.750000,
$1*%
%AMFreePoly1*
4,1,19,0.000000,0.744911,0.071157,0.744911,0.207708,0.704816,0.327430,0.627875,0.420627,0.520320,0.479746,0.390866,0.500000,0.250000,0.500000,-0.250000,0.479746,-0.390866,0.420627,-0.520320,0.327430,-0.627875,0.207708,-0.704816,0.071157,-0.744911,0.000000,-0.744911,0.000000,-0.750000,-0.500000,-0.750000,-0.500000,0.750000,0.000000,0.750000,0.000000,0.744911,0.000000,0.744911,
$1*%
%AMFreePoly2*
4,1,19,0.550000,-0.750000,0.000000,-0.750000,0.000000,-0.744911,-0.071157,-0.744911,-0.207708,-0.704816,-0.327430,-0.627875,-0.420627,-0.520320,-0.479746,-0.390866,-0.500000,-0.250000,-0.500000,0.250000,-0.479746,0.390866,-0.420627,0.520320,-0.327430,0.627875,-0.207708,0.704816,-0.071157,0.744911,0.000000,0.744911,0.000000,0.750000,0.550000,0.750000,0.550000,-0.750000,0.550000,-0.750000,
$1*%
%AMFreePoly3*
4,1,19,0.000000,0.744911,0.071157,0.744911,0.207708,0.704816,0.327430,0.627875,0.420627,0.520320,0.479746,0.390866,0.500000,0.250000,0.500000,-0.250000,0.479746,-0.390866,0.420627,-0.520320,0.327430,-0.627875,0.207708,-0.704816,0.071157,-0.744911,0.000000,-0.744911,0.000000,-0.750000,-0.550000,-0.750000,-0.550000,0.750000,0.000000,0.750000,0.000000,0.744911,0.000000,0.744911,
$1*%
G04 Aperture macros list end*
%ADD10RoundRect,0.250000X0.845000X-0.620000X0.845000X0.620000X-0.845000X0.620000X-0.845000X-0.620000X0*%
%ADD11O,2.190000X1.740000*%
%ADD12C,3.900000*%
%ADD13C,2.000000*%
%ADD14R,1.700000X1.700000*%
%ADD15O,1.700000X1.700000*%
%ADD16C,1.800000*%
%ADD17C,2.200000*%
%ADD18C,2.800000*%
%ADD19C,1.400000*%
%ADD20C,1.500000*%
%ADD21C,0.650000*%
%ADD22O,1.000000X2.100000*%
%ADD23O,1.000000X1.600000*%
%ADD24C,3.000000*%
%ADD25C,1.000000*%
%ADD26RoundRect,0.250000X-0.250000X-0.475000X0.250000X-0.475000X0.250000X0.475000X-0.250000X0.475000X0*%
%ADD27RoundRect,0.250000X0.262500X0.450000X-0.262500X0.450000X-0.262500X-0.450000X0.262500X-0.450000X0*%
%ADD28FreePoly0,0.000000*%
%ADD29FreePoly1,0.000000*%
%ADD30FreePoly2,180.000000*%
%ADD31R,1.000000X1.500000*%
%ADD32FreePoly3,180.000000*%
%ADD33RoundRect,0.250000X-0.262500X-0.450000X0.262500X-0.450000X0.262500X0.450000X-0.262500X0.450000X0*%
%ADD34FreePoly0,270.000000*%
%ADD35FreePoly1,270.000000*%
%ADD36FreePoly2,0.000000*%
%ADD37FreePoly3,0.000000*%
%ADD38RoundRect,0.250000X0.250000X0.475000X-0.250000X0.475000X-0.250000X-0.475000X0.250000X-0.475000X0*%
%ADD39FreePoly0,90.000000*%
%ADD40FreePoly1,90.000000*%
G04 APERTURE END LIST*
D10*
%TO.C,J8*%
X98140000Y-105000000D03*
D11*
X98140000Y-102460000D03*
X98140000Y-99920000D03*
%TD*%
D12*
%TO.C,H4*%
X80200000Y-64450000D03*
%TD*%
D13*
%TO.C,J14*%
X149510000Y-126012000D03*
X152050000Y-126012000D03*
X154590000Y-126012000D03*
%TD*%
D12*
%TO.C,U2*%
X106000000Y-108000000D03*
X106000000Y-124000000D03*
X163800000Y-112200000D03*
X163800000Y-119800000D03*
D14*
X109150000Y-100500000D03*
D15*
X109150000Y-103040000D03*
X111690000Y-100500000D03*
X111690000Y-103040000D03*
X114230000Y-100500000D03*
X114230000Y-103040000D03*
X116770000Y-100500000D03*
X116770000Y-103040000D03*
X119310000Y-100500000D03*
X119310000Y-103040000D03*
D14*
X109150000Y-128960000D03*
D15*
X109150000Y-131500000D03*
X111690000Y-128960000D03*
X111690000Y-131500000D03*
X114230000Y-128960000D03*
X114230000Y-131500000D03*
X116770000Y-128960000D03*
X116770000Y-131500000D03*
X119310000Y-128960000D03*
X119310000Y-131500000D03*
D14*
X169250000Y-109650000D03*
D15*
X169250000Y-112190000D03*
X169250000Y-114730000D03*
X169250000Y-117270000D03*
X169250000Y-119810000D03*
X169250000Y-122350000D03*
%TD*%
D10*
%TO.C,J4*%
X98140000Y-121300000D03*
D11*
X98140000Y-118760000D03*
X98140000Y-116220000D03*
X98140000Y-113680000D03*
X98140000Y-111140000D03*
X98140000Y-108600000D03*
%TD*%
D10*
%TO.C,J11*%
X98140000Y-86547000D03*
D11*
X98140000Y-84007000D03*
X98140000Y-81467000D03*
X98140000Y-78927000D03*
%TD*%
D10*
%TO.C,J12*%
X87528000Y-85814000D03*
D11*
X87528000Y-83274000D03*
X87528000Y-80734000D03*
X87528000Y-78194000D03*
X87528000Y-75654000D03*
X87528000Y-73114000D03*
%TD*%
D13*
%TO.C,J13*%
X132100000Y-126012000D03*
X134640000Y-126012000D03*
X137180000Y-126012000D03*
%TD*%
D16*
%TO.C,J15*%
X157920000Y-125862000D03*
X160460000Y-125862000D03*
X163000000Y-125862000D03*
X165540000Y-125862000D03*
X168080000Y-125862000D03*
%TD*%
D10*
%TO.C,J5*%
X80528000Y-85814000D03*
D11*
X80528000Y-83274000D03*
X80528000Y-80734000D03*
X80528000Y-78194000D03*
X80528000Y-75654000D03*
X80528000Y-73114000D03*
%TD*%
D17*
%TO.C,J17*%
X86500000Y-107450000D03*
D18*
X82500000Y-107450000D03*
D17*
X86500000Y-122450000D03*
D18*
X82500000Y-122450000D03*
D19*
X88600000Y-113450000D03*
X88600000Y-116450000D03*
X86500000Y-117675000D03*
X84400000Y-117025000D03*
X84400000Y-114950000D03*
X84400000Y-112875000D03*
X86500000Y-112225000D03*
X86500000Y-114950000D03*
D20*
X82500000Y-114950000D03*
%TD*%
D21*
%TO.C,J6*%
X152390000Y-66205000D03*
X146610000Y-66205000D03*
D22*
X153820000Y-66705000D03*
D23*
X153820000Y-62525000D03*
D22*
X145180000Y-66705000D03*
D23*
X145180000Y-62525000D03*
%TD*%
D24*
%TO.C,TP2*%
X92175000Y-121800000D03*
%TD*%
D12*
%TO.C,H3*%
X80200000Y-130100000D03*
%TD*%
D17*
%TO.C,J2*%
X86475000Y-89000000D03*
D18*
X82475000Y-89000000D03*
D17*
X86475000Y-104000000D03*
D18*
X82475000Y-104000000D03*
D19*
X88575000Y-95000000D03*
X88575000Y-98000000D03*
X86475000Y-99225000D03*
X84375000Y-98575000D03*
X84375000Y-96500000D03*
X84375000Y-94425000D03*
X86475000Y-93775000D03*
X86475000Y-96500000D03*
D20*
X82475000Y-96500000D03*
%TD*%
D13*
%TO.C,J10*%
X141010000Y-126012000D03*
X143550000Y-126012000D03*
X146090000Y-126012000D03*
%TD*%
D10*
%TO.C,J3*%
X98140000Y-75350000D03*
D11*
X98140000Y-72810000D03*
X98140000Y-70270000D03*
X98140000Y-67730000D03*
X98140000Y-65190000D03*
X98140000Y-62650000D03*
%TD*%
D12*
%TO.C,U1*%
X106000000Y-70700000D03*
X106000000Y-86700000D03*
X163800000Y-74900000D03*
X163800000Y-82500000D03*
D14*
X109150000Y-63200000D03*
D15*
X109150000Y-65740000D03*
X111690000Y-63200000D03*
X111690000Y-65740000D03*
X114230000Y-63200000D03*
X114230000Y-65740000D03*
X116770000Y-63200000D03*
X116770000Y-65740000D03*
X119310000Y-63200000D03*
X119310000Y-65740000D03*
D14*
X109150000Y-91660000D03*
D15*
X109150000Y-94200000D03*
X111690000Y-91660000D03*
X111690000Y-94200000D03*
X114230000Y-91660000D03*
X114230000Y-94200000D03*
X116770000Y-91660000D03*
X116770000Y-94200000D03*
X119310000Y-91660000D03*
X119310000Y-94200000D03*
D14*
X169250000Y-72350000D03*
D15*
X169250000Y-74890000D03*
X169250000Y-77430000D03*
X169250000Y-79970000D03*
X169250000Y-82510000D03*
X169250000Y-85050000D03*
%TD*%
D21*
%TO.C,J1*%
X139340000Y-66205000D03*
X133560000Y-66205000D03*
D22*
X140770000Y-66705000D03*
D23*
X140770000Y-62525000D03*
D22*
X132130000Y-66705000D03*
D23*
X132130000Y-62525000D03*
%TD*%
D13*
%TO.C,J9*%
X123810000Y-126012000D03*
X126350000Y-126012000D03*
X128890000Y-126012000D03*
%TD*%
D25*
%TO.C,TP25*%
X101325000Y-87725000D03*
%TD*%
%TO.C,TP7*%
X123425000Y-64575000D03*
%TD*%
%TO.C,TP63*%
X94325000Y-108525000D03*
%TD*%
%TO.C,TP38*%
X106085000Y-62275000D03*
%TD*%
%TO.C,TP11*%
X89475000Y-64475000D03*
%TD*%
%TO.C,TP19*%
X91175000Y-66425000D03*
%TD*%
%TO.C,TP13*%
X90475000Y-72125000D03*
%TD*%
D26*
%TO.C,C5*%
X92955000Y-65005000D03*
X94855000Y-65005000D03*
%TD*%
D25*
%TO.C,TP4*%
X144975000Y-109975000D03*
%TD*%
%TO.C,TP61*%
X111575000Y-97375000D03*
%TD*%
%TO.C,TP59*%
X82125000Y-100175000D03*
%TD*%
%TO.C,TP8*%
X159675000Y-62675000D03*
%TD*%
%TO.C,TP55*%
X122800000Y-122150000D03*
%TD*%
D26*
%TO.C,C6*%
X92955000Y-73265000D03*
X94855000Y-73265000D03*
%TD*%
D27*
%TO.C,R6*%
X106567501Y-117294999D03*
X104742501Y-117294999D03*
%TD*%
D28*
%TO.C,JP4*%
X111975000Y-119375000D03*
D29*
X113275000Y-119375000D03*
%TD*%
D30*
%TO.C,JP3*%
X142325000Y-129525000D03*
D31*
X141025000Y-129525000D03*
D32*
X139725000Y-129525000D03*
%TD*%
D25*
%TO.C,TP50*%
X90075000Y-101825000D03*
%TD*%
%TO.C,TP56*%
X93525000Y-96725000D03*
%TD*%
D33*
%TO.C,R4*%
X92992500Y-71225000D03*
X94817500Y-71225000D03*
%TD*%
D34*
%TO.C,JP6*%
X78790000Y-114225000D03*
D35*
X78790000Y-115525000D03*
%TD*%
D25*
%TO.C,TP10*%
X85275000Y-64525000D03*
%TD*%
%TO.C,TP40*%
X143025000Y-64325000D03*
%TD*%
%TO.C,TP45*%
X129525000Y-113975000D03*
%TD*%
%TO.C,TP27*%
X101925000Y-122475000D03*
%TD*%
D33*
%TO.C,R1*%
X92992500Y-62945000D03*
X94817500Y-62945000D03*
%TD*%
D25*
%TO.C,TP36*%
X149425000Y-108725000D03*
%TD*%
%TO.C,TP44*%
X81625000Y-109975000D03*
%TD*%
%TO.C,TP51*%
X124975000Y-122100000D03*
%TD*%
%TO.C,TP52*%
X143475000Y-101375000D03*
%TD*%
%TO.C,TP34*%
X157225000Y-119075000D03*
%TD*%
%TO.C,TP48*%
X130575000Y-121675000D03*
%TD*%
D36*
%TO.C,JP11*%
X142325000Y-122640000D03*
D31*
X143625000Y-122640000D03*
D37*
X144925000Y-122640000D03*
%TD*%
D25*
%TO.C,TP24*%
X125925000Y-75225000D03*
%TD*%
%TO.C,TP12*%
X120500000Y-125750000D03*
%TD*%
D26*
%TO.C,C7*%
X92955000Y-69075000D03*
X94855000Y-69075000D03*
%TD*%
D38*
%TO.C,C10*%
X102720002Y-113045000D03*
X100820002Y-113045000D03*
%TD*%
D25*
%TO.C,TP60*%
X92275000Y-98375000D03*
%TD*%
%TO.C,TP57*%
X126075000Y-117625000D03*
%TD*%
D34*
%TO.C,JP7*%
X78820000Y-95485000D03*
D35*
X78820000Y-96785000D03*
%TD*%
D25*
%TO.C,TP6*%
X132275000Y-79925000D03*
%TD*%
D39*
%TO.C,JP15*%
X93375000Y-119024999D03*
D40*
X93375000Y-117725001D03*
%TD*%
D25*
%TO.C,TP37*%
X161225000Y-115875000D03*
%TD*%
D27*
%TO.C,R5*%
X103117500Y-119734999D03*
X101292500Y-119734999D03*
%TD*%
D28*
%TO.C,JP1*%
X111975000Y-114275000D03*
D29*
X113275000Y-114275000D03*
%TD*%
D30*
%TO.C,JP13*%
X150825000Y-129480000D03*
D31*
X149525000Y-129480000D03*
D32*
X148225000Y-129480000D03*
%TD*%
D34*
%TO.C,JP8*%
X114275000Y-72075000D03*
D35*
X114275000Y-73375000D03*
%TD*%
D25*
%TO.C,TP29*%
X152275000Y-108075000D03*
%TD*%
%TO.C,TP39*%
X148475000Y-63475000D03*
%TD*%
%TO.C,TP9*%
X146125000Y-88325000D03*
%TD*%
D38*
%TO.C,C11*%
X106355000Y-115205000D03*
X104455000Y-115205000D03*
%TD*%
D25*
%TO.C,TP23*%
X109625000Y-110875000D03*
%TD*%
%TO.C,TP14*%
X84725000Y-71275000D03*
%TD*%
%TO.C,TP30*%
X123575000Y-96325000D03*
%TD*%
%TO.C,TP5*%
X128375000Y-65325000D03*
%TD*%
D36*
%TO.C,JP12*%
X150225000Y-122645000D03*
D31*
X151525000Y-122645000D03*
D37*
X152825000Y-122645000D03*
%TD*%
D25*
%TO.C,TP42*%
X137225000Y-67775000D03*
%TD*%
%TO.C,TP21*%
X118250000Y-109575000D03*
%TD*%
D36*
%TO.C,JP10*%
X156625000Y-122775000D03*
D31*
X157925000Y-122775000D03*
D37*
X159225000Y-122775000D03*
%TD*%
D25*
%TO.C,TP41*%
X134825000Y-67525000D03*
%TD*%
%TO.C,TP43*%
X147725000Y-65475000D03*
%TD*%
D34*
%TO.C,JP2*%
X116775000Y-72075000D03*
D35*
X116775000Y-73375000D03*
%TD*%
D25*
%TO.C,TP17*%
X142775000Y-105125000D03*
%TD*%
%TO.C,TP3*%
X159975000Y-107825000D03*
%TD*%
%TO.C,TP49*%
X120500000Y-121575000D03*
%TD*%
%TO.C,TP35*%
X154075000Y-111275000D03*
%TD*%
%TO.C,TP1*%
X143925000Y-120175000D03*
%TD*%
%TO.C,TP47*%
X129175000Y-119625000D03*
%TD*%
%TO.C,TP46*%
X120550000Y-119375000D03*
%TD*%
%TO.C,TP28*%
X93475000Y-78625000D03*
%TD*%
D33*
%TO.C,R3*%
X92992500Y-67035000D03*
X94817500Y-67035000D03*
%TD*%
D25*
%TO.C,TP26*%
X93375000Y-75375000D03*
%TD*%
%TO.C,TP53*%
X88275000Y-105625000D03*
%TD*%
D38*
%TO.C,C9*%
X103145001Y-117714999D03*
X101245001Y-117714999D03*
%TD*%
D25*
%TO.C,TP33*%
X166825000Y-96775000D03*
%TD*%
D39*
%TO.C,JP14*%
X91425000Y-115624999D03*
D40*
X91425000Y-114325001D03*
%TD*%
D25*
%TO.C,TP15*%
X105475000Y-102325000D03*
%TD*%
%TO.C,TP16*%
X102625000Y-104075000D03*
%TD*%
%TO.C,TP54*%
X79775000Y-118075000D03*
%TD*%
%TO.C,TP32*%
X129175000Y-108925000D03*
%TD*%
D28*
%TO.C,JP5*%
X111975000Y-116825000D03*
D29*
X113275000Y-116825000D03*
%TD*%
D27*
%TO.C,R7*%
X102767500Y-115055000D03*
X100942500Y-115055000D03*
%TD*%
D25*
%TO.C,TP31*%
X141475000Y-114675000D03*
%TD*%
%TO.C,TP58*%
X158925000Y-90725000D03*
%TD*%
D34*
%TO.C,JP9*%
X111725000Y-72075000D03*
D35*
X111725000Y-73375000D03*
%TD*%
D25*
%TO.C,TP20*%
X126425000Y-72175000D03*
%TD*%
%TO.C,TP18*%
X103125000Y-76575000D03*
%TD*%
M02*
