M48
METRIC,TZ
T1C0.300
T2C0.300
T3C0.400
T4C0.600
T5C1.000
T6C4.500
T7C4.600
%
G90
G05
T1
X139380Y-96250
X139500Y-106600
X140100Y-106600
X140700Y-106600
X141300Y-106600
X141900Y-106600
X142500Y-82650
X142500Y-106600
X143100Y-82650
X143100Y-106600
X143200Y-94500
X143800Y-82650
X143840Y-106634
X143900Y-94500
X144400Y-82650
X144440Y-106634
X144440Y-107234
X144500Y-94500
X144500Y-95100
X144700Y-83250
X144700Y-83850
X144800Y-106000
X145000Y-82650
X145040Y-106634
X145040Y-107234
X145100Y-94500
X145100Y-95100
X145100Y-108000
X145260Y-95966
X145300Y-83250
X145300Y-83850
X145400Y-106000
X145600Y-82650
X145640Y-106634
X145640Y-107234
X145700Y-94500
X145700Y-95100
X145900Y-83250
X145900Y-83850
X146000Y-106000
X146200Y-82650
X146240Y-106634
X146240Y-107234
X146300Y-94500
X146300Y-95100
X146400Y-108000
X146500Y-83250
X146500Y-83850
X146560Y-95966
X146600Y-106000
X146800Y-82650
X146840Y-106634
X146840Y-107234
X146900Y-94500
X146900Y-95100
X147100Y-83250
X147100Y-83850
X147200Y-106000
X147363Y-82650
X147440Y-106634
X147440Y-107234
X147500Y-94500
X147500Y-95100
X147700Y-83250
X147700Y-83850
X147800Y-106000
X147962Y-82650
X148040Y-106634
X148040Y-107234
X148100Y-94500
X148100Y-95100
X148300Y-83250
X148300Y-83850
X148400Y-95700
X148400Y-96300
X148400Y-106000
X148606Y-82650
X148640Y-106634
X148640Y-107234
X148700Y-94500
X148700Y-95100
X148900Y-83250
X148900Y-83850
X149000Y-95700
X149000Y-96300
X149000Y-106000
X149100Y-108000
X149200Y-82650
X149240Y-106634
X149240Y-107234
X149300Y-94500
X149300Y-95100
X149500Y-83250
X149500Y-83850
X149600Y-95700
X149840Y-107334
X149854Y-108000
X149900Y-82650
X149900Y-95100
X150440Y-107334
X150500Y-95100
X150500Y-108000
X150600Y-82650
T2
X116875Y-98275
X116875Y-99375
X116875Y-100475
X117975Y-98275
X117975Y-99375
X117975Y-100475
T3
X115000Y-116000
X115858Y-101243
X117200Y-114200
X117722Y-102755
X120150Y-100900
X120250Y-98000
X122150Y-89750
X122288Y-91215
X123400Y-108800
X124430Y-88100
X125466Y-89914
X126086Y-88500
X133000Y-84700
X133200Y-83700
X133500Y-115196
X134544Y-115196
X134700Y-92496
X136017Y-92480
X136042Y-103027
X136700Y-99000
X136734Y-103748
X136805Y-100900
X136821Y-104744
X136850Y-111500
X137000Y-88200
X137035Y-95400
X137200Y-89900
X137500Y-106819
X137550Y-107900
X137900Y-115900
X138100Y-85550
X138600Y-94550
X138700Y-106600
X139090Y-90400
X139254Y-89464
X139300Y-113600
X139500Y-101336
X139500Y-102200
X139500Y-107600
X139536Y-112655
X139855Y-90894
X140000Y-114250
X140035Y-115350
X140040Y-102900
X140040Y-104400
X142665Y-84600
X142689Y-107697
X142900Y-96000
X143300Y-109800
X143600Y-86300
X143800Y-98000
X144050Y-114825
X144843Y-114920
X145576Y-114597
X148700Y-90317
X149400Y-102000
X149600Y-113800
X150525Y-117015
T4
X152350Y-114550
T5
X120650Y-84500
X120650Y-87040
X120650Y-112960
X120650Y-115500
X123190Y-84500
X123190Y-87040
X123190Y-112960
X123190Y-115500
X125730Y-84500
X125730Y-87040
X125730Y-112960
X125730Y-115500
X128270Y-84500
X128270Y-87040
X128270Y-112960
X128270Y-115500
X130810Y-84500
X130810Y-87040
X130810Y-112960
X130810Y-115500
X174500Y-87200
X174500Y-112800
X179500Y-87200
X179500Y-112800
X180750Y-93650
X180750Y-96190
X180750Y-98730
X180750Y-101270
X180750Y-103810
X180750Y-106350
T6
X124650Y-97250
X124650Y-102750
X129410Y-100000
T7
X159900Y-100000
X167100Y-100000
M30
